<svg width="16" height="15" viewBox="0 0 16 15" fill="none" xmlns="http://www.w3.org/2000/svg">
<path d="M10.6802 3.2097L12.8982 1.67668C12.8921 1.43991 12.9091 1.20314 12.9491 0.969706C12.9895 0.830036 13.0587 0.70036 13.1524 0.589151C13.246 0.477943 13.362 0.387677 13.4927 0.324137C13.6235 0.260596 13.7661 0.225214 13.9114 0.220316C14.0567 0.215417 14.2014 0.241105 14.3362 0.295694C14.4729 0.349607 14.5969 0.431327 14.7004 0.535684C14.8038 0.640042 14.8845 0.764729 14.9372 0.901895C14.99 1.03906 15.0136 1.1857 15.0068 1.3325C14.9999 1.47929 14.9625 1.62306 14.8971 1.75468C14.8326 1.88474 14.7419 2.00004 14.6307 2.0933C14.5194 2.18656 14.39 2.25577 14.2507 2.29655C14.1114 2.33732 13.9651 2.34874 13.8211 2.33018C13.6772 2.31162 13.5386 2.26348 13.4142 2.1887C13.3716 2.1517 13.3171 2.13127 13.2607 2.13127C13.2042 2.13127 13.1497 2.1517 13.1072 2.1887C12.4472 2.6537 11.7821 3.11065 11.1161 3.56565C11.0728 3.58542 11.0385 3.62076 11.0199 3.66465C11.0014 3.70855 11.0001 3.7578 11.0161 3.80265C11.0603 4.00802 11.0407 4.22197 10.9599 4.41587C10.8792 4.60978 10.741 4.7744 10.5641 4.88767C10.3859 5.00466 10.1758 5.06335 9.9628 5.05564C9.74979 5.04794 9.54443 4.97426 9.37516 4.84471C9.34204 4.81127 9.29785 4.79107 9.25089 4.78794C9.20393 4.78481 9.15742 4.79893 9.12015 4.82768C8.48115 5.20368 7.83713 5.57166 7.19913 5.95066C7.16914 5.97313 7.1446 6.00208 7.12729 6.03532C7.10999 6.06855 7.10037 6.10523 7.09916 6.14268C7.11896 6.28631 7.10902 6.43249 7.06998 6.57212C7.03094 6.71175 6.96359 6.84186 6.87217 6.95439C6.78074 7.06691 6.66717 7.15944 6.53849 7.22624C6.40981 7.29303 6.26876 7.33268 6.12412 7.34269C5.98229 7.34982 5.84048 7.3283 5.70713 7.27946C5.57378 7.23062 5.45167 7.15544 5.348 7.05839C5.24432 6.96134 5.16126 6.84441 5.10373 6.71458C5.04621 6.58474 5.0154 6.44464 5.01316 6.30265C5.00968 6.2884 5.00534 6.27438 5.00016 6.26066L3.02115 5.67265C2.90614 5.85424 2.7384 5.99642 2.54038 6.08006C2.34236 6.1637 2.12349 6.18482 1.91312 6.14067C1.66838 6.09057 1.4497 5.95454 1.29654 5.75718C1.14339 5.55982 1.06592 5.31419 1.07816 5.06468C1.09428 4.80841 1.20294 4.56674 1.38395 4.38462C1.56496 4.20251 1.80601 4.09236 2.06217 4.07469C2.31167 4.05743 2.5588 4.13242 2.75663 4.28544C2.95445 4.43846 3.08918 4.65887 3.13517 4.9047C3.13993 4.98519 3.1724 5.06152 3.22709 5.12077C3.28178 5.18001 3.3553 5.21847 3.43516 5.22965C3.96816 5.37665 4.49612 5.53767 5.02512 5.69767C5.0653 5.71568 5.1107 5.71854 5.15281 5.70567C5.19491 5.6928 5.23088 5.66506 5.25413 5.62766C5.3367 5.52228 5.43929 5.43426 5.55594 5.36857C5.6726 5.30288 5.80107 5.26083 5.934 5.24485C6.06692 5.22888 6.20164 5.23925 6.33054 5.27543C6.45944 5.31161 6.57996 5.37285 6.68516 5.45567C6.71627 5.48658 6.75753 5.50515 6.80131 5.50791C6.84508 5.51067 6.88838 5.49745 6.92313 5.47068C7.56213 5.09468 8.20618 4.7257 8.84318 4.3477C8.87438 4.32679 8.90043 4.29908 8.91947 4.2667C8.93851 4.23433 8.95005 4.19812 8.95316 4.16068C8.92105 3.95242 8.95362 3.73928 9.04642 3.55009C9.13923 3.3609 9.2878 3.20479 9.47214 3.1027C9.65939 2.99195 9.87666 2.9427 10.0934 2.96189C10.3101 2.98109 10.5153 3.06776 10.6802 3.2097ZM2.62717 5.12266C2.62304 4.99088 2.56801 4.86582 2.47367 4.77372C2.37933 4.68162 2.25297 4.62967 2.12113 4.6287C1.98943 4.63308 1.86455 4.68816 1.7725 4.78245C1.68045 4.87674 1.62839 5.00292 1.62717 5.13468C1.63156 5.26629 1.68667 5.39106 1.78098 5.48295C1.87529 5.57484 2.00148 5.6267 2.13315 5.62766C2.26493 5.62353 2.38999 5.56856 2.48209 5.47422C2.57419 5.37988 2.6262 5.2545 2.62717 5.12266ZM14.4361 1.28367C14.4338 1.15263 14.38 1.02778 14.2865 0.935953C14.193 0.844123 14.0672 0.792682 13.9361 0.792704C13.8054 0.795579 13.6811 0.849514 13.5897 0.942972C13.4983 1.03643 13.4471 1.16198 13.4471 1.2927C13.4472 1.35777 13.4604 1.42216 13.4857 1.4821C13.511 1.54204 13.548 1.59632 13.5946 1.64176C13.6411 1.68721 13.6963 1.72289 13.7569 1.74674C13.8174 1.7706 13.8821 1.78214 13.9471 1.78068C14.0775 1.77781 14.2016 1.72411 14.2929 1.63108C14.3843 1.53805 14.4356 1.41405 14.4361 1.28367ZM10.0111 4.50767C10.0759 4.50702 10.1398 4.49355 10.1993 4.468C10.2588 4.44244 10.3126 4.40532 10.3576 4.3588C10.4027 4.31229 10.438 4.25734 10.4616 4.19706C10.4852 4.13679 10.4966 4.07239 10.4952 4.00767C10.4949 3.94282 10.4817 3.87867 10.4563 3.81901C10.4309 3.75935 10.3937 3.70536 10.3471 3.66026C10.3005 3.61515 10.2454 3.57984 10.185 3.55638C10.1245 3.53292 10.06 3.52179 9.99515 3.52366C9.9303 3.5239 9.86616 3.53713 9.80649 3.56254C9.74683 3.58795 9.69285 3.62508 9.64774 3.67167C9.60264 3.71827 9.56732 3.77338 9.54386 3.83384C9.5204 3.8943 9.50928 3.95884 9.51114 4.02366C9.51192 4.08827 9.52546 4.15212 9.551 4.21147C9.57654 4.27081 9.61357 4.3245 9.65995 4.36949C9.70633 4.41447 9.76116 4.44983 9.82126 4.47355C9.88136 4.49727 9.94655 4.50886 10.0111 4.50767ZM6.55912 6.27665C6.55404 6.14925 6.50054 6.02866 6.40946 5.93943C6.31838 5.85021 6.19661 5.79912 6.06913 5.79667C5.9384 5.79664 5.81292 5.84779 5.71946 5.93919C5.626 6.03059 5.572 6.15499 5.56913 6.28568C5.57372 6.41361 5.6272 6.53488 5.71854 6.62455C5.80989 6.71422 5.93217 6.76546 6.06016 6.76768C6.19104 6.76717 6.31653 6.71538 6.40964 6.62339C6.50275 6.5314 6.55605 6.40655 6.55814 6.27567L6.55912 6.27665Z" fill="#8E8E8E"/>
<path d="M15.335 9.62712C15.335 10.9811 15.335 12.3354 15.335 13.6901C15.3496 13.8485 15.329 14.0081 15.2748 14.1576C15.2206 14.3072 15.134 14.4429 15.0213 14.5551C14.9086 14.6673 14.7726 14.7533 14.6228 14.8069C14.4731 14.8605 14.3133 14.8804 14.155 14.8652C13.966 14.8652 13.777 14.8652 13.589 14.8652C13.326 14.8604 13.0741 14.7583 12.882 14.5785C12.6899 14.3988 12.5713 14.1543 12.549 13.8921C12.541 13.8141 12.54 13.7361 12.54 13.6581C12.54 10.9628 12.54 8.26715 12.54 5.57115C12.522 5.39885 12.546 5.22471 12.6101 5.06377C12.6742 4.90282 12.7765 4.75986 12.908 4.64714C13.0761 4.51756 13.2725 4.42948 13.481 4.39012C13.7648 4.35184 14.0521 4.34716 14.337 4.37614C14.6141 4.38912 14.8749 4.51125 15.0623 4.71587C15.2497 4.92048 15.3484 5.19092 15.337 5.46812C15.337 6.85412 15.335 8.24112 15.335 9.62712ZM14.788 9.62712C14.788 8.26612 14.793 6.90414 14.781 5.54314C14.7774 5.37119 14.7185 5.20497 14.613 5.06914C14.4043 4.95452 14.1703 4.89392 13.9323 4.89287C13.6942 4.89182 13.4597 4.95038 13.25 5.06316C13.1866 5.13337 13.139 5.21638 13.1106 5.30662C13.0821 5.39687 13.0734 5.49219 13.085 5.5861C13.085 8.2761 13.085 10.9661 13.085 13.6561C13.085 13.7081 13.085 13.7561 13.085 13.8121C13.0866 13.8808 13.1017 13.9484 13.1295 14.0112C13.1574 14.0739 13.1973 14.1306 13.2472 14.1778C13.297 14.225 13.3557 14.2619 13.4199 14.2864C13.484 14.3108 13.5524 14.3222 13.621 14.3201C13.79 14.3201 13.96 14.3201 14.129 14.3201C14.591 14.3201 14.782 14.1302 14.782 13.6702C14.786 12.3208 14.788 10.9718 14.788 9.62315V9.62712Z" fill="#8E8E8E"/>
<path d="M11.3951 11.0556C11.3951 11.9406 11.3951 12.8266 11.3951 13.7116C11.4073 13.8667 11.3855 14.0227 11.3314 14.1686C11.2772 14.3145 11.1919 14.4469 11.0814 14.5565C10.971 14.6661 10.8379 14.7503 10.6916 14.8034C10.5453 14.8564 10.3892 14.877 10.2341 14.8636C10.0341 14.8636 9.84309 14.8636 9.64809 14.8636C9.37437 14.8604 9.11271 14.7505 8.91896 14.5571C8.72522 14.3637 8.61474 14.1023 8.6111 13.8286C8.6031 11.9732 8.6031 10.1176 8.6111 8.26156C8.61302 7.99451 8.71816 7.73852 8.90456 7.54727C9.09096 7.35602 9.34418 7.24434 9.6111 7.23556C9.8641 7.22356 10.1191 7.22356 10.3721 7.23556C10.6457 7.2416 10.9059 7.35496 11.0965 7.55124C11.2872 7.74751 11.393 8.01095 11.3911 8.28457C11.3991 9.20857 11.3911 10.1336 11.3911 11.0586L11.3951 11.0556ZM9.15407 11.0326C9.15407 11.9252 9.15407 12.8176 9.15407 13.7096C9.14213 13.7927 9.14985 13.8774 9.17659 13.957C9.20334 14.0366 9.24836 14.1088 9.30806 14.1678C9.36777 14.2268 9.44052 14.2711 9.5204 14.2969C9.60029 14.3227 9.68512 14.3294 9.76809 14.3166H10.1981C10.6611 14.3166 10.8471 14.1296 10.8471 13.6656C10.8471 12.3496 10.8471 11.0339 10.8471 9.71853C10.8471 9.24953 10.8471 8.78055 10.8471 8.31155C10.851 8.24115 10.8403 8.17074 10.8154 8.10476C10.7905 8.03879 10.7521 7.97871 10.7027 7.92843C10.6533 7.87816 10.5939 7.83875 10.5283 7.81277C10.4628 7.78679 10.3926 7.7748 10.3221 7.77755C10.1401 7.77055 9.9571 7.77755 9.7751 7.77755C9.3431 7.77755 9.15611 7.96657 9.15511 8.39657C9.15311 9.27524 9.15274 10.1539 9.15407 11.0326Z" fill="#8E8E8E"/>
<path d="M0.726053 11.5281C0.726053 10.8115 0.726053 10.0951 0.726053 9.37915C0.71136 9.22065 0.73184 9.06087 0.785989 8.91119C0.840138 8.76151 0.92665 8.62559 1.03935 8.51318C1.15204 8.40077 1.28815 8.31463 1.43797 8.26086C1.58778 8.20709 1.74759 8.18705 1.90605 8.20214C2.08805 8.20214 2.27104 8.20214 2.45304 8.20214C2.59219 8.19976 2.73044 8.22504 2.85972 8.27655C2.989 8.32806 3.10672 8.40477 3.20609 8.50219C3.30547 8.59961 3.38451 8.71582 3.43858 8.84405C3.49264 8.97228 3.52066 9.10998 3.52104 9.24914C3.53437 10.7731 3.53437 12.2972 3.52104 13.8212C3.5197 13.9626 3.48994 14.1022 3.43345 14.2319C3.37696 14.3615 3.2949 14.4784 3.19224 14.5757C3.08958 14.6729 2.96841 14.7485 2.83592 14.7978C2.70342 14.8472 2.56232 14.8695 2.42106 14.8632C2.22573 14.8632 2.03039 14.8632 1.83506 14.8632C1.68794 14.8683 1.54133 14.8431 1.40434 14.7892C1.26735 14.7354 1.14292 14.6539 1.03874 14.5499C0.934551 14.4459 0.852875 14.3216 0.798746 14.1847C0.744616 14.0479 0.719151 13.9013 0.724038 13.7541C0.722038 13.0141 0.726053 12.2701 0.726053 11.5281ZM1.27305 11.5211C1.27305 12.2501 1.27305 12.9791 1.27305 13.7081C1.26199 13.7915 1.27038 13.8763 1.29759 13.9558C1.32479 14.0353 1.37007 14.1075 1.42985 14.1666C1.48963 14.2257 1.56234 14.2701 1.64219 14.2964C1.72204 14.3227 1.80685 14.3302 1.89005 14.3182H2.33909C2.78309 14.3182 2.97908 14.1182 2.98008 13.6732C2.98008 12.9965 2.98008 12.3195 2.98008 11.6421C2.98008 10.8741 2.98008 10.1062 2.98008 9.34216C2.98889 9.26375 2.9801 9.18433 2.95439 9.10974C2.92867 9.03515 2.88666 8.96726 2.8314 8.91095C2.77614 8.85463 2.70902 8.81136 2.63493 8.78424C2.56084 8.75711 2.48161 8.74682 2.40305 8.75415C2.24005 8.75415 2.07808 8.75415 1.91508 8.75415C1.46708 8.75415 1.27506 8.94815 1.27506 9.39715C1.27306 10.1032 1.27238 10.8118 1.27305 11.5211Z" fill="#8E8E8E"/>
<path d="M4.66703 12.0957C4.66703 11.5487 4.66703 11.0017 4.66703 10.4537C4.66067 10.3066 4.68489 10.1599 4.73819 10.0227C4.7915 9.88553 4.87269 9.76095 4.97666 9.65679C5.08062 9.55264 5.20512 9.47115 5.3422 9.4176C5.47927 9.36404 5.62594 9.33955 5.77298 9.34564C5.98798 9.34564 6.203 9.34564 6.418 9.34564C6.67838 9.34615 6.92897 9.4449 7.11972 9.62213C7.31048 9.79935 7.42735 10.042 7.44699 10.3016C7.47499 10.7016 7.46201 11.0957 7.46201 11.4927C7.46201 12.216 7.46201 12.939 7.46201 13.6616C7.47994 13.8236 7.46123 13.9875 7.40726 14.1412C7.35329 14.295 7.26546 14.4347 7.15024 14.5499C7.03502 14.6651 6.89536 14.7529 6.74161 14.8069C6.58786 14.8608 6.42395 14.8796 6.262 14.8617C6.093 14.8617 5.923 14.8617 5.754 14.8617C5.6102 14.8645 5.46729 14.8383 5.33383 14.7847C5.20038 14.731 5.07911 14.6511 4.97727 14.5496C4.87543 14.448 4.79512 14.3269 4.74112 14.1936C4.68712 14.0603 4.66055 13.9175 4.663 13.7737C4.664 13.2167 4.66703 12.6557 4.66703 12.0957ZM5.21402 12.0867C5.21402 12.6337 5.21402 13.1807 5.21402 13.7267C5.2054 13.8066 5.21487 13.8875 5.24173 13.9633C5.26859 14.039 5.31213 14.1078 5.36917 14.1644C5.42622 14.2211 5.4953 14.2642 5.57126 14.2905C5.64722 14.3169 5.72814 14.3258 5.80802 14.3166C5.94502 14.3166 6.08099 14.3166 6.21799 14.3166C6.74299 14.3166 6.918 14.1437 6.918 13.6167C6.918 12.7834 6.918 11.95 6.918 11.1166C6.918 10.8826 6.926 10.6477 6.918 10.4167C6.91942 10.3462 6.90613 10.2761 6.879 10.211C6.85187 10.1459 6.81149 10.0871 6.76041 10.0385C6.70933 9.98988 6.64866 9.95243 6.58231 9.92852C6.51596 9.90461 6.44539 9.89478 6.37503 9.89965C6.18603 9.89965 5.99799 9.89965 5.80899 9.89965C5.72914 9.89037 5.64822 9.89935 5.57236 9.92596C5.4965 9.95257 5.42768 9.99615 5.37113 10.0533C5.31457 10.1104 5.27178 10.1797 5.24594 10.2558C5.22011 10.3319 5.21192 10.4129 5.22202 10.4927C5.21302 11.0197 5.21402 11.5507 5.21402 12.0867Z" fill="#8E8E8E"/>
</svg>
