<svg width="34" height="42" viewBox="0 0 34 42" fill="none" xmlns="http://www.w3.org/2000/svg">
<path d="M20.3841 35.9229C20.0772 35.9218 19.7794 36.0261 19.5402 36.2184C19.301 36.4106 19.1351 36.679 19.0701 36.9789C18.9915 37.3911 18.8141 37.7782 18.5531 38.1069C18.3432 38.3328 18.0829 38.506 17.7933 38.6122C17.5038 38.7183 17.1933 38.7546 16.8871 38.7179C16.581 38.7519 16.2713 38.7145 15.9821 38.6084C15.693 38.5024 15.4325 38.3307 15.2211 38.1069C14.96 37.7782 14.7826 37.3911 14.7041 36.9789C14.639 36.679 14.4731 36.4106 14.2339 36.2184C13.9948 36.0261 13.6969 35.9218 13.3901 35.9229C13.1879 35.9233 12.9884 35.9692 12.8064 36.0571C12.6243 36.145 12.4643 36.2726 12.3382 36.4306C12.212 36.5886 12.123 36.7729 12.0776 36.9699C12.0323 37.1669 12.0317 37.3716 12.0761 37.5689C12.2668 38.688 12.8627 39.6979 13.7501 40.4061C14.6375 41.1142 15.7544 41.4712 16.8881 41.4089C18.0221 41.4732 19.1401 41.117 20.0279 40.4085C20.9158 39.7 21.5111 38.6889 21.7001 37.5689C21.7434 37.3717 21.7422 37.1674 21.6964 36.9707C21.6507 36.7741 21.5616 36.5902 21.4356 36.4325C21.3097 36.2747 21.1501 36.1471 20.9685 36.0589C20.7869 35.9707 20.5879 35.9243 20.3861 35.9229H20.3841Z" fill="#33363E"/>
<path d="M33.041 30.67C31.447 28.57 28.311 27.338 28.311 17.93C28.311 8.274 24.047 4.393 20.073 3.462C19.7 3.369 19.431 3.245 19.431 2.851V2.551C19.4346 1.88506 19.1763 1.24439 18.7118 0.767172C18.2473 0.289954 17.6138 0.0144221 16.948 0H16.886C16.2204 0.0133745 15.5867 0.287759 15.1215 0.764011C14.6562 1.24026 14.3968 1.88024 14.399 2.546V2.846C14.399 3.229 14.13 3.363 13.757 3.457C9.77303 4.399 5.51902 8.269 5.51902 17.925C5.51902 27.333 2.38302 28.554 0.789024 30.665C0.558681 30.9703 0.418166 31.3339 0.383306 31.7148C0.348446 32.0957 0.420626 32.4787 0.591715 32.8208C0.762805 33.1629 1.02601 33.4504 1.35168 33.651C1.67735 33.8515 2.05255 33.9572 2.43502 33.956H31.427C31.8056 33.9499 32.1752 33.8393 32.4949 33.6365C32.8147 33.4337 33.0722 33.1465 33.2391 32.8067C33.4061 32.4668 33.4759 32.0875 33.441 31.7104C33.406 31.3334 33.2676 30.9734 33.041 30.67ZM29.005 31.27H4.87002C4.7822 31.2706 4.6961 31.2457 4.62214 31.1983C4.54819 31.151 4.48956 31.0832 4.45336 31.0031C4.41716 30.9231 4.40495 30.8343 4.4182 30.7475C4.43145 30.6607 4.4696 30.5796 4.52802 30.514C5.43596 29.4871 6.16936 28.3183 6.69902 27.054C7.79325 24.1397 8.29637 21.0367 8.17902 17.926C8.17902 14.066 8.90302 11.044 10.342 8.943C11.2622 7.51345 12.6957 6.49126 14.347 6.087C15.0862 5.93381 15.7591 5.55382 16.272 5C16.3473 4.9108 16.4408 4.83874 16.5462 4.78866C16.6516 4.73857 16.7666 4.71164 16.8833 4.70965C17 4.70766 17.1157 4.73066 17.2228 4.77712C17.3299 4.82358 17.4258 4.89242 17.504 4.979C18.0248 5.53759 18.7037 5.92382 19.45 6.086C21.1014 6.49026 22.5348 7.51245 23.455 8.942C24.894 11.042 25.618 14.065 25.618 17.925C25.5007 21.0357 26.0038 24.1387 27.098 27.053C27.6418 28.3367 28.3936 29.5219 29.323 30.561C29.3767 30.6226 29.4116 30.6984 29.4236 30.7792C29.4356 30.86 29.4242 30.9426 29.3907 31.0172C29.3573 31.0917 29.3032 31.1552 29.2348 31.2C29.1665 31.2448 29.0867 31.2691 29.005 31.27Z" fill="#33363E"/>
</svg>
