<svg width="20" height="19" viewBox="0 0 20 19" fill="none" xmlns="http://www.w3.org/2000/svg">
<path d="M8.21304 17.0363C8.21304 17.1946 8.16612 17.3492 8.07821 17.4808C7.99031 17.6123 7.86537 17.7149 7.71918 17.7754C7.573 17.836 7.41215 17.8518 7.25697 17.821C7.10178 17.7901 6.95923 17.7139 6.84735 17.602C6.73547 17.4901 6.65928 17.3476 6.62841 17.1924C6.59754 17.0372 6.61338 16.8764 6.67393 16.7302C6.73448 16.584 6.83702 16.4591 6.96858 16.3712C7.10014 16.2832 7.25481 16.2363 7.41304 16.2363C7.5181 16.2363 7.62212 16.257 7.71918 16.2972C7.81625 16.3374 7.90444 16.3964 7.97872 16.4706C8.05301 16.5449 8.11194 16.6331 8.15214 16.7302C8.19235 16.8272 8.21304 16.9313 8.21304 17.0363Z" stroke="#8E8E8E" stroke-width="1.3" stroke-linecap="round" stroke-linejoin="round"/>
<path d="M17.034 17.0363C17.034 17.1946 16.987 17.3492 16.8991 17.4808C16.8112 17.6123 16.6863 17.7149 16.5401 17.7754C16.3939 17.836 16.2331 17.8518 16.0779 17.821C15.9227 17.7901 15.7802 17.7139 15.6683 17.602C15.5564 17.4901 15.4802 17.3476 15.4493 17.1924C15.4185 17.0372 15.4343 16.8764 15.4949 16.7302C15.5554 16.584 15.6579 16.4591 15.7895 16.3712C15.9211 16.2832 16.0757 16.2363 16.234 16.2363C16.4461 16.2363 16.6496 16.3206 16.7996 16.4706C16.9497 16.6207 17.034 16.8242 17.034 17.0363Z" stroke="#8E8E8E" stroke-width="1.3" stroke-linecap="round" stroke-linejoin="round"/>
<path d="M1 1H4.208L6.357 11.737C6.42954 12.1059 6.62964 12.4374 6.92221 12.6735C7.21478 12.9096 7.58113 13.0351 7.957 13.028H15.751C16.1269 13.0351 16.4932 12.9096 16.7858 12.6735C17.0784 12.4374 17.2785 12.1059 17.351 11.737L18.634 5.009H5.009" stroke="#8E8E8E" stroke-width="1.3" stroke-linecap="round" stroke-linejoin="round"/>
</svg>
