<svg width="17" height="17" viewBox="0 0 17 17" fill="none" xmlns="http://www.w3.org/2000/svg">
<path d="M11.3641 0C11.4471 0.027 11.5331 0.0479844 11.6121 0.0839844C11.8222 0.16408 12.0026 0.306609 12.1292 0.492371C12.2558 0.678132 12.3224 0.898208 12.3201 1.12299C12.3311 1.63399 12.3201 2.14598 12.3201 2.65698C12.3201 2.71598 12.3201 2.77499 12.3201 2.85699H15.72C15.858 2.83811 15.9985 2.85149 16.1304 2.89612C16.2624 2.94074 16.3823 3.01542 16.4805 3.1142C16.5787 3.21297 16.6525 3.33314 16.6963 3.46533C16.7402 3.59753 16.7529 3.7381 16.7332 3.87598C16.7332 4.55798 16.7332 5.24 16.7332 5.922C16.7489 6.05734 16.7339 6.1945 16.6893 6.32324C16.6446 6.45198 16.5715 6.569 16.4754 6.66559C16.3793 6.76217 16.2626 6.83584 16.1341 6.8811C16.0056 6.92636 15.8686 6.94205 15.7332 6.927C15.494 6.89461 15.2509 6.90479 15.0152 6.95703C14.8152 7.03903 14.6671 7.26703 14.4971 7.43103C14.2421 7.67803 13.9972 7.69901 13.7772 7.42401C13.6375 7.23701 13.45 7.09109 13.2344 7.00153C13.0189 6.91196 12.7831 6.88203 12.5521 6.91498C11.8901 6.96098 11.5372 6.57402 11.5362 5.90802C11.5362 5.65602 11.5362 5.40801 11.5362 5.18201C11.0732 5.18201 10.6241 5.17499 10.1761 5.18799C10.07 5.19743 9.97027 5.24254 9.89312 5.31598C9.71612 5.48798 9.56012 5.68201 9.39312 5.86401C9.34719 5.92509 9.28767 5.97466 9.2193 6.00879C9.15092 6.04292 9.0755 6.06067 8.99908 6.06067C8.92266 6.06067 8.84724 6.04292 8.77887 6.00879C8.71049 5.97466 8.65097 5.92509 8.60504 5.86401C8.46204 5.70501 8.31319 5.54901 8.18219 5.38C8.13351 5.30978 8.06667 5.25409 7.98883 5.21887C7.91098 5.18365 7.82493 5.1702 7.74005 5.17999C7.55905 5.19299 7.3771 5.17999 7.1961 5.17999C7.0701 5.17999 6.9432 5.18599 6.8172 5.17999C6.6912 5.17399 6.56913 5.15002 6.42413 5.13202C6.42413 5.41802 6.42413 5.70199 6.42413 5.98499C6.43013 6.10614 6.41168 6.22729 6.36993 6.34119C6.32819 6.45508 6.26408 6.55943 6.18121 6.64801C6.09548 6.73798 5.99188 6.80922 5.87725 6.85724C5.76263 6.90526 5.63945 6.929 5.51519 6.927C5.33935 6.93731 5.16297 6.93731 4.98712 6.927C4.89534 6.91401 4.80189 6.92567 4.71612 6.96082C4.63036 6.99597 4.55534 7.05335 4.49908 7.12701C4.38499 7.25381 4.26343 7.3737 4.13507 7.48602C4.09608 7.5274 4.04908 7.56035 3.99688 7.58289C3.94469 7.60542 3.88845 7.61707 3.8316 7.61707C3.77475 7.61707 3.71851 7.60542 3.66632 7.58289C3.61413 7.56035 3.56712 7.5274 3.52813 7.48602C3.36613 7.33702 3.22021 7.17102 3.05621 7.02502C2.99278 6.96829 2.91289 6.93322 2.82818 6.92499C2.60318 6.91199 2.37716 6.92498 2.15216 6.91998C2.0292 6.92412 1.90658 6.90277 1.79229 6.85724C1.678 6.81171 1.57452 6.74301 1.48809 6.65546C1.40167 6.5679 1.33414 6.46338 1.2901 6.34851C1.24605 6.23364 1.2265 6.11087 1.23224 5.98798C1.23224 5.25464 1.23224 4.52334 1.23224 3.79401C1.22431 3.66829 1.24311 3.54233 1.28766 3.4245C1.33221 3.30667 1.40142 3.19968 1.49054 3.11066C1.57966 3.02163 1.68663 2.95263 1.8045 2.9082C1.92238 2.86378 2.04842 2.84497 2.17413 2.85303C3.26813 2.85303 4.36309 2.85303 5.45709 2.85303H5.67804V2.664C5.67804 2.18 5.67804 1.69598 5.67804 1.21198C5.65765 0.940154 5.73675 0.670228 5.90045 0.452271C6.06415 0.234313 6.30144 0.0831538 6.56817 0.0269775C6.58249 0.0200457 6.59571 0.0109601 6.60724 0H8.0921C8.2131 0.076 8.29913 0.174989 8.24713 0.325989C8.19513 0.476989 8.06711 0.498033 7.92511 0.496033C7.57311 0.496033 7.2252 0.496033 6.8692 0.496033C6.7748 0.485942 6.67917 0.497076 6.58966 0.528687C6.50014 0.560297 6.41899 0.611521 6.35186 0.67865C6.28474 0.745779 6.23333 0.827109 6.20172 0.916626C6.17011 1.00614 6.15891 1.10159 6.169 1.19598C6.169 2.12532 6.169 3.05468 6.169 3.98401C6.15985 4.07821 6.17173 4.17324 6.20367 4.26233C6.23561 4.35142 6.2869 4.43235 6.35382 4.49927C6.42074 4.56619 6.50179 4.61747 6.59088 4.64941C6.67997 4.68135 6.775 4.69318 6.8692 4.68402C7.1822 4.68402 7.49614 4.69102 7.80914 4.68402C7.94409 4.67734 8.07861 4.70319 8.20147 4.7594C8.32434 4.81561 8.43201 4.90054 8.51519 5.00702C8.67019 5.19102 8.83308 5.37002 8.99908 5.55902L9.53717 4.95898C9.61223 4.87076 9.70588 4.80039 9.81158 4.75299C9.91728 4.70559 10.0322 4.68237 10.148 4.685C10.4813 4.685 10.8116 4.685 11.1382 4.685C11.2308 4.6917 11.3236 4.67826 11.4105 4.64557C11.4973 4.61288 11.5762 4.56173 11.6414 4.49567C11.7066 4.4296 11.7566 4.35018 11.7881 4.26288C11.8197 4.17558 11.8319 4.08248 11.824 3.98999C11.824 3.05666 11.824 2.12334 11.824 1.19C11.8315 1.09758 11.8188 1.00463 11.7867 0.917664C11.7545 0.830692 11.7038 0.751789 11.638 0.686462C11.5722 0.621136 11.493 0.570945 11.4058 0.539429C11.3186 0.507913 11.2255 0.495865 11.1331 0.504028C10.5111 0.504028 9.88946 0.504028 9.26812 0.504028C9.12912 0.504028 9.00217 0.492027 8.94317 0.340027C8.88417 0.188027 8.97904 0.0939956 9.08404 0.00799561L11.3641 0ZM5.68219 3.36798C5.65683 3.35946 5.63058 3.35343 5.60406 3.34998C4.44906 3.34998 3.29422 3.34998 2.13922 3.34998C2.08217 3.34638 2.02486 3.35547 1.97174 3.37659C1.91862 3.3977 1.87086 3.43032 1.83184 3.47211C1.79283 3.51389 1.76358 3.56384 1.74615 3.61829C1.72873 3.67273 1.72352 3.73032 1.73101 3.78699C1.73101 4.52032 1.73101 5.25168 1.73101 5.98102C1.72412 6.04047 1.73082 6.1007 1.7503 6.15729C1.76979 6.21388 1.80178 6.26538 1.84381 6.30798C1.88584 6.35059 1.9369 6.38325 1.99322 6.4035C2.04954 6.42376 2.10946 6.43107 2.169 6.42499C2.383 6.42499 2.59807 6.43499 2.81207 6.42499C2.92745 6.41577 3.04353 6.43412 3.15045 6.47845C3.25737 6.52279 3.35206 6.59183 3.42706 6.67999C3.55406 6.81999 3.69421 6.94898 3.85821 7.11298C4.02421 6.93298 4.17008 6.76798 4.32208 6.61298C4.37881 6.55264 4.4479 6.50513 4.52447 6.47357C4.60104 6.44201 4.6834 6.42715 4.76617 6.42999C4.99684 6.42999 5.22771 6.42999 5.45904 6.42999C5.78104 6.42999 5.92601 6.28703 5.92901 5.97003C5.92901 5.60203 5.92901 5.23299 5.92901 4.86499C5.92756 4.80028 5.90897 4.73714 5.87506 4.68201C5.74474 4.48282 5.67761 4.24897 5.68219 4.01099C5.68819 3.79499 5.68512 3.58198 5.68512 3.36798H5.68219ZM14.1531 7.12799C14.3071 6.95599 14.437 6.81498 14.563 6.66998C14.6359 6.58381 14.7286 6.51654 14.8331 6.47388C14.9375 6.43122 15.0508 6.41444 15.1631 6.42499C15.3501 6.43499 15.5372 6.42499 15.7242 6.42499C16.0972 6.42499 16.2361 6.28899 16.2361 5.92499C16.2361 5.23232 16.2361 4.53965 16.2361 3.84698C16.2361 3.48498 16.0991 3.34698 15.7361 3.34698H12.5032C12.4452 3.34698 12.3871 3.35302 12.3211 3.35602C12.3211 3.56702 12.3161 3.75599 12.3211 3.95099C12.3348 4.23337 12.2504 4.51183 12.0821 4.73901C12.0496 4.78794 12.0322 4.84528 12.032 4.90399C12.028 5.26132 12.028 5.61868 12.032 5.97601C12.024 6.03697 12.0301 6.099 12.0499 6.15723C12.0696 6.21546 12.1025 6.26833 12.1461 6.31177C12.1896 6.3552 12.2426 6.38801 12.3008 6.40765C12.3591 6.4273 12.4213 6.43321 12.4822 6.42499C12.7082 6.42499 12.933 6.43199 13.158 6.42499C13.2597 6.41928 13.3615 6.43687 13.4554 6.47638C13.5493 6.51589 13.633 6.5763 13.7 6.65302C13.84 6.79902 13.9771 6.94099 14.1551 7.12799H14.1531Z" fill="#8E8E8E"/>
<path d="M2.19419 11.2752C2.39419 11.1232 2.58504 10.9624 2.79404 10.8334C2.98057 10.7284 3.17376 10.6355 3.37216 10.5553C3.55796 10.4847 3.72479 10.3719 3.85947 10.2258C3.99415 10.0797 4.09288 9.90416 4.14804 9.71324C4.17241 9.65247 4.18208 9.58693 4.17636 9.52171C4.17065 9.45649 4.14965 9.39347 4.11508 9.33787C4.08052 9.28227 4.03335 9.23562 3.97739 9.20164C3.92143 9.16766 3.85834 9.14734 3.79306 9.14231C3.49783 9.09178 3.19418 9.13886 2.92807 9.27635C2.87807 9.29835 2.82815 9.32629 2.77915 9.34629C2.75163 9.35975 2.7216 9.36748 2.69101 9.369C2.66042 9.37052 2.62988 9.36574 2.60117 9.35508C2.57246 9.34442 2.5462 9.3281 2.52402 9.30699C2.50184 9.28587 2.48408 9.26043 2.47202 9.23228C2.45573 9.2077 2.4448 9.18012 2.43955 9.1511C2.4343 9.12208 2.43486 9.09231 2.4415 9.06358C2.44815 9.03485 2.46066 9.00775 2.47812 8.98399C2.49558 8.96022 2.51763 8.9402 2.54306 8.92527C2.77798 8.76468 3.04933 8.6653 3.33237 8.63596C3.61541 8.60663 3.9013 8.6483 4.16416 8.7573C4.30048 8.84643 4.42523 8.95184 4.53598 9.07127C4.57734 9.11225 4.63125 9.13826 4.68906 9.14524C4.86616 9.12748 5.04515 9.14635 5.21469 9.20054C5.38424 9.25473 5.54068 9.34312 5.67465 9.46031C5.80863 9.5775 5.91724 9.72099 5.9935 9.88181C6.06977 10.0426 6.11206 10.2173 6.11801 10.3952C6.14976 10.9036 6.0283 11.4098 5.76914 11.8482C5.75614 11.8722 5.74499 11.9053 5.72299 11.9153C5.52299 12.0153 5.51303 12.2323 5.40903 12.3913C5.23003 12.6663 5.03116 12.9283 4.84116 13.1913C4.81616 13.2263 4.76916 13.2602 4.76816 13.2912C4.76149 13.5219 4.76149 13.753 4.76816 13.9844C4.76816 14.0124 4.82103 14.0483 4.85703 14.0633C5.12503 14.1773 5.39313 14.2903 5.66513 14.3933C5.71854 14.4033 5.7738 14.3921 5.81919 14.3623C5.99212 14.2395 6.17191 14.127 6.358 14.0252C6.824 13.8162 7.29904 13.6253 7.77304 13.4393C7.86304 13.4033 7.90614 13.3583 7.89414 13.2583C7.88665 13.1918 7.88665 13.1248 7.89414 13.0583C7.93621 12.886 7.92726 12.7051 7.8685 12.5377C7.80974 12.3703 7.70365 12.2236 7.56308 12.1153C7.52524 12.0831 7.49449 12.0431 7.47299 11.9983C7.43725 11.9482 7.42259 11.8863 7.43174 11.8254C7.44088 11.7646 7.47319 11.7097 7.52207 11.6723C7.54598 11.6512 7.574 11.635 7.60434 11.625C7.63468 11.615 7.66676 11.6113 7.69858 11.6141C7.7304 11.6169 7.76128 11.6262 7.7894 11.6413C7.81752 11.6565 7.84232 11.6772 7.86215 11.7022C7.94516 11.7902 8.0161 11.8893 8.1041 11.9723C8.22446 12.0986 8.37021 12.1981 8.53183 12.2639C8.69346 12.3297 8.8672 12.3604 9.0416 12.3541C9.216 12.3478 9.38713 12.3045 9.54355 12.2272C9.69998 12.1498 9.83819 12.04 9.94907 11.9053C10.4168 11.3692 10.6722 10.6807 10.6671 9.96934C10.6553 9.87946 10.6135 9.79617 10.5482 9.73325C10.3952 9.56425 10.229 9.40729 10.066 9.24729C10.0401 9.2226 10.0079 9.20528 9.97299 9.19724C9.76699 9.15024 9.56105 9.10735 9.32505 9.05735L9.2601 9.13328C9.12502 9.2945 8.95694 9.42487 8.76718 9.5156C8.57743 9.60634 8.37031 9.65534 8.16001 9.65928C8.10719 9.65789 8.05504 9.66997 8.00815 9.69431C7.83415 9.80631 7.67101 9.93426 7.49301 10.0403C7.43633 10.0615 7.3903 10.104 7.36435 10.1587C7.33841 10.2134 7.33467 10.276 7.3541 10.3334C7.3891 10.4654 7.4102 10.6013 7.4332 10.7333C7.44389 10.7662 7.44741 10.8011 7.4437 10.8355C7.43999 10.87 7.42894 10.9033 7.41147 10.9332C7.39401 10.9631 7.37055 10.9891 7.34238 11.0093C7.31421 11.0294 7.2821 11.0434 7.24814 11.0503C7.21403 11.0583 7.1785 11.0589 7.14414 11.0521C7.10978 11.0453 7.07736 11.0311 7.04892 11.0106C7.02049 10.9901 6.99673 10.9639 6.97934 10.9335C6.96195 10.903 6.95131 10.8692 6.94809 10.8343C6.93444 10.7034 6.89518 10.5765 6.83237 10.4608C6.76956 10.3451 6.68448 10.243 6.58213 10.1603C6.4581 10.0339 6.36353 9.88176 6.30527 9.71458C6.24701 9.54739 6.22657 9.3694 6.24521 9.19334C6.24714 9.04674 6.20935 8.90224 6.13608 8.77525C6.04784 8.61772 5.99566 8.44268 5.98325 8.26255C5.97084 8.08242 5.9985 7.90176 6.0643 7.73362C6.13011 7.56548 6.23248 7.414 6.36386 7.29014C6.49525 7.16628 6.65234 7.0731 6.82407 7.01731C6.87284 7.00509 6.91827 6.98201 6.95688 6.94981C6.99549 6.9176 7.02644 6.87707 7.04721 6.83128C7.10411 6.71761 7.18379 6.61687 7.28134 6.53538C7.3789 6.45389 7.49212 6.3934 7.61411 6.35764C7.73609 6.32189 7.86422 6.31168 7.99033 6.32762C8.11644 6.34355 8.23776 6.38532 8.34702 6.4503C8.38139 6.47478 8.42191 6.4895 8.46396 6.49302C8.50602 6.49654 8.54807 6.48875 8.58603 6.47032C8.80922 6.3781 9.05712 6.36385 9.2894 6.42991C9.52168 6.49596 9.72479 6.63847 9.86606 6.83433C9.89606 6.87333 9.923 6.91425 9.931 6.92625C10.1364 6.90155 10.3438 6.89694 10.5501 6.91233C10.7667 6.94991 10.962 7.06535 11.0992 7.23704C11.2365 7.40873 11.3061 7.62481 11.295 7.84434C11.2891 7.88897 11.2969 7.93431 11.3172 7.97447C11.3376 8.01463 11.3695 8.0477 11.409 8.06931C11.5656 8.16978 11.6864 8.31729 11.7538 8.4907C11.8211 8.66411 11.8317 8.85444 11.784 9.03428C11.7022 9.44115 11.5044 9.81559 11.2142 10.1123C11.1676 10.1778 11.1416 10.2559 11.14 10.3363C11.0739 11.0709 10.7621 11.7618 10.255 12.2973C10.2026 12.3431 10.1618 12.4005 10.1356 12.4649C10.1094 12.5294 10.0986 12.599 10.1041 12.6683C10.1141 12.8683 10.1042 13.0753 10.1102 13.2783C10.1107 13.3034 10.1168 13.3282 10.128 13.3507C10.1393 13.3732 10.1553 13.3928 10.1751 13.4083C10.5931 13.5873 11.014 13.7573 11.462 13.9403V13.7403C11.462 12.9593 11.462 12.1783 11.462 11.3973C11.4556 10.8605 11.6114 10.3342 11.909 9.88731C12.017 9.72331 12.1501 9.67928 12.2811 9.76328C12.4121 9.84728 12.432 9.99032 12.325 10.1523C12.0729 10.5381 11.9443 10.9915 11.9561 11.4522C11.9621 12.3102 11.9561 13.1683 11.9561 14.0263C11.9556 14.0825 11.9689 14.1379 11.9947 14.1877C12.0206 14.2376 12.0582 14.2803 12.1043 14.3122C12.1505 14.3442 12.2036 14.3644 12.2594 14.3711C12.3151 14.3777 12.3718 14.3706 12.4242 14.3503C12.6422 14.2603 12.8592 14.1654 13.0802 14.0834C13.1242 14.0729 13.1628 14.0469 13.1891 14.0101C13.2153 13.9733 13.2274 13.9283 13.223 13.8833C13.2308 13.7815 13.218 13.6792 13.1854 13.5825C13.1528 13.4858 13.1009 13.3966 13.0331 13.3203C12.6445 12.8715 12.4165 12.306 12.3851 11.7132C12.3711 11.4662 12.4361 11.3912 12.6771 11.3382C12.8491 11.3002 13.022 11.2673 13.191 11.2223C13.4981 11.1503 13.7802 10.9966 14.0069 10.7774C14.2337 10.5582 14.3968 10.2817 14.4791 9.97727C14.5741 9.66827 14.7041 9.61132 14.9881 9.77732C15.2371 9.92136 15.4484 10.1223 15.6048 10.3637C15.7613 10.6052 15.8583 10.8801 15.888 11.1662C15.9508 11.5673 15.9215 11.9775 15.8023 12.3656C15.6831 12.7537 15.4771 13.1096 15.2 13.4064C15.036 13.5984 15.1002 13.7943 15.0902 13.9953C15.0902 14.0163 15.1281 14.0473 15.1551 14.0583C15.5441 14.2213 15.9342 14.3813 16.3412 14.5483C16.3412 14.4833 16.3502 14.4362 16.3502 14.3902C16.3502 13.4052 16.3502 12.4213 16.3502 11.4363C16.3581 11.0606 16.2696 10.6893 16.0934 10.3575C15.9171 10.0258 15.6588 9.74463 15.3431 9.54099C15.0274 9.33736 14.6646 9.21808 14.2896 9.19431C13.9147 9.17055 13.5399 9.24311 13.201 9.40525C13.015 9.48825 12.8751 9.45228 12.8111 9.30528C12.7471 9.15828 12.8112 9.04525 12.9952 8.95725C13.379 8.77551 13.8002 8.68717 14.2247 8.69932C14.6492 8.71147 15.0648 8.8238 15.4376 9.0272C15.8104 9.2306 16.1298 9.51923 16.3697 9.86961C16.6097 10.22 16.7634 10.6222 16.8182 11.0433C16.8357 11.196 16.8446 11.3496 16.8451 11.5033C16.8451 12.6143 16.8451 13.7253 16.8451 14.8363C16.8543 14.9274 16.8721 15.0175 16.898 15.1053C16.9367 15.2586 16.9654 15.4142 16.984 15.5713C16.999 15.7953 16.989 16.0223 16.984 16.2473C16.9947 16.3356 16.9852 16.4252 16.9559 16.5091C16.9267 16.5931 16.8785 16.6693 16.8153 16.7318C16.7521 16.7943 16.6754 16.8415 16.5912 16.8699C16.5069 16.8982 16.4173 16.9069 16.3292 16.8952H1.64121C1.55305 16.9069 1.46328 16.8982 1.379 16.8699C1.29472 16.8415 1.21809 16.7943 1.15488 16.7318C1.09167 16.6693 1.0435 16.5931 1.01425 16.5091C0.985004 16.4252 0.975502 16.3356 0.986178 16.2473C0.986178 16.0273 0.986178 15.8073 0.986178 15.5873C0.973512 15.3571 1.03591 15.129 1.16416 14.9375C1.2924 14.7459 1.47948 14.6012 1.69712 14.5252C2.05212 14.3772 2.40701 14.2252 2.76401 14.0882C2.80504 14.0762 2.8407 14.0506 2.86508 14.0155C2.88947 13.9804 2.90114 13.9379 2.89804 13.8952C2.92796 13.716 2.91459 13.5322 2.85874 13.3592C2.80288 13.1863 2.70612 13.0293 2.577 12.9013C2.40205 12.6772 2.25725 12.431 2.14609 12.1693C2.10481 12.1102 2.05904 12.0543 2.00913 12.0023C1.95439 11.9496 1.90657 11.8902 1.86704 11.8253C1.59362 11.2547 1.5306 10.6058 1.68906 9.99326C1.69305 9.95759 1.70477 9.92321 1.72324 9.89243C1.74171 9.86165 1.76663 9.83522 1.79624 9.81492C1.82584 9.79462 1.85926 9.78091 1.89463 9.77476C1.92999 9.76861 1.96635 9.77015 2.00107 9.77928C2.03562 9.78915 2.06765 9.80623 2.09506 9.82945C2.12248 9.85267 2.14459 9.88147 2.16001 9.91392C2.17543 9.94637 2.18373 9.98176 2.18442 10.0177C2.18511 10.0536 2.17832 10.0893 2.16416 10.1223C2.07226 10.5025 2.08264 10.9003 2.19419 11.2752ZM6.9332 9.82932C7.1092 9.72432 7.27117 9.63528 7.42417 9.52928C7.51112 9.47772 7.58461 9.40647 7.63901 9.32127C7.66467 9.25734 7.71248 9.20473 7.77353 9.17283C7.83459 9.14093 7.90488 9.13187 7.97202 9.14732C8.18905 9.19449 8.4158 9.16104 8.60996 9.0532C8.80411 8.94536 8.95256 8.77044 9.02719 8.56126C9.13419 8.31626 9.32721 8.28228 9.49521 8.48228C9.56321 8.57262 9.65658 8.64051 9.76352 8.67722C9.87046 8.71394 9.98592 8.71785 10.0951 8.68833C10.2881 8.64333 10.3641 8.70128 10.4481 8.88828C10.494 8.99948 10.5602 9.10125 10.6432 9.18833C10.7831 9.31336 10.9292 9.43109 11.0811 9.54124C11.1561 9.33324 11.2432 9.14133 11.2972 8.93333C11.313 8.87881 11.3169 8.82157 11.3092 8.76536C11.3014 8.70915 11.2822 8.65515 11.2523 8.60691C11.2224 8.55867 11.1827 8.51731 11.1358 8.48533C11.089 8.45335 11.0359 8.43145 10.9801 8.42124C10.7301 8.35624 10.68 8.25634 10.765 8.01634C10.8067 7.91976 10.8132 7.81146 10.7831 7.71067C10.7529 7.60989 10.6881 7.52305 10.6002 7.46531C10.5146 7.40845 10.4118 7.38336 10.3097 7.39451C10.2075 7.40566 10.1124 7.45237 10.0411 7.52635C9.82111 7.72635 9.64112 7.66832 9.57212 7.37632C9.55347 7.27841 9.51025 7.18681 9.44663 7.11009C9.38301 7.03337 9.30111 6.97405 9.20835 6.9376C9.11558 6.90115 9.01494 6.88882 8.91611 6.90171C8.81728 6.91461 8.72347 6.9523 8.64316 7.01133C8.44316 7.14533 8.38 7.13924 8.202 6.96824C8.1473 6.9092 8.07757 6.86652 8.00009 6.8447C7.92262 6.82289 7.8405 6.82288 7.76303 6.8447C7.68557 6.86653 7.61558 6.90932 7.56089 6.96836C7.50619 7.02741 7.46882 7.10039 7.45298 7.1793C7.44527 7.25798 7.40856 7.33095 7.34995 7.38401C7.29134 7.43707 7.21514 7.46641 7.13608 7.46629C7.00824 7.47935 6.8862 7.52586 6.78208 7.60117C6.67795 7.67649 6.59549 7.77791 6.54306 7.89524C6.49064 8.01257 6.46989 8.1417 6.48325 8.26951C6.49661 8.39732 6.54344 8.51932 6.61899 8.62327C6.71085 8.73925 6.7552 8.88585 6.74301 9.0333C6.73651 9.13329 6.73862 9.2337 6.74912 9.33335C6.74995 9.51523 6.81521 9.69091 6.9332 9.82932ZM12.8841 11.8193C12.9699 12.4022 13.2627 12.9347 13.7091 13.3193C13.7644 13.3844 13.8335 13.4364 13.9112 13.4718C13.989 13.5071 14.0736 13.5249 14.159 13.5238C14.2444 13.5226 14.3283 13.5026 14.4051 13.4652C14.4819 13.4278 14.5496 13.3739 14.6031 13.3074C14.9056 13.057 15.1374 12.732 15.2757 12.3646C15.4141 11.9972 15.4543 11.5999 15.3922 11.2123C15.3519 10.8651 15.1806 10.5464 14.9132 10.3213C14.2162 11.4003 14.2161 11.4003 12.8841 11.8193ZM2.15415 14.8773C2.16005 14.8974 2.16802 14.9169 2.17807 14.9353C2.52607 15.4023 2.87219 15.8693 3.22519 16.3353C3.26954 16.3788 3.32912 16.4032 3.39121 16.4033C3.68221 16.4103 3.97401 16.4133 4.26401 16.4033C4.3467 16.3975 4.42448 16.362 4.483 16.3033C4.773 15.9813 5.0581 15.6543 5.3331 15.3183C5.42218 15.1883 5.50033 15.0511 5.56699 14.9083C5.22199 14.7663 4.92412 14.6413 4.62412 14.5243C4.6017 14.5206 4.57863 14.5213 4.55649 14.5265C4.53436 14.5316 4.51369 14.5411 4.49521 14.5543C4.30083 14.6921 4.06842 14.7661 3.83017 14.7661C3.59192 14.7661 3.35951 14.6921 3.16513 14.5543C3.12777 14.5277 3.08126 14.5169 3.03598 14.5243C2.74098 14.6323 2.44915 14.7553 2.15415 14.8773ZM4.01108 10.7773C3.81108 10.8773 3.59003 10.9622 3.38803 11.0772C3.12003 11.2352 2.86318 11.4122 2.61118 11.5932C2.58743 11.6188 2.56996 11.6497 2.5604 11.6832C2.55084 11.7168 2.54929 11.7521 2.556 11.7864C2.67672 12.2533 2.94681 12.668 3.32505 12.9673C3.39142 13.0366 3.47128 13.0916 3.55966 13.129C3.64805 13.1664 3.74324 13.1853 3.83921 13.1847C3.93517 13.184 4.0299 13.1638 4.11777 13.1252C4.20564 13.0866 4.28477 13.0305 4.35019 12.9603C4.68995 12.6767 4.94451 12.3047 5.08603 11.8854C5.11508 11.8304 5.12215 11.7664 5.10581 11.7064C5.08947 11.6464 5.05105 11.5949 4.99814 11.5622C4.66514 11.3122 4.33908 11.0494 4.01108 10.7814V10.7773ZM10.3492 14.0333C10.2652 13.9963 10.1871 13.9693 10.1161 13.9333C10.0618 13.8997 9.99809 13.8842 9.93442 13.8893C9.87075 13.8943 9.8104 13.9195 9.76206 13.9613C9.55727 14.1137 9.31107 14.2005 9.056 14.2103C8.80093 14.2201 8.54899 14.1525 8.3331 14.0163C8.25004 13.9502 8.14816 13.9123 8.04209 13.9079C7.93601 13.9036 7.83117 13.9331 7.74301 13.9923C7.71501 14.0093 7.68416 14.0212 7.64316 14.0412C8.14728 14.7335 8.46351 15.5445 8.56113 16.3952H9.42221C9.52127 15.5424 9.84076 14.7301 10.3492 14.0383V14.0333ZM10.8292 14.2223C10.3367 14.8464 10.0252 15.594 9.92905 16.3833H12.0191C12.0191 15.9743 12.0271 15.5833 12.0191 15.1833C12.0214 15.0581 11.9882 14.9347 11.9234 14.8275C11.8587 14.7203 11.7651 14.6335 11.6532 14.5772C11.3852 14.4492 11.1072 14.3493 10.8292 14.2273V14.2223ZM8.0582 16.3902C7.96796 15.6456 7.68707 14.9368 7.24301 14.3323C7.19901 14.2713 7.16412 14.2213 7.07212 14.2633C6.85212 14.3633 6.62512 14.4472 6.40512 14.5462C6.2961 14.5877 6.20091 14.6589 6.13022 14.7517C6.05953 14.8445 6.01602 14.9552 6.00498 15.0713C5.97898 15.5073 5.99716 15.9462 5.99716 16.3902H8.0582ZM14.669 16.3973H16.3861C16.4861 16.3973 16.4952 16.3252 16.4952 16.2492C16.4952 16.0242 16.4952 15.7983 16.4952 15.5733C16.5029 15.4432 16.4671 15.3142 16.3936 15.2065C16.3202 15.0988 16.2132 15.0185 16.0892 14.9782C15.7992 14.8612 15.511 14.7393 15.221 14.6213C15.179 14.6043 15.134 14.5943 15.076 14.5763C15.1051 15.2103 14.9646 15.8407 14.669 16.4023V16.3973ZM14.1412 16.2593C14.5448 15.5507 14.6897 14.7239 14.5511 13.9203C14.4193 13.9828 14.2749 14.0145 14.129 14.0128C13.9831 14.0111 13.8394 13.9759 13.7091 13.9103C13.6113 14.7206 13.762 15.5415 14.1412 16.2643V16.2593ZM12.5101 14.8594V16.3913H13.629C13.3384 15.8291 13.197 15.2018 13.2181 14.5693L12.5101 14.8594ZM5.47519 11.3074C5.60132 11.0252 5.65133 10.7148 5.62021 10.4073C5.61786 10.3013 5.5941 10.1969 5.55039 10.1003C5.50667 10.0037 5.4439 9.91692 5.36582 9.84519C5.28774 9.77347 5.19599 9.71822 5.09604 9.68284C4.9961 9.64746 4.88985 9.63263 4.78403 9.63926C4.75387 9.6478 4.72607 9.66284 4.70224 9.68321C4.67842 9.70358 4.65921 9.72883 4.64609 9.7573C4.60084 9.90827 4.54376 10.0553 4.47519 10.1972C4.45339 10.2229 4.43714 10.2529 4.42758 10.2853C4.41803 10.3176 4.4152 10.3516 4.41953 10.385C4.42386 10.4184 4.43526 10.4505 4.45273 10.4793C4.4702 10.5082 4.49346 10.5331 4.52109 10.5523C4.5697 10.6045 4.6215 10.6535 4.67612 10.6993C4.93612 10.9053 5.20019 11.1023 5.47519 11.3103V11.3074ZM8.38999 12.7743C8.38999 12.9853 8.38999 13.1984 8.38999 13.4114C8.40021 13.4578 8.42746 13.4987 8.46616 13.5263C8.61905 13.6401 8.80462 13.7015 8.99521 13.7015C9.18581 13.7015 9.37113 13.6401 9.52402 13.5263C9.56612 13.4946 9.59478 13.4482 9.6041 13.3963C9.6131 13.1883 9.6041 12.9803 9.6041 12.7733C9.40227 12.8117 9.1981 12.8371 8.99301 12.8493C8.79069 12.8382 8.58925 12.8141 8.38999 12.7773V12.7743ZM1.65903 15.0683C1.58856 15.1847 1.53538 15.3106 1.50107 15.4422C1.48371 15.7219 1.48036 16.0023 1.49106 16.2823C1.49106 16.3213 1.546 16.3913 1.577 16.3923C1.925 16.4003 2.27697 16.3973 2.65097 16.3973L1.65903 15.0683ZM3.38706 13.5893C3.43706 13.7983 3.29607 14.0063 3.48007 14.1533C3.58208 14.2266 3.70459 14.266 3.83017 14.266C3.95575 14.266 4.07802 14.2266 4.18003 14.1533C4.37303 14.0053 4.22512 13.7913 4.28012 13.5873C4.13987 13.6498 3.98814 13.6825 3.83457 13.6832C3.68099 13.6839 3.52885 13.6526 3.38803 13.5913L3.38706 13.5893ZM5.4791 15.9043L5.06211 16.3893H5.4791V15.9043Z" fill="#8E8E8E"/>
<path d="M7.17389 2.35981C7.17182 2.15675 7.22416 1.95683 7.32525 1.78071C7.42635 1.60459 7.5727 1.45867 7.74908 1.35804C7.92547 1.25741 8.12537 1.20572 8.32843 1.20832C8.53148 1.21092 8.73036 1.2677 8.90411 1.37281C8.93317 1.39395 8.96803 1.40534 9.00397 1.40534C9.0399 1.40534 9.075 1.39395 9.10406 1.37281C9.30601 1.24604 9.54331 1.18733 9.78106 1.20533C10.0188 1.22333 10.2445 1.31706 10.4251 1.47279C10.6124 1.62529 10.7449 1.83459 10.8028 2.0691C10.8607 2.30361 10.8407 2.5506 10.7459 2.77277C10.5968 3.13668 10.3498 3.45207 10.032 3.68378C9.76622 3.88725 9.48732 4.07302 9.19708 4.23981C9.14487 4.26735 9.08751 4.28366 9.02862 4.28779C8.96974 4.29192 8.91059 4.28377 8.85504 4.2638C8.26395 4.01378 7.75563 3.60153 7.38897 3.07478C7.24845 2.86282 7.17357 2.61412 7.17389 2.35981ZM7.66803 2.34278C7.68071 2.58693 7.77962 2.81866 7.94708 2.99677C8.224 3.31049 8.55944 3.56698 8.93487 3.75178C8.95818 3.76132 8.98344 3.76582 9.0086 3.76496C9.03377 3.7641 9.05827 3.75789 9.08087 3.74677C9.44299 3.56041 9.76627 3.30653 10.033 2.99879C10.148 2.85971 10.2398 2.70305 10.305 2.5348C10.354 2.40494 10.3566 2.26209 10.3121 2.13062C10.2676 1.99916 10.1789 1.8872 10.0611 1.81379C9.94987 1.73649 9.81686 1.69666 9.68146 1.70008C9.54605 1.7035 9.41511 1.74996 9.30792 1.83277C9.04992 2.02077 8.96107 2.02077 8.70807 1.83277C8.61648 1.75638 8.50418 1.70907 8.38556 1.69678C8.26693 1.68449 8.14735 1.70781 8.04205 1.7638C7.93111 1.81476 7.83705 1.8963 7.77081 1.99885C7.70457 2.1014 7.66886 2.2207 7.66803 2.34278Z" fill="#8E8E8E"/>
<path d="M2.52808 4.83947C2.53246 4.69995 2.57056 4.56357 2.63916 4.442C2.70776 4.32044 2.80471 4.21723 2.92188 4.14135C3.03904 4.06547 3.17278 4.01909 3.31177 4.00621C3.45076 3.99333 3.59086 4.01431 3.71997 4.06737C3.75402 4.08734 3.79258 4.09857 3.83203 4.09996C3.87148 4.10136 3.91067 4.09294 3.94604 4.07543C4.09491 4.00168 4.26312 3.97661 4.427 4.00389C4.59088 4.03118 4.74219 4.1094 4.85913 4.22741C4.9842 4.34127 5.06987 4.4918 5.104 4.65746C5.13814 4.82312 5.11893 4.99537 5.04907 5.1494C4.89824 5.4695 4.65774 5.73904 4.35693 5.9254C3.87293 6.2674 3.81004 6.26641 3.32104 5.93541C3.06032 5.77964 2.84339 5.56002 2.69092 5.29735C2.62577 5.14875 2.57145 4.99581 2.52808 4.83947ZM4.65894 4.8004C4.59513 4.7037 4.52074 4.61449 4.43701 4.53441C4.387 4.49811 4.32584 4.48029 4.26416 4.48412C4.20248 4.48795 4.14425 4.51319 4.09912 4.55541C4.0297 4.62387 3.93612 4.66222 3.83862 4.66222C3.74112 4.66222 3.64755 4.62387 3.57812 4.55541C3.52532 4.5094 3.45748 4.48412 3.38745 4.48412C3.31742 4.48412 3.24982 4.5094 3.19702 4.55541C3.13637 4.59489 3.091 4.65375 3.06812 4.7224C3.04523 4.79105 3.04621 4.86549 3.07104 4.93346C3.0933 5.01838 3.13588 5.09653 3.19507 5.16137C3.37707 5.32537 3.57207 5.47635 3.76807 5.62535C3.78804 5.63612 3.81032 5.64183 3.83301 5.64183C3.8557 5.64183 3.87798 5.63612 3.89795 5.62535C4.09795 5.46235 4.30905 5.29944 4.49805 5.11644C4.56602 5.01948 4.61922 4.91296 4.65601 4.8004H4.65894Z" fill="#8E8E8E"/>
<path d="M13.758 4.00031C13.993 4.14131 14.2819 4.03535 14.5789 4.00935C14.7109 4.00485 14.842 4.03256 14.9608 4.09016C15.0797 4.14776 15.1826 4.23352 15.2608 4.33991C15.339 4.4463 15.3902 4.57016 15.4097 4.70075C15.4292 4.83135 15.4166 4.96468 15.373 5.0893C15.2844 5.33949 15.1266 5.5594 14.9179 5.72334C14.7629 5.85334 14.589 5.96042 14.425 6.07942C14.3455 6.14383 14.2467 6.1799 14.1444 6.18208C14.0422 6.18425 13.9421 6.15236 13.8599 6.09138C13.5184 5.91242 13.2257 5.65295 13.007 5.3354C12.8875 5.16134 12.8368 4.9491 12.8647 4.73982C12.8925 4.53053 12.9971 4.33902 13.158 4.20234C13.3247 4.06062 13.5395 3.98829 13.758 4.00031ZM14.925 4.87531C14.92 4.57531 14.625 4.40031 14.425 4.54731C14.3456 4.61967 14.2417 4.65939 14.1343 4.65827C14.0269 4.65716 13.9239 4.61532 13.846 4.54133C13.7829 4.50052 13.7068 4.48492 13.6327 4.49751C13.5587 4.5101 13.492 4.54996 13.446 4.60932C13.3897 4.67118 13.3565 4.75076 13.3523 4.8343C13.3481 4.91783 13.3731 5.00014 13.4229 5.06733C13.59 5.31437 13.819 5.51334 14.0869 5.64436C14.106 5.65169 14.1266 5.65438 14.1469 5.65229C14.1672 5.65021 14.1867 5.64345 14.2039 5.63239C14.4039 5.47139 14.6039 5.31439 14.7909 5.13239C14.8524 5.05485 14.8992 4.96673 14.929 4.87238L14.925 4.87531Z" fill="#8E8E8E"/>
</svg>
