<svg width="18" height="18" viewBox="0 0 18 18" fill="none" xmlns="http://www.w3.org/2000/svg">
<path d="M15.265 4.93169C15.2834 4.98775 15.2867 5.04759 15.2748 5.10536C15.2629 5.16313 15.2362 5.21679 15.1972 5.26105C14.7607 5.89864 14.3267 6.53793 13.8952 7.17888C13.8741 7.20826 13.8639 7.24411 13.8666 7.2802C13.9171 7.69179 13.979 8.10263 14.0253 8.51503C14.0755 8.9771 14.1121 9.44328 14.1634 9.9073C14.2029 10.2277 14.1217 10.5513 13.9357 10.8152C13.0548 12.1124 12.1816 13.4159 11.3047 14.7158C11.18 14.9007 11.071 14.9478 10.9519 14.8687C10.8328 14.7895 10.8421 14.674 10.9668 14.4891C11.844 13.1886 12.721 11.8884 13.5978 10.5885C13.7257 10.4144 13.7849 10.1992 13.7641 9.98414C13.6867 9.22026 13.6126 8.45578 13.5416 7.69064C13.5382 7.65457 13.5383 7.61846 13.5369 7.57408C13.3875 7.65426 13.2648 7.7307 13.1358 7.78603C12.7784 7.94545 12.3814 7.99406 11.996 7.92551C11.9413 7.91889 11.8859 7.93269 11.8407 7.9643C11.7285 8.06049 11.5872 8.11611 11.4396 8.12221C11.2919 8.1283 11.1465 8.08451 11.0268 7.9979C10.9145 7.91305 10.8327 7.79421 10.7934 7.65906C10.7542 7.5239 10.7596 7.37967 10.809 7.24788C10.8615 7.11224 10.958 6.99818 11.0831 6.92397C11.2082 6.84975 11.3546 6.81969 11.4988 6.83863C11.6452 6.85845 11.7803 6.9281 11.8814 7.03583C11.9825 7.14357 12.0434 7.28282 12.0539 7.43018L12.0602 7.49595C12.283 7.54902 12.5154 7.5468 12.7371 7.48951C12.9589 7.43221 13.1633 7.32156 13.3325 7.16721L13.199 7.07718C12.4977 6.6041 11.7963 6.13104 11.095 5.65797C11.0023 5.59035 10.895 5.54548 10.7818 5.52695C10.6686 5.50841 10.5526 5.51675 10.4432 5.55128C9.68002 5.77551 8.91725 6.00082 8.15496 6.22727C7.99615 6.27671 7.86054 6.38186 7.77311 6.52336C7.64002 6.72067 7.50711 6.91771 7.3744 7.11447C6.20084 8.85435 5.02654 10.5953 3.85149 12.3374C3.75548 12.4628 3.68782 12.6075 3.65323 12.7617C3.61864 12.9158 3.61792 13.0756 3.65112 13.23C3.70016 13.466 3.83897 13.6738 4.03825 13.8095C5.45259 14.7635 6.8666 15.7173 8.28039 16.6709C8.49067 16.8107 8.74574 16.8667 8.99525 16.8278C9.24477 16.7889 9.47061 16.6579 9.62835 16.4607C9.8691 16.1503 10.077 15.8153 10.2993 15.4911C10.3253 15.448 10.3535 15.4062 10.3837 15.3659C10.4129 15.3268 10.4563 15.3005 10.5045 15.2928C10.5527 15.285 10.6022 15.2964 10.6422 15.3244C10.685 15.348 10.7171 15.3871 10.7319 15.4337C10.7467 15.4803 10.743 15.5307 10.7218 15.5747C10.7135 15.596 10.7031 15.6165 10.6904 15.6355C10.4606 15.9763 10.242 16.327 9.9937 16.6541C9.76987 16.9612 9.43372 17.1673 9.05849 17.2274C8.68326 17.2875 8.29946 17.1968 7.99089 16.975C6.66057 16.0777 5.32991 15.1801 3.99903 14.2824C3.87994 14.2057 3.76627 14.121 3.65873 14.0288C3.52297 13.9054 3.41305 13.7563 3.33525 13.5902C3.25746 13.4241 3.21335 13.2441 3.20552 13.0609C3.20052 12.9892 3.17884 12.9196 3.14225 12.8578C2.69682 12.1412 2.24522 11.4265 1.79701 10.7104C1.68787 10.5569 1.61176 10.3824 1.57345 10.1979C1.53514 10.0135 1.53553 9.82314 1.57449 9.63884C1.61346 9.45453 1.69023 9.28031 1.79992 9.12715C1.90961 8.974 2.04984 8.84524 2.21179 8.74902C3.1709 8.09724 4.13158 7.44776 5.09399 6.80063C5.1093 6.79045 5.12378 6.7797 5.13992 6.77008C5.16162 6.7509 5.18728 6.7367 5.21502 6.72838C5.24277 6.72006 5.27197 6.71785 5.30065 6.72193C5.32932 6.72602 5.35675 6.73628 5.38107 6.75202C5.40539 6.76775 5.42601 6.78859 5.44149 6.81307C5.45843 6.83639 5.47017 6.86313 5.47583 6.89139C5.48148 6.91965 5.48096 6.94879 5.4743 6.97683C5.46764 7.00487 5.45498 7.03114 5.43722 7.05384C5.41947 7.07655 5.39705 7.09516 5.37143 7.10838C5.1409 7.27132 4.90314 7.42699 4.66958 7.58549C3.91714 8.0948 3.16362 8.60218 2.41284 9.11261C2.30323 9.17992 2.20842 9.26878 2.13417 9.37381C2.05993 9.47885 2.00782 9.59788 1.98094 9.72367C1.95407 9.84946 1.95305 9.97942 1.97789 10.1056C2.00273 10.2318 2.05293 10.3517 2.12547 10.4579C2.50736 11.0774 2.89623 11.6883 3.28148 12.3027C3.29522 12.3253 3.31287 12.3456 3.3305 12.3696L3.52342 12.0835C4.80434 10.1845 6.08545 8.28517 7.36674 6.38557C7.55268 6.08894 7.84575 5.87536 8.18509 5.78924C8.64837 5.66749 9.1046 5.52048 9.56145 5.3582C9.31847 5.33502 9.07684 5.29925 8.83756 5.25108C8.63979 5.19875 8.43228 5.19555 8.23298 5.24169C8.03367 5.28784 7.84857 5.38192 7.69393 5.51585C7.22853 5.87501 6.72649 6.19013 6.24266 6.52117C6.21717 6.54057 6.19058 6.55848 6.16304 6.57482C6.14139 6.58992 6.11699 6.6006 6.09121 6.60622C6.06542 6.61183 6.03881 6.6123 6.01285 6.60757C5.98689 6.60284 5.96215 6.59304 5.94 6.5787C5.91785 6.56435 5.89866 6.5457 5.88373 6.52394C5.86804 6.5027 5.85679 6.47861 5.85047 6.45297C5.84415 6.42732 5.84293 6.40065 5.84697 6.37455C5.851 6.34845 5.8602 6.32344 5.87397 6.3009C5.88773 6.27837 5.90578 6.25874 5.92716 6.24323C6.03078 6.16113 6.14293 6.08962 6.2515 6.01449C6.74091 5.67877 7.22971 5.34747 7.71804 5.00619C7.84105 4.91746 7.98043 4.85393 8.12807 4.81917C8.27571 4.78442 8.42878 4.77918 8.57846 4.80372C9.32839 4.91151 10.0798 5.00822 10.8288 5.12626C10.9988 5.15549 11.1609 5.21964 11.3049 5.31467C12.0676 5.81831 12.8211 6.33739 13.5789 6.84849C13.5958 6.85723 13.6134 6.86466 13.6315 6.8707L13.7209 6.73805C14.1017 6.17347 14.4831 5.60808 14.8639 5.0435C14.8909 4.99152 14.9301 4.94688 14.9782 4.91355C15.0264 4.88021 15.0819 4.85915 15.14 4.8522L15.265 4.93169ZM11.2722 7.66643C11.2978 7.68327 11.3265 7.69483 11.3566 7.70053C11.3868 7.70623 11.4178 7.70592 11.4478 7.69961C11.4778 7.69331 11.5064 7.68118 11.5317 7.66383C11.557 7.64649 11.5786 7.62429 11.5953 7.59856C11.6118 7.57275 11.623 7.54394 11.6284 7.5138C11.6337 7.48366 11.633 7.45274 11.6264 7.42286C11.6198 7.39297 11.6073 7.36467 11.5898 7.33959C11.5722 7.31451 11.5499 7.29316 11.5241 7.27671C11.4736 7.24515 11.4129 7.23452 11.3546 7.24704C11.2964 7.25957 11.2454 7.2943 11.2123 7.34383C11.1949 7.36881 11.1825 7.39703 11.1761 7.42684C11.1696 7.45665 11.1692 7.48741 11.1748 7.51739C11.1804 7.54736 11.192 7.57594 11.2088 7.60138C11.2256 7.62683 11.2474 7.64866 11.2727 7.6656L11.2722 7.66643Z" fill="#8E8E8E" stroke="#8E8E8E" stroke-width="0.2"/>
<path d="M11.3769 11.0264C11.2951 11.0611 11.2109 11.0902 11.1251 11.1135C9.67674 11.3974 8.2278 11.6798 6.7783 11.9606C6.63948 11.9876 6.50729 12.019 6.37406 12.0377C6.24083 12.0564 6.12159 12.0025 6.10228 11.881C6.09744 11.8516 6.09881 11.8215 6.10631 11.7927C6.11381 11.7639 6.12734 11.737 6.14589 11.7137C6.16444 11.6904 6.1876 11.6712 6.21401 11.6575C6.24042 11.6437 6.26945 11.6357 6.29917 11.6338C7.89583 11.322 9.49262 11.0111 11.0896 10.7012C11.1904 10.6823 11.2931 10.6803 11.3411 10.7827C11.3646 10.8618 11.3767 10.9439 11.3769 11.0264Z" fill="#8E8E8E" stroke="#8E8E8E" stroke-width="0.2"/>
<path d="M7.50118 9.21214C7.56672 9.114 7.65111 9.02987 7.7495 8.9647C7.84789 8.89953 7.95829 8.85462 8.07422 8.83256C8.19015 8.81049 8.30929 8.81168 8.42474 8.83615C8.54019 8.86062 8.64968 8.90789 8.74669 8.97509C8.84675 9.04 8.93276 9.12426 8.99975 9.22294C9.06674 9.32161 9.11334 9.43269 9.13674 9.54964C9.16015 9.66659 9.15989 9.78705 9.13603 9.90391C9.11217 10.0208 9.06514 10.1316 8.99777 10.23C8.93102 10.3271 8.84577 10.4101 8.74684 10.4741C8.64792 10.5382 8.53735 10.582 8.42143 10.6032C8.3055 10.6243 8.18646 10.6222 8.07131 10.5972C7.95616 10.5722 7.84711 10.5247 7.7504 10.4574C7.65142 10.3927 7.56639 10.309 7.50014 10.2111C7.43389 10.1131 7.38779 10.003 7.36459 9.88704C7.34138 9.7711 7.34153 9.65175 7.36498 9.53587C7.38843 9.41999 7.43472 9.30993 7.50118 9.21214ZM8.52623 9.32333C8.47488 9.28514 8.41634 9.25763 8.35417 9.24247C8.29199 9.2273 8.22741 9.22476 8.16424 9.23502C8.10107 9.24529 8.04059 9.26812 7.98641 9.30219C7.93224 9.33626 7.8855 9.3809 7.84889 9.43339C7.81161 9.48552 7.7852 9.54461 7.77128 9.60717C7.75736 9.66972 7.75625 9.7345 7.7679 9.79752C7.77954 9.86054 7.80373 9.92056 7.83909 9.97401C7.87445 10.0275 7.92016 10.0732 7.9736 10.1086C8.02515 10.1462 8.0837 10.1733 8.14579 10.1882C8.20788 10.203 8.27227 10.2054 8.33528 10.1952C8.3983 10.1849 8.4587 10.1623 8.51288 10.1286C8.56707 10.0948 8.61397 10.0506 8.65094 9.99853C8.68784 9.94621 8.71394 9.88705 8.72767 9.82452C8.74141 9.762 8.74259 9.6974 8.73102 9.63444C8.71945 9.57148 8.69538 9.51144 8.66032 9.45788C8.62526 9.40432 8.57931 9.35912 8.52623 9.32333Z" fill="#8E8E8E" stroke="#8E8E8E" stroke-width="0.2"/>
<path d="M9.76249 12.2743C9.86128 12.3386 9.94635 12.4217 10.0129 12.5189C10.0794 12.6162 10.1261 12.7256 10.1502 12.841C10.1743 12.9563 10.1754 13.0753 10.1533 13.1911C10.1313 13.3068 10.0865 13.4171 10.0217 13.5155C9.95638 13.6137 9.87227 13.6981 9.77419 13.7637C9.67611 13.8293 9.56605 13.8748 9.45028 13.8977C9.33452 13.9205 9.21536 13.9202 9.09972 13.8968C8.98408 13.8733 8.87427 13.8273 8.77653 13.7612C8.67618 13.6972 8.58967 13.6137 8.52214 13.5158C8.45461 13.4178 8.40739 13.3072 8.38332 13.1907C8.35926 13.0741 8.35882 12.9539 8.38202 12.8372C8.40522 12.7205 8.45154 12.6096 8.51835 12.5111C8.58391 12.4132 8.66828 12.3293 8.76656 12.2642C8.86485 12.1992 8.97506 12.1544 9.09083 12.1323C9.2066 12.1103 9.32563 12.1115 9.44092 12.1359C9.55622 12.1603 9.66554 12.2073 9.76249 12.2743ZM9.00023 13.4151C9.05266 13.4521 9.11191 13.4782 9.17457 13.492C9.23722 13.5057 9.302 13.5068 9.36509 13.4952C9.42819 13.4837 9.48832 13.4596 9.54199 13.4244C9.59566 13.3893 9.64176 13.3438 9.67762 13.2906C9.71316 13.2372 9.73774 13.1774 9.74979 13.1144C9.76184 13.0514 9.76112 12.9867 9.74779 12.924C9.73446 12.8612 9.70877 12.8019 9.67215 12.7493C9.63553 12.6966 9.58871 12.6518 9.53454 12.6175C9.48229 12.5803 9.42312 12.5541 9.36049 12.5403C9.29787 12.5264 9.23312 12.5253 9.17007 12.537C9.10701 12.5488 9.04696 12.5731 8.99349 12.6085C8.94002 12.6439 8.89419 12.6896 8.85879 12.7431C8.8231 12.7962 8.79845 12.8559 8.78627 12.9187C8.77408 12.9815 8.77461 13.0461 8.78785 13.1087C8.80109 13.1713 8.82681 13.2307 8.86338 13.2831C8.89996 13.3356 8.94666 13.3802 9.00079 13.4143L9.00023 13.4151Z" fill="#8E8E8E" stroke="#8E8E8E" stroke-width="0.2"/>
</svg>
