<svg width="16" height="13" viewBox="0 0 16 13" fill="none" xmlns="http://www.w3.org/2000/svg">
<g opacity="0.4">
<path d="M10.712 3.93566C10.694 3.13566 11.443 1.06164 8.75504 1.01964C6.06704 0.977643 2.64504 1.01964 2.64504 1.01964C2.64504 1.01964 0.733045 0.869686 0.763045 3.66369C0.793045 6.45769 0.763045 10.4166 0.763045 10.4166C0.763045 10.4166 1.00205 11.8056 2.96305 11.7906C4.92405 11.7756 9.02904 11.7906 9.02904 11.7906C9.26391 11.7833 9.49488 11.7282 9.70813 11.6295C9.92137 11.5308 10.1125 11.3902 10.2701 11.2159C10.4277 11.0416 10.5485 10.8374 10.6253 10.6153C10.7021 10.3933 10.7333 10.1579 10.717 9.92345C10.732 8.08545 10.717 9.17646 10.717 8.77746" stroke="white" stroke-linecap="round"/>
<path d="M7.68799 6.4043H14.865" stroke="white" stroke-linecap="round"/>
<path d="M12.721 4.43066L14.867 6.43066L12.619 8.38232" stroke="white" stroke-linecap="round" stroke-linejoin="round"/>
</g>
</svg>
