<svg width="18" height="18" viewBox="0 0 18 18" fill="none" xmlns="http://www.w3.org/2000/svg">
<path d="M6.8679 11.8189L7.33995 12.5189C7.88395 13.3189 8.43395 14.1189 8.96995 14.9279C9.09184 15.0979 9.17184 15.2943 9.20335 15.5011C9.23486 15.7079 9.21694 15.9193 9.15123 16.1179C9.08551 16.3165 8.97382 16.4967 8.82518 16.6439C8.67653 16.7911 8.49512 16.9011 8.29588 16.9649C8.003 17.0593 7.68696 17.0527 7.3983 16.9461C7.10964 16.8394 6.86515 16.639 6.70396 16.3769C5.95529 15.2775 5.20833 14.1775 4.46299 13.0769C4.42599 13.0229 4.38693 12.9699 4.34593 12.9099C4.02128 13.1219 3.64533 13.2421 3.25792 13.2579C2.95924 13.2669 2.66185 13.215 2.38389 13.1054C2.10594 12.9957 1.85325 12.8306 1.64122 12.62C1.42918 12.4095 1.26225 12.1579 1.15062 11.8808C1.03898 11.6036 0.984997 11.3066 0.991925 11.0079C0.994076 10.6677 1.08069 10.3334 1.24388 10.035C1.40707 9.73653 1.64178 9.48327 1.92698 9.29789C2.36398 8.99789 2.80998 8.70487 3.24498 8.39787C3.34776 8.32674 3.43206 8.23212 3.49095 8.12187C4.34095 6.4112 5.18691 4.69887 6.02891 2.98487C6.12034 2.79296 6.26117 2.62879 6.43687 2.50913C6.61258 2.38948 6.81685 2.31864 7.02891 2.30387C7.57509 2.26372 8.12 2.39708 8.58592 2.68488C9.44751 3.17272 10.2046 3.82547 10.8139 4.60587C11.7522 5.70585 12.4416 6.99564 12.8349 8.38688C13.0164 8.97768 13.0558 9.60299 12.9499 10.2119C12.8952 10.5252 12.749 10.8153 12.5299 11.0459C12.3112 11.2706 12.0161 11.4048 11.703 11.4219C10.139 11.5419 8.57594 11.6689 7.01194 11.7949C6.96994 11.7969 6.9339 11.8069 6.8679 11.8189ZM6.3889 4.23988C6.42723 4.54256 6.48172 4.84297 6.55198 5.13987C7.08929 7.0535 8.21084 8.75154 9.75999 9.99687C10.1844 10.3655 10.6902 10.628 11.2359 10.7629C11.3688 10.794 11.5074 10.7896 11.638 10.7501C11.7686 10.7106 11.8866 10.6374 11.98 10.5379C12.1416 10.3751 12.2467 10.1648 12.2799 9.93788C12.3492 9.52091 12.3326 9.09417 12.2309 8.68388C12.0284 7.84234 11.6837 7.04151 11.2119 6.31587C10.624 5.31384 9.85574 4.4293 8.9459 3.70689C8.53871 3.37071 8.0645 3.12525 7.55491 2.98689C7.43235 2.94305 7.30134 2.92832 7.1721 2.94389C7.04286 2.95945 6.91894 3.00489 6.81028 3.07658C6.70163 3.14827 6.61115 3.24425 6.546 3.35694C6.48085 3.46964 6.44283 3.59594 6.43492 3.72587C6.41092 3.87287 6.409 4.02288 6.39 4.23988H6.3889ZM5.80491 4.91688C5.79042 4.93746 5.77714 4.95882 5.765 4.98087C5.209 6.11421 4.65229 7.24754 4.09495 8.38087C4.07616 8.41692 4.06925 8.45801 4.07518 8.49824C4.0811 8.53846 4.09952 8.57577 4.12791 8.60487C4.69524 9.43887 5.26198 10.2722 5.82798 11.1049C5.85004 11.1449 5.88403 11.1771 5.92527 11.1968C5.96652 11.2165 6.01294 11.2229 6.05796 11.2149C7.19596 11.1219 8.33388 11.0339 9.47288 10.9439C9.60488 10.9339 9.73691 10.9179 9.87291 10.9039C7.84117 9.46223 6.39697 7.33674 5.80491 4.91688ZM5.29295 11.4869L3.58494 8.97288C3.54094 8.99788 3.51097 9.01287 3.48497 9.03187C3.06897 9.31587 2.6459 9.59189 2.2379 9.88789C1.94104 10.1043 1.73784 10.4257 1.66966 10.7867C1.60147 11.1477 1.67349 11.5211 1.87095 11.8309C2.04584 12.1708 2.34854 12.4273 2.71251 12.5442C3.07647 12.661 3.47196 12.6285 3.81199 12.4539C4.32299 12.1719 4.79395 11.8159 5.29295 11.4869ZM4.89293 12.5429C4.96493 12.6519 5.03098 12.7529 5.09898 12.8529C5.81765 13.9116 6.53589 14.9706 7.25389 16.0299C7.31147 16.1284 7.392 16.2116 7.48863 16.2724C7.58525 16.3331 7.69517 16.3697 7.80894 16.3789C7.93979 16.3933 8.07194 16.368 8.18821 16.3063C8.30449 16.2446 8.3995 16.1493 8.46092 16.0329C8.53125 15.9153 8.56434 15.7792 8.55577 15.6424C8.5472 15.5057 8.4974 15.3748 8.41295 15.2669L6.20189 12.0079C6.18322 11.9748 6.15776 11.946 6.12718 11.9235C6.0966 11.901 6.06164 11.8852 6.02452 11.8771C5.98739 11.8691 5.949 11.869 5.91185 11.8769C5.87469 11.8848 5.83961 11.9005 5.80894 11.9229C5.50594 12.1219 5.20588 12.3309 4.89488 12.5419L4.89293 12.5429Z" fill="#8E8E8E"/>
<path d="M13.598 4.6747C13.5204 4.68647 13.4411 4.67111 13.3735 4.63121C13.3059 4.59132 13.2542 4.52933 13.227 4.45571C13.201 4.38436 13.2014 4.30609 13.228 4.23497C13.2545 4.16385 13.3056 4.10454 13.372 4.06771C13.694 3.85271 14.0189 3.64171 14.3429 3.42971L15.577 2.6187C15.6127 2.58562 15.6551 2.56051 15.7012 2.54506C15.7474 2.52961 15.7963 2.52418 15.8447 2.5291C15.8931 2.53402 15.94 2.54918 15.9821 2.5736C16.0242 2.59801 16.0606 2.63112 16.089 2.6707C16.207 2.8407 16.152 3.0367 15.941 3.1707C15.225 3.64204 14.508 4.1117 13.79 4.5797C13.7289 4.61703 13.6647 4.64882 13.598 4.6747Z" fill="#8E8E8E"/>
<path d="M14.134 6.19655L15.512 6.44255C15.926 6.51655 16.34 6.59257 16.754 6.66457C16.7982 6.66773 16.8413 6.67958 16.8809 6.69945C16.9205 6.71931 16.9559 6.74682 16.9849 6.78035C17.0138 6.81388 17.0359 6.8528 17.0498 6.89488C17.0637 6.93696 17.0692 6.98136 17.066 7.02556C17.06 7.07259 17.0443 7.11787 17.0198 7.15849C16.9954 7.19911 16.9627 7.23417 16.9239 7.26146C16.8852 7.28875 16.8412 7.30766 16.7947 7.31697C16.7482 7.32628 16.7002 7.32582 16.6539 7.31557C15.7873 7.1629 14.9206 7.00722 14.0539 6.84856C14.0098 6.8442 13.9669 6.83111 13.9278 6.81004C13.8887 6.78897 13.8543 6.76033 13.8263 6.72581C13.7984 6.69129 13.7776 6.65158 13.7652 6.60896C13.7528 6.56634 13.749 6.52167 13.754 6.47755C13.768 6.39035 13.8156 6.31212 13.8866 6.2596C13.9577 6.20708 14.0465 6.18445 14.134 6.19655Z" fill="#8E8E8E"/>
<path d="M12.4689 0.408237L12.269 2.38822C12.253 2.54722 12.238 2.70721 12.218 2.86621C12.2153 2.9104 12.2036 2.95359 12.1835 2.99305C12.1635 3.0325 12.1355 3.06737 12.1014 3.09552C12.0672 3.12368 12.0276 3.14449 11.985 3.15665C11.9425 3.16881 11.8978 3.17209 11.8539 3.16623C11.8109 3.16241 11.7691 3.14973 11.7311 3.129C11.6932 3.10827 11.66 3.07992 11.6335 3.04575C11.607 3.01158 11.5879 2.97233 11.5773 2.93042C11.5667 2.88852 11.5649 2.84486 11.572 2.80222C11.652 1.98222 11.7353 1.16257 11.822 0.343235C11.8257 0.300227 11.8383 0.258443 11.8588 0.220463C11.8793 0.182482 11.9074 0.149115 11.9413 0.12241C11.9753 0.0957044 12.0142 0.0762258 12.056 0.0651892C12.0977 0.0541526 12.1413 0.0517835 12.184 0.0582312C12.2678 0.0678111 12.3445 0.109772 12.3978 0.175175C12.451 0.240577 12.4765 0.324238 12.4689 0.408237Z" fill="#8E8E8E"/>
<path d="M8.63094 5.49697C9.02659 5.47149 9.41986 5.57454 9.75216 5.79079C10.0845 6.00704 10.338 6.32488 10.4749 6.69695C10.5939 7.04536 10.6014 7.42218 10.4964 7.77504C10.3914 8.12791 10.1791 8.43929 9.889 8.66594C9.81222 8.72725 9.72208 8.76974 9.62594 8.78997C9.5593 8.80229 9.49051 8.79029 9.43197 8.75615C9.37343 8.72202 9.32906 8.66802 9.30697 8.60396C9.27714 8.5435 9.26785 8.47494 9.28048 8.40871C9.29311 8.34248 9.32692 8.2822 9.37691 8.23696C9.41591 8.19796 9.46296 8.16695 9.50496 8.13195C9.71733 7.95422 9.85645 7.70425 9.89559 7.4301C9.93473 7.15596 9.87115 6.87702 9.717 6.64696C9.56079 6.41469 9.32347 6.24907 9.0516 6.18248C8.77972 6.1159 8.49276 6.15314 8.24691 6.28695C8.21791 6.30295 8.18997 6.32096 8.16097 6.33696C8.12386 6.36406 8.0815 6.38305 8.03658 6.39272C7.99166 6.40239 7.9452 6.40251 7.90023 6.39309C7.85526 6.38366 7.81272 6.3649 7.77547 6.338C7.73822 6.3111 7.70702 6.27668 7.68392 6.23696C7.66161 6.19706 7.64773 6.15303 7.64303 6.10756C7.63832 6.06209 7.64291 6.01611 7.65658 5.97249C7.67024 5.92887 7.69268 5.8885 7.72249 5.85384C7.7523 5.81918 7.78883 5.79099 7.82992 5.77095C8.06935 5.61314 8.34502 5.51886 8.63094 5.49697Z" fill="#8E8E8E"/>
</svg>
