<svg width="15" height="15" viewBox="0 0 15 15" fill="#8e8e8e" xmlns="http://www.w3.org/2000/svg">
<mask id="mask0_22_128" style="mask-type:luminance" maskUnits="userSpaceOnUse" x="0" y="0" width="15" height="15">
<path d="M14.711 0.650879H0.992004V14.3479H14.711V0.650879Z" fill="#8e8e8e"/>
</mask>
<g mask="url(#mask0_22_128)">
<path d="M14.416 14.3499H10.343C10.2393 14.314 10.1513 14.2432 10.0938 14.1497C10.0364 14.0562 10.0131 13.9457 10.028 13.8369C10.035 13.4189 10.035 12.9999 10.02 12.5829C10.0156 12.4415 9.97373 12.3038 9.89871 12.1838C9.8237 12.0638 9.7182 11.9658 9.59298 11.8999C9.45829 11.8197 9.3047 11.7767 9.14793 11.7752C8.99115 11.7738 8.83681 11.8141 8.7007 11.8919C8.56459 11.9697 8.4516 12.0823 8.37328 12.2181C8.29497 12.354 8.25414 12.5082 8.25498 12.6649C8.24498 13.0469 8.24298 13.4309 8.25498 13.8129C8.27221 13.9232 8.25204 14.0361 8.19767 14.1336C8.1433 14.2311 8.05787 14.3076 7.95498 14.3509H3.88598C3.78254 14.3143 3.69482 14.2433 3.63748 14.1497C3.58014 14.0561 3.55667 13.9457 3.57098 13.8369C3.57698 12.7769 3.57098 11.7159 3.57098 10.6559V10.4789H3.41498C3.14698 10.4789 2.87898 10.4849 2.61498 10.4729C2.33624 10.469 2.06338 10.3922 1.82343 10.2503C1.58348 10.1084 1.38477 9.90628 1.24698 9.66394C1.14252 9.45001 1.05751 9.22711 0.992981 8.99794L0.992981 8.59794C1.00198 8.56394 1.01298 8.53094 1.01998 8.49794C1.06222 8.25117 1.16077 8.01745 1.30798 7.81494C1.46216 7.59451 1.66736 7.41463 1.90608 7.29065C2.14481 7.16667 2.40998 7.10227 2.67898 7.10294C2.97198 7.09694 3.26598 7.10294 3.57898 7.10294V6.92994C3.57898 5.86927 3.57898 4.80861 3.57898 3.74794C3.57898 3.37194 3.71998 3.23194 4.09698 3.23094H7.44898C7.44898 3.15494 7.44898 3.09394 7.44898 3.03094C7.44271 2.71499 7.45238 2.39892 7.47798 2.08394C7.53341 1.7174 7.70831 1.37941 7.97553 1.12246C8.24274 0.865508 8.58732 0.703973 8.95575 0.662934C9.32418 0.621896 9.69586 0.703651 10.0131 0.895505C10.3303 1.08736 10.5753 1.37858 10.71 1.72394C10.7806 1.95097 10.821 2.18634 10.83 2.42394C10.85 2.68394 10.83 2.94694 10.83 3.22394H11.003C12.066 3.22394 13.129 3.22394 14.191 3.22394C14.2998 3.20951 14.4102 3.23281 14.504 3.28994C14.5977 3.34708 14.669 3.43461 14.706 3.53794V7.60794C14.6626 7.71102 14.586 7.79658 14.4883 7.85097C14.3905 7.90535 14.2774 7.92541 14.167 7.90794C13.9 7.89394 13.632 7.90294 13.367 7.90794C13.1977 7.90243 13.0283 7.90911 12.86 7.92794C12.6473 7.96383 12.4553 8.07664 12.3204 8.2449C12.1856 8.41316 12.1172 8.62513 12.1285 8.84048C12.1397 9.05584 12.2297 9.25955 12.3814 9.41286C12.533 9.56617 12.7358 9.65838 12.951 9.67194C13.365 9.68894 13.78 9.68594 14.194 9.67894C14.3027 9.66399 14.4133 9.68708 14.507 9.7443C14.6006 9.80153 14.6716 9.88936 14.708 9.99294V14.0499L14.413 14.3439M7.44698 13.5349C7.44698 13.2829 7.44698 13.0469 7.44698 12.8109C7.44656 12.6686 7.45491 12.5263 7.47198 12.3849C7.53287 12.0053 7.72151 11.6579 8.00671 11.4001C8.2919 11.1423 8.65656 10.9895 9.04037 10.9671C9.42417 10.9447 9.80411 11.054 10.1174 11.2769C10.4306 11.4998 10.6584 11.823 10.763 12.1929C10.8047 12.3838 10.8264 12.5785 10.828 12.7739C10.839 13.0259 10.828 13.2789 10.828 13.5319H13.893V10.4729C13.562 10.4729 13.24 10.4889 12.92 10.4729C12.6117 10.4661 12.312 10.3704 12.0569 10.1972C11.8018 10.0241 11.6022 9.78088 11.482 9.49694C11.3476 9.22748 11.292 8.92556 11.3215 8.62589C11.3511 8.32622 11.4646 8.04098 11.649 7.80294C11.8019 7.58379 12.0062 7.40541 12.244 7.28339C12.4817 7.16137 12.7458 7.09942 13.013 7.10294C13.306 7.09694 13.599 7.10294 13.896 7.10294V4.03294H10.544C10.167 4.03294 10.032 3.89594 10.031 3.51494C10.031 3.09594 10.031 2.67694 10.02 2.25894C10.0148 2.12152 9.97401 1.98779 9.90161 1.87087C9.82922 1.75395 9.72769 1.65783 9.60698 1.59194C9.47258 1.50806 9.3181 1.46184 9.1597 1.45812C9.00131 1.4544 8.84483 1.49331 8.70664 1.57079C8.56844 1.64827 8.45361 1.76147 8.37415 1.89854C8.29469 2.03561 8.25353 2.19151 8.25498 2.34994C8.24498 2.74194 8.25498 3.13394 8.25498 3.52694C8.25498 3.89594 8.11698 4.03394 7.74598 4.03394C6.67898 4.03394 5.61198 4.03394 4.54598 4.03394C4.40798 4.03394 4.37598 4.06994 4.37698 4.20494C4.38298 5.28394 4.37698 6.36194 4.37698 7.44094C4.38655 7.50461 4.381 7.56963 4.36076 7.63075C4.34053 7.69187 4.30619 7.74736 4.26052 7.79274C4.21485 7.83812 4.15914 7.8721 4.09789 7.89194C4.03664 7.91178 3.97158 7.91692 3.90798 7.90694C3.52798 7.90694 3.14898 7.90694 2.76898 7.90694C2.68419 7.9064 2.59952 7.91343 2.51598 7.92794C2.30881 7.96803 2.12272 8.08067 1.99112 8.24562C1.85952 8.41057 1.79104 8.61704 1.79798 8.82794C1.80526 9.04433 1.89288 9.25025 2.04374 9.40555C2.1946 9.56085 2.39789 9.65439 2.61398 9.66794C3.02898 9.68494 3.44398 9.67594 3.85898 9.67794C4.23998 9.67794 4.37698 9.81394 4.37698 10.1919C4.37698 11.2586 4.37698 12.3253 4.37698 13.3919V13.5449L7.44698 13.5349Z" fill="#8e8e8e"/>
</g>
</svg>
