<svg width="19" height="20" viewBox="0 0 19 20" fill="none" xmlns="http://www.w3.org/2000/svg">
<path d="M2.18511 19.6749C1.76756 19.5593 1.38168 19.3504 1.05669 19.0638C0.731709 18.7773 0.476129 18.4207 0.309136 18.0209C0.0712019 17.4897 -0.0318416 16.9079 0.0093317 16.3273C0.050505 15.7467 0.234581 15.1852 0.545098 14.6929C0.671098 14.4789 0.845087 14.2929 0.983087 14.0879C1.03341 14.018 1.06384 13.9357 1.0711 13.8499C1.0811 13.5109 1.0711 13.1719 1.0711 12.8319C1.06543 12.6952 1.08821 12.5588 1.13799 12.4314C1.18778 12.304 1.26346 12.1883 1.36028 12.0917C1.45711 11.995 1.57298 11.9195 1.70049 11.87C1.82801 11.8205 1.96446 11.798 2.10113 11.8039C3.31113 11.8039 4.52113 11.8039 5.73113 11.8039H5.99017V11.5929C5.99017 10.6139 5.98417 9.63391 5.99017 8.65491C5.96723 7.87552 6.15816 7.10474 6.54229 6.42621C6.92642 5.74767 7.48905 5.1873 8.16912 4.80591C8.20103 4.78103 8.22753 4.74994 8.24712 4.71454C8.26672 4.67914 8.27901 4.6401 8.28314 4.59985C8.29814 4.38285 8.28312 4.1649 8.28912 3.9469C8.2859 3.68263 8.36393 3.42372 8.51275 3.20532C8.66157 2.98692 8.87402 2.81957 9.12115 2.72589C9.23215 2.68189 9.28406 2.6319 9.27606 2.5069C9.26406 2.3359 9.27606 2.16386 9.27606 1.96686H9.05413C8.29213 1.96686 7.5301 1.95086 6.7691 1.97186C6.52163 1.99527 6.27427 1.92666 6.07427 1.77905C5.87427 1.63145 5.73569 1.41524 5.68511 1.17188C5.63935 0.923559 5.69035 0.667159 5.82757 0.4552C5.96478 0.243241 6.17786 0.091761 6.42315 0.0318604C6.43315 0.0318604 6.44115 0.0148594 6.44915 0.00585938H11.0991C11.1521 0.0268594 11.1991 0.0489087 11.2571 0.0689087C11.4196 0.125553 11.5637 0.224842 11.6745 0.356445C11.7853 0.488048 11.8586 0.647056 11.8868 0.816772C11.9149 0.986489 11.8968 1.16067 11.8344 1.32098C11.772 1.4813 11.6676 1.62188 11.5322 1.72791C11.4224 1.79544 11.3361 1.89506 11.285 2.01331C11.2338 2.13155 11.2203 2.26265 11.2461 2.38885C11.2514 2.43337 11.2514 2.47838 11.2461 2.52289C11.2301 2.63789 11.2821 2.68488 11.3881 2.72888C11.6347 2.81729 11.8475 2.9804 11.997 3.1955C12.1465 3.41059 12.2252 3.66697 12.2221 3.92889C12.2301 4.14589 12.2321 4.36491 12.2221 4.58191C12.2157 4.63484 12.2271 4.68835 12.2544 4.73413C12.2818 4.77991 12.3235 4.81537 12.3731 4.8349C12.9266 5.13636 13.3977 5.56902 13.745 6.09491C13.773 6.1434 13.8146 6.18268 13.8644 6.20807C13.9143 6.23345 13.9704 6.24379 14.0261 6.23785C15.0314 6.23319 16.0367 6.23319 17.042 6.23785C17.2725 6.22471 17.5001 6.29454 17.6835 6.43469C17.867 6.57484 17.9941 6.77607 18.042 7.00189C18.0692 7.19796 18.0692 7.39683 18.042 7.5929C17.937 8.7929 17.8242 10.0019 17.7142 11.2069C17.6062 12.3919 17.4951 13.5779 17.3931 14.7639C17.2355 16.047 17.152 17.3381 17.1431 18.6309C17.1657 18.8606 17.1039 19.0907 16.9694 19.2784C16.8349 19.466 16.637 19.5984 16.4122 19.6509C16.3959 19.6596 16.381 19.6707 16.3681 19.6839L2.18511 19.6749ZM13.0301 6.22986C12.9701 6.15486 12.9421 6.11388 12.9081 6.07788C12.5058 5.62422 11.9916 5.28395 11.4168 5.09094C10.842 4.89794 10.2267 4.85896 9.63213 4.97791C8.78989 5.11997 8.02629 5.55889 7.47967 6.21521C6.93304 6.87153 6.63954 7.70186 6.65215 8.55591C6.64415 9.57391 6.65215 10.5919 6.65215 11.6099C6.65215 11.6659 6.65816 11.7219 6.66216 11.7849C6.70916 11.7849 6.74614 11.7969 6.78314 11.7969C7.17414 11.7969 7.56413 11.7919 7.95513 11.7969C8.08667 11.7952 8.21714 11.8201 8.33892 11.8698C8.4607 11.9196 8.57133 11.9932 8.66412 12.0865C8.7569 12.1797 8.82995 12.2906 8.87908 12.4127C8.92821 12.5347 8.95241 12.6653 8.95013 12.7969C8.95013 13.1359 8.94413 13.4759 8.95513 13.8149C8.96385 13.9131 8.99832 14.0073 9.05511 14.0879C9.19311 14.2949 9.36214 14.4879 9.49114 14.6949C9.90253 15.3473 10.0859 16.1177 10.0126 16.8855C9.93934 17.6533 9.61349 18.3751 9.08611 18.9379C9.07231 18.9571 9.06153 18.9783 9.05413 19.0009H12.5611C12.5611 18.7679 12.5661 18.5449 12.5611 18.3219C12.5471 17.8219 12.5472 17.3219 12.5062 16.8219C12.3952 15.4759 12.2651 14.1319 12.1421 12.7879C12.0321 11.5832 11.9221 10.3789 11.8121 9.17487C11.7531 8.52487 11.6811 7.87488 11.6461 7.22388C11.64 7.09531 11.6599 6.96684 11.7044 6.84607C11.7489 6.7253 11.8172 6.61471 11.9052 6.52081C11.9932 6.42691 12.0992 6.35164 12.2169 6.29944C12.3345 6.24723 12.4615 6.21912 12.5901 6.21686C12.7191 6.22386 12.8541 6.22986 13.0301 6.22986ZM1.73614 13.7699H1.96014C2.10114 13.7699 2.24213 13.7639 2.38213 13.7699C2.4256 13.7692 2.4688 13.7771 2.50921 13.7932C2.54962 13.8092 2.58641 13.833 2.61761 13.8633C2.64881 13.8936 2.67373 13.9297 2.69097 13.9696C2.70821 14.0095 2.71742 14.0524 2.71807 14.0959C2.71782 14.1393 2.70894 14.1821 2.69195 14.222C2.67496 14.262 2.65028 14.2981 2.61919 14.3283C2.58811 14.3586 2.55127 14.3823 2.51092 14.3982C2.47057 14.4141 2.42745 14.4218 2.38409 14.4209C2.30109 14.4269 2.21809 14.4209 2.13409 14.4209C1.48009 14.4209 1.48009 14.4209 1.13409 14.9769L1.10406 15.0259C0.796109 15.5171 0.643027 16.0896 0.664605 16.669C0.686183 17.2484 0.881516 17.8079 1.22515 18.2749C1.39878 18.5133 1.62765 18.706 1.89227 18.8363C2.15688 18.9666 2.44922 19.0306 2.74407 19.0229C4.30607 18.9969 5.86906 19.0109 7.43206 19.0229C7.70151 19.0269 7.96656 18.954 8.1961 18.8129C8.60412 18.5766 8.92421 18.2141 9.10809 17.7799C9.34328 17.2553 9.4212 16.6738 9.33245 16.1058C9.2437 15.5378 8.99209 15.0077 8.60809 14.5799C8.56965 14.5265 8.51838 14.4837 8.45892 14.4556C8.39946 14.4274 8.33378 14.4148 8.26812 14.4189C6.91712 14.4249 5.56817 14.4189 4.21417 14.4189C4.13738 14.4214 4.06041 14.4184 3.98406 14.4099C3.90891 14.4036 3.83898 14.3693 3.78802 14.3137C3.73706 14.2581 3.7089 14.1853 3.70916 14.1099C3.70091 14.0323 3.72236 13.9546 3.76934 13.8924C3.81633 13.8302 3.88527 13.7882 3.96209 13.7749C4.03767 13.7617 4.11441 13.7564 4.19109 13.7589H8.29107C8.29107 13.4589 8.29107 13.1889 8.29107 12.9149C8.29107 12.5479 8.19115 12.4469 7.82415 12.4469H2.19512C2.13769 12.4446 2.08018 12.4469 2.02313 12.4539C1.94771 12.4573 1.87631 12.4892 1.8233 12.5429C1.77029 12.5967 1.73955 12.6684 1.73711 12.7439C1.72911 13.0849 1.73614 13.4169 1.73614 13.7699ZM16.521 17.0449L17.2941 8.54486H12.4111C12.6701 11.3889 12.9271 14.2159 13.1841 17.0449H16.521ZM17.3521 7.86786C17.3701 7.68686 17.3912 7.52289 17.4022 7.35889C17.4262 6.99689 17.3191 6.88391 16.9551 6.88391H12.7551C12.6976 6.88109 12.6401 6.8834 12.5831 6.89087C12.5117 6.89612 12.4445 6.92674 12.3937 6.97717C12.3429 7.0276 12.3119 7.09455 12.3061 7.16589C12.3061 7.39889 12.3342 7.63191 12.3502 7.86591L17.3521 7.86786ZM13.2151 17.7209C13.2151 18.0609 13.2101 18.3799 13.2151 18.6989C13.214 18.7409 13.2215 18.7828 13.2371 18.8218C13.2527 18.8609 13.2761 18.8965 13.3058 18.9262C13.3356 18.956 13.371 18.9793 13.4101 18.9949C13.4492 19.0105 13.4911 19.018 13.5331 19.0169C14.4091 19.0222 15.2855 19.0222 16.1622 19.0169C16.2011 19.0206 16.2404 19.0163 16.2776 19.0043C16.3149 18.9923 16.3492 18.9729 16.3787 18.9471C16.4082 18.9214 16.4321 18.8899 16.449 18.8546C16.4659 18.8193 16.4755 18.781 16.4771 18.7419C16.4931 18.4059 16.4771 18.0679 16.4771 17.7209H13.2151ZM8.78509 1.30988H10.8581C11.0961 1.30988 11.2491 1.17488 11.2461 0.978882C11.2431 0.782882 11.0901 0.655884 10.8461 0.655884C9.47746 0.655884 8.1084 0.655884 6.73907 0.655884C6.47507 0.655884 6.33106 0.771858 6.32806 0.979858C6.32506 1.18786 6.4691 1.30985 6.7481 1.31085L8.78509 1.30988ZM8.95208 4.46991C9.80395 4.2027 10.7173 4.2027 11.5691 4.46991C11.5691 4.28591 11.5691 4.12189 11.5691 3.95789C11.5735 3.87105 11.5601 3.78426 11.5298 3.70276C11.4996 3.62126 11.4531 3.54672 11.3931 3.48376C11.3332 3.42081 11.261 3.37074 11.1811 3.33655C11.1012 3.30235 11.0151 3.28474 10.9282 3.28485C10.4802 3.27085 10.0282 3.27085 9.58416 3.28485C9.42508 3.28634 9.27222 3.3473 9.15582 3.45575C9.03941 3.56419 8.96786 3.71233 8.95513 3.87091C8.94013 4.05291 8.95208 4.25287 8.95208 4.46887V4.46991ZM10.5811 1.97888H9.9461V2.6059H10.5811V1.97888Z" fill="#8E8E8E"/>
<path d="M7.30605 8.44041C7.32256 7.90304 7.48515 7.38037 7.77638 6.92845C8.06762 6.47654 8.47645 6.11251 8.959 5.87547C9.02014 5.83329 9.09327 5.81198 9.1675 5.81468C9.24173 5.81738 9.31308 5.84397 9.37099 5.89049C9.4144 5.9264 9.44781 5.97295 9.46779 6.02562C9.48777 6.07829 9.49367 6.13524 9.485 6.1909C9.47633 6.24657 9.45341 6.29903 9.41835 6.34312C9.38329 6.38722 9.33732 6.42149 9.28505 6.44249C8.9739 6.5956 8.69882 6.813 8.47804 7.08043C8.15633 7.47718 7.9759 7.96977 7.9651 8.48045C7.97336 8.5577 7.95458 8.63537 7.91212 8.70042C7.86967 8.76548 7.80611 8.81385 7.73207 8.83739C7.49107 8.90939 7.30005 8.72941 7.30605 8.44041Z" fill="#8E8E8E"/>
<path d="M5.02808 15.743C5.75708 15.743 6.48706 15.743 7.21606 15.743C7.31042 15.7336 7.40527 15.7554 7.48608 15.805C7.52727 15.8412 7.56059 15.8854 7.58398 15.9349C7.60738 15.9845 7.62033 16.0382 7.62207 16.093C7.58726 16.2027 7.51693 16.2977 7.42212 16.363C7.35254 16.3953 7.27496 16.4065 7.1991 16.395C5.74643 16.395 4.29416 16.395 2.84216 16.395C2.81616 16.395 2.79114 16.395 2.76514 16.395C2.53814 16.384 2.39307 16.2551 2.39307 16.0641C2.39381 16.0175 2.40438 15.9715 2.42407 15.9293C2.44376 15.8871 2.47224 15.8496 2.50745 15.8191C2.54265 15.7886 2.58384 15.7659 2.62842 15.7524C2.673 15.739 2.71992 15.735 2.76611 15.741C3.51811 15.741 4.27308 15.743 5.02808 15.743Z" fill="#8E8E8E"/>
<path d="M5.00808 17.0518C5.42408 17.0518 5.84012 17.0518 6.25612 17.0518C6.51012 17.0518 6.64512 17.1667 6.64712 17.3717C6.64912 17.5767 6.50706 17.7047 6.26406 17.7057C5.43273 17.7057 4.59939 17.7057 3.76406 17.7057C3.52106 17.7057 3.37311 17.5788 3.37111 17.3798C3.36911 17.1808 3.51112 17.0528 3.75612 17.0518C4.17812 17.0518 4.59308 17.0518 5.00808 17.0518Z" fill="#8E8E8E"/>
</svg>
