<?xml version="1.0" encoding="iso-8859-1"?>
<!-- Uploaded to: SVG Repo, www.svgrepo.com, Generator: SVG Repo Mixer Tools -->
<!DOCTYPE svg PUBLIC "-//W3C//DTD SVG 1.1//EN" "http://www.w3.org/Graphics/SVG/1.1/DTD/svg11.dtd">
<svg fill="#FFFFFF" version="1.1" id="Capa_1" xmlns="http://www.w3.org/2000/svg" xmlns:xlink="http://www.w3.org/1999/xlink" 
	 width="800px" height="800px" viewBox="0 0 52.701 52.701"
	 xml:space="preserve">
<g>
	<g>
		<path d="M15.845,24.278c0.062,0.135,0.141,0.285,0.232,0.441c2.04,4.484,5.876,7.52,10.272,7.52c4.542,0,8.49-3.236,10.473-7.966
			c0.112,0.044,0.233,0.073,0.36,0.073c3.951,0,7.166-3.129,7.166-6.976c0-3.039-2.01-5.623-4.801-6.577
			c0.002-0.114-0.009-0.23-0.05-0.344C37.22,4.101,32.058,0,26.349,0c-5.798,0-10.99,4.191-13.229,10.677
			c-0.015,0.044-0.009,0.088-0.018,0.132c-2.767,0.967-4.754,3.539-4.754,6.56c0,3.846,3.215,6.976,7.167,6.976
			C15.633,24.344,15.742,24.315,15.845,24.278z M26.35,30.236c-2.277,0-4.37-1.026-6.039-2.733c0.489,0.114,1.022,0.204,1.617,0.258
			c0.444,0.617,1.318,1.024,2.384,1.024c1.542,0,2.705-0.842,2.705-1.959s-1.163-1.959-2.705-1.959
			c-0.989,0-1.817,0.349-2.288,0.893c-2.679-0.262-3.769-1.312-4.194-1.996c-0.83-1.887-1.313-4.067-1.313-6.396
			c0-7.096,4.411-12.869,9.833-12.869c5.422,0,9.834,5.773,9.834,12.869C36.185,24.464,31.772,30.236,26.35,30.236z M42.351,17.369
			c0,2.641-2.152,4.786-4.854,4.945c0.438-1.55,0.688-3.209,0.688-4.945c0-1.736-0.25-3.396-0.688-4.945
			C40.198,12.583,42.351,14.728,42.351,17.369z M26.35,2c4.639,0,8.875,3.274,10.98,8.4c-0.049-0.001-0.097-0.007-0.146-0.007
			c-0.129,0-0.25,0.029-0.361,0.073C34.841,5.737,30.892,2.5,26.35,2.5c-4.542,0-8.488,3.236-10.472,7.966
			c-0.112-0.044-0.233-0.073-0.361-0.073c-0.051,0-0.101,0.006-0.151,0.007C17.469,5.267,21.693,2,26.35,2z M10.35,17.369
			c0-2.641,2.153-4.786,4.854-4.945c-0.438,1.55-0.688,3.209-0.688,4.945c0,1.736,0.25,3.396,0.688,4.945
			C12.503,22.155,10.35,20.009,10.35,17.369z"/>
		<path d="M52.454,40.326c0-0.553-0.447-1-1-1c-7.9,0-15.514-7.217-16.354-8.041c-0.211-0.205-0.504-0.309-0.791-0.28
			c-0.293,0.026-0.559,0.181-0.728,0.421c-1.868,2.66-4.504,4.186-7.232,4.186s-5.363-1.524-7.231-4.186
			c-0.169-0.24-0.435-0.395-0.727-0.421c-0.29-0.028-0.582,0.076-0.791,0.28c-0.841,0.824-8.447,8.041-16.354,8.041
			c-0.553,0-1,0.447-1,1v11.375c0,0.552,0.447,1,1,1h21.212c0.445,0,0.837-0.295,0.961-0.723l1.812-6.277h2.24l1.812,6.277
			c0.124,0.428,0.517,0.723,0.961,0.723h21.21c0.553,0,1-0.448,1-1V40.326z M50.454,50.701h-19.46l-1.812-6.277
			c-0.125-0.428-0.517-0.723-0.961-0.723h-3.744c-0.445,0-0.837,0.293-0.961,0.723l-1.812,6.277H2.245v-9.407
			c7.077-0.455,13.471-5.583,15.932-7.808c2.193,2.635,5.119,4.125,8.172,4.125c3.054,0,5.979-1.49,8.173-4.127
			c2.463,2.225,8.859,7.354,15.932,7.809V50.701z"/>
		<path d="M28.517,38.201h-4.331c-0.553,0-1,0.447-1,1v3.375c0,0.552,0.447,1,1,1h4.331c0.553,0,1-0.448,1-1v-3.375
			C29.517,38.648,29.069,38.201,28.517,38.201z M27.517,41.576h-2.331v-1.375h2.331V41.576z"/>
	</g>
</g>
</svg>