<svg width="24" height="24" viewBox="0 0 24 24" fill="none" xmlns="http://www.w3.org/2000/svg">
<path d="M22.7621 21.8879L16.3471 15.4129C17.801 13.5806 18.4973 11.2607 18.2927 8.93067C18.088 6.60059 16.9981 4.43758 15.2471 2.88673C13.4961 1.33588 11.2173 0.515182 8.87956 0.593511C6.54183 0.671841 4.32305 1.64324 2.67979 3.30782C1.03654 4.9724 0.093825 7.20352 0.045643 9.54207C-0.00253898 11.8806 0.847477 14.1487 2.42077 15.8795C3.99407 17.6104 6.17096 18.6723 8.50347 18.8469C10.836 19.0214 13.1467 18.2953 14.9601 16.8179L21.3331 23.2509C21.5133 23.44 21.761 23.55 22.0221 23.5567C22.2832 23.5635 22.5364 23.4664 22.7261 23.2869C22.9153 23.1056 23.0253 22.8568 23.032 22.5948C23.0387 22.3328 22.9417 22.0787 22.7621 21.8879ZM9.16808 16.8949C7.49795 16.8953 5.87936 16.3165 4.58816 15.2572C3.29696 14.1979 2.41305 12.7237 2.08709 11.0856C1.76113 9.44764 2.01328 7.74728 2.80057 6.27436C3.58786 4.80144 4.86157 3.64711 6.40462 3.00811C7.94767 2.3691 9.66456 2.28497 11.2627 2.77004C12.8608 3.25512 14.2413 4.27938 15.1688 5.66827C16.0963 7.05716 16.5135 8.72472 16.3493 10.3867C16.185 12.0488 15.4495 13.6024 14.2681 14.7829C13.5996 15.4543 12.8047 15.9866 11.9293 16.349C11.054 16.7115 10.1155 16.8971 9.16808 16.8949Z" fill="#8E8E8E"/>
</svg>
