<?xml version="1.0" standalone="no"?>
<!DOCTYPE svg PUBLIC "-//W3C//DTD SVG 20010904//EN"
 "http://www.w3.org/TR/2001/REC-SVG-20010904/DTD/svg10.dtd">
<svg version="1.0" xmlns="http://www.w3.org/2000/svg"
 width="908.000000pt" height="908.000000pt" viewBox="0 0 908.000000 908.000000"
 preserveAspectRatio="xMidYMid meet">
<metadata>
Created by potrace 1.14, written by Peter Selinger 2001-2017
</metadata>
<g transform="translate(0.000000,908.000000) scale(0.100000,-0.100000)"
fill="#000000" stroke="none">
<path d="M3017 7124 c-1 -1 -34 -4 -74 -7 -130 -11 -241 -44 -389 -116 -77
-38 -168 -90 -204 -116 -176 -130 -334 -326 -485 -600 -21 -38 -44 -73 -49
-77 -7 -5 -7 -8 -1 -8 7 0 7 -3 0 -8 -5 -4 -18 -23 -29 -42 -68 -128 -163
-294 -235 -410 -25 -41 -50 -82 -56 -91 -11 -18 -120 -205 -145 -248 -8 -14
-25 -42 -37 -61 -12 -20 -28 -47 -35 -60 -8 -14 -36 -62 -63 -108 -65 -109
-67 -112 -208 -357 -101 -176 -158 -272 -227 -385 -10 -16 -70 -121 -102 -177
-10 -18 -26 -48 -37 -65 -17 -30 -67 -118 -120 -210 -66 -116 -125 -215 -142
-239 -10 -15 -19 -30 -19 -34 0 -4 -36 -67 -80 -141 -44 -73 -80 -138 -80
-144 0 -5 -3 -10 -7 -10 -5 0 -13 -10 -19 -23 -6 -12 -30 -56 -53 -97 -23 -41
-42 -76 -41 -78 1 -1 -9 -28 -21 -60 -40 -105 -58 -226 -55 -357 4 -125 5
-132 31 -224 61 -213 229 -419 435 -533 56 -31 159 -67 200 -70 17 -1 34 -6
36 -10 2 -3 514 -7 1137 -7 889 -1 1140 2 1167 12 71 26 229 112 250 137 3 3
21 17 40 30 59 40 240 228 240 249 0 5 4 11 9 13 8 3 101 135 101 144 0 3 16
29 35 58 19 29 35 56 35 60 0 4 13 27 30 51 16 24 34 54 40 67 5 13 28 52 51
88 23 36 51 84 64 107 13 22 34 58 48 80 13 21 24 42 25 47 0 5 4 12 9 15 7 5
243 391 294 481 8 14 17 27 21 30 4 3 12 17 18 30 6 14 24 45 40 70 16 25 33
52 37 60 15 32 68 115 77 122 15 10 20 5 83 -85 31 -45 63 -88 70 -95 7 -7 13
-17 13 -22 0 -5 6 -15 13 -22 30 -31 287 -405 287 -418 0 -4 4 -10 8 -12 5 -1
33 -41 63 -88 29 -47 59 -91 65 -97 7 -7 22 -29 35 -50 13 -21 27 -42 31 -48
16 -20 147 -205 200 -282 30 -43 81 -121 113 -173 105 -169 177 -255 290 -345
28 -22 52 -43 55 -46 3 -4 37 -27 75 -51 82 -53 192 -99 245 -103 21 -1 42 -5
46 -7 7 -4 1370 -1 1429 2 6 1 54 0 108 -1 53 -1 99 0 102 3 3 2 26 2 52 -1
61 -8 388 -6 428 2 17 3 50 9 73 12 93 13 300 94 340 132 7 7 18 13 23 13 21
0 178 171 223 243 49 79 100 193 110 244 3 15 9 53 15 83 10 57 8 273 -4 325
-15 67 -89 238 -150 345 -36 63 -65 117 -65 121 0 4 -4 9 -8 11 -8 3 -56 82
-82 133 -8 17 -22 39 -32 49 -10 11 -18 23 -18 27 0 4 -36 68 -80 143 -44 76
-80 141 -80 146 0 6 -4 10 -8 10 -4 0 -13 12 -19 28 -7 15 -18 36 -25 47 -41
62 -95 155 -104 178 -3 9 -9 17 -13 17 -4 0 -13 16 -21 35 -8 19 -17 35 -22
35 -4 0 -8 4 -8 9 0 5 -19 42 -43 83 -24 40 -46 80 -50 88 -4 8 -17 31 -28 50
-11 19 -53 91 -92 160 -39 69 -133 228 -209 354 -76 125 -138 230 -138 232 0
2 -18 33 -40 69 -22 36 -40 69 -40 74 0 5 -7 14 -15 21 -9 7 -13 15 -11 18 3
2 -4 16 -14 30 -11 13 -20 31 -20 38 0 8 -4 14 -8 14 -4 0 -18 19 -30 43 -12
23 -40 74 -62 112 -22 39 -59 103 -83 144 -167 290 -197 344 -197 353 0 5 -7
11 -15 14 -8 4 -15 12 -15 20 0 8 -19 44 -43 81 -23 38 -49 80 -56 96 -8 15
-18 27 -23 27 -4 0 -8 6 -8 13 0 7 -9 23 -20 35 -11 12 -20 24 -20 27 0 4 -28
41 -62 83 -138 170 -263 271 -445 361 -121 60 -203 89 -313 112 -25 5 -56 12
-70 15 -14 4 -81 8 -150 10 -171 4 -311 -23 -467 -93 -29 -12 -56 -22 -59 -22
-4 0 -10 -3 -13 -8 -3 -4 -26 -19 -51 -32 -103 -56 -227 -160 -323 -272 -66
-77 -196 -282 -338 -534 -38 -66 -73 -126 -79 -132 -6 -7 -8 -13 -4 -13 3 0 2
-6 -4 -12 -6 -7 -26 -45 -46 -85 -64 -128 -77 -128 -151 -1 -27 46 -97 160
-156 255 -59 94 -120 195 -136 225 -125 226 -277 404 -437 514 -97 67 -310
166 -378 178 -15 3 -32 7 -36 10 -14 9 -307 27 -315 20z m61 -846 c97 -24 185
-101 244 -213 20 -39 62 -108 92 -154 31 -46 56 -86 56 -90 0 -5 44 -75 67
-107 8 -11 22 -34 55 -93 11 -20 23 -38 27 -41 4 -3 15 -21 24 -40 21 -42 197
-330 275 -450 126 -195 129 -208 58 -331 -27 -46 -54 -87 -60 -91 -6 -4 -8 -8
-4 -8 6 0 -27 -57 -50 -85 -4 -5 -11 -17 -14 -25 -4 -8 -41 -69 -82 -135 -41
-66 -134 -219 -207 -340 -72 -121 -142 -237 -155 -257 -13 -21 -24 -42 -24
-48 0 -5 -4 -10 -9 -10 -5 0 -13 -10 -17 -22 -3 -13 -12 -30 -20 -38 -7 -9
-49 -86 -93 -171 -43 -86 -95 -180 -114 -210 -18 -30 -53 -90 -77 -134 -157
-290 -231 -382 -323 -400 -9 -2 -21 -7 -27 -10 -5 -3 -390 -6 -856 -5 -940 0
-896 -3 -929 66 -29 62 -27 68 131 332 57 95 104 175 104 177 0 3 20 36 45 75
25 39 45 72 45 75 0 3 60 107 133 232 73 126 136 235 140 243 4 8 16 29 27 45
11 17 24 39 30 50 5 11 25 47 45 80 20 33 38 68 42 78 3 9 9 17 14 17 5 0 9 5
9 11 0 7 18 40 40 75 22 35 40 66 40 69 0 3 9 18 19 33 37 53 311 521 311 531
0 6 4 11 8 11 4 0 20 24 35 53 15 28 38 70 52 92 13 22 36 63 51 90 14 28 35
62 45 77 11 14 19 29 19 32 0 3 24 45 53 93 29 48 56 95 60 103 4 8 16 29 27
45 11 17 28 46 38 65 10 19 55 95 100 168 45 73 82 137 82 142 0 6 4 10 9 10
5 0 15 12 22 28 36 71 136 212 181 254 68 65 117 79 206 56z m3102 -23 c32
-17 96 -82 118 -122 24 -41 281 -472 301 -503 8 -14 21 -34 27 -45 6 -11 19
-34 30 -52 51 -84 88 -148 89 -153 0 -5 9 -19 52 -87 30 -47 39 -63 84 -143
14 -23 48 -80 76 -125 7 -11 29 -48 49 -82 19 -35 40 -65 45 -69 5 -3 9 -14 9
-24 0 -10 3 -20 8 -22 4 -1 32 -46 62 -98 29 -52 92 -158 138 -235 47 -77 92
-153 102 -170 69 -118 131 -227 152 -265 55 -98 142 -246 158 -270 10 -14 27
-41 38 -60 11 -19 58 -100 103 -180 46 -80 91 -158 99 -175 8 -16 17 -32 20
-35 3 -3 11 -16 18 -29 52 -91 71 -124 171 -286 79 -128 82 -188 13 -240 -24
-18 -45 -20 -212 -23 -102 -1 -205 -2 -230 -1 -25 0 -65 0 -90 0 -25 0 -61 0
-80 0 -19 0 -289 1 -600 3 -619 2 -584 -1 -659 62 -33 28 -124 144 -159 204
-12 19 -53 98 -93 175 -39 77 -80 152 -90 167 -11 14 -19 28 -19 31 0 3 -52
94 -115 202 -63 108 -115 198 -115 200 0 2 -20 38 -45 79 -25 42 -45 81 -45
86 0 6 -3 10 -7 10 -5 0 -17 19 -28 43 -11 23 -23 44 -27 47 -4 3 -18 24 -30
47 -13 23 -56 96 -95 163 -40 67 -73 126 -73 130 0 5 -4 10 -8 12 -4 2 -28 39
-53 83 -25 44 -83 145 -129 225 -46 80 -83 154 -82 166 2 23 169 327 183 332
5 2 9 8 9 14 0 13 132 232 142 236 5 2 8 8 8 14 0 12 68 127 87 146 7 7 13 17
13 21 0 5 29 52 64 105 36 53 63 96 60 96 -3 0 0 6 6 13 6 6 42 60 80 118 116
178 213 268 307 285 15 3 29 7 31 8 6 6 107 -16 132 -29z"/>
</g>
</svg>
