<svg xmlns="http://www.w3.org/2000/svg" width="84" height="84" viewBox="0 0 84 84" fill="none">
    <path opacity="0.5" d="M74 2H10C5.58172 2 2 5.58172 2 10V74C2 78.4183 5.58172 82 10 82H74C78.4183 82 82 78.4183 82 74V10C82 5.58172 78.4183 2 74 2Z" fill="black"/>
    <mask id="mask0_25_2174" style="mask-type:luminance" maskUnits="userSpaceOnUse" x="22" y="24" width="39" height="39">
    <path d="M60.8412 24.3262H22.8262V62.3432H60.8412V24.3262Z" fill="white"/>
    </mask>
    <g mask="url(#mask0_25_2174)">
        <path d="M41.8244 30.3087H45.1834C45.5298 30.2775 45.8761 30.3698 46.161 30.5692C46.446 30.7687 46.6512 31.0625 46.7404 31.3987C47.3194 33.0397 47.8894 34.6837 48.4644 36.3267C49.0644 38.0447 49.6667 39.7627 50.2714 41.4807C50.9014 43.274 51.5327 45.0667 52.1654 46.8587C52.6334 48.1927 53.0904 49.5297 53.5584 50.8587C54.0324 52.2097 54.5194 53.5587 54.9894 54.9077C55.0725 55.1192 55.111 55.3456 55.1024 55.5727C55.0758 55.7969 54.9644 56.0025 54.7911 56.1473C54.6179 56.2921 54.3958 56.3653 54.1704 56.3517C53.5764 56.3567 52.9824 56.3517 52.3884 56.3517H47.9884C47.6327 56.3871 47.2761 56.2943 46.9827 56.0901C46.6894 55.8858 46.4786 55.5836 46.3884 55.2377C45.8931 53.8877 45.3991 52.5374 44.9064 51.1867C44.8966 51.1424 44.8707 51.1033 44.8338 51.0769C44.7969 51.0505 44.7515 51.0387 44.7064 51.0437C42.8011 51.0437 40.8957 51.0437 38.9904 51.0437C38.9396 51.0372 38.8882 51.0506 38.8469 51.0809C38.8056 51.1112 38.7775 51.1563 38.7684 51.2067C38.3724 52.284 37.9724 53.36 37.5684 54.4347C37.4554 54.7347 37.3384 55.0347 37.2204 55.3347C37.1182 55.6465 36.9155 55.9156 36.6441 56.0999C36.3727 56.2843 36.0479 56.3735 35.7204 56.3537C33.6917 56.3537 31.6627 56.3537 29.6334 56.3537C29.3905 56.3847 29.145 56.3211 28.9477 56.1761C28.7503 56.0311 28.6163 55.8158 28.5734 55.5747C28.5531 55.3851 28.5771 55.1934 28.6434 55.0147C28.9154 54.2007 29.2034 53.3937 29.4874 52.5837C31.5394 46.731 33.5917 40.8784 35.6444 35.0257C36.0711 33.8084 36.5001 32.592 36.9314 31.3767C37.0245 31.0493 37.2283 30.7644 37.5081 30.5705C37.7878 30.3767 38.1262 30.2859 38.4654 30.3137H41.8244M43.1584 31.4367C43.1637 31.4758 43.1714 31.5145 43.1814 31.5527C43.5681 32.6534 43.9551 33.7534 44.3424 34.8527C44.6244 35.6527 44.9074 36.4597 45.1804 37.2667C45.2192 37.3571 45.2321 37.4566 45.2177 37.554C45.2033 37.6513 45.1621 37.7428 45.0987 37.8181C45.0353 37.8934 44.9523 37.9496 44.8588 37.9804C44.7653 38.0112 44.6651 38.0155 44.5694 37.9927C44.4653 37.9726 44.3692 37.9232 44.2921 37.8504C44.2151 37.7777 44.1604 37.6844 44.1344 37.5817C43.6891 36.325 43.2437 35.0684 42.7984 33.8117C42.5594 33.1307 42.3314 32.4447 42.0984 31.7637C41.9984 31.4867 41.9124 31.4207 41.6604 31.4207C40.5904 31.4207 39.5201 31.4207 38.4494 31.4207C38.1554 31.4207 38.0764 31.4837 37.9754 31.7657C37.8014 32.2537 37.6244 32.7417 37.4514 33.2307C37.1181 34.1794 36.7847 35.1284 36.4514 36.0777C35.8214 37.8777 35.1924 39.6777 34.5644 41.4777C33.8734 43.4457 33.1754 45.4117 32.4864 47.3777C31.8924 49.0777 31.3074 50.7707 30.7154 52.4667C30.4854 53.1257 30.2454 53.7807 30.0154 54.4387C29.9264 54.6927 29.8494 54.9497 29.7604 55.2267C29.8394 55.2327 29.8934 55.2407 29.9464 55.2407C30.6084 55.2407 31.2704 55.2427 31.9324 55.2467C32.4984 55.2467 32.5074 55.2387 32.7024 54.7047C32.7954 54.4497 32.8794 54.1897 32.9904 53.9427C33.0445 53.8111 33.1485 53.7063 33.2798 53.6514C33.411 53.5964 33.5587 53.5958 33.6904 53.6497C33.8188 53.7008 33.9221 53.8002 33.9782 53.9266C34.0342 54.0529 34.0386 54.1961 33.9904 54.3257C33.9234 54.5437 33.8344 54.7547 33.7574 54.9697C33.7274 55.0537 33.7014 55.1387 33.6644 55.2467H35.5494C36.1234 55.2467 36.1184 55.2467 36.3154 54.7097C36.6764 53.7247 37.0444 52.7427 37.4094 51.7587C37.4944 51.5297 37.5784 51.3007 37.6634 51.0667C37.6381 51.0603 37.6123 51.0556 37.5864 51.0527C36.8374 51.0527 36.0864 51.0437 35.3414 51.0527C35.3058 51.06 35.2724 51.0755 35.2438 51.0979C35.2152 51.1203 35.1921 51.1489 35.1764 51.1817C35.0824 51.4027 35.0094 51.6337 34.9244 51.8577C34.9049 51.9299 34.8707 51.9973 34.824 52.0558C34.7773 52.1142 34.7191 52.1624 34.6529 52.1974C34.5868 52.2323 34.5141 52.2533 34.4395 52.259C34.3649 52.2646 34.29 52.2549 34.2193 52.2303C34.1487 52.2058 34.0838 52.1669 34.0288 52.1162C33.9738 52.0655 33.9298 52.004 33.8996 51.9355C33.8694 51.8671 33.8537 51.7932 33.8533 51.7183C33.8529 51.6435 33.8679 51.5694 33.8974 51.5007C34.0394 51.0927 34.1974 50.6897 34.3524 50.2867C34.3837 50.1985 34.4383 50.1204 34.5105 50.0609C34.5828 50.0013 34.6698 49.9625 34.7624 49.9487C34.8848 49.9298 35.0086 49.9214 35.1324 49.9237C38.3244 49.9237 41.5164 49.9237 44.7084 49.9237C44.8998 49.912 45.0919 49.9174 45.2824 49.9397C45.4256 49.9647 45.5581 50.0315 45.6634 50.1317C45.7529 50.2491 45.8185 50.383 45.8564 50.5257C46.3864 51.9617 46.9144 53.3984 47.4404 54.8357C47.5734 55.1957 47.6354 55.2357 48.0074 55.2407C48.7067 55.2407 49.4067 55.2407 50.1074 55.2407C50.1775 55.2352 50.2472 55.2262 50.3164 55.2137C50.2674 55.0827 50.2274 54.9797 50.1904 54.8757C49.2624 52.225 48.3351 49.5747 47.4084 46.9247C46.8144 45.2297 46.2144 43.5377 45.6234 41.8417C45.4124 41.2357 45.1984 40.6297 45.0234 40.0137C45.0008 39.923 45.0029 39.8279 45.0295 39.7383C45.0561 39.6487 45.1061 39.5678 45.1745 39.504C45.2428 39.4403 45.327 39.3959 45.4182 39.3757C45.5095 39.3554 45.6045 39.3599 45.6934 39.3887C45.794 39.4203 45.8846 39.4779 45.9559 39.5557C46.0271 39.6335 46.0766 39.7287 46.0994 39.8317C46.6147 41.3117 47.1304 42.792 47.6464 44.2727C48.4664 46.614 49.2881 48.9547 50.1114 51.2947C50.5507 52.5467 50.9884 53.7994 51.4244 55.0527C51.4363 55.1146 51.472 55.1694 51.5237 55.2055C51.5754 55.2415 51.6392 55.2559 51.7014 55.2457C52.3504 55.2357 53.0014 55.2457 53.6504 55.2457C53.7344 55.2457 53.8174 55.2347 53.9234 55.2277C53.8924 55.1277 53.8694 55.0547 53.8434 54.9807C53.1661 53.0647 52.4904 51.149 51.8164 49.2337C50.6611 45.9377 49.5064 42.6417 48.3524 39.3457C47.8744 37.9827 47.3914 36.6217 46.9154 35.2587C46.5084 34.0937 46.1094 32.9257 45.7004 31.7587C45.5874 31.4367 45.5444 31.4127 45.2004 31.4137C44.5814 31.4137 43.9634 31.4137 43.3444 31.4207C43.2904 31.4207 43.2354 31.4207 43.1594 31.4287" fill="white"/>
        <path d="M43.3963 60.8547C43.3843 61.0547 43.3853 61.2297 43.3613 61.4007C43.3505 61.5068 43.3037 61.6061 43.2288 61.6821C43.1539 61.7581 43.0553 61.8063 42.9493 61.8187C42.7969 61.8428 42.6427 61.8539 42.4883 61.8517C42.0063 61.8517 41.5233 61.8517 41.0413 61.8517C40.4683 61.8517 40.2793 61.6577 40.2793 61.0777C40.2793 61.0107 40.2793 60.9437 40.2793 60.8527H40.0663C35.7483 60.8527 31.4307 60.8527 27.1133 60.8527C26.9233 60.8527 26.8813 60.9147 26.8953 61.0857C26.9113 61.2857 26.9083 61.4857 26.9093 61.6787C26.9197 61.7641 26.9112 61.8507 26.8845 61.9325C26.8577 62.0142 26.8134 62.0891 26.7546 62.1518C26.6957 62.2146 26.6238 62.2637 26.544 62.2956C26.4641 62.3275 26.3782 62.3416 26.2923 62.3367C25.3463 62.348 24.4 62.348 23.4533 62.3367C23.3669 62.3412 23.2805 62.3269 23.2001 62.2949C23.1197 62.2628 23.0472 62.2138 22.9876 62.1511C22.9279 62.0884 22.8825 62.0135 22.8545 61.9317C22.8265 61.8498 22.8166 61.7628 22.8253 61.6767C22.8253 60.7614 22.8253 59.8444 22.8253 58.9257C22.8134 58.8337 22.8229 58.7401 22.8532 58.6524C22.8834 58.5647 22.9336 58.4852 22.9998 58.4202C23.066 58.3552 23.1464 58.3064 23.2346 58.2777C23.3229 58.2489 23.4166 58.2411 23.5083 58.2547C23.7673 58.2547 24.0253 58.2547 24.2963 58.2547V44.8907C24.1293 44.8911 23.9624 44.8824 23.7963 44.8647C23.6734 44.8581 23.5577 44.8046 23.4729 44.7154C23.3881 44.6261 23.3407 44.5078 23.3403 44.3847C23.3183 44.0457 23.3253 43.7047 23.3253 43.3647C23.3253 43.0647 23.3183 42.7707 23.3253 42.4737C23.3353 41.9737 23.5363 41.7817 24.0343 41.7817H24.3053V28.4097C24.0153 28.4097 23.7323 28.4097 23.4493 28.4097C23.3662 28.4195 23.2818 28.4105 23.2026 28.3835C23.1233 28.3564 23.0511 28.312 22.9913 28.2534C22.9314 28.1948 22.8855 28.1235 22.8567 28.0449C22.828 27.9662 22.8173 27.8821 22.8253 27.7987C22.8253 26.8647 22.8253 25.9307 22.8253 24.9967C22.8162 24.9074 22.827 24.8172 22.8569 24.7326C22.8868 24.648 22.9351 24.5711 22.9984 24.5074C23.0616 24.4437 23.1381 24.3948 23.2225 24.3643C23.3069 24.3337 23.397 24.3222 23.4863 24.3307C24.4083 24.3234 25.33 24.3234 26.2513 24.3307C26.3401 24.3204 26.4301 24.3304 26.5144 24.3601C26.5987 24.3897 26.6751 24.4382 26.7379 24.5018C26.8006 24.5655 26.8481 24.6426 26.8766 24.7273C26.9051 24.812 26.9139 24.9021 26.9023 24.9907C26.9073 25.2557 26.9023 25.5207 26.9023 25.8117H27.1303C28.0303 25.8117 28.9363 25.8117 29.8393 25.8117C29.9567 25.7978 30.0757 25.8164 30.1832 25.8654C30.2908 25.9144 30.3828 25.992 30.4493 26.0897C30.4956 26.1615 30.5237 26.2435 30.5311 26.3287C30.5386 26.4138 30.5252 26.4994 30.4921 26.5782C30.459 26.657 30.4072 26.7265 30.3412 26.7808C30.2752 26.8351 30.197 26.8724 30.1133 26.8897C29.9556 26.9174 29.7955 26.9295 29.6353 26.9257C28.7943 26.9257 27.9533 26.9257 27.1113 26.9257C27.0513 26.9257 26.9903 26.9317 26.9113 26.9357C26.9113 27.1977 26.9113 27.4497 26.9113 27.7007C26.9113 28.2077 26.7183 28.4097 26.2113 28.4117C25.9593 28.4117 25.7113 28.4117 25.4383 28.4117V41.7767C25.5823 41.7767 25.7223 41.7767 25.8623 41.7767C25.9356 41.773 26.0088 41.7847 26.0773 41.8109C26.1458 41.8371 26.2081 41.8774 26.2601 41.929C26.3122 41.9807 26.3529 42.0427 26.3796 42.111C26.4063 42.1793 26.4185 42.2524 26.4153 42.3257C26.4263 42.9867 26.4293 43.6497 26.4153 44.3107C26.4171 44.3891 26.4027 44.467 26.3729 44.5396C26.3431 44.6121 26.2986 44.6778 26.2423 44.7323C26.186 44.7869 26.1189 44.8292 26.0455 44.8566C25.972 44.884 25.8936 44.896 25.8153 44.8917C25.6923 44.8987 25.5693 44.8917 25.4313 44.8917C25.4253 44.9507 25.4163 44.9967 25.4163 45.0437C25.4163 49.3364 25.4163 53.6294 25.4163 57.9227C25.4163 58.2637 25.4163 58.2637 25.7523 58.2637C25.9003 58.2637 26.0523 58.2637 26.1973 58.2637C26.6793 58.2637 26.8913 58.4727 26.8973 58.9497C26.8973 59.1497 26.9083 59.3497 26.8973 59.5427C26.8853 59.6997 26.9203 59.7547 27.0973 59.7537C31.2913 59.7484 35.4853 59.7484 39.6793 59.7537C39.8276 59.7462 39.9761 59.7462 40.1243 59.7537C40.2673 59.7687 40.2863 59.7097 40.2843 59.5857C40.2763 58.9097 40.4463 58.7447 41.1273 58.7477C41.6403 58.7477 42.1543 58.7477 42.6673 58.7477C43.1803 58.7477 43.3903 58.9577 43.3883 59.4667C43.3883 59.7497 43.3883 59.7527 43.6673 59.7517C46.142 59.7517 48.6163 59.7517 51.0903 59.7517C51.2244 59.7483 51.3584 59.7587 51.4903 59.7827C51.6058 59.8074 51.7097 59.8701 51.7855 59.9607C51.8612 60.0513 51.9045 60.1647 51.9083 60.2827C51.9113 60.4013 51.8749 60.5175 51.8046 60.613C51.7344 60.7086 51.6344 60.7781 51.5203 60.8107C51.3948 60.8423 51.2657 60.8574 51.1363 60.8557C48.631 60.8557 46.1257 60.8557 43.6203 60.8557H43.3913M25.7853 25.4477H23.9433V27.2887H25.7853V25.4477ZM25.7853 59.3697C25.2193 59.3697 24.6653 59.3747 24.1103 59.3697C23.9623 59.3697 23.9193 59.4117 23.9223 59.5567C23.9313 60.0627 23.9313 60.5697 23.9223 61.0757C23.9223 61.1937 23.9463 61.2377 24.0753 61.2357C24.5883 61.2297 25.1003 61.2357 25.6133 61.2357C25.6663 61.2357 25.7203 61.2287 25.7803 61.2247L25.7853 59.3697ZM24.4093 43.7617H25.3253V42.8887C25.0453 42.8887 24.7813 42.8887 24.5173 42.8887C24.492 42.8956 24.4689 42.9089 24.4502 42.9273C24.4315 42.9457 24.4178 42.9685 24.4103 42.9937C24.4003 43.2447 24.4053 43.4937 24.4053 43.7567M41.3873 59.8397C41.3873 60.1177 41.3873 60.3817 41.3873 60.6467C41.3873 60.6847 41.4413 60.7517 41.4723 60.7527C41.7343 60.7607 41.9973 60.7527 42.2653 60.7527V59.8347L41.3873 59.8397Z" fill="white"/>
        <path d="M43.3906 26.9179C43.3906 27.0759 43.3906 27.1929 43.3906 27.3099C43.3996 27.3907 43.3906 27.4726 43.3642 27.5495C43.3378 27.6264 43.2945 27.6965 43.2377 27.7547C43.1809 27.8129 43.1118 27.8577 43.0355 27.8859C42.9592 27.9142 42.8776 27.9251 42.7966 27.9179C42.5496 27.9179 42.3016 27.9009 42.0546 27.9009C41.6956 27.9009 41.3376 27.9149 40.9786 27.9159C40.4786 27.9159 40.2696 27.6999 40.2726 27.1999C40.2726 27.1149 40.2726 27.0289 40.2726 26.9279C40.2096 26.9279 40.1566 26.9159 40.1036 26.9159C37.7343 26.9159 35.3653 26.9159 32.9966 26.9159C32.8544 26.9181 32.7123 26.9088 32.5716 26.8879C32.4519 26.8664 32.3432 26.8044 32.2639 26.7122C32.1845 26.6201 32.1392 26.5035 32.1356 26.3819C32.1287 26.2602 32.1651 26.1399 32.2383 26.0424C32.3115 25.9448 32.4168 25.8763 32.5356 25.8489C32.664 25.8242 32.7948 25.8138 32.9256 25.8179C35.3009 25.8179 37.6763 25.8179 40.0516 25.8179H40.2856C40.2856 25.6809 40.2856 25.5649 40.2856 25.4489C40.276 25.3661 40.285 25.2822 40.312 25.2034C40.3389 25.1245 40.3832 25.0527 40.4414 24.9931C40.4997 24.9335 40.5705 24.8876 40.6487 24.8589C40.7269 24.8301 40.8106 24.8192 40.8936 24.8269C41.5446 24.8069 42.2006 24.8089 42.8566 24.8179C42.9251 24.818 42.993 24.8317 43.0563 24.858C43.1196 24.8844 43.177 24.9229 43.2254 24.9715C43.2738 25.0201 43.3121 25.0777 43.3382 25.1411C43.3644 25.2044 43.3777 25.2724 43.3776 25.3409C43.3896 25.4879 43.3776 25.6409 43.3776 25.7989H56.7606C56.7606 25.6729 56.7606 25.5449 56.7606 25.4179C56.7606 25.2909 56.7606 25.1459 56.7606 25.0099C56.7468 24.9166 56.7552 24.8214 56.7851 24.732C56.815 24.6426 56.8656 24.5615 56.9327 24.4952C56.9998 24.429 57.0816 24.3795 57.1714 24.3508C57.2612 24.3221 57.3565 24.3149 57.4496 24.3299C57.9076 24.3249 58.3656 24.3299 58.8226 24.3299C59.2616 24.3299 59.7006 24.3299 60.1406 24.3299C60.2342 24.3174 60.3294 24.3266 60.4189 24.3566C60.5084 24.3867 60.5899 24.4369 60.657 24.5033C60.7241 24.5697 60.7751 24.6507 60.806 24.7399C60.837 24.8291 60.8471 24.9242 60.8356 25.0179C60.8356 25.9272 60.8356 26.8366 60.8356 27.7459C60.845 27.8343 60.8347 27.9237 60.8053 28.0077C60.776 28.0916 60.7283 28.168 60.6658 28.2312C60.6033 28.2945 60.5276 28.3431 60.444 28.3735C60.3604 28.4038 60.2711 28.4153 60.1826 28.4069C60.0466 28.4069 59.9106 28.4069 59.7746 28.4069H59.3636V41.7729C59.5276 41.7799 59.6826 41.7729 59.8336 41.7959C59.9689 41.8006 60.0969 41.8581 60.1904 41.956C60.2838 42.0539 60.3352 42.1845 60.3336 42.3199C60.3516 43.0059 60.3516 43.6929 60.3426 44.3789C60.3414 44.5017 60.2943 44.6195 60.2104 44.7091C60.1265 44.7988 60.012 44.8536 59.8896 44.8629C59.7196 44.8879 59.5456 44.8849 59.3606 44.8959V58.2619H59.8426C59.9666 58.2619 60.0906 58.2559 60.2136 58.2619C60.2945 58.2563 60.3756 58.2679 60.4517 58.2959C60.5278 58.3239 60.5971 58.3676 60.6551 58.4243C60.7131 58.481 60.7584 58.5492 60.7881 58.6246C60.8179 58.7001 60.8313 58.7809 60.8276 58.8619C60.8383 59.8206 60.8383 60.7792 60.8276 61.7379C60.8306 61.818 60.8167 61.8979 60.7868 61.9723C60.7569 62.0467 60.7116 62.114 60.654 62.1698C60.5963 62.2255 60.5276 62.2685 60.4522 62.2959C60.3769 62.3233 60.2966 62.3346 60.2166 62.3289C59.2646 62.3402 58.3119 62.3402 57.3586 62.3289C57.277 62.3335 57.1955 62.3205 57.1194 62.2908C57.0433 62.2612 56.9744 62.2155 56.9175 62.1569C56.8606 62.0983 56.817 62.0281 56.7896 61.9512C56.7621 61.8742 56.7516 61.7923 56.7586 61.7109C56.7516 61.5689 56.7586 61.4269 56.7586 61.2839C56.7586 61.1409 56.7586 61.0129 56.7586 60.8499H54.0826C53.9644 60.8624 53.8451 60.8407 53.7388 60.7876C53.6325 60.7344 53.5436 60.6519 53.4826 60.5499C53.4421 60.4806 53.4177 60.4031 53.4112 60.3231C53.4047 60.2431 53.4163 60.1627 53.4451 60.0878C53.4739 60.0129 53.5192 59.9454 53.5776 59.8904C53.636 59.8354 53.7061 59.7942 53.7826 59.7699C53.8905 59.743 54.0015 59.7309 54.1126 59.7339C54.9356 59.7339 55.7576 59.7339 56.5806 59.7339C56.7146 59.7339 56.7676 59.7089 56.7586 59.5609C56.747 59.3324 56.747 59.1034 56.7586 58.8749C56.7511 58.7892 56.7627 58.7028 56.7927 58.6221C56.8226 58.5414 56.8701 58.4684 56.9318 58.4083C56.9934 58.3482 57.0676 58.3025 57.149 58.2746C57.2304 58.2467 57.3171 58.2372 57.4026 58.2469C57.6316 58.2469 57.8606 58.2399 58.0886 58.2469C58.2136 58.2519 58.2456 58.2119 58.2446 58.0899C58.2446 57.0449 58.2446 55.9989 58.2446 54.9539C58.2446 51.6566 58.2446 48.3596 58.2446 45.0629C58.2446 44.9119 58.2116 44.8429 58.0516 44.8699C57.9851 44.8763 57.9181 44.8763 57.8516 44.8699C57.7737 44.8764 57.6953 44.8664 57.6216 44.8405C57.5478 44.8146 57.4804 44.7733 57.4237 44.7195C57.3671 44.6657 57.3224 44.6004 57.2928 44.5281C57.2631 44.4558 57.2491 44.378 57.2516 44.2999C57.2383 43.6266 57.2409 42.9526 57.2596 42.2779C57.2604 42.2044 57.2766 42.132 57.3071 42.0651C57.3375 41.9983 57.3816 41.9385 57.4365 41.8897C57.4914 41.8408 57.5558 41.8039 57.6257 41.7814C57.6957 41.7589 57.7695 41.7512 57.8426 41.7589C58.2506 41.7489 58.2426 41.7489 58.2426 41.3369C58.2426 37.0996 58.2426 32.8622 58.2426 28.6249C58.2426 28.3819 58.2426 28.3819 58.0056 28.3849C57.8056 28.3849 57.6056 28.3909 57.4116 28.3849C57.3247 28.3957 57.2364 28.3868 57.1534 28.3588C57.0704 28.3308 56.9947 28.2846 56.932 28.2234C56.8693 28.1622 56.8211 28.0877 56.7911 28.0054C56.7611 27.9231 56.75 27.8351 56.7586 27.7479C56.7506 27.5259 56.7486 27.3019 56.7586 27.0799C56.7666 26.9309 56.7196 26.8929 56.5716 26.8929C53.8996 26.8982 51.2273 26.8999 48.5546 26.8979H43.7486H43.3836M57.8796 25.4329V27.2879H59.7306C59.7306 26.6929 59.7306 26.1089 59.7246 25.5239C59.7246 25.4929 59.6446 25.4379 59.6016 25.4369C59.0336 25.4309 58.4666 25.4369 57.8786 25.4369M57.8786 59.3809V61.2179C57.9055 61.225 57.9329 61.23 57.9606 61.2329C58.5106 61.2329 59.0606 61.2329 59.6096 61.2329C59.7316 61.2329 59.7326 61.1699 59.7316 61.0809C59.7316 60.6489 59.7316 60.2159 59.7316 59.7809C59.7316 59.6479 59.7316 59.5139 59.7316 59.3739L57.8786 59.3809ZM41.3966 26.8319H42.2626V25.9269H41.3966V26.8319ZM58.3396 43.7659H59.2346V42.8969H58.3396V43.7659Z" fill="white"/>
        <path d="M40.0236 47.3427H36.3496C36.2445 47.3457 36.1392 47.3417 36.0346 47.3307C35.9455 47.3283 35.8582 47.3042 35.7805 47.2605C35.7028 47.2167 35.637 47.1546 35.5888 47.0796C35.5406 47.0045 35.5114 46.9188 35.5039 46.83C35.4964 46.7411 35.5107 46.6517 35.5456 46.5697C35.7756 45.8697 36.0176 45.1697 36.2606 44.4697C37.2 41.771 38.1413 39.073 39.0846 36.3757C39.2276 35.9677 39.3696 35.5597 39.5316 35.1597C39.5583 35.0765 39.6055 35.0013 39.6689 34.9412C39.7322 34.881 39.8097 34.8377 39.8941 34.8153C39.9786 34.7929 40.0673 34.7921 40.1521 34.8129C40.237 34.8338 40.3152 34.8757 40.3796 34.9347C40.4802 35.0404 40.5554 35.1676 40.5996 35.3067C40.9876 36.4067 41.3626 37.5067 41.7486 38.6117C42.3993 40.4697 43.0523 42.327 43.7076 44.1837C43.9756 44.9467 44.2506 45.7067 44.5126 46.4707C44.6986 47.0147 44.4636 47.3387 43.8826 47.3407C42.7996 47.3407 41.7176 47.3407 40.6346 47.3407H40.0226M36.8226 46.2057C36.8966 46.2117 36.9546 46.2217 37.0136 46.2217C37.6686 46.2217 38.3246 46.2037 38.9796 46.2147C39.023 46.2224 39.0675 46.2214 39.1105 46.2118C39.1535 46.2021 39.1941 46.184 39.23 46.1585C39.266 46.133 39.2965 46.1006 39.3197 46.0632C39.343 46.0258 39.3586 45.9842 39.3656 45.9407C39.9656 44.1787 40.5936 42.4237 41.2076 40.6647C41.239 40.5862 41.2452 40.4999 41.2256 40.4177C40.8696 39.3787 40.5056 38.3427 40.1436 37.3067C40.1126 37.2197 40.0786 37.1327 40.0296 37.0067L36.8236 46.2067M41.8396 42.1697L40.4396 46.2027H43.2396L41.8396 42.1697Z" fill="white"/>
    </g>
</svg>