<svg width="80" height="80" viewBox="0 0 80 80" fill="none" xmlns="http://www.w3.org/2000/svg">
<path opacity="0.5" d="M72 0H8C3.58172 0 0 3.58172 0 8V71.012C0 75.4303 3.58172 79.012 8 79.012H72C76.4183 79.012 80 75.4303 80 71.012V8C80 3.58172 76.4183 0 72 0Z" fill="black"/>
<path d="M53.81 37.9999H53V30.8299C53 30.2995 52.7893 29.7908 52.4142 29.4157C52.0391 29.0406 51.5304 28.8299 51 28.8299H45C44.9368 27.6261 44.4524 26.4828 43.6317 25.5999C42.8109 24.717 41.706 24.1507 40.51 23.9999C39.8259 23.9295 39.1347 24.0009 38.4795 24.2098C37.8243 24.4186 37.2192 24.7604 36.702 25.2137C36.1849 25.667 35.7668 26.2221 35.474 26.8444C35.1811 27.4666 35.0198 28.1425 35 28.8299H28C27.4696 28.8299 26.9609 29.0406 26.5858 29.4157C26.2107 29.7908 26 30.2995 26 30.8299V38.9999H28.81C29.5795 38.9776 30.3302 39.2396 30.9187 39.7358C31.5071 40.232 31.8921 40.9277 32 41.6899C32.0389 42.1081 31.9896 42.5298 31.8553 42.9277C31.7209 43.3257 31.5045 43.6909 31.22 43.9999C30.9404 44.3125 30.5984 44.563 30.216 44.7353C29.8336 44.9075 29.4194 44.9977 29 44.9999H26V53.8299C26 54.3604 26.2107 54.8691 26.5858 55.2441C26.9609 55.6192 27.4696 55.8299 28 55.8299H51C51.5304 55.8299 52.0391 55.6192 52.4142 55.2441C52.7893 54.8691 53 54.3604 53 53.8299V47.9999H54C54.7018 48.0036 55.3965 47.8595 56.039 47.5769C56.6814 47.2944 57.2572 46.8797 57.7288 46.36C58.2005 45.8403 58.5574 45.2271 58.7764 44.5603C58.9954 43.8935 59.0716 43.1881 59 42.4899C58.8379 41.2345 58.2192 40.0827 57.2618 39.2545C56.3045 38.4263 55.0757 37.9797 53.81 37.9999ZM56.22 44.9999C55.9404 45.3125 55.5984 45.563 55.216 45.7353C54.8336 45.9075 54.4194 45.9977 54 45.9999H51V53.8299H28V46.9999H29C29.7018 47.0036 30.3965 46.8595 31.039 46.5769C31.6814 46.2944 32.2572 45.8797 32.7288 45.36C33.2005 44.8403 33.5574 44.2271 33.7764 43.5603C33.9954 42.8935 34.0716 42.1881 34 41.4899C33.8379 40.2345 33.2192 39.0827 32.2618 38.2545C31.3045 37.4263 30.0757 36.9797 28.81 36.9999H28V30.8299H37V28.9999C37.0023 28.5805 37.0924 28.1663 37.2647 27.7839C37.4369 27.4015 37.6874 27.0595 38 26.7799C38.309 26.4955 38.6743 26.279 39.0722 26.1447C39.4701 26.0103 39.8918 25.961 40.31 25.9999C41.0722 26.1078 41.7679 26.4928 42.2641 27.0813C42.7604 27.6698 43.0224 28.4205 43 29.1899V30.8299H51V39.9999H53.81C54.5795 39.9776 55.3302 40.2396 55.9187 40.7358C56.5071 41.232 56.8921 41.9277 57 42.6899C57.0389 43.1081 56.9896 43.5298 56.8553 43.9277C56.7209 44.3257 56.5045 44.6909 56.22 44.9999Z" fill="white"/>
</svg>
