<svg width="80" height="80" viewBox="0 0 80 80" fill="none" xmlns="http://www.w3.org/2000/svg">
<path opacity="0.5" d="M72 0H8C3.58172 0 0 3.58172 0 8V72C0 76.4183 3.58172 80 8 80H72C76.4183 80 80 76.4183 80 72V8C80 3.58172 76.4183 0 72 0Z" fill="black"/>
<path d="M29.4159 57.3417C28.6501 57.1593 27.935 56.8074 27.323 56.3121C26.7111 55.8168 26.218 55.1907 25.8799 54.4797C25.4323 53.5679 25.2374 52.5527 25.3157 51.5399C25.394 50.5272 25.7425 49.554 26.325 48.7217C26.562 48.3527 26.8849 48.0307 27.1499 47.6747C27.2442 47.5564 27.3022 47.4133 27.3169 47.2627C27.3349 46.6767 27.317 46.0887 27.326 45.5017C27.3267 45.2544 27.3787 45.0099 27.4787 44.7837C27.5787 44.5575 27.7245 44.3544 27.9069 44.1874C28.0893 44.0203 28.3043 43.8929 28.5384 43.8131C28.7725 43.7333 29.0204 43.7028 29.2669 43.7237C31.5469 43.7167 33.8269 43.7237 36.1079 43.7237H36.596V43.3567C36.596 41.6627 36.585 39.9687 36.596 38.2747C36.577 36.8892 36.9532 35.527 37.6808 34.3478C38.4084 33.1686 39.4571 32.2212 40.7039 31.6167C40.7631 31.5761 40.813 31.5232 40.8499 31.4615C40.8868 31.3999 40.91 31.3311 40.9179 31.2597C40.9459 30.8847 40.925 30.5077 40.929 30.1307C40.9343 29.6585 41.0886 29.2 41.37 28.8207C41.6514 28.4414 42.0455 28.1607 42.4959 28.0187C42.7049 27.9427 42.803 27.8557 42.788 27.6387C42.766 27.3387 42.7819 27.0447 42.7819 26.7037H42.363C40.927 26.7037 39.4909 26.6757 38.0559 26.7127C37.6051 26.7669 37.1499 26.6559 36.7745 26.4004C36.3991 26.1449 36.1289 25.762 36.014 25.3227C35.838 24.4227 36.349 23.7067 37.404 23.3497C37.424 23.3427 37.4369 23.3207 37.4539 23.3047H46.2189C46.3189 23.3407 46.419 23.3787 46.519 23.4137C46.8178 23.4884 47.0887 23.6478 47.2992 23.8728C47.5097 24.0978 47.6508 24.3787 47.7055 24.6819C47.7602 24.9851 47.7262 25.2976 47.6076 25.5819C47.489 25.8662 47.2908 26.1103 47.0369 26.2847C46.8352 26.391 46.6735 26.5599 46.5761 26.7661C46.4787 26.9722 46.451 27.2044 46.497 27.4277C46.5071 27.5047 46.5071 27.5827 46.497 27.6597C46.466 27.8597 46.565 27.9407 46.764 28.0157C47.2124 28.1492 47.6065 28.4221 47.8892 28.7949C48.1719 29.1677 48.3284 29.6209 48.336 30.0887C48.352 30.4647 48.356 30.8427 48.336 31.2177C48.3261 31.3123 48.3489 31.4074 48.4008 31.4872C48.4527 31.5669 48.5304 31.6264 48.6209 31.6557C49.6472 32.1624 50.535 32.9109 51.2079 33.8367C51.2649 33.9226 51.3443 33.991 51.4377 34.0346C51.531 34.0782 51.6346 34.0952 51.737 34.0837C53.6323 34.0764 55.5272 34.0764 57.4219 34.0837C57.8394 34.0516 58.2551 34.166 58.5973 34.4073C58.9396 34.6486 59.1869 35.0016 59.2969 35.4057C59.348 35.7448 59.348 36.0896 59.2969 36.4287C59.0969 38.5127 58.886 40.5967 58.679 42.6807C58.479 44.7317 58.2669 46.7807 58.0789 48.8337C57.7823 51.052 57.6254 53.2867 57.6089 55.5247C57.6393 55.9374 57.515 56.3465 57.2603 56.6726C57.0056 56.9987 56.6387 57.2183 56.231 57.2887C56.2007 57.3035 56.1727 57.3228 56.148 57.3457L29.4159 57.3417ZM49.856 34.0817C49.743 33.9527 49.6899 33.8817 49.6249 33.8187C48.8285 33.0232 47.8495 32.4346 46.7734 32.1043C45.6972 31.774 44.5566 31.712 43.451 31.9237C41.9247 32.1019 40.5146 32.827 39.4819 33.9649C38.4491 35.1028 37.8637 36.5764 37.8339 38.1127C37.8189 39.8737 37.8339 41.6347 37.8339 43.3957C37.8339 43.4957 37.8459 43.5887 37.8539 43.6957C37.9429 43.7037 38.0129 43.7157 38.0829 43.7157C38.8189 43.7157 39.5549 43.7067 40.2909 43.7157C40.5288 43.7029 40.7669 43.7381 40.991 43.819C41.2151 43.9 41.4206 44.0252 41.5954 44.1871C41.7702 44.349 41.9106 44.5444 42.0085 44.7616C42.1063 44.9788 42.1595 45.2135 42.165 45.4517C42.172 46.0387 42.153 46.6257 42.175 47.2127C42.1923 47.3842 42.2574 47.5474 42.363 47.6837C42.623 48.0427 42.941 48.3667 43.184 48.7337C43.956 49.8461 44.3034 51.1986 44.1632 52.5454C44.0231 53.8922 43.4046 55.1441 42.42 56.0737C42.3945 56.1064 42.3742 56.1428 42.3599 56.1817H48.9699C48.9699 55.7817 48.9799 55.3927 48.9699 55.0077C48.9429 54.1457 48.9439 53.2797 48.8699 52.4207C48.6599 50.0927 48.415 47.7677 48.184 45.4417C47.9767 43.3584 47.7693 41.2747 47.5619 39.1907C47.4509 38.0667 47.3149 36.9427 47.2489 35.8157C47.2472 35.5834 47.2924 35.353 47.3816 35.1384C47.4709 34.9239 47.6024 34.7295 47.7685 34.567C47.9345 34.4044 48.1317 34.2769 48.3481 34.1921C48.5644 34.1074 48.7957 34.0671 49.028 34.0737C49.271 34.0717 49.527 34.0817 49.856 34.0817ZM28.57 47.1257H28.9909C29.2569 47.1257 29.5229 47.1157 29.7909 47.1317C29.9495 47.123 30.105 47.1774 30.2234 47.2831C30.3419 47.3889 30.4136 47.5372 30.4229 47.6957C30.4188 47.7741 30.3993 47.8509 30.3654 47.9217C30.3314 47.9925 30.2837 48.0558 30.2251 48.1081C30.1666 48.1604 30.0983 48.2005 30.0241 48.2262C29.9499 48.2519 29.8712 48.2626 29.7929 48.2577C29.6369 48.2677 29.4789 48.2577 29.3219 48.2577C28.0889 48.2577 28.089 48.2577 27.436 49.2187L27.3789 49.3037C26.8007 50.1378 26.51 51.1378 26.5512 52.1519C26.5923 53.1661 26.963 54.1392 27.607 54.9237C27.9524 55.3449 28.3904 55.6808 28.8868 55.9052C29.3831 56.1296 29.9245 56.2366 30.4689 56.2177C33.4129 56.1717 36.3589 56.1967 39.3029 56.2087C39.8066 56.2167 40.3035 56.0911 40.743 55.8447C41.4959 55.453 42.0997 54.8253 42.462 54.0577C42.9019 53.1531 43.0475 52.1334 42.8783 51.1418C42.7092 50.1502 42.2339 49.2364 41.519 48.5287C41.4422 48.4344 41.3439 48.36 41.2323 48.3116C41.1208 48.2632 40.9993 48.2423 40.878 48.2507C38.331 48.2607 35.785 48.2567 33.238 48.2557C33.0934 48.2598 32.9488 48.2544 32.805 48.2397C32.6701 48.2341 32.5421 48.1783 32.4462 48.0832C32.3504 47.9881 32.2935 47.8606 32.2869 47.7257C32.2759 47.5862 32.3195 47.4479 32.4085 47.3398C32.4975 47.2318 32.6249 47.1626 32.764 47.1467C32.9068 47.1242 33.0514 47.1152 33.196 47.1197C35.622 47.1197 38.0479 47.1197 40.4739 47.1197H40.9319C40.9319 46.6067 40.9319 46.1327 40.9319 45.6597C40.9319 45.0237 40.7429 44.8497 40.0519 44.8497H29.4429C29.3345 44.8454 29.2259 44.849 29.118 44.8607C28.808 44.9077 28.5919 45.0777 28.5789 45.3607C28.5529 45.9417 28.57 46.5147 28.57 47.1257ZM56.435 52.7907L57.8909 38.0847H48.691C49.178 43.0047 49.663 47.8947 50.148 52.7907H56.435ZM57.9999 36.9147C58.0339 36.6017 58.0739 36.3147 58.0949 36.0337C58.1409 35.4087 57.938 35.2127 57.252 35.2127H49.3279C49.2198 35.2078 49.1114 35.2119 49.0039 35.2247C48.7139 35.2737 48.4879 35.4317 48.4829 35.7007C48.4739 36.1007 48.535 36.5077 48.566 36.9147H57.9999ZM50.2 53.9607C50.2 54.5487 50.19 55.1017 50.2 55.6537C50.2013 55.7298 50.218 55.805 50.2493 55.8744C50.2806 55.9438 50.3256 56.0062 50.3818 56.0576C50.4379 56.1091 50.504 56.1486 50.5758 56.1737C50.6477 56.1988 50.724 56.209 50.8 56.2037C52.4513 56.2131 54.1026 56.2131 55.7539 56.2037C55.8244 56.2128 55.896 56.2075 55.9644 56.1883C56.0328 56.1691 56.0966 56.1362 56.152 56.0918C56.2075 56.0474 56.2534 55.9922 56.287 55.9297C56.3207 55.8671 56.3414 55.7985 56.3479 55.7277C56.3779 55.1457 56.357 54.5617 56.357 53.9617L50.2 53.9607ZM41.851 25.5697H45.5039C45.5889 25.5697 45.673 25.5697 45.757 25.5697C46.204 25.5637 46.494 25.3367 46.487 24.9977C46.48 24.6587 46.1919 24.4387 45.7389 24.4377C43.1589 24.4377 40.5789 24.4377 37.9989 24.4377C37.4989 24.4377 37.2299 24.6377 37.2249 24.9977C37.2199 25.3577 37.4909 25.5687 38.0169 25.5697C39.2976 25.5704 40.5773 25.5704 41.856 25.5697H41.851ZM42.1659 31.0357C43.777 30.5719 45.4859 30.5702 47.0979 31.0307C47.0979 30.7127 47.1029 30.4307 47.0979 30.1447C47.0992 29.9878 47.0684 29.8322 47.0076 29.6875C46.9468 29.5428 46.8571 29.412 46.7441 29.3031C46.631 29.1942 46.497 29.1094 46.3501 29.054C46.2033 28.9986 46.0467 28.9736 45.8899 28.9807C45.0466 28.9567 44.2026 28.9567 43.3579 28.9807C43.0698 28.9724 42.7889 29.0715 42.5697 29.2587C42.3506 29.4459 42.2088 29.7078 42.1719 29.9937C42.1479 30.3237 42.17 30.6567 42.17 31.0357H42.1659ZM45.236 26.7267H44.0359V27.8127H45.236V26.7267Z" fill="white"/>
<path d="M39.4475 39.0199C39.4759 38.0947 39.7559 37.1948 40.2573 36.4168C40.7588 35.6387 41.4626 35.012 42.2935 34.6039C42.3987 34.5314 42.5246 34.4947 42.6524 34.4994C42.7801 34.5041 42.9029 34.5499 43.0026 34.6299C43.0776 34.6916 43.1352 34.7718 43.1698 34.8626C43.2044 34.9534 43.2148 35.0516 43.1998 35.1476C43.1849 35.2436 43.1452 35.3341 43.0846 35.4101C43.0241 35.486 42.9448 35.545 42.8545 35.581C42.3188 35.8451 41.8453 36.22 41.4655 36.6809C40.9127 37.363 40.6022 38.2093 40.5825 39.0869C40.5971 39.2199 40.5652 39.3537 40.4923 39.4659C40.4194 39.578 40.31 39.6614 40.1825 39.7019C39.7695 39.8269 39.4365 39.5169 39.4475 39.0199Z" fill="white"/>
<path d="M48.8661 41.7416C49.9711 41.7416 51.076 41.7416 52.181 41.7416C52.324 41.7273 52.4677 41.7604 52.5901 41.8356C52.6528 41.8901 52.7036 41.9572 52.739 42.0325C52.7745 42.1077 52.794 42.1894 52.7961 42.2726C52.7418 42.4396 52.6329 42.5836 52.4871 42.6815C52.3819 42.7304 52.2649 42.7475 52.1501 42.7306C49.9501 42.7306 47.75 42.7306 45.55 42.7306C45.511 42.7306 45.4731 42.7306 45.4341 42.7306C45.0911 42.7146 44.8711 42.5176 44.8711 42.2306C44.8719 42.1599 44.8876 42.0902 44.9174 42.0261C44.9471 41.962 44.9901 41.9048 45.0435 41.8585C45.0968 41.8122 45.1595 41.7778 45.2272 41.7574C45.2948 41.7371 45.366 41.7314 45.436 41.7406C46.579 41.7386 47.7221 41.7416 48.8661 41.7416Z" fill="white"/>
<path d="M34.0596 47.1807C34.7596 47.1807 35.4596 47.1807 36.1596 47.1807C36.5866 47.1807 36.8146 47.3736 36.8176 47.7196C36.8206 48.0656 36.5827 48.2806 36.1727 48.2816C34.7727 48.2856 33.3726 48.2856 31.9726 48.2816C31.5626 48.2816 31.3146 48.0667 31.3106 47.7327C31.3066 47.3987 31.5456 47.1827 31.9596 47.1807C32.6586 47.1807 33.3586 47.1807 34.0596 47.1807Z" fill="white"/>
</svg>
