<svg width="30" height="30" viewBox="0 0 30 30" fill="none" xmlns="http://www.w3.org/2000/svg">
<circle cx="15" cy="15" r="14.5" stroke="white"/>
<path d="M11.2051 9.75075C11.2049 10.1486 11.0467 10.53 10.7652 10.8112C10.4838 11.0924 10.1022 11.2502 9.70433 11.25C9.3065 11.2498 8.92505 11.0916 8.64389 10.8101C8.36272 10.5287 8.20488 10.1471 8.20508 9.74925C8.20528 9.35143 8.3635 8.96997 8.64495 8.68881C8.92639 8.40765 9.308 8.2498 9.70583 8.25C10.1037 8.2502 10.4851 8.40843 10.7663 8.68987C11.0474 8.97132 11.2053 9.35293 11.2051 9.75075ZM11.2501 12.3607H8.25008V21.7507H11.2501V12.3607ZM15.9901 12.3607H13.0051V21.7507H15.9601V16.8233C15.9601 14.0783 19.5376 13.8233 19.5376 16.8233V21.7507H22.5001V15.8033C22.5001 11.1758 17.2051 11.3483 15.9601 13.6208L15.9901 12.3607Z" fill="white"/>
</svg>
