<svg width="30" height="30" viewBox="0 0 30 30" fill="none" xmlns="http://www.w3.org/2000/svg">
<circle cx="15" cy="15" r="14.5" stroke="white"/>
<path d="M13.1667 17.75L17.9242 15L13.1667 12.25V17.75ZM23.7633 10.5725C23.8825 11.0033 23.965 11.5808 24.02 12.3142C24.0842 13.0475 24.1117 13.68 24.1117 14.23L24.1667 15C24.1667 17.0075 24.02 18.4833 23.7633 19.4275C23.5342 20.2525 23.0025 20.7842 22.1775 21.0133C21.7467 21.1325 20.9583 21.215 19.7483 21.27C18.5567 21.3342 17.4658 21.3617 16.4575 21.3617L15 21.4167C11.1592 21.4167 8.76667 21.27 7.8225 21.0133C6.9975 20.7842 6.46584 20.2525 6.23667 19.4275C6.1175 18.9967 6.035 18.4192 5.98 17.6858C5.91584 16.9525 5.88834 16.32 5.88834 15.77L5.83334 15C5.83334 12.9925 5.98 11.5167 6.23667 10.5725C6.46584 9.74751 6.9975 9.21584 7.8225 8.98668C8.25334 8.86751 9.04167 8.78501 10.2517 8.73001C11.4433 8.66584 12.5342 8.63834 13.5425 8.63834L15 8.58334C18.8408 8.58334 21.2333 8.73001 22.1775 8.98668C23.0025 9.21584 23.5342 9.74751 23.7633 10.5725Z" fill="white"/>
</svg>
