<?xml version="1.0" encoding="UTF-8"?>
<svg id="Layer_2" data-name="Layer 2" xmlns="http://www.w3.org/2000/svg" xmlns:xlink="http://www.w3.org/1999/xlink" viewBox="0 0 454.06 258.9">
  <defs>
    <style>
      .cls-1 {
        fill: url(#linear-gradient-2);
      }

      .cls-2 {
        fill: url(#linear-gradient-3);
      }

      .cls-3 {
        fill: url(#linear-gradient);
      }
    </style>
    <linearGradient id="linear-gradient" x1="92.44" y1="92.46" x2="424.17" y2="245.71" gradientUnits="userSpaceOnUse">
      <stop offset="0" stopColor="#16f6fe"/>
      <stop offset=".11" stopColor="#18f0fd"/>
      <stop offset=".23" stopColor="#20e2fd"/>
      <stop offset=".37" stopColor="#2dc9fd"/>
      <stop offset=".52" stopColor="#40a7fd"/>
      <stop offset=".67" stopColor="#587bfc"/>
      <stop offset=".83" stopColor="#7546fc"/>
      <stop offset=".99" stopColor="#9607fc"/>
      <stop offset="1" stopColor="#9904fc"/>
    </linearGradient>
    <linearGradient id="linear-gradient-2" x1="262.89" y1="159.66" x2="240.12" y2="142.22" gradientUnits="userSpaceOnUse">
      <stop offset="0" stopColor="#000" stop-opacity="0"/>
      <stop offset=".49" stopColor="#0a0909" stop-opacity=".15"/>
      <stop offset="1" stopColor="#231f20" stop-opacity=".5"/>
    </linearGradient>
    <linearGradient id="linear-gradient-3" x1="-2313.93" y1="-437.31" x2="-2336.19" y2="-454.36" gradientTransform="translate(-2122.69 -370.74) rotate(-180)" xlink:href="#linear-gradient-2"/>
  </defs>
  <g id="Layer_1-2" data-name="Layer 1">
    <path className="cls-3" d="m361.6,258.64c-16.72,0-33.45-.09-50.17.04-8.74.07-15.77-3.76-22.28-8.95-5.07-4.05-9.81-8.46-13.35-14-3.7-5.8-7.13-11.8-11.27-17.26-3.7-4.88-7.06-9.98-10.55-14.99-4.98-7.15-9.47-14.65-14.61-21.68-4.69-6.41-9.09-13.01-13.73-19.44-.92-1.27-1.64-2.02-2.86.08-4.43,7.64-9.12,15.14-13.67,22.71-7.63,12.69-15.36,25.32-22.8,38.12-3.71,6.38-7.45,12.66-12.36,18.23-6.4,7.25-13.91,12.94-22.91,16.51-2.04.81-4.51.76-6.78.76-34.72.06-69.43.29-104.15-.04-12.69-.12-22.99-6.44-30.72-16.2C2.8,234.21-.38,224.36.04,213.68c.32-8.33,2.6-16.06,6.9-23.43,8.71-14.94,17.57-29.79,26.05-44.87,4.18-7.43,8.62-14.74,12.98-22.08,5.07-8.54,9.8-17.28,14.95-25.74,5.72-9.41,11-19.07,16.83-28.41,5.39-8.62,10.2-17.59,15.19-26.46,6.84-12.15,14.49-23.71,26.26-31.67,3.36-2.27,7.31-3.97,10.99-5.83C139.95.25,150.03.09,160.45.55c8.36.36,15.63,3.63,22.7,7.58,11.61,6.49,19.44,16.45,25.77,27.87,3.41,6.14,7.37,11.98,11.03,17.98,1.81,2.97,3.44,6.05,5.27,9,.59.94,1.45,2.11,2.4,2.34,1.25.31,1.75-1.32,2.19-2.18,5.85-11.46,12.42-22.53,19.16-33.44,7.24-11.71,17.5-20.75,30.43-25.85,8.93-3.52,18.42-4.71,28.22-3.2,9.47,1.46,17.93,4.88,26.01,9.92,12.28,7.65,19.88,19.11,26.82,31.22,4.62,8.06,9.3,16.07,13.89,24.14,4.7,8.28,9.53,16.48,14.21,24.77,4.12,7.3,8.67,14.36,12.93,21.6,6.14,10.43,11.87,21.1,18.11,31.46,6.23,10.34,12.13,20.88,18.27,31.27,5.28,8.94,11.24,17.52,14.51,27.55,1.9,5.82,1.93,11.81,1.35,17.64-.66,6.61-2.94,12.95-6.72,18.6-3.79,5.66-8.34,10.36-14.48,13.71-8.28,4.52-16.89,6.31-26.3,6.08-14.87-.37-29.75-.1-44.63-.1v.12Zm-.27-40.36v.02c1.73,0,3.46,0,5.19,0,11.99.02,23.98.09,35.98.05,5.26-.02,8.07-3.22,6.93-7.79-.32-1.29-1.09-2.51-1.8-3.67-2.59-4.27-5.33-8.45-7.84-12.77-4.9-8.43-9.41-17.1-14.61-25.35-5.34-8.47-10.01-17.31-15.05-25.94-4.64-7.95-9.65-15.69-14.11-23.76-4.82-8.72-10.16-17.15-15.24-25.73-4.38-7.41-8.68-14.86-13.08-22.26-4.22-7.1-8.51-14.16-12.77-21.24-4.63-7.7-11.51-9.54-19.05-5.17-1.13.66-1.99,1.54-2.86,2.45-6.12,6.36-10.11,14.25-15,21.47-3.9,5.76-7.28,11.98-10.99,17.86-4.83,7.67-9.11,15.61-13.65,23.42-.69,1.18-.81,2.24-.11,3.52,1.93,3.56,3.97,7.08,6.01,10.56,4.68,7.99,9.3,16.02,14.09,23.93,7.38,12.2,14.19,24.72,21.49,36.95,5.03,8.43,8.47,17.76,14.53,25.59,3.02,3.9,6.14,7.84,11.81,7.84,13.38.01,26.75,0,40.13,0Zm-268.66-.34v.05c12.8,0,25.6-.22,38.4.09,6.31.16,10.53-2.68,13.64-7.56,3.21-5.04,6.24-10.22,9-15.52,2.08-4,4.89-7.61,6.71-11.66,3.43-7.64,8.02-14.63,12.21-21.79,4.37-7.48,8.83-14.97,13.51-22.29,4.45-6.96,8.57-14.11,12.94-21.12,2.89-4.63,2.93-6.92.14-11.11-3.06-4.61-6.05-9.27-8.93-13.98-5.05-8.26-9.94-16.62-15.01-24.86-3.3-5.36-6.91-10.53-9.81-16.14-2.59-5.02-6.91-8.42-12.26-9.74-6.39-1.57-10.46,3.08-13.41,7.49-6.76,10.1-12.87,20.63-19.08,31.08-5.52,9.29-10.77,18.75-16.23,28.08-5.83,9.96-11.82,19.82-17.66,29.77-5.25,8.94-10.37,17.95-15.57,26.91-4.5,7.76-9,15.52-13.54,23.25-3.94,6.71-7.91,13.41-11.92,20.08-1.55,2.58-.69,6.29,1.82,7.91,1.67,1.08,3.46,1.08,5.3,1.08,13.26,0,26.52,0,39.78,0Z"/>
    <polygon className="cls-1" points="252.8 111.33 224.32 161.13 224.98 161.42 240.09 182.8 275.08 150.74 252.8 112.77 252.8 111.33"/>
    <path className="cls-2" d="m201.12,113.77l27.54-48.7-.63.26c-.82-.08-1.57-.54-2.01-1.24l-12.57-20.12-33.98,31.13,11.28,18.56,3.3,5.43,6.44,10.11c.4.87.78,2,.78,2.9l-.14,1.67Z"/>
  </g>
</svg>