<svg width="16" height="16" viewBox="0 0 16 16" fill="none" xmlns="http://www.w3.org/2000/svg">
<path d="M15.8181 14.3903L11.5051 10.0363C12.4827 8.80434 12.951 7.24451 12.8134 5.67781C12.6759 4.11111 11.9431 2.65671 10.7658 1.6139C9.58848 0.571097 8.05626 0.0192075 6.48441 0.0718007C4.91256 0.124394 3.42066 0.777469 2.3157 1.89664C1.21074 3.01581 0.576785 4.51594 0.544283 6.08833C0.511781 7.66072 1.08321 9.18576 2.14097 10.3496C3.19874 11.5135 4.66238 12.2277 6.23071 12.3452C7.79905 12.4627 9.35276 11.9746 10.5721 10.9813L14.8561 15.3073C14.9774 15.4345 15.1441 15.5084 15.3197 15.5129C15.4953 15.5174 15.6656 15.4521 15.7931 15.3313C15.9207 15.2095 15.9949 15.0422 15.9996 14.866C16.0042 14.6897 15.939 14.5187 15.8181 14.3903ZM6.67515 11.0343C5.55223 11.0356 4.4636 10.6475 3.59472 9.93621C2.72584 9.22488 2.13046 8.2343 1.91001 7.13323C1.68957 6.03217 1.85769 4.88873 2.38575 3.89772C2.9138 2.90671 3.76911 2.12943 4.80597 1.69832C5.84283 1.2672 6.9971 1.2089 8.07211 1.53337C9.14713 1.85783 10.0764 2.54498 10.7016 3.47775C11.3268 4.41052 11.6093 5.53121 11.5009 6.64888C11.3925 7.76655 10.8999 8.81207 10.1071 9.60732C9.65776 10.0604 9.12293 10.4199 8.53364 10.6648C7.94435 10.9098 7.31231 11.0354 6.67415 11.0343H6.67515Z" fill="#8E8E8E"/>
</svg>
