<svg width="30" height="30" viewBox="0 0 30 30" fill="none" xmlns="http://www.w3.org/2000/svg">
<path d="M8.75 21.25L12.75 12.75L21.25 8.75L17.25 17.25L8.75 21.25ZM15 13.875C14.7016 13.875 14.4155 13.9935 14.2045 14.2045C13.9935 14.4155 13.875 14.7016 13.875 15C13.875 15.2984 13.9935 15.5845 14.2045 15.7955C14.4155 16.0065 14.7016 16.125 15 16.125C15.2984 16.125 15.5845 16.0065 15.7955 15.7955C16.0065 15.5845 16.125 15.2984 16.125 15C16.125 14.7016 16.0065 14.4155 15.7955 14.2045C15.5845 13.9935 15.2984 13.875 15 13.875Z" fill="white"/>
<circle cx="15" cy="15" r="12.5" stroke="white"/>
</svg>
