<svg width="25" height="24" viewBox="0 0 25 24" fill="none" xmlns="http://www.w3.org/2000/svg">
<path d="M10.4339 3C8.97753 3 7.55385 3.43187 6.34292 4.24099C5.13198 5.05011 4.18817 6.20015 3.63084 7.54567C3.0735 8.89119 2.92768 10.3718 3.21181 11.8002C3.49593 13.2286 4.19725 14.5406 5.22706 15.5704C6.25688 16.6003 7.56895 17.3016 8.99734 17.5857C10.4257 17.8698 11.9063 17.724 13.2518 17.1667C14.5974 16.6093 15.7474 15.6655 16.5565 14.4546C17.3656 13.2437 17.7975 11.82 17.7975 10.3636C17.7974 8.41069 17.0215 6.5378 15.6406 5.15688C14.2597 3.77597 12.3868 3.00012 10.4339 3Z" stroke="white" stroke-miterlimit="10"/>
<path d="M15.9277 15.8574L21.0704 21.0001" stroke="white" stroke-miterlimit="10" stroke-linecap="round"/>
</svg>
