<svg xmlns="http://www.w3.org/2000/svg" xmlns:xlink="http://www.w3.org/1999/xlink" width="100" height="100" viewBox="0 0 136 136">
  <defs>
    <clipPath id="clip-path">
      <rect id="Rectangle_43" data-name="Rectangle 43" width="136" height="136" fill="none"/>
    </clipPath>
    <linearGradient id="linear-gradient" y1="0.5" x2="1" y2="0.5" gradientUnits="objectBoundingBox">
      <stop offset="0" stopColor="#16f6fe"/>
      <stop offset="0.18" stopColor="#35bbfd"/>
      <stop offset="0.399" stopColor="#587afc"/>
      <stop offset="0.599" stopColor="#7447fc"/>
      <stop offset="0.772" stopColor="#8822fc"/>
      <stop offset="0.911" stopColor="#940cfc"/>
      <stop offset="1" stopColor="#9904fc"/>
    </linearGradient>
    <linearGradient id="linear-gradient-2" y1="0.5" x2="1" y2="0.5" gradientUnits="objectBoundingBox">
      <stop offset="0" stopColor="aqua"/>
      <stop offset="1" stopColor="#9904fc"/>
    </linearGradient>
  </defs>
  <g id="Ease_of_Extension" data-name="Ease of Extension" transform="translate(1137.602 -357.032)">
    <g id="Group_26" data-name="Group 26" transform="translate(-1137.602 357.032)" clip-path="url(#clip-path)">
      <g id="Group_25" data-name="Group 25" transform="translate(15.371 12.679)">
        <path id="Path_60" data-name="Path 60" d="M-1027.677,392.134a53.729,53.729,0,0,0-13.042-16.212,1.579,1.579,0,0,0-.194-.262,55.976,55.976,0,0,0-27.926-12.732,25.262,25.262,0,0,1-4.235-.63h-8.711c-.1.2-.287.2-.473.218a55.254,55.254,0,0,0-23.865,7.714,48.516,48.516,0,0,0-9.563,7.262,2.737,2.737,0,0,0-.27.19c-13.7,13.519-19.59,29.852-16.971,48.929,2.209,16.074,10.314,28.786,23.535,38.143a54.562,54.562,0,0,0,32.35,10.068,54.655,54.655,0,0,0,20.732-4.105,56.843,56.843,0,0,0,14.956-8.909,55.982,55.982,0,0,0,17.572-25.916,54.793,54.793,0,0,0,2.668-14.944A55.786,55.786,0,0,0-1027.677,392.134Zm-13.583,61.838a49.24,49.24,0,0,1-24.979,13.894,49.054,49.054,0,0,1-31.8-3.221c-14.605-6.721-23.971-17.992-28.269-33.452a36.559,36.559,0,0,1-1.51-9.034c-.076-2.418-.109-4.824.024-7.242a46.357,46.357,0,0,1,1.732-10.164,50.18,50.18,0,0,1,9.523-18.21,49.671,49.671,0,0,1,29.8-17.737,48.481,48.481,0,0,1,33.153,5.058c14.27,7.779,22.981,19.772,26.065,35.761a47.544,47.544,0,0,1,.469,14.431c-.016.182.011.371.011.557A50.428,50.428,0,0,1-1041.26,453.973Z" transform="translate(1133.533 -362.299)" fill="url(#linear-gradient)"/>
        <path id="Path_61" data-name="Path 61" d="M-1031.294,420.44a50.439,50.439,0,0,1-14.213,29.359,49.225,49.225,0,0,1-24.979,13.894,49.071,49.071,0,0,1-31.809-3.221c-14.6-6.721-23.966-17.992-28.265-33.452a36.553,36.553,0,0,1-1.51-9.034c-.073-2.414-.109-4.828.028-7.242a46.114,46.114,0,0,1,1.728-10.164,50.138,50.138,0,0,1,9.527-18.21A49.654,49.654,0,0,1-1091,364.632a48.5,48.5,0,0,1,33.162,5.058c14.266,7.779,22.977,19.772,26.061,35.761a47.65,47.65,0,0,1,.472,14.431A4.428,4.428,0,0,0-1031.294,420.44Zm-4.5,3.795a54.125,54.125,0,0,0,.981-6.947,41.528,41.528,0,0,0-.379-9.66,46.331,46.331,0,0,0-11.42-24.361,46.271,46.271,0,0,0-19.4-13.071,46.541,46.541,0,0,0-21.52-2.293,48.282,48.282,0,0,0-17.329,5.74,38.677,38.677,0,0,0-9.361,7.137,52.083,52.083,0,0,0-6.927,8.574,46,46,0,0,0-6.382,33.993,44.3,44.3,0,0,0,4.142,12.07,45.848,45.848,0,0,0,16.579,18.4,45.868,45.868,0,0,0,36.879,5.946,45.644,45.644,0,0,0,23.522-14.48A44.981,44.981,0,0,0-1035.795,424.234Z" transform="translate(1137.781 -358.125)" fill="#fefefe"/>
        <path id="Path_62" data-name="Path 62" d="M-1037.977,404.726a46.345,46.345,0,0,0-11.42-24.361,46.223,46.223,0,0,0-19.4-13.067,46.488,46.488,0,0,0-21.52-2.3,48.361,48.361,0,0,0-17.329,5.74,38.678,38.678,0,0,0-9.361,7.137,52.271,52.271,0,0,0-6.927,8.574,45.989,45.989,0,0,0-6.382,33.993,44.292,44.292,0,0,0,4.142,12.07,45.847,45.847,0,0,0,16.579,18.4,45.894,45.894,0,0,0,36.876,5.95,45.645,45.645,0,0,0,23.526-14.484,45.02,45.02,0,0,0,10.621-21.043,54.045,54.045,0,0,0,.981-6.947A41.513,41.513,0,0,0-1037.977,404.726Zm-46.333-26.973a7.49,7.49,0,0,1,7.456,7.432,7.5,7.5,0,0,1-7.516,7.508,7.326,7.326,0,0,1-7.464-7.48A7.439,7.439,0,0,1-1084.31,377.753Zm11.343,67.175c-1.554.6-2.987-.065-3.786-1.8a82.529,82.529,0,0,1-5.587-16.651,2.233,2.233,0,0,0-3.262-1.764c-.493.182-.613.706-.7,1.154a80.238,80.238,0,0,1-5.656,17.33,2.9,2.9,0,0,1-2.087,1.825,2.628,2.628,0,0,1-3.249-3.137c.488-1.938,1.235-3.807,1.837-5.716a78.442,78.442,0,0,0,3.213-15.723h0a111.5,111.5,0,0,0,.3-14.036,3.131,3.131,0,0,0-2.4-3.007c-3.157-1.013-6.431-1.6-9.644-2.406-1.211-.307-2.446-.545-3.632-.929a2.774,2.774,0,0,1-2.019-3.322,2.819,2.819,0,0,1,3.527-2.047c3.42.706,6.822,1.518,10.282,1.994,1.853.254,3.738.262,5.591.5a62.682,62.682,0,0,0,7.44.2,86.314,86.314,0,0,0,9.466-.739,101.435,101.435,0,0,0,10.875-1.994,2.844,2.844,0,0,1,3.366,2.018,2.752,2.752,0,0,1-1.905,3.322c-2.236.63-4.513,1.122-6.773,1.675-2.156.521-4.315,1.017-6.463,1.574a3.153,3.153,0,0,0-2.507,3.044,114.247,114.247,0,0,0,.267,14.492,1.251,1.251,0,0,0,.125.307,72.087,72.087,0,0,0,3.237,15.557c.448,1.453,1,2.874,1.5,4.311C-1070.981,442.748-1071.543,444.383-1072.967,444.928Z" transform="translate(1140.564 -355.224)" fill="url(#linear-gradient-2)"/>
        <path id="Path_63" data-name="Path 63" d="M-1092.511,398.552a72.087,72.087,0,0,0,3.237,15.557c.448,1.453,1,2.874,1.5,4.311.626,1.784.064,3.415-1.36,3.964-1.554.593-2.987-.069-3.786-1.8a82.657,82.657,0,0,1-5.587-16.656,2.233,2.233,0,0,0-3.262-1.764c-.492.186-.613.706-.7,1.154a80.512,80.512,0,0,1-5.656,17.33,2.913,2.913,0,0,1-2.087,1.825,2.634,2.634,0,0,1-3.254-3.137c.493-1.938,1.24-3.807,1.841-5.716a78.262,78.262,0,0,0,3.213-15.719,110.8,110.8,0,0,0,.307-14.04,3.128,3.128,0,0,0-2.4-3.007c-3.16-1.013-6.431-1.6-9.648-2.406-1.211-.307-2.446-.545-3.632-.924a2.779,2.779,0,0,1-2.019-3.326,2.815,2.815,0,0,1,3.528-2.047c3.419.706,6.822,1.522,10.281,1.994,1.853.254,3.738.262,5.591.5a62.643,62.643,0,0,0,7.436.2,85.3,85.3,0,0,0,9.47-.743,100.628,100.628,0,0,0,10.879-1.99,2.838,2.838,0,0,1,3.363,2.022,2.748,2.748,0,0,1-1.905,3.318c-2.236.626-4.513,1.122-6.773,1.675-2.152.521-4.315,1.017-6.463,1.574a3.153,3.153,0,0,0-2.507,3.044,114.955,114.955,0,0,0,.267,14.492A1.192,1.192,0,0,0-1092.511,398.552Z" transform="translate(1156.73 -332.677)" fill="#fefefe"/>
        <path id="Path_64" data-name="Path 64" d="M-1113.934,367.879a7.5,7.5,0,0,1,7.452,7.436,7.494,7.494,0,0,1-7.516,7.5,7.309,7.309,0,0,1-7.46-7.476A7.442,7.442,0,0,1-1113.934,367.879Z" transform="translate(1170.192 -345.354)" fill="#fefefe"/>
      </g>
    </g>
  </g>
</svg>
