<svg id="Instagram" xmlns="http://www.w3.org/2000/svg" xmlns:xlink="http://www.w3.org/1999/xlink" width="40.013" height="40" viewBox="0 0 40.013 40">
  <defs>
    <clipPath id="clip-path">
      <rect id="Rectangle_424" data-name="Rectangle 424" width="40.013" height="40" fill="#fff"/>
    </clipPath>
  </defs>
  <g id="Group_609" data-name="Group 609" clip-path="url(#clip-path)">
    <path id="Path_9554" data-name="Path 9554" d="M31.02,40H8.986a1,1,0,0,0-.211-.077,9.688,9.688,0,0,1-4.069-1.457A10.025,10.025,0,0,1,.178,31.92c-.066-.3-.119-.6-.178-.9V8.986c.028-.083.062-.165.081-.25.13-.582.209-1.18.393-1.745A10,10,0,0,1,10.114,0q2.578,0,5.157,0,7.305,0,14.61,0a9.337,9.337,0,0,1,4.093.836A9.8,9.8,0,0,1,39.995,10.2c.038,6.522,0,13.045.015,19.568a10.069,10.069,0,0,1-8.122,10.057c-.288.063-.578.115-.867.172M19.993,36.645v.007q4.882,0,9.765,0A9.91,9.91,0,0,0,31,36.568a6.593,6.593,0,0,0,5.642-6.316c.025-6.808.009-13.616.006-20.424a6.652,6.652,0,0,0-6.382-6.465c-6.8-.027-13.592-.011-20.389-.008a7.1,7.1,0,0,0-.892.076,6.61,6.61,0,0,0-5.623,6.3c-.025,6.808-.01,13.616-.006,20.424a7.077,7.077,0,0,0,.074.853,6.629,6.629,0,0,0,6.251,5.632c3.437.029,6.874.007,10.311.007" transform="translate(0 0)" fill="#fff"/>
    <path id="Path_9555" data-name="Path 9555" d="M92.151,82.157a10,10,0,1,1-9.992,10,10,10,0,0,1,9.992-10m6.659,9.987A6.651,6.651,0,1,0,92.179,98.8a6.638,6.638,0,0,0,6.631-6.661" transform="translate(-72.156 -72.154)" fill="#fff"/>
    <path id="Path_9556" data-name="Path 9556" d="M235.262,59.683a2.478,2.478,0,0,1-2.451-2.544,2.51,2.51,0,0,1,2.515-2.458,2.546,2.546,0,0,1,2.489,2.542,2.514,2.514,0,0,1-2.552,2.461" transform="translate(-204.464 -48.023)" fill="#fff"/>
  </g>
</svg>
