<svg id="Linked_In" data-name="Linked In" xmlns="http://www.w3.org/2000/svg" xmlns:xlink="http://www.w3.org/1999/xlink" width="40.022" height="40" viewBox="0 0 40.022 40">
  <defs>
    <clipPath id="clip-path">
      <rect id="Rectangle_427" data-name="Rectangle 427" width="40.022" height="40" fill="#fff"/>
    </clipPath>
  </defs>
  <g id="Group_612" data-name="Group 612" clip-path="url(#clip-path)">
    <path id="Path_9558" data-name="Path 9558" d="M134.634,124.238h-8.293v-.588c0-4.068.026-8.136-.015-12.2a22.9,22.9,0,0,0-.337-4.069c-.47-2.445-2.19-3.368-4.572-3.119-2.489.26-3.829,1.671-4.138,4.268a25.363,25.363,0,0,0-.182,2.869c-.02,4.1-.008,8.2-.008,12.3v.6h-8.266V97.633h7.923v3.635a3.812,3.812,0,0,0,.247-.292,8.433,8.433,0,0,1,6.667-3.955,11.921,11.921,0,0,1,5.793.763,7.742,7.742,0,0,1,4.508,5.474,19.616,19.616,0,0,1,.671,5.207c.035,5.158.018,10.316.02,15.474,0,.079-.009.159-.017.3" transform="translate(-94.631 -84.309)" fill="#fff"/>
    <rect id="Rectangle_426" data-name="Rectangle 426" width="8.238" height="26.675" transform="translate(0.702 13.325)" fill="#fff"/>
    <path id="Path_9559" data-name="Path 9559" d="M4.817,9.656A4.828,4.828,0,0,1,4.827,0a4.828,4.828,0,0,1-.01,9.656" transform="translate(0 0)" fill="#fff"/>
  </g>
</svg>
