<svg xmlns="http://www.w3.org/2000/svg" xmlns:xlink="http://www.w3.org/1999/xlink" width="100" height="100" viewBox="0 0 136 136">
  <defs>
    <clipPath id="clip-path">
      <rect id="Rectangle_41" data-name="Rectangle 41" width="136" height="136" transform="translate(0 0)" fill="none"/>
    </clipPath>
    <linearGradient id="linear-gradient" x1="0.344" y1="-0.118" x2="0.509" y2="0.534" gradientUnits="objectBoundingBox">
      <stop offset="0" stopColor="#16f6fe"/>
      <stop offset="0.196" stopColor="#34bdfd"/>
      <stop offset="0.488" stopColor="#5f6efc"/>
      <stop offset="0.728" stopColor="#7e35fc"/>
      <stop offset="0.905" stopColor="#9111fc"/>
      <stop offset="1" stopColor="#9904fc"/>
    </linearGradient>
    <linearGradient id="linear-gradient-2" x1="0" y1="0.5" x2="1" y2="0.5" xlink:href="#linear-gradient"/>
    <linearGradient id="linear-gradient-3" x1="0.157" y1="0.447" x2="1.711" y2="0.688" xlink:href="#linear-gradient"/>
  </defs>
  <g id="no_Code_Required" data-name="no Code Required" transform="translate(1216.903 -357.032)">
    <g id="Group_20" data-name="Group 20" transform="translate(-1216.903 357.032)" clip-path="url(#clip-path)">
      <g id="Group_19" data-name="Group 19" transform="translate(8.661 5.707)">
        <path id="Path_7" data-name="Path 7" d="M-1214.031,440.325a4.154,4.154,0,0,1-.574-2.569q-.006-32.7,0-65.393c0-3.389,2.059-5.425,5.459-5.429q17.73-.017,35.458,0c1.356,1.4,2.115,3.238,3.4,4.7-.514.011-1.027.03-1.541.03q-17.618.005-35.232,0c-2.157,0-3.139.865-3.139,2.826q-.005,26.877.011,53.746c0,.861-.007,1.726-.011,2.588.2,1.84,1.107,2.55,3.279,2.55h104.274c2.878,0,3.823-.952,3.823-3.85v-54.26a9.36,9.36,0,0,0-.011-1.028,2.676,2.676,0,0,0-2.811-2.55l-2.573.011c-.639-.011-1.281-.034-1.919-.034q-15.629-.023-31.261-.034c1.277-1.458,2.036-3.294,3.4-4.7q16.955-.006,33.906-.008a4.521,4.521,0,0,1,2.591.54,9.307,9.307,0,0,1,.242,2.667c0,21.507-.057,43.018.049,64.528a5.556,5.556,0,0,1-5.92,5.946q-51.22-.085-102.445-.045A51.318,51.318,0,0,1-1214.031,440.325Zm59.387-.249a2.253,2.253,0,0,0,2.331-2.342,2.377,2.377,0,0,0-2.346-2.259,2.368,2.368,0,0,0-2.267,2.335A2.25,2.25,0,0,0-1154.644,440.076Z" transform="translate(1214.61 -335.246)" fill="#58595b"/>
        <path id="Path_8" data-name="Path 8" d="M-1162.336,389.022c-.159.382-.453.752-.261,1.216-1.356,1.4-2.119,3.234-3.4,4.692-.31.291-.624.578-.934.876-6.9,6.517-14.82,8.062-23.7,4.858a22.529,22.529,0,0,1-8.255-5.735c-1.281-1.458-2.04-3.294-3.4-4.692.185-.612-.215-1.069-.419-1.572a21.923,21.923,0,0,1,17.378-29.935,21.906,21.906,0,0,1,24.529,18.738A22.091,22.091,0,0,1-1162.336,389.022Z" transform="translate(1243.202 -358.543)" fill="#fdfbfe"/>
        <path id="Path_9" data-name="Path 9" d="M-1214.457,439.927a51.318,51.318,0,0,0,8.448.242q51.226.028,102.445.045a5.556,5.556,0,0,0,5.92-5.946c-.106-21.511-.053-43.021-.049-64.528a9.307,9.307,0,0,0-.242-2.667,4.5,4.5,0,0,1,2.8,3.547,10.3,10.3,0,0,1,.173,2.04q.012,31.983.008,63.973a8.171,8.171,0,0,1-.322,2.656,5.1,5.1,0,0,1-5.25,3.483q-22.356.006-44.707,0c-.514,0-1.027.008-1.541.015l-3.147.011-13.388-.011q-23.093-.006-46.18-.007C-1211.729,442.783-1213.478,442.058-1214.457,439.927Z" transform="translate(1215.037 -334.848)" fill="#444345"/>
        <path id="Path_10" data-name="Path 10" d="M-1163.65,389.694q12.313-.006,24.624-.007c.34,0,.68.049,1.02.075,0,.775-.042,1.545,0,2.316.061,1.232-.653,1.67-1.722,1.768-.34.03-.684.008-1.028.008q-33.8.006-67.61.015a4.616,4.616,0,0,1,.612-2.958,3.187,3.187,0,0,1,2.811-1.235q12.342.028,24.685.019Z" transform="translate(1231.947 -272.065)" fill="#58595b"/>
        <path id="Path_11" data-name="Path 11" d="M-1208.309,393.8q33.807-.006,67.61-.015c.344,0,.688.023,1.028-.008,1.069-.1,1.783-.536,1.722-1.768-.042-.771,0-1.541,0-2.316a2.618,2.618,0,0,1,2.35,2.191,6.442,6.442,0,0,1-.015,4.144c-.393.808-2.051.276-3.136.276q-33.66.034-67.316.015C-1208.513,396.324-1208.513,396.324-1208.309,393.8Z" transform="translate(1231.888 -272.001)" fill="#444345"/>
        <path id="Path_12" data-name="Path 12" d="M-1200.918,387.116l13.388.011c.008,1.194.015,2.384.015,3.578,0,2.236-.816,3.052-3.079,3.056-3.408.011-6.815.011-10.223.019Z" transform="translate(1252.645 -279.173)" fill="#96989b"/>
        <path id="Path_13" data-name="Path 13" d="M-1200.786,393.78c3.408-.008,6.815-.008,10.223-.019,2.263,0,3.079-.82,3.079-3.056,0-1.194-.007-2.384-.015-3.578l3.147-.011c-.068,3.226-.133,6.456.034,9.686h-16.61Z" transform="translate(1252.615 -279.173)" fill="#808285"/>
        <path id="Path_14" data-name="Path 14" d="M-1104.889,368.19a2.676,2.676,0,0,1,2.811,2.55,9.36,9.36,0,0,1,.011,1.028v54.26c0,2.9-.945,3.85-3.823,3.85h-104.274c-2.172,0-3.079-.71-3.279-2.55.6-.011,1.2-.023,1.8-.023q51.334-.006,102.668,0a11.192,11.192,0,0,0,1.284-.015c1.855-.208,2.811-1.171,2.811-2.814Q-1104.882,396.331-1104.889,368.19Z" transform="translate(1217.851 -331.746)" fill="#6c2cc0"/>
        <path id="Path_15" data-name="Path 15" d="M-1104.889,368.19q.005,28.141.007,56.281c0,1.643-.956,2.607-2.811,2.814a11.192,11.192,0,0,1-1.284.015q-51.334,0-102.668,0c-.6,0-1.2.011-1.8.023,0-.861.008-1.727.011-2.588q50.842,0,101.683-.008a8.591,8.591,0,0,0,2.029-.2,2.481,2.481,0,0,0,2.267-2.731q0-26.8-.008-53.6Z" transform="translate(1217.851 -331.746)" fill="url(#linear-gradient)"/>
        <path id="Path_16" data-name="Path 16" d="M-1197.059,389.676a2.25,2.25,0,0,1-2.281-2.267,2.368,2.368,0,0,1,2.267-2.335,2.377,2.377,0,0,1,2.346,2.259A2.253,2.253,0,0,1-1197.059,389.676Z" transform="translate(1257.026 -284.846)" fill="#96989b"/>
        <path id="Path_17" data-name="Path 17" d="M-1212.872,389.248c0-5.395-.007-10.789.011-16.184,0-.7-.333-1.715.945-1.677,1.076.03,1.106.843,1.106,1.662q-.012,16.184,0,32.372v.385c0,.82-.352,1.315-1.217,1.3-.888-.015-.842-.672-.842-1.284V389.248Z" transform="translate(1219.368 -322.869)" fill="#b06ff3"/>
        <path id="Path_18" data-name="Path 18" d="M-1210.825,371.245c-.015.9-.351,1.352-1.13,1.39-.729.034-.929-.4-.937-1.047-.011-.737.105-1.42.978-1.488S-1211.029,370.822-1210.825,371.245Z" transform="translate(1219.384 -326.452)" fill="#b06ff3"/>
        <path id="Path_19" data-name="Path 19" d="M-1182.409,364.191a1.883,1.883,0,0,1-.566,1.209q-4.358,5.553-8.731,11.1c-.971,1.228-1.752,1.266-2.886.185q-2.936-2.788-5.833-5.61c-.959-.929-1.1-1.885-.355-2.542.906-.793,1.715-.453,2.478.295,1.409,1.375,2.864,2.7,4.239,4.114.585.6.865.5,1.341-.113,2.456-3.188,4.96-6.339,7.446-9.5a1.551,1.551,0,0,1,1.889-.687A1.45,1.45,0,0,1-1182.409,364.191Z" transform="translate(1251.711 -347.463)" fill="url(#linear-gradient-2)"/>
        <path id="Path_20" data-name="Path 20" d="M-1107.454,421.846a2.486,2.486,0,0,1-2.267,2.735,8.759,8.759,0,0,1-2.029.189l-101.683.011q-.005-26.871-.011-53.746c0-1.961.982-2.826,3.136-2.826q17.618-.005,35.231,0c.518,0,1.027-.023,1.545-.03a22.529,22.529,0,0,0,8.255,5.735c8.881,3.2,16.8,1.658,23.7-4.858.31-.3.624-.586.934-.876q15.634.011,31.261.034c.642,0,1.28.023,1.919.034Q-1107.456,395.046-1107.454,421.846Z" transform="translate(1217.85 -331.787)" fill="url(#linear-gradient-3)"/>
        <g id="Group_18" data-name="Group 18" transform="translate(12.654 51.358)">
          <path id="Path_21" data-name="Path 21" d="M-1211.253,381.706c.261-.469.714-.333,1.118-.351l1.069,0c.174,0,.348.011.522,0a.524.524,0,0,1,.559.329.5.5,0,0,1-.173.623.372.372,0,0,0-.08.1c-.937,0-1.87-.008-2.8,0-.177,0-.234-.038-.215-.215A4.226,4.226,0,0,0-1211.253,381.706Z" transform="translate(1211.261 -346.548)" fill="#427193"/>
          <path id="Path_22" data-name="Path 22" d="M-1200.445,381.354c.136,0,.276.007.416,0,.3-.015.559.049.669.363s-.083.518-.318.691h-2.663c-.064-.136-.223-.2-.272-.348a.525.525,0,0,1,.472-.7c.208-.019.416-.007.627-.011Z" transform="translate(1235.203 -346.548)" fill="#427193"/>
          <path id="Path_23" data-name="Path 23" d="M-1185.583,387.339c-.106,0-.208.008-.313.008h-23.03a2.569,2.569,0,0,1-.381-.019.689.689,0,0,1-.65-.737q-.005-3.219,0-6.437a.716.716,0,0,1,.786-.752c.559-.015,1.118-.011,1.677-.011l9.777,0h1.563l9.781,0,.79.015Zm-11.349-2.274h9.905c.593,0,.827-.238.835-.827s0-1.19,0-1.787a.68.68,0,0,0-.782-.767h-19.92a.682.682,0,0,0-.778.771c-.008.574,0,1.145,0,1.715,0,.68.215.9.9.9Z" transform="translate(1214.875 -352.001)" fill="#c38a5b"/>
          <path id="Path_24" data-name="Path 24" d="M-1206.036,386.39v-6.037l-.113-.068a4.61,4.61,0,0,1-.348.416.7.7,0,0,1-1.054.019q-1.049-1.031-2.078-2.078a.7.7,0,0,1,0-1.031c1.084-1.092,2.176-2.176,3.26-3.268a.836.836,0,0,1,.6-.253,21.7,21.7,0,0,1,2.271.015,2.792,2.792,0,0,0,.975,2.123,2.794,2.794,0,0,0,3.068.427,2.724,2.724,0,0,0,1.594-2.573h2.407l.26.057.7.7a26.709,26.709,0,0,1-1.522,4.4,14.743,14.743,0,0,1-2.35,3.562,10.622,10.622,0,0,1-3.781,2.611A10.788,10.788,0,0,1-1206.036,386.39Z" transform="translate(1215.163 -366.778)" fill="#b2e49f"/>
          <path id="Path_25" data-name="Path 25" d="M-1208.837,385.823a10.788,10.788,0,0,0,3.892-.975,10.622,10.622,0,0,0,3.781-2.611,14.743,14.743,0,0,0,2.35-3.562,26.709,26.709,0,0,0,1.522-4.4c.094.083.192.162.283.249.537.525,1.073,1.054,1.606,1.579.3.31.6.612.9.929a.7.7,0,0,1,.008,1.058q-1.031,1.048-2.078,2.078a.716.716,0,0,1-1.058-.019c-.121-.113-.241-.23-.374-.359a.677.677,0,0,0-.061.416v8.009a.8.8,0,0,1-.479.846,2.985,2.985,0,0,1-.71.064h-1.534l-7.095-.011a1.215,1.215,0,0,1-.48-.053.678.678,0,0,1-.483-.654C-1208.848,387.542-1208.84,386.685-1208.837,385.823Z" transform="translate(1217.964 -366.212)" fill="#95d5a3"/>
          <path id="Path_26" data-name="Path 26" d="M-1210.53,404.805c-.465,0-.574-.113-.589-.574,0-.094,0-.189,0-.28V373.219c0-.933,0-.937.926-.937.279,0,.563-.007.842,0,.362.008.5.147.506.518.008.4.008.79.012,1.186l0,1.054c0,.162-.015.325-.015.491V404.14c0,.548-.1.657-.6.669Z" transform="translate(1211.648 -371.745)" fill="#427193"/>
          <path id="Path_27" data-name="Path 27" d="M-1202.5,373.987c0-.4,0-.793,0-1.19,0-.366.144-.506.506-.514.419-.007.843,0,1.262,0a.433.433,0,0,1,.5.487c0,.129.008.257.008.385v31.08c-.015.461-.128.567-.589.574l-1.084,0c-.484-.011-.6-.125-.6-.6q-.005-14.439,0-28.881c0-.094.008-.185.016-.28.185,0,.37.008.555,0,.348-.015.536-.185.551-.491a.522.522,0,0,0-.536-.555C-1202.111,373.994-1202.308,373.994-1202.5,373.987Z" transform="translate(1235.582 -371.745)" fill="#427193"/>
          <path id="Path_28" data-name="Path 28" d="M-1202.9,374.088c.744-.007,1.492-.015,2.236-.015a.935.935,0,0,1,.68.306c1.043,1.054,2.093,2.093,3.14,3.143a.729.729,0,0,1,0,1.182q-.935.941-1.878,1.878c-.476.476-.8.476-1.281,0-.1-.094-.2-.185-.348-.332v.438q0,4.04,0,8.081a.775.775,0,0,1-.487.835l-4.7,0q0-3.2-.007-6.4a.679.679,0,0,1,.223-.521q1.792-1.774,3.566-3.559a1.334,1.334,0,0,0,.159-1.806,13.309,13.309,0,0,0-1.715-1.738A3.289,3.289,0,0,0-1202.9,374.088Z" transform="translate(1227.128 -366.762)" fill="#dc636e"/>
          <path id="Path_29" data-name="Path 29" d="M-1202.867,378.184l4.7,0a12.878,12.878,0,0,0,1.87.049,1.075,1.075,0,0,1,1.073.865,1.091,1.091,0,0,1-.574,1.25c-.079.045-.162.087-.242.132h-9.558a1.394,1.394,0,0,1-.907-.858l0-.529a1.542,1.542,0,0,1,.767-.846,2.985,2.985,0,0,0,.71-.064A9.91,9.91,0,0,0-1202.867,378.184Z" transform="translate(1224.453 -355.342)" fill="#fede7d"/>
          <path id="Path_30" data-name="Path 30" d="M-1198.19,379.1l0,.529a1.548,1.548,0,0,1-.869.861h-9.6a1.3,1.3,0,0,1-.82-.876,1.1,1.1,0,0,1,1.043-1.368c.521-.015,1.046,0,1.568-.008.113,0,.234.042.336-.049a1.215,1.215,0,0,0,.48.053l7.095.011A1.548,1.548,0,0,1-1198.19,379.1Z" transform="translate(1216.131 -355.34)" fill="#9dc5fa"/>
          <path id="Path_31" data-name="Path 31" d="M-1208.657,378.794h9.6a1.431,1.431,0,0,1,.865.91v.472a1.532,1.532,0,0,1-.782.857l-9.777,0a1.755,1.755,0,0,1-.612-.555,1.116,1.116,0,0,1,.4-1.519C-1208.865,378.9-1208.76,378.851-1208.657,378.794Z" transform="translate(1216.13 -353.648)" fill="#bb95e1"/>
          <path id="Path_32" data-name="Path 32" d="M-1206.512,380.179v-.472a1.376,1.376,0,0,1,.91-.914h9.558a1.635,1.635,0,0,1,.729.608,1.168,1.168,0,0,1-.378,1.473c-.083.057-.17.109-.257.166l-9.781,0A1.552,1.552,0,0,1-1206.512,380.179Z" transform="translate(1224.453 -353.651)" fill="#b2e49f"/>
          <path id="Path_33" data-name="Path 33" d="M-1203.507,387.336V379.4c.313,0,.627-.023.94-.011a.719.719,0,0,1,.737.763q.005,3.213,0,6.43a.717.717,0,0,1-.737.763C-1202.876,387.366-1203.193,387.34-1203.507,387.336Z" transform="translate(1232.8 -351.998)" fill="#b07a4a"/>
          <path id="Path_34" data-name="Path 34" d="M-1210.512,373.785l0-1.054h10.019l1.05,0h1.2l0,1.046Z" transform="translate(1213.33 -370.49)" fill="#d3eefa"/>
          <path id="Path_35" data-name="Path 35" d="M-1202.537,374.085a2.724,2.724,0,0,1-1.594,2.573,2.794,2.794,0,0,1-3.068-.427,2.792,2.792,0,0,1-.975-2.123l2.3-.038,1.039,0Z" transform="translate(1219.839 -366.781)" fill="#427193"/>
          <path id="Path_36" data-name="Path 36" d="M-1195.141,372.731c.2.008.393.008.589.019a.522.522,0,0,1,.536.555c-.015.306-.2.476-.551.491-.185,0-.371,0-.555,0l-10.03-.008,0-1.054Z" transform="translate(1228.219 -370.49)" fill="#d3eefa"/>
          <path id="Path_37" data-name="Path 37" d="M-1205.687,379.422l-1.039,0q-.006-1.059-.007-2.123a.55.55,0,0,1,.438-.62c.623-.147.695-.238.695-.873,0-.125-.015-.253-.019-.381l0-1.046c0-.2.023-.393.012-.589a.592.592,0,0,0-.6-.6.609.609,0,0,0-.6.6c-.015.2-.008.4-.008.593l-1.05,0a5.22,5.22,0,0,1,.038-.907,1.663,1.663,0,0,1,1.761-1.33,1.654,1.654,0,0,1,1.511,1.568c.012.223.019.442.031.665a4.176,4.176,0,0,0,0,1.062c-.007.125-.03.253-.026.378a1.684,1.684,0,0,1-.99,1.76c-.159.072-.144.189-.147.314C-1205.684,378.4-1205.687,378.909-1205.687,379.422Z" transform="translate(1220.696 -372.138)" fill="#385f7e"/>
          <path id="Path_38" data-name="Path 38" d="M-1202.712,374.378l0,1.054c-.007.212-.007.419-.015.627a1.6,1.6,0,0,1-.876,1.443.423.423,0,0,0-.257.457c.015.487.007.975.011,1.462l-1.062,0c0-.688,0-1.375,0-2.066,0-.48.09-.589.552-.688a.618.618,0,0,0,.574-.672c0-.185-.007-.37-.012-.555l0-1.058a5.362,5.362,0,0,0,0-.657.6.6,0,0,0-.627-.529.584.584,0,0,0-.559.559c-.019.208-.007.415-.012.623l-1.05.008c0-.219,0-.438,0-.661a1.645,1.645,0,0,1,1.628-1.583,1.669,1.669,0,0,1,1.677,1.579C-1202.715,373.94-1202.715,374.159-1202.712,374.378Z" transform="translate(1225.775 -372.137)" fill="#385f7e"/>
          <path id="Path_39" data-name="Path 39" d="M-1201.721,374.085a3.289,3.289,0,0,1-.412,1.492,3.089,3.089,0,0,1-1.25,1.069c-.533-.525-1.069-1.054-1.606-1.579-.091-.087-.189-.166-.283-.249l-.7-.7c1.25,0,2.5,0,3.751,0a.608.608,0,0,0,.374-.042Z" transform="translate(1225.944 -366.759)" fill="#385f7e"/>
          <path id="Path_40" data-name="Path 40" d="M-1210.965,380.889l1.084,0-.008,1.738-1.069,0Z" transform="translate(1212.083 -347.828)" fill="#385f7e"/>
          <path id="Path_41" data-name="Path 41" d="M-1202.345,380.893l1.084,0-.008,1.745-1.069,0Z" transform="translate(1236.028 -347.828)" fill="#385f7e"/>
          <path id="Path_42" data-name="Path 42" d="M-1201.658,374.1a.608.608,0,0,1-.374.042c-1.25,0-2.5,0-3.751,0l-.26-.057,1.159-.023,1.062,0Z" transform="translate(1225.753 -366.784)" fill="#447295"/>
          <path id="Path_43" data-name="Path 43" d="M-1203.39,372.738l1.05-.008,1.2,0,0,1.058h-5.81a4.176,4.176,0,0,1,0-1.062Z" transform="translate(1223.129 -370.492)" fill="#d3eefa"/>
          <path id="Path_44" data-name="Path 44" d="M-1198.608,383.376h-9.841c-.688,0-.9-.215-.9-.9,0-.571-.008-1.141,0-1.715a.682.682,0,0,1,.778-.771h19.92a.68.68,0,0,1,.782.767c.007.6.007,1.194,0,1.787s-.242.824-.835.827Z" transform="translate(1216.552 -350.312)" fill="#e3f5fe"/>
          <path id="Path_45" data-name="Path 45" d="M-1202.978,375.541a3.089,3.089,0,0,0,1.25-1.069,13.309,13.309,0,0,1,1.715,1.738,1.334,1.334,0,0,1-.159,1.806q-1.779,1.785-3.566,3.559a.679.679,0,0,0-.223.521q.011,3.2.007,6.4a9.91,9.91,0,0,1-2.168,0,.8.8,0,0,0,.479-.846v-8.009a.677.677,0,0,1,.061-.416c.132.129.253.246.374.359a.716.716,0,0,0,1.058.019q1.049-1.031,2.078-2.078a.7.7,0,0,0-.008-1.058C-1202.374,376.153-1202.679,375.851-1202.978,375.541Z" transform="translate(1225.538 -365.653)" fill="#d94a54"/>
        </g>
      </g>
      <rect id="Rectangle_36" data-name="Rectangle 36" width="40.215" height="3.108" transform="translate(68.366 61.145)" fill="#fff"/>
      <rect id="Rectangle_37" data-name="Rectangle 37" width="30.801" height="3.108" transform="translate(68.366 66.446)" fill="#fff"/>
      <rect id="Rectangle_38" data-name="Rectangle 38" width="35.188" height="3.108" transform="translate(68.366 72.296)" fill="#fff"/>
      <rect id="Rectangle_39" data-name="Rectangle 39" width="24.769" height="3.108" transform="translate(68.366 78.145)" fill="#fff"/>
      <rect id="Rectangle_40" data-name="Rectangle 40" width="18.919" height="3.108" transform="translate(68.366 83.995)" fill="#fff"/>
    </g>
  </g>
</svg>
