<svg id="Twitter" xmlns="http://www.w3.org/2000/svg" xmlns:xlink="http://www.w3.org/1999/xlink" width="49.059" height="40" viewBox="0 0 49.059 40">
  <defs>
    <clipPath id="clip-path">
      <rect id="Rectangle_425" data-name="Rectangle 425" width="49.059" height="40" fill="#fff"/>
    </clipPath>
  </defs>
  <g id="Group_611" data-name="Group 611" clip-path="url(#clip-path)">
    <path id="Path_9557" data-name="Path 9557" d="M24.12,12.4a10.4,10.4,0,0,1,.494-6.018A9.762,9.762,0,0,1,32.544.122a9.712,9.712,0,0,1,8.515,2.8.635.635,0,0,0,.674.175,20.414,20.414,0,0,0,5.491-2.076c.135-.076.277-.141.5-.254A10.386,10.386,0,0,1,43.584,6.22a19.05,19.05,0,0,0,5.475-1.476c-.119.2-.17.3-.235.4a19.636,19.636,0,0,1-4.383,4.54.776.776,0,0,0-.359.712A29.2,29.2,0,0,1,34.85,32.529a26.33,26.33,0,0,1-13.9,6.971,29.973,29.973,0,0,1-9.793.182A28.084,28.084,0,0,1,.224,35.65c-.048-.03-.09-.071-.224-.178A20.56,20.56,0,0,0,14.755,31.34a10.411,10.411,0,0,1-9.379-7.068,10.942,10.942,0,0,0,4.431-.167,10.132,10.132,0,0,1-7.877-10,9.609,9.609,0,0,0,4.309,1.146A10.249,10.249,0,0,1,2.052,8.238,9.9,9.9,0,0,1,3.344,1.861,28.75,28.75,0,0,0,24.12,12.4" transform="translate(0 0.001)" fill="#fff"/>
  </g>
</svg>
