<svg id="Group_597" data-name="Group 597" xmlns="http://www.w3.org/2000/svg" xmlns:xlink="http://www.w3.org/1999/xlink" width="105" height="105" viewBox="0 0 141.232 135.661">
  <defs>
    <clipPath id="clip-path">
      <rect id="Rectangle_401" data-name="Rectangle 401" width="141.232" height="135.661" fill="none"/>
    </clipPath>
    <linearGradient id="linear-gradient" x1="0.5" x2="0.5" y2="1" gradientUnits="objectBoundingBox">
      <stop offset="0" stopColor="#16f6fe"/>
      <stop offset="1" stopColor="#9904fc"/>
    </linearGradient>
  </defs>
  <g id="Group_596" data-name="Group 596" clip-path="url(#clip-path)">
    <path id="Path_9536" data-name="Path 9536" d="M31.469,167.808c-9.195-.04-18.39-.024-27.585-.022a12.41,12.41,0,0,0-1.514.048,2.7,2.7,0,0,0-.388,5.284,8.082,8.082,0,0,0,1.912.177q12.827.016,25.654.007h1.371l1.644-5.755a1.851,1.851,0,0,1-1.094.261" transform="translate(0 -105.801)" fill="url(#linear-gradient)"/>
    <path id="Path_9537" data-name="Path 9537" d="M55.051,211.845h-1.3c-3.494,0-6.988-.025-10.482.016a2.746,2.746,0,1,0,.014,5.488c2.436.04,4.873.012,7.31.013h4.7c.026.163.052.322.078.484.471-2-.32-4-.324-6" transform="translate(-25.53 -133.77)" fill="url(#linear-gradient)"/>
    <path id="Path_9538" data-name="Path 9538" d="M50.088,255.6H48.872q-7.517,0-15.034,0a11.432,11.432,0,0,0-1.377.045,2.721,2.721,0,0,0-2.516,2.779,2.691,2.691,0,0,0,2.5,2.639,13.3,13.3,0,0,0,1.515.051c5.563,0,11.126.038,16.688-.026a2.94,2.94,0,0,1,1.222.188.6.6,0,0,1-.07-.232,34.58,34.58,0,0,0-1.717-5.445" transform="translate(-18.909 -161.402)" fill="url(#linear-gradient)"/>
    <path id="Path_9539" data-name="Path 9539" d="M191.322,72.754c-3.244-20.728-14.388-35.482-33.532-44.085-3.029-1.361-6.283-2.221-9.551-3.353,0-1.8.045-3.732-.021-5.656a1.289,1.289,0,0,1,1.033-1.452,9.281,9.281,0,0,0,6.006-10.052A9.245,9.245,0,0,0,146.165.095c-6.756-.108-13.519-.148-20.273.01a9.3,9.3,0,0,0-8.781,11.919,9.477,9.477,0,0,0,6.707,6.579v6.925c-.39.128-.729.262-1.08.349a54.844,54.844,0,0,0-29.84,18.9,2.594,2.594,0,0,1-2.206,1.057,52.689,52.689,0,0,0-2.924,5.555l.083.005c2-2.167,3.108-4.916,5.21-6.667-2.1,1.752-3.207,4.5-5.21,6.667l.1.007c-1.412,3.178-2.834,6.248-4.129,9.372a2.05,2.05,0,0,1-.68.97L81.5,67.5h.119c-.468,3.643-.9,7.047-1.357,10.575H80.1c0,2,.795,4,.324,6L82.053,94.2h-.291A34.54,34.54,0,0,1,83.48,99.64a.606.606,0,0,0,.07.232,2.179,2.179,0,0,1,1.09,1.322c12.937,31.693,51.742,44.219,80.8,26.121,2.189-1.363,2.819-2.907,1.814-4.447s-2.513-1.6-4.709-.265a49.113,49.113,0,0,1-36.278,6.476A50.092,50.092,0,0,1,90.574,58.749c14.659-31.63,56.836-38.992,81.214-14.05,11.323,11.585,15.85,25.658,14.016,41.747a48.59,48.59,0,0,1-7.331,20.44c-1.054,1.685-.764,3.336.66,4.2,1.393.849,2.945.378,3.976-1.245a53.57,53.57,0,0,0,7.317-17.727c.578-2.726.933-5.5,1.39-8.25V76.144c-.164-1.13-.317-2.262-.494-3.39M142.609,24.412H129.446v-5.48h13.163Zm-6.6-11.113c-3.168,0-6.335.017-9.5-.006-2.517-.018-4.177-1.512-4.223-3.739a3.866,3.866,0,0,1,4.166-3.966q9.571-.05,19.142,0c2.526.011,4.281,1.678,4.253,3.912s-1.773,3.783-4.334,3.8c-3.167.018-6.335,0-9.5,0" transform="translate(-50.583 0)" fill="#fff"/>
    <path id="Path_9540" data-name="Path 9540" d="M72.2,124.342c-5.976-.038-11.953-.027-17.93-.014-1.974,0-3.275,1.13-3.274,2.77s1.278,2.736,3.277,2.739c4.689.009,9.379,0,14.068.006.364,0,.722.03,1.045.051a52.679,52.679,0,0,1,2.924-5.555c-.037,0-.072,0-.11,0" transform="translate(-32.205 -78.502)" fill="url(#linear-gradient)"/>
    <path id="Path_9541" data-name="Path 9541" d="M158.8,100.842a42.789,42.789,0,1,1-42.839,42.6,42.778,42.778,0,0,1,42.839-42.6m-.1,5.519a37.271,37.271,0,1,0,37.29,37.218,37.255,37.255,0,0,0-37.29-37.218" transform="translate(-73.226 -63.678)" fill="#fff"/>
    <path id="Path_9542" data-name="Path 9542" d="M2.81,261.124a2.715,2.715,0,0,1-2.8-2.626,2.749,2.749,0,1,1,5.5-.112,2.717,2.717,0,0,1-2.694,2.739" transform="translate(-0.003 -161.451)" fill="url(#linear-gradient)"/>
    <path id="Path_9543" data-name="Path 9543" d="M326.272,313.773a2.681,2.681,0,0,1,2.784-2.626,2.723,2.723,0,1,1-.187,5.441,2.691,2.691,0,0,1-2.6-2.815" transform="translate(-206.031 -196.48)" fill="#fff"/>
    <path id="Path_9544" data-name="Path 9544" d="M198.389,178.6a9.585,9.585,0,0,1,.512-2.31c.45-.96.117-1.481-.543-2.112-1.661-1.588-3.275-3.225-4.883-4.868-1.355-1.384-1.444-2.966-.28-4.144,1.132-1.146,2.818-1.073,4.157.237,1.742,1.7,3.42,3.472,5.2,5.137a1.8,1.8,0,0,0,1.49.334,8.624,8.624,0,0,1,5.809.035,1.4,1.4,0,0,0,1.763-.466q6.122-6.164,12.286-12.286a4.856,4.856,0,0,1,1.52-1.147,2.539,2.539,0,0,1,3.1.822,2.611,2.611,0,0,1,.165,3.207,7.117,7.117,0,0,1-1.1,1.226c-3.994,4-7.981,8.011-12,11.982a1.648,1.648,0,0,0-.5,2,8.525,8.525,0,0,1-11.589,10.477c-3.329-1.51-4.926-4.253-5.1-8.125m8.537-2.667a3,3,0,0,0-2.965,3.121,3.036,3.036,0,0,0,6.07-.138,3.008,3.008,0,0,0-3.106-2.983" transform="translate(-121.486 -99.007)" fill="url(#linear-gradient)"/>
    <path id="Path_9545" data-name="Path 9545" d="M230.062,133.48c0,.457.027.916,0,1.371a2.735,2.735,0,0,1-5.453.184,17.312,17.312,0,0,1-.027-2.877,2.744,2.744,0,0,1,5.487.088c.019.411,0,.823,0,1.234h-.006" transform="translate(-141.785 -81.753)" fill="#fff"/>
    <path id="Path_9546" data-name="Path 9546" d="M301.8,209.555c.411,0,.824-.017,1.234,0a2.74,2.74,0,0,1,.109,5.479,18.137,18.137,0,0,1-2.74,0,2.745,2.745,0,0,1,.163-5.487c.411-.016.823,0,1.234,0" transform="translate(-188.026 -132.323)" fill="#fff"/>
    <path id="Path_9547" data-name="Path 9547" d="M229.964,286.544a13.42,13.42,0,0,1-.009,1.507,2.739,2.739,0,0,1-5.471-.147c-.042-.821-.033-1.646-.009-2.468a2.751,2.751,0,1,1,5.5-.125c.029.409,0,.822,0,1.233h-.015" transform="translate(-141.737 -178.421)" fill="#fff"/>
    <path id="Path_9548" data-name="Path 9548" d="M148.587,209.435a14.4,14.4,0,0,1,1.514.008,2.618,2.618,0,0,1,2.437,2.531,2.565,2.565,0,0,1-2.252,2.826,14.63,14.63,0,0,1-3.43.012,2.654,2.654,0,0,1-2.339-2.784,2.709,2.709,0,0,1,2.555-2.593c.5-.047,1.01-.007,1.515-.007v.008" transform="translate(-91.257 -132.238)" fill="#fff"/>
  </g>
</svg>
