<?xml version="1.0" encoding="UTF-8"?>
<svg id="Layer_2" data-name="Layer 2" xmlns="http://www.w3.org/2000/svg" viewBox="0 0 329.3 295.82">
  <defs>
    <style>
      .cls-1 {
        fill: #fff;
      }
    </style>
  </defs>
  <g id="Layer_1-2" data-name="Layer 1">
    <path class="cls-1" d="m.85,294.13c39.58-42.02,79.16-84.04,119.22-126.57C80.22,112.16,40.39,56.8,0,.65,2.17.45,3.52.22,4.88.21c35.99-.03,71.99.07,107.98-.18,5.13-.04,6.96,3.3,9.2,6.39,13.49,18.61,26.84,37.31,40.24,55.98,7.38,10.28,14.77,20.56,22.18,30.83.66.92,1.48,1.73,2.48,2.88,10.77-11.46,21.36-22.72,31.94-33.99,18.01-19.18,36.07-38.32,53.98-57.59,2.93-3.15,5.93-4.64,10.37-4.52,11.79.32,23.6.11,35.41.11.32.46.63.92.95,1.39-37.99,40.34-75.97,80.67-114.04,121.09,41.21,57.52,82.21,114.75,123.72,172.68-2.13.23-3.36.49-4.59.49-35.33,0-70.66-.11-105.98.06-4.54.02-7.3-1.44-9.88-5.05-22.46-31.44-45.07-62.77-67.65-94.13-.66-.92-1.47-1.75-2.6-3.07-4.48,4.76-8.77,9.35-13.08,13.92-26.61,28.23-53.21,56.48-79.89,84.66-1.41,1.49-3.45,3.33-5.24,3.37-12.95.29-25.9.15-38.86.15-.23-.51-.46-1.02-.68-1.53Zm268.61-29.82c-1.49-2.17-2.37-3.53-3.32-4.84-24.7-34.15-49.43-68.27-74.1-102.44-29.34-40.65-58.65-81.32-87.87-122.06-1.98-2.76-4.07-3.81-7.41-3.75-10.66.19-21.33.08-31.99.12-1.21,0-2.42.24-4.15.42,1.57,2.34,2.72,4.15,3.98,5.89,28.68,39.69,57.35,79.39,86.06,119.05,24.9,34.4,49.83,68.79,74.87,103.09,1.41,1.93,3.92,4.25,5.98,4.32,12.3.4,24.61.2,37.95.2Z"/>
  </g>
</svg>