<svg width="38" height="32" viewBox="0 0 38 32" fill="none" xmlns="http://www.w3.org/2000/svg">
<path d="M35.3922 0H2.60784C1.9162 0 1.25289 0.274418 0.76382 0.762885C0.274754 1.25135 0 1.91385 0 2.60465V29.3953C0 30.0861 0.274754 30.7486 0.76382 31.2371C1.25289 31.7256 1.9162 32 2.60784 32H35.3922C36.0838 32 36.7471 31.7256 37.2362 31.2371C37.7252 30.7486 38 30.0861 38 29.3953V2.60465C38 1.91385 37.7252 1.25135 37.2362 0.762885C36.7471 0.274418 36.0838 0 35.3922 0ZM2.60784 2.23256H35.3922C35.491 2.23256 35.5857 2.27176 35.6556 2.34154C35.7255 2.41132 35.7647 2.50597 35.7647 2.60465V22.6177L30.2752 17.1349C30.033 16.893 29.7455 16.7011 29.4291 16.5702C29.1127 16.4393 28.7736 16.3719 28.4311 16.3719C28.0886 16.3719 27.7495 16.4393 27.433 16.5702C27.1166 16.7011 26.8291 16.893 26.587 17.1349L22.597 21.12L14.1382 12.6698C13.8961 12.4279 13.6086 12.236 13.2922 12.1051C12.9757 11.9742 12.6366 11.9068 12.2941 11.9068C11.9516 11.9068 11.6125 11.9742 11.2961 12.1051C10.9797 12.236 10.6922 12.4279 10.45 12.6698L2.23529 20.8744V2.60465C2.23529 2.50597 2.27454 2.41132 2.34441 2.34154C2.41428 2.27176 2.50904 2.23256 2.60784 2.23256ZM2.23529 29.3953V24.0316L12.0296 14.2493C12.0642 14.2144 12.1054 14.1867 12.1508 14.1679C12.1962 14.149 12.2449 14.1392 12.2941 14.1392C12.3433 14.1392 12.392 14.149 12.4374 14.1679C12.4828 14.1867 12.524 14.2144 12.5586 14.2493L28.0958 29.7674H2.60784C2.50904 29.7674 2.41428 29.7282 2.34441 29.6585C2.27454 29.5887 2.23529 29.494 2.23529 29.3953ZM35.3922 29.7674H31.2569L24.1784 22.6977L28.1666 18.7126C28.2012 18.678 28.2423 18.6505 28.2875 18.6318C28.3327 18.6131 28.3812 18.6034 28.4301 18.6034C28.4791 18.6034 28.5276 18.6131 28.5728 18.6318C28.618 18.6505 28.6591 18.678 28.6937 18.7126L35.7722 25.7823V29.3953C35.7722 29.4448 35.7623 29.4938 35.7431 29.5395C35.7239 29.5851 35.6958 29.6265 35.6604 29.6611C35.625 29.6958 35.5831 29.723 35.537 29.7413C35.491 29.7595 35.4417 29.7684 35.3922 29.7674ZM22.3529 10.7907C22.3529 10.4227 22.4622 10.063 22.6669 9.75708C22.8716 9.45113 23.1625 9.21267 23.5028 9.07185C23.8432 8.93104 24.2178 8.89419 24.5791 8.96598C24.9404 9.03777 25.2723 9.21496 25.5328 9.47515C25.7934 9.73534 25.9708 10.0668 26.0426 10.4277C26.1145 10.7886 26.0776 11.1627 25.9366 11.5027C25.7957 11.8426 25.5569 12.1332 25.2506 12.3376C24.9442 12.542 24.5841 12.6512 24.2157 12.6512C23.7217 12.6512 23.2479 12.4551 22.8985 12.1062C22.5492 11.7573 22.3529 11.2841 22.3529 10.7907Z" fill="white"/>
</svg>
