<svg width="38" height="38" viewBox="0 0 38 38" fill="none" xmlns="http://www.w3.org/2000/svg">
<path d="M11.1883 16.5C11.1869 15.5121 11.381 14.5336 11.7594 13.621C12.1378 12.7084 12.693 11.8797 13.3929 11.1825C14.093 10.4854 14.9241 9.93366 15.8382 9.55906C16.7525 9.18451 17.7317 8.99449 18.7196 8.99998C22.8446 9.03126 26.1466 12.4583 26.1466 16.5937V17.3333C26.1466 21.0625 26.9279 23.2292 27.6153 24.4166C27.6884 24.5431 27.727 24.6866 27.727 24.8326C27.7272 24.9786 27.689 25.1221 27.6161 25.2487C27.5433 25.3753 27.4385 25.4806 27.3124 25.5539C27.186 25.6273 27.0426 25.6661 26.8967 25.6666H10.4384C10.2923 25.6661 10.1489 25.6273 10.0227 25.5539C9.8964 25.4806 9.79163 25.3753 9.71879 25.2487C9.64596 25.1221 9.60771 24.9786 9.60791 24.8326C9.60811 24.6866 9.64657 24.5431 9.7196 24.4166C10.4071 23.2292 11.1883 21.0625 11.1883 17.3333V16.5Z" fill="white" fill-opacity="0.2"/>
<path fill-rule="evenodd" clip-rule="evenodd" d="M10.3548 17.3333V16.4999C10.3548 16.4999 10.3525 14.838 10.9894 13.3018C10.9894 13.3018 11.6264 11.7655 12.8048 10.592C12.8048 10.592 13.9832 9.41846 15.5221 8.7879C15.5221 8.7879 17.061 8.15735 18.724 8.1666C18.724 8.1666 20.4151 8.17941 21.9549 8.85496C21.9549 8.85496 23.4364 9.50491 24.5769 10.6764C24.5769 10.6764 25.713 11.8434 26.336 13.3481C26.336 13.3481 26.9798 14.903 26.9798 16.5937V17.3333C26.9798 17.3333 26.9798 21.6558 28.3364 23.9991C28.3364 23.9991 28.5598 24.386 28.5602 24.8318C28.5602 24.8318 28.5606 25.2776 28.3384 25.664C28.3384 25.664 28.1162 26.0505 27.7307 26.2744C27.7307 26.2744 27.3452 26.4983 26.8994 26.4999L10.4381 26.4999C10.4381 26.4999 9.98941 26.4983 9.60394 26.2744C9.60394 26.2744 9.21846 26.0505 8.99624 25.6641C8.99624 25.6641 8.77402 25.2776 8.77441 24.8318C8.77441 24.8318 8.77481 24.386 8.99771 23.9999C8.99771 23.9999 10.3548 21.6558 10.3548 17.3333ZM12.0215 17.3333C12.0215 17.3333 12.0215 22.1035 10.4411 24.8333L26.8935 24.8333C26.8935 24.8333 25.3131 22.1027 25.3131 17.3333V16.5937C25.3131 16.5937 25.3131 13.822 23.3827 11.839C23.3827 11.839 21.4502 9.85397 18.7148 9.83325C18.7148 9.83325 17.3847 9.82585 16.154 10.3301C16.154 10.3301 14.9233 10.8344 13.9808 11.7729C13.9808 11.7729 13.0384 12.7115 12.529 13.9401C12.529 13.9401 12.0196 15.1687 12.0215 16.4999V17.3333Z" fill="white"/>
<path d="M22.8338 26.5V25.6667C22.8338 25.2065 22.4607 24.8334 22.0005 24.8334C21.5403 24.8334 21.1672 25.2065 21.1672 25.6667V26.5C21.1672 27.5356 20.4349 28.2678 20.4349 28.2678C19.7027 29 18.6672 29 18.6672 29C17.6316 29 16.8994 28.2678 16.8994 28.2678C16.1672 27.5356 16.1672 26.5 16.1672 26.5V25.6667C16.1672 25.2065 15.7941 24.8334 15.3338 24.8334C14.8736 24.8334 14.5005 25.2065 14.5005 25.6667L14.5005 26.5C14.5005 28.2259 15.7209 29.4463 15.7209 29.4463C16.9413 30.6667 18.6672 30.6667 18.6672 30.6667C20.393 30.6667 21.6134 29.4463 21.6134 29.4463C22.8338 28.2259 22.8338 26.5 22.8338 26.5Z" fill="white"/>
</svg>
