<svg width="27" height="28" viewBox="0 0 27 28" fill="none" xmlns="http://www.w3.org/2000/svg">
<path d="M17.8333 15.2499C17.8333 17.5511 15.9679 19.4166 13.6667 19.4166C11.3654 19.4166 9.5 17.5511 9.5 15.2499C9.5 12.9487 11.3654 11.0833 13.6667 11.0833C15.9679 11.0833 17.8333 12.9487 17.8333 15.2499Z" fill="white" fill-opacity="0.1"/>
<path d="M9.91667 9.41659C9.91667 11.2576 8.42436 12.7499 6.58333 12.7499C4.74231 12.7499 3.25 11.2576 3.25 9.41659C3.25 7.57556 4.74231 6.08325 6.58333 6.08325C8.42436 6.08325 9.91667 7.57556 9.91667 9.41659Z" fill="white" fill-opacity="0.1"/>
<path d="M24.0827 9.41659C24.0827 11.2576 22.5904 12.7499 20.7493 12.7499C18.9083 12.7499 17.416 11.2576 17.416 9.41659C17.416 7.57556 18.9083 6.08325 20.7493 6.08325C22.5904 6.08325 24.0827 7.57556 24.0827 9.41659Z" fill="white" fill-opacity="0.1"/>
<path fill-rule="evenodd" clip-rule="evenodd" d="M13.666 10.25C13.666 10.25 15.7371 10.25 17.2015 11.7145C17.2015 11.7145 18.666 13.1789 18.666 15.25C18.666 15.25 18.666 17.3211 17.2015 18.7855C17.2015 18.7855 15.7371 20.25 13.666 20.25C13.666 20.25 11.5949 20.25 10.1305 18.7855C10.1305 18.7855 8.66602 17.3211 8.66602 15.25C8.66602 15.25 8.66602 13.1789 10.1305 11.7145C10.1305 11.7145 11.5949 10.25 13.666 10.25ZM13.666 11.9167C13.666 11.9167 12.2853 11.9167 11.309 12.893C11.309 12.893 10.3327 13.8693 10.3327 15.25C10.3327 15.25 10.3327 16.6307 11.309 17.607C11.309 17.607 12.2853 18.5833 13.666 18.5833C13.666 18.5833 15.0467 18.5833 16.023 17.607C16.023 17.607 16.9993 16.6307 16.9993 15.25C16.9993 15.25 16.9993 13.8693 16.023 12.893C16.023 12.893 15.0467 11.9167 13.666 11.9167Z" fill="white" fill-opacity="0.8"/>
<path d="M25.0817 15.7485L25.0819 15.7489C25.2143 15.9259 25.4115 16.0431 25.6302 16.0747C25.6697 16.0804 25.7095 16.0833 25.7494 16.0833L25.7509 16.0833C25.9302 16.083 26.1047 16.0248 26.2483 15.9175C26.4588 15.7602 26.5828 15.5128 26.5828 15.25L26.5827 15.2404C26.5807 15.0639 26.5226 14.8925 26.4169 14.7511L26.4162 14.7501C25.4146 13.4104 23.9183 12.6622 23.9183 12.6622C22.4215 11.9138 20.748 11.9166 20.748 11.9166L20.7494 11.9166C21.2097 11.9166 21.5828 12.2897 21.5828 12.75C21.5828 13.2095 21.2108 13.5823 20.7513 13.5833L25.0817 15.7485Z" fill="white" fill-opacity="0.8"/>
<path d="M4.15982 14.1529C5.30339 13.5812 6.58194 13.5833 6.58194 13.5833L6.58311 13.5833H6.58333C6.59622 13.5833 6.6091 13.583 6.62197 13.5824C6.82892 13.5728 7.02487 13.4865 7.1716 13.3402C7.32814 13.1842 7.4163 12.9724 7.41667 12.7514L7.41667 12.7502V12.75C7.41667 12.6996 7.4121 12.6493 7.40301 12.5997C7.33056 12.2045 6.98648 11.9173 6.58473 11.9166L6.58333 11.9166C4.91064 11.9141 3.41447 12.6622 3.41447 12.6622C1.9182 13.4104 0.916542 14.7501 0.916542 14.7501L0.915939 14.7509C0.808173 14.8951 0.75 15.0701 0.75 15.25L0.750046 15.2587C0.750433 15.2957 0.753282 15.3326 0.758574 15.3692C0.790196 15.5879 0.907417 15.7852 1.08445 15.9175C1.22849 16.0251 1.4035 16.0833 1.58333 16.0833C1.59447 16.0833 1.60561 16.0831 1.61675 16.0826C1.8676 16.0726 2.10054 15.9499 2.25084 15.7489C3.01625 14.7247 4.15982 14.1529 4.15982 14.1529Z" fill="white" fill-opacity="0.8"/>
<path d="M16.7619 21.1399C18.1819 22.0267 18.9168 23.5308 18.9168 23.5308L18.9173 23.5317L18.9175 23.5323C19.0572 23.8184 19.3479 23.9999 19.6663 23.9999L19.6892 23.9996C19.8081 23.9964 19.925 23.9677 20.032 23.9154C20.3182 23.7757 20.4997 23.4851 20.4997 23.1666L20.4994 23.1438C20.4961 23.0248 20.4674 22.9079 20.4152 22.801L20.4148 22.8003C19.4703 20.8664 17.6448 19.7263 17.6448 19.7263C15.819 18.5859 13.6663 18.5859 13.6663 18.5859C11.5137 18.5859 9.68787 19.7263 9.68787 19.7263C7.86236 20.8664 6.91783 22.8003 6.91783 22.8003L6.91755 22.8009C6.86191 22.9148 6.83301 23.0399 6.83301 23.1666L6.83308 23.1775C6.83423 23.266 6.84949 23.3538 6.87829 23.4376C6.95015 23.6466 7.10209 23.8185 7.30069 23.9154C7.41457 23.971 7.53962 23.9999 7.66634 23.9999L7.68548 23.9997C7.99697 23.9926 8.27846 23.8122 8.41517 23.5323C9.1501 22.0271 10.5707 21.1399 10.5707 21.1399C11.9914 20.2526 13.6663 20.2526 13.6663 20.2526C15.3413 20.2526 16.7619 21.1399 16.7619 21.1399Z" fill="white" fill-opacity="0.8"/>
<path d="M8.40146 7.70492C8.89888 8.23437 9.0351 8.94796 9.0351 8.94796C9.07654 9.16505 9.20252 9.35679 9.38533 9.481C9.52348 9.57486 9.68664 9.62504 9.85365 9.62504L9.85905 9.62502C9.90968 9.62469 9.96017 9.61975 10.0099 9.61026C10.4028 9.53526 10.687 9.19169 10.687 8.79171L10.687 8.78701C10.6867 8.73615 10.6817 8.68542 10.6722 8.63546C10.4452 7.44615 9.61614 6.56372 9.61614 6.56372C8.7871 5.68129 7.61425 5.38059 7.61425 5.38059C6.44141 5.07988 5.29006 5.45456 5.29006 5.45456C4.13871 5.82924 3.36746 6.7626 3.36746 6.7626C2.59621 7.69596 2.44527 8.8973 2.44527 8.8973C2.29434 10.0986 2.81073 11.1938 2.81073 11.1938C3.32712 12.2889 4.35 12.9368 4.35 12.9368C5.37253 13.5844 6.58282 13.5834 6.58282 13.5834L6.58366 13.5834C6.80468 13.5831 7.01655 13.4951 7.17267 13.3387C7.32859 13.1825 7.41615 12.9708 7.41615 12.75L7.41615 12.7492C7.41568 12.2893 7.04272 11.9167 6.58282 11.9167L6.58197 11.9167C5.8555 11.9174 5.24178 11.5287 5.24178 11.5287C4.62805 11.14 4.31821 10.4829 4.31821 10.4829C4.00838 9.82586 4.09894 9.10506 4.09894 9.10506C4.1895 8.38426 4.65225 7.82424 4.65225 7.82424C5.115 7.26423 5.80581 7.03942 5.80581 7.03942C6.49662 6.81461 7.20033 6.99504 7.20033 6.99504C7.90403 7.17546 8.40146 7.70492 8.40146 7.70492Z" fill="white" fill-opacity="0.8"/>
<path d="M22.0907 11.5287C21.477 11.9174 20.7505 11.9167 20.7505 11.9167L20.7497 11.9167C20.7366 11.9167 20.7235 11.917 20.7105 11.9176L19.9173 12.7892C19.927 12.9962 20.0135 13.1921 20.1598 13.3387C20.3159 13.4951 20.5278 13.5831 20.7488 13.5834L20.7497 13.5834C21.96 13.5844 22.9825 12.9368 22.9825 12.9368C24.0054 12.2889 24.5218 11.1938 24.5218 11.1938C25.0382 10.0986 24.8872 8.8973 24.8872 8.8973C24.7363 7.69596 23.965 6.7626 23.965 6.7626C23.1938 5.82924 22.0424 5.45456 22.0424 5.45456C20.8911 5.07988 19.7182 5.38059 19.7182 5.38059C18.5454 5.68129 17.7164 6.56372 17.7164 6.56372C16.8873 7.44615 16.6603 8.63546 16.6603 8.63546C16.6505 8.68696 16.6455 8.73927 16.6455 8.79171C16.6455 8.81675 16.6466 8.84178 16.6489 8.86672C16.6824 9.23714 16.9573 9.54052 17.3226 9.61026C17.3741 9.62009 17.4264 9.62504 17.4788 9.62504C17.5039 9.62504 17.5289 9.62391 17.5539 9.62166C17.9243 9.58818 18.2277 9.31329 18.2974 8.94796C18.4336 8.23437 18.931 7.70492 18.931 7.70492C19.4285 7.17546 20.1322 6.99504 20.1322 6.99504C20.8359 6.81461 21.5267 7.03942 21.5267 7.03942C22.2175 7.26423 22.6802 7.82424 22.6802 7.82424C23.143 8.38426 23.2336 9.10506 23.2336 9.10506C23.3241 9.82586 23.0143 10.4829 23.0143 10.4829C22.7044 11.14 22.0907 11.5287 22.0907 11.5287Z" fill="white" fill-opacity="0.8"/>
</svg>
