<svg width="27" height="28" viewBox="0 0 27 28" fill="none" xmlns="http://www.w3.org/2000/svg">
<path fill-rule="evenodd" clip-rule="evenodd" d="M4.50033 5.66663H22.8337C23.0546 5.66663 23.2666 5.75452 23.4229 5.91077C23.5791 6.06702 23.667 6.27901 23.667 6.49996V21.5C23.667 21.7209 23.5791 21.9329 23.4229 22.0892C23.2666 22.2454 23.0546 22.3333 22.8337 22.3333H4.50033C4.27938 22.3333 4.06738 22.2454 3.91113 22.0892C3.75488 21.9329 3.66699 21.7209 3.66699 21.5V6.49996C3.66699 6.27901 3.75488 6.06702 3.91113 5.91077C4.06738 5.75452 4.27938 5.66663 4.50033 5.66663ZM8.53841 15.2453C8.94958 15.5199 9.43298 15.6666 9.92737 15.6666C10.2561 15.6681 10.5819 15.6044 10.8858 15.479C11.1898 15.3539 11.4659 15.1698 11.6982 14.9375C11.9307 14.7051 12.1147 14.4288 12.24 14.1249C12.3651 13.8211 12.4288 13.4954 12.4274 13.1666C12.4274 12.6722 12.2809 12.1888 12.006 11.7777C11.7314 11.3665 11.3409 11.0461 10.8842 10.8569C10.4272 10.6676 9.92472 10.6182 9.4397 10.7146C8.95467 10.8111 8.50932 11.0493 8.15959 11.3988C7.81006 11.7486 7.57182 12.1939 7.47538 12.679C7.37895 13.1638 7.42859 13.6665 7.6178 14.1233C7.80701 14.5802 8.12744 14.9706 8.53841 15.2453Z" fill="white" fill-opacity="0.1"/>
<path d="M16.1668 13.1667H20.3335C20.7937 13.1667 21.1668 12.7936 21.1668 12.3333C21.1668 11.8731 20.7937 11.5 20.3335 11.5H16.1668C15.7066 11.5 15.3335 11.8731 15.3335 12.3333C15.3335 12.7936 15.7066 13.1667 16.1668 13.1667Z" fill="white"/>
<path d="M16.1668 16.4999H20.3335C20.7937 16.4999 21.1668 16.1268 21.1668 15.6666C21.1668 15.2063 20.7937 14.8333 20.3335 14.8333H16.1668C15.7066 14.8333 15.3335 15.2063 15.3335 15.6666C15.3335 16.1268 15.7066 16.4999 16.1668 16.4999Z" fill="white"/>
<path fill-rule="evenodd" clip-rule="evenodd" d="M9.92708 9.83325C9.92708 9.83325 11.3078 9.83325 12.2841 10.8096C12.2841 10.8096 13.2604 11.7859 13.2604 13.1666C13.2604 13.1666 13.2604 14.5473 12.2841 15.5236C12.2841 15.5236 11.3078 16.4999 9.92708 16.4999C9.92708 16.4999 8.54637 16.4999 7.57006 15.5236C7.57006 15.5236 6.59375 14.5473 6.59375 13.1666C6.59375 13.1666 6.59375 11.7859 7.57006 10.8096C7.57006 10.8096 8.54637 9.83325 9.92708 9.83325ZM9.92708 11.4999C9.92708 11.4999 9.23673 11.4999 8.74857 11.9881C8.74857 11.9881 8.26042 12.4762 8.26042 13.1666C8.26042 13.1666 8.26042 13.8569 8.74857 14.3451C8.74857 14.3451 9.23673 14.8333 9.92708 14.8333C9.92708 14.8333 10.6174 14.8333 11.1056 14.3451C11.1056 14.3451 11.5938 13.8569 11.5938 13.1666C11.5938 13.1666 11.5938 12.4762 11.1056 11.9881C11.1056 11.9881 10.6174 11.4999 9.92708 11.4999Z" fill="white"/>
<path d="M11.4602 17.0186C12.136 17.5432 12.3487 18.3717 12.3487 18.3717L12.3489 18.3726L12.3491 18.3734C12.4435 18.7421 12.7758 19 13.1564 19L13.1732 18.9998C13.2373 18.9985 13.301 18.9898 13.3631 18.9739C13.7318 18.8795 13.9897 18.5473 13.9897 18.1667L13.9896 18.1499C13.9883 18.0858 13.9796 18.0221 13.9637 17.96C13.6097 16.5772 12.4821 15.702 12.4821 15.702C11.3546 14.8268 9.92725 14.8268 9.92725 14.8268C8.4999 14.8268 7.37236 15.702 7.37236 15.702C6.24483 16.5772 5.89079 17.96 5.89079 17.96C5.8735 18.0275 5.86475 18.0969 5.86475 18.1667C5.86475 18.1785 5.865 18.1904 5.8655 18.2022C5.87136 18.3395 5.91107 18.4731 5.98108 18.5913C6.09371 18.7815 6.27727 18.9191 6.49138 18.9739C6.55892 18.9912 6.62836 19 6.69808 19C6.70993 19 6.72178 18.9997 6.73363 18.9992C6.87088 18.9934 7.00456 18.9537 7.12276 18.8837C7.31292 18.771 7.45055 18.5875 7.50537 18.3734C7.71779 17.5437 8.39432 17.0186 8.39432 17.0186C9.07084 16.4934 9.92725 16.4934 9.92725 16.4934C10.7837 16.4934 11.4602 17.0186 11.4602 17.0186Z" fill="white"/>
<path fill-rule="evenodd" clip-rule="evenodd" d="M2.8335 6.49992C2.8335 6.49992 2.8335 5.80956 3.32165 5.32141C3.32165 5.32141 3.80981 4.83325 4.50016 4.83325H22.8335C22.8335 4.83325 23.5239 4.83325 24.012 5.32141C24.012 5.32141 24.5002 5.80956 24.5002 6.49992V21.4999C24.5002 21.4999 24.5002 22.1903 24.012 22.6784C24.012 22.6784 23.5239 23.1666 22.8335 23.1666H4.50016C4.50016 23.1666 3.8098 23.1666 3.32165 22.6784C3.32165 22.6784 2.8335 22.1903 2.8335 21.4999V6.49992ZM4.50016 6.49992V21.4999H22.8335V6.49992H4.50016Z" fill="white"/>
</svg>
