<svg width="38" height="38" viewBox="0 0 38 38" fill="none" xmlns="http://www.w3.org/2000/svg">
<path d="M19.1246 25.5314L24.3745 28.8647C25.0516 29.2918 25.8849 28.6564 25.6871 27.8751L24.1662 21.896C24.1251 21.7302 24.1316 21.5563 24.1851 21.3941C24.2385 21.2319 24.3367 21.0881 24.4683 20.9793L29.1766 17.0522C29.7912 16.5418 29.4787 15.5106 28.6766 15.4585L22.5307 15.0626C22.3631 15.0529 22.2018 14.9945 22.0669 14.8946C21.9318 14.7947 21.8287 14.6576 21.7703 14.5002L19.4787 8.72933C19.418 8.56255 19.3075 8.41851 19.1622 8.31668C19.0168 8.2149 18.8436 8.16028 18.6662 8.16028C18.4887 8.16028 18.3155 8.2149 18.1702 8.31668C18.0248 8.41851 17.9143 8.56255 17.8537 8.72933L15.562 14.5002C15.5036 14.6576 15.4006 14.7947 15.2655 14.8946C15.1305 14.9945 14.9693 15.0529 14.8016 15.0626L8.6558 15.4585C7.8537 15.5106 7.5412 16.5418 8.15572 17.0522L12.8641 20.9793C12.9957 21.0881 13.0939 21.2319 13.1473 21.3941C13.2008 21.5563 13.2073 21.7302 13.1662 21.896L11.7599 27.4377C11.5204 28.3752 12.5203 29.1356 13.3224 28.6252L18.2078 25.5314C18.3448 25.4443 18.5038 25.398 18.6662 25.398C18.8285 25.398 18.9875 25.4443 19.1246 25.5314Z" fill="white" fill-opacity="0.2"/>
<path fill-rule="evenodd" clip-rule="evenodd" d="M18.6779 26.2347C18.6779 26.2347 18.6728 26.2314 18.6667 26.2314C18.6667 26.2314 18.6607 26.2314 18.6556 26.2347L13.7688 29.3293C13.7688 29.3293 13.249 29.6601 12.6487 29.6182C12.6487 29.6182 12.0964 29.5796 11.6468 29.2379C11.6468 29.2379 11.2029 28.9004 11.0097 28.3811C11.0097 28.3811 10.802 27.8227 10.9531 27.2314L12.359 21.6911C12.359 21.6911 12.363 21.675 12.3564 21.655C12.3564 21.655 12.3498 21.635 12.3336 21.6216L7.62256 17.6923C7.62256 17.6923 7.19637 17.3383 7.05654 16.8076C7.05654 16.8076 6.92876 16.3226 7.079 15.8372C7.079 15.8372 7.23092 15.3463 7.61546 15.0213C7.61546 15.0213 8.03873 14.6636 8.60232 14.627L14.7486 14.2311C14.7486 14.2311 14.763 14.2303 14.7705 14.2247C14.7705 14.2247 14.778 14.2192 14.7812 14.2105L14.7881 14.1927L17.0759 8.43145C17.0759 8.43145 17.2599 7.93734 17.6927 7.63419C17.6927 7.63419 18.1313 7.32703 18.6667 7.32703C18.6667 7.32703 19.2022 7.32703 19.6408 7.63419C19.6408 7.63419 20.0736 7.93734 20.2576 8.43145L22.5454 14.1927L22.5522 14.2105C22.5522 14.2105 22.5555 14.2192 22.563 14.2247C22.563 14.2247 22.5704 14.2303 22.5797 14.2308L28.7307 14.627C28.7307 14.627 29.2948 14.6636 29.718 15.0213C29.718 15.0213 30.1026 15.3463 30.2545 15.8372C30.2545 15.8372 30.4047 16.3226 30.2769 16.8076C30.2769 16.8076 30.1371 17.3383 29.7096 17.6934L25.0026 21.6193C25.0026 21.6193 24.9836 21.635 24.9771 21.655C24.9771 21.655 24.9705 21.675 24.9755 21.6954L26.4952 27.6698C26.4952 27.6698 26.6309 28.2056 26.4417 28.7114C26.4417 28.7114 26.2657 29.1822 25.8625 29.4875C25.8625 29.4875 25.4539 29.797 24.9509 29.8316C24.9509 29.8316 24.4053 29.8691 23.9305 29.5696L18.679 26.2354L18.6784 26.235L18.6779 26.2347ZM24.8197 28.16L19.5724 24.8284L19.5717 24.828C19.5717 24.828 19.1575 24.5648 18.6667 24.5648C18.6667 24.5648 18.1757 24.5648 17.7613 24.8283L12.8771 27.9212C12.8771 27.9212 12.7637 27.9934 12.6554 27.911C12.6554 27.911 12.525 27.8119 12.5679 27.6441L13.9745 22.101C13.9745 22.101 14.0964 21.6098 13.9393 21.1333C13.9393 21.1333 13.7823 20.6569 13.3957 20.3372L8.69009 16.4124C8.69009 16.4124 8.65473 16.383 8.67114 16.33C8.67114 16.33 8.68292 16.2919 8.71032 16.2901L14.8557 15.8943C14.8557 15.8943 15.3553 15.8653 15.7617 15.5646C15.7617 15.5646 16.1637 15.2673 16.3401 14.8003L18.6287 9.03696L18.6374 9.01426C18.6374 9.01426 18.6407 9.005 18.6488 8.99935C18.6488 8.99935 18.6569 8.99369 18.6667 8.99369C18.6667 8.99369 18.6766 8.99369 18.6847 8.99935C18.6847 8.99935 18.6927 9.005 18.6961 9.01426L18.7047 9.03696L20.9934 14.8003C20.9934 14.8003 21.1698 15.2673 21.5718 15.5646C21.5718 15.5646 21.9782 15.8653 22.4829 15.8947L28.6236 16.2902C28.6236 16.2902 28.6506 16.2919 28.6623 16.33C28.6623 16.33 28.6787 16.383 28.6447 16.4112L23.9351 20.3394C23.9351 20.3394 23.5512 20.6569 23.3941 21.1333C23.3941 21.1333 23.2371 21.6098 23.3579 22.0967L24.88 28.0806C24.88 28.0806 24.8928 28.1312 24.8564 28.1588C24.8564 28.1588 24.8388 28.1721 24.8197 28.16Z" fill="white"/>
</svg>
