<svg width="27" height="28" viewBox="0 0 27 28" fill="none" xmlns="http://www.w3.org/2000/svg">
<path d="M17.4059 9.01038C17.6916 9.80917 17.8362 10.6516 17.833 11.4999C17.833 13.4891 17.0428 15.3967 15.6363 16.8033C14.2298 18.2098 12.3221 18.9999 10.333 18.9999H9.92676C10.4438 20.4625 11.4017 21.7288 12.6685 22.6242C13.9352 23.5197 15.4484 24.0003 16.9997 23.9999H23.8747C24.0404 23.9999 24.1994 23.9341 24.3166 23.8169C24.4338 23.6997 24.4997 23.5407 24.4997 23.3749V16.4999C24.5024 14.5803 23.7679 12.7329 22.4478 11.3392C21.1277 9.94549 19.3229 9.11182 17.4059 9.01038Z" fill="white" fill-opacity="0.1"/>
<path fill-rule="evenodd" clip-rule="evenodd" d="M13.5224 3.80096C13.5224 3.80096 11.9909 3.16663 10.3333 3.16663H10.3327C10.3327 3.16663 8.67545 3.16674 7.14431 3.80096C7.14431 3.80096 5.61288 4.4353 4.44078 5.6074C4.44078 5.6074 3.26867 6.77951 2.63434 8.31093C2.63434 8.31093 2 9.84236 2 11.5V18.375C2 18.375 2 18.979 2.42714 19.4062C2.42714 19.4062 2.85427 19.8333 3.45833 19.8333H10.3333C10.3333 19.8333 11.9909 19.8333 13.5224 19.199C13.5224 19.199 15.0538 18.5646 16.2259 17.3925C16.2259 17.3925 17.398 16.2204 18.0323 14.689C18.0323 14.689 18.6667 13.1576 18.6667 11.5C18.6667 11.5 18.6667 9.84236 18.0323 8.31093C18.0323 8.31093 17.398 6.77951 16.2259 5.6074C16.2259 5.6074 15.0538 4.4353 13.5224 3.80096ZM17 11.5C17 11.5 17 10.1739 16.4925 8.94874C16.4925 8.94874 15.9851 7.7236 15.0474 6.78591C15.0474 6.78591 14.1097 5.84823 12.8846 5.34076C12.8846 5.34076 11.6597 4.8334 10.3339 4.83329L10.3333 4.83329C10.3333 4.83329 9.00725 4.83329 7.78211 5.34076C7.78211 5.34076 6.55697 5.84823 5.61929 6.78591C5.61929 6.78591 4.68161 7.7236 4.17414 8.94874C4.17414 8.94874 3.66667 10.1739 3.66667 11.5L3.66667 18.1666H10.3333C10.3333 18.1666 11.6594 18.1666 12.8846 17.6592C12.8846 17.6592 14.1097 17.1517 15.0474 16.214C15.0474 16.214 15.9851 15.2763 16.4925 14.0512C16.4925 14.0512 17 12.826 17 11.5Z" fill="white" fill-opacity="0.8"/>
<path d="M17.4503 8.17817C17.4356 8.17739 17.4209 8.177 17.4063 8.177C17.3701 8.177 17.334 8.17935 17.2981 8.18405C16.8998 8.23617 16.5953 8.5651 16.5741 8.96629C16.5733 8.98096 16.5729 8.99565 16.5729 9.01034C16.5729 9.02246 16.5732 9.03458 16.5737 9.04669C16.5821 9.23978 16.6574 9.42393 16.7867 9.56762C16.9345 9.73195 17.1415 9.83082 17.3622 9.8425C20.0158 9.98294 21.8431 11.9122 21.8431 11.9122C23.6704 13.8415 23.6667 16.4988 23.6667 16.4988V23.1666H17C14.8804 23.1671 13.1498 21.9437 13.1498 21.9437C11.4195 20.7205 10.713 18.7227 10.713 18.7227L10.7128 18.7221C10.595 18.3892 10.2802 18.1666 9.92708 18.1666L9.91687 18.1666C9.82568 18.1678 9.73529 18.1838 9.64931 18.2142C9.44093 18.2879 9.27036 18.4413 9.17511 18.6408C9.12155 18.7529 9.09375 18.8756 9.09375 18.9999L9.09395 19.018C9.09587 19.1065 9.11189 19.1942 9.14141 19.2777C10.0245 21.7754 12.1877 23.3046 12.1877 23.3046C14.351 24.8339 17 24.8333 17 24.8333H23.875C24.4791 24.8333 24.9062 24.4061 24.9062 24.4061C25.3333 23.979 25.3333 23.3749 25.3333 23.3749V16.5011C25.3356 14.9012 24.7445 13.4144 24.7445 13.4144C24.1533 11.9277 23.0531 10.7661 23.0531 10.7661C21.9529 9.60451 20.5005 8.93362 20.5005 8.93362C19.0482 8.26285 17.4509 8.1782 17.4509 8.1782L17.4503 8.17817Z" fill="white" fill-opacity="0.8"/>
</svg>
