<svg width="12" height="18" viewBox="0 0 12 18" fill="none" xmlns="http://www.w3.org/2000/svg">
<path d="M4.1875 12.2031V11.9375C4.19271 11.026 4.27344 10.2995 4.42969 9.75781C4.59115 9.21615 4.82552 8.77865 5.13281 8.44531C5.4401 8.11198 5.8099 7.8099 6.24219 7.53906C6.5651 7.33073 6.85417 7.11458 7.10937 6.89062C7.36458 6.66667 7.56771 6.41927 7.71875 6.14844C7.86979 5.8724 7.94531 5.5651 7.94531 5.22656C7.94531 4.86719 7.85938 4.55208 7.6875 4.28125C7.51563 4.01042 7.28385 3.80208 6.99219 3.65625C6.70573 3.51042 6.38802 3.4375 6.03906 3.4375C5.70052 3.4375 5.38021 3.51302 5.07813 3.66406C4.77604 3.8099 4.52865 4.02865 4.33594 4.32031C4.14323 4.60677 4.03906 4.96354 4.02344 5.39062H0.835938C0.861979 4.34896 1.11198 3.48958 1.58594 2.8125C2.0599 2.13021 2.6875 1.6224 3.46875 1.28906C4.25 0.95052 5.11198 0.781249 6.05469 0.781249C7.09115 0.781249 8.00781 0.953124 8.80469 1.29687C9.60156 1.63542 10.2266 2.1276 10.6797 2.77344C11.1328 3.41927 11.3594 4.19792 11.3594 5.10937C11.3594 5.71875 11.2578 6.26042 11.0547 6.73437C10.8568 7.20312 10.5781 7.61979 10.2188 7.98437C9.85938 8.34375 9.4349 8.66927 8.94531 8.96094C8.53385 9.20573 8.19531 9.46094 7.92969 9.72656C7.66927 9.99219 7.47396 10.2995 7.34375 10.6484C7.21875 10.9974 7.15365 11.4271 7.14844 11.9375V12.2031H4.1875ZM5.73437 17.2031C5.21354 17.2031 4.76823 17.0208 4.39844 16.6562C4.03385 16.2865 3.85417 15.8437 3.85938 15.3281C3.85417 14.8177 4.03385 14.3802 4.39844 14.0156C4.76823 13.651 5.21354 13.4687 5.73437 13.4687C6.22917 13.4687 6.66406 13.651 7.03906 14.0156C7.41406 14.3802 7.60417 14.8177 7.60938 15.3281C7.60417 15.6719 7.51302 15.987 7.33594 16.2734C7.16406 16.5547 6.9375 16.7812 6.65625 16.9531C6.375 17.1198 6.06771 17.2031 5.73437 17.2031Z" fill="white"/>
</svg>
