<svg width="22" height="22" viewBox="0 0 22 22" fill="none" xmlns="http://www.w3.org/2000/svg">
<path d="M19.134 19.475C19.0095 19.5976 18.8419 19.6664 18.6673 19.6667C18.4903 19.666 18.3203 19.5974 18.1923 19.475L14.5923 15.8667C13.0761 17.1402 11.1268 17.7792 9.15095 17.6505C7.17509 17.5217 5.32522 16.6351 3.98716 15.1756C2.64909 13.7161 1.92615 11.7963 1.96909 9.81672C2.01204 7.83714 2.81758 5.95056 4.21768 4.55045C5.61779 3.15034 7.50437 2.34481 9.48396 2.30186C11.4635 2.25891 13.3833 2.98186 14.8428 4.31992C16.3023 5.65799 17.1889 7.50786 17.3177 9.48372C17.4465 11.4596 16.8075 13.4089 15.5339 14.925L19.134 18.525C19.1969 18.5871 19.247 18.661 19.2811 18.7426C19.3153 18.8241 19.3328 18.9116 19.3328 19C19.3328 19.0885 19.3153 19.176 19.2811 19.2575C19.247 19.3391 19.1969 19.413 19.134 19.475ZM9.66728 16.3334C10.9199 16.3334 12.1444 15.9619 13.1859 15.266C14.2274 14.5701 15.0392 13.581 15.5185 12.4237C15.9979 11.2664 16.1233 9.99302 15.8789 8.76448C15.6346 7.53593 15.0314 6.40744 14.1456 5.52171C13.2599 4.63597 12.1314 4.03278 10.9029 3.78841C9.67431 3.54403 8.40089 3.66946 7.24362 4.14881C6.08636 4.62817 5.09723 5.43993 4.40131 6.48144C3.70539 7.52295 3.33395 8.74743 3.33395 10C3.33616 11.6791 4.00412 13.2887 5.19138 14.476C6.37863 15.6632 7.98826 16.3312 9.66728 16.3334Z" fill="white" fill-opacity="0.2"/>
</svg>
