<svg width="23" height="25" viewBox="0 0 23 25" fill="none" xmlns="http://www.w3.org/2000/svg">
<path d="M4.73171 18.5947C4.28095 18.5947 3.86808 18.4849 3.49308 18.2652C3.11808 18.0417 2.81883 17.7425 2.59535 17.3675C2.37565 16.9925 2.2658 16.5796 2.2658 16.1288C2.2658 15.6743 2.37565 15.2595 2.59535 14.8845C2.81883 14.5095 3.11808 14.2103 3.49308 13.9868C3.86808 13.7633 4.28095 13.6516 4.73171 13.6516H6.04989V11.3675H4.73171C4.28095 11.3675 3.86808 11.2576 3.49308 11.0379C3.11808 10.8144 2.81883 10.5171 2.59535 10.1459C2.37565 9.77087 2.2658 9.3561 2.2658 8.90156C2.2658 8.44701 2.37565 8.03413 2.59535 7.66292C2.81883 7.28792 3.11808 6.99057 3.49308 6.77087C3.86808 6.54739 4.28095 6.43565 4.73171 6.43565C5.18626 6.43565 5.60103 6.54739 5.97603 6.77087C6.35103 6.99057 6.65027 7.28792 6.87376 7.66292C7.09724 8.03413 7.20898 8.44701 7.20898 8.90156V10.2084H9.49308V8.90156C9.49308 8.44701 9.60292 8.03413 9.82262 7.66292C10.0461 7.28792 10.3435 6.99057 10.7147 6.77087C11.0897 6.54739 11.5044 6.43565 11.959 6.43565C12.4135 6.43565 12.8264 6.54739 13.1976 6.77087C13.5726 6.99057 13.87 7.28792 14.0897 7.66292C14.3132 8.03413 14.4249 8.44701 14.4249 8.90156C14.4249 9.3561 14.3132 9.77087 14.0897 10.1459C13.87 10.5171 13.5726 10.8144 13.1976 11.0379C12.8264 11.2576 12.4135 11.3675 11.959 11.3675H10.6522V13.6516H11.959C12.4135 13.6516 12.8264 13.7633 13.1976 13.9868C13.5726 14.2103 13.87 14.5095 14.0897 14.8845C14.3132 15.2595 14.4249 15.6743 14.4249 16.1288C14.4249 16.5796 14.3132 16.9925 14.0897 17.3675C13.87 17.7425 13.5726 18.0417 13.1976 18.2652C12.8264 18.4849 12.4135 18.5947 11.959 18.5947C11.5044 18.5947 11.0897 18.4849 10.7147 18.2652C10.3435 18.0417 10.0461 17.7425 9.82262 17.3675C9.60292 16.9925 9.49308 16.5796 9.49308 16.1288V14.8106H7.20898V16.1288C7.20898 16.5796 7.09724 16.9925 6.87376 17.3675C6.65027 17.7425 6.35103 18.0417 5.97603 18.2652C5.60103 18.4849 5.18626 18.5947 4.73171 18.5947ZM4.73171 17.4356C4.97414 17.4356 5.19383 17.3769 5.3908 17.2595C5.59156 17.1421 5.75065 16.9849 5.86808 16.7879C5.98929 16.5872 6.04989 16.3675 6.04989 16.1288V14.8106H4.73171C4.49308 14.8106 4.27338 14.8713 4.07262 14.9925C3.87565 15.1099 3.71845 15.269 3.60103 15.4697C3.48361 15.6667 3.42489 15.8864 3.42489 16.1288C3.42489 16.3675 3.48361 16.5872 3.60103 16.7879C3.71845 16.9849 3.87565 17.1421 4.07262 17.2595C4.27338 17.3769 4.49308 17.4356 4.73171 17.4356ZM4.73171 10.2084H6.04989V8.90156C6.04989 8.65913 5.98929 8.43943 5.86808 8.24247C5.75065 8.0455 5.59156 7.8883 5.3908 7.77087C5.19383 7.65345 4.97414 7.59474 4.73171 7.59474C4.49308 7.59474 4.27338 7.65345 4.07262 7.77087C3.87565 7.8883 3.71845 8.0455 3.60103 8.24247C3.48361 8.43943 3.42489 8.65913 3.42489 8.90156C3.42489 9.14398 3.48361 9.36557 3.60103 9.56633C3.71845 9.7633 3.87565 9.9205 4.07262 10.0379C4.27338 10.1516 4.49308 10.2084 4.73171 10.2084ZM10.6522 10.2084H11.959C12.2014 10.2084 12.4211 10.1516 12.6181 10.0379C12.815 9.9205 12.9722 9.7633 13.0897 9.56633C13.2071 9.36557 13.2658 9.14398 13.2658 8.90156C13.2658 8.65913 13.2071 8.43943 13.0897 8.24247C12.9722 8.0455 12.815 7.8883 12.6181 7.77087C12.4211 7.65345 12.2014 7.59474 11.959 7.59474C11.7166 7.59474 11.495 7.65345 11.2942 7.77087C11.0972 7.8883 10.94 8.0455 10.8226 8.24247C10.709 8.43943 10.6522 8.65913 10.6522 8.90156V10.2084ZM11.959 17.4356C12.2014 17.4356 12.4211 17.3769 12.6181 17.2595C12.815 17.1421 12.9722 16.9849 13.0897 16.7879C13.2071 16.5872 13.2658 16.3675 13.2658 16.1288C13.2658 15.8864 13.2071 15.6667 13.0897 15.4697C12.9722 15.269 12.815 15.1099 12.6181 14.9925C12.4211 14.8713 12.2014 14.8106 11.959 14.8106H10.6522V16.1288C10.6522 16.3675 10.709 16.5872 10.8226 16.7879C10.94 16.9849 11.0972 17.1421 11.2942 17.2595C11.495 17.3769 11.7166 17.4356 11.959 17.4356ZM7.20898 13.6516H9.49308V11.3675H7.20898V13.6516ZM21.6905 6.15156L17.9405 20.0834H16.7132L20.4632 6.15156H21.6905Z" fill="white" fill-opacity="0.2"/>
</svg>
