<svg width="27" height="28" viewBox="0 0 27 28" fill="none" xmlns="http://www.w3.org/2000/svg">
<path fill-rule="evenodd" clip-rule="evenodd" d="M6.16634 4H21.1663C21.3873 4 21.5993 4.08789 21.7555 4.24414C21.9118 4.40039 21.9997 4.61239 21.9997 4.83333V23.1667C21.9997 23.3876 21.9118 23.5996 21.7555 23.7559C21.5993 23.9121 21.3873 24 21.1663 24H6.16634C5.94539 24 5.7334 23.9121 5.57715 23.7559C5.4209 23.5996 5.33301 23.3876 5.33301 23.1667V4.83333C5.33301 4.61239 5.4209 4.40039 5.57715 4.24414C5.7334 4.08789 5.94539 4 6.16634 4ZM11.8145 17.6049C12.3626 17.9712 13.0072 18.1667 13.6663 18.1667C14.5503 18.1667 15.3983 17.8155 16.0233 17.1903C16.6485 16.5653 16.9997 15.7173 16.9997 14.8333C16.9997 14.1742 16.8042 13.5296 16.4379 12.9815C16.0715 12.4332 15.5511 12.006 14.942 11.7537C14.3328 11.5014 13.6627 11.4355 13.0161 11.5641C12.3693 11.6927 11.7755 12.01 11.3094 12.4764C10.8431 12.9425 10.5257 13.5363 10.3971 14.1831C10.2685 14.8297 10.3344 15.4998 10.5867 16.109C10.839 16.7181 11.2662 17.2385 11.8145 17.6049Z" fill="white" fill-opacity="0.1"/>
<path fill-rule="evenodd" clip-rule="evenodd" d="M13.6667 10.6666C13.6667 10.6666 15.3926 10.6666 16.6129 11.887C16.6129 11.887 17.8333 13.1074 17.8333 14.8333C17.8333 14.8333 17.8333 16.5592 16.6129 17.7796C16.6129 17.7796 15.3926 19 13.6667 19C13.6667 19 11.9408 19 10.7204 17.7796C10.7204 17.7796 9.5 16.5592 9.5 14.8333C9.5 14.8333 9.5 13.1074 10.7204 11.887C10.7204 11.887 11.9408 10.6666 13.6667 10.6666ZM13.6667 12.3333C13.6667 12.3333 12.6311 12.3333 11.8989 13.0655C11.8989 13.0655 11.1667 13.7978 11.1667 14.8333C11.1667 14.8333 11.1667 15.8688 11.8989 16.6011C11.8989 16.6011 12.6311 17.3333 13.6667 17.3333C13.6667 17.3333 14.7022 17.3333 15.4344 16.6011C15.4344 16.6011 16.1667 15.8688 16.1667 14.8333C16.1667 14.8333 16.1667 13.7978 15.4344 13.0655C15.4344 13.0655 14.7022 12.3333 13.6667 12.3333Z" fill="white"/>
<path d="M16.0887 19.5718C17.2325 20.1436 17.9997 21.1666 17.9997 21.1666C18.1323 21.3434 18.3297 21.4603 18.5485 21.4915C18.5875 21.4971 18.6269 21.4999 18.6663 21.4999L18.6692 21.4999C18.8485 21.4993 19.0229 21.4409 19.1663 21.3333C19.3762 21.1759 19.4997 20.9289 19.4997 20.6666L19.4996 20.6557C19.4973 20.4791 19.439 20.3078 19.333 20.1666C18.3297 18.8289 16.8341 18.0811 16.8341 18.0811C15.3385 17.3333 13.6663 17.3333 13.6663 17.3333C11.9942 17.3333 10.4986 18.0811 10.4986 18.0811C9.00296 18.8289 7.99967 20.1666 7.99967 20.1666C7.89149 20.3108 7.83301 20.4863 7.83301 20.6666L7.83304 20.6739C7.83337 20.7109 7.83615 20.7478 7.84138 20.7844C7.87264 21.0032 7.98953 21.2006 8.16634 21.3333C8.31059 21.4414 8.48603 21.4999 8.66634 21.4999L8.67368 21.4999C8.71066 21.4996 8.74758 21.4968 8.78419 21.4915C9.00298 21.4603 9.2004 21.3434 9.33301 21.1666C10.1002 20.1436 11.2439 19.5718 11.2439 19.5718C12.3876 18.9999 13.6663 18.9999 13.6663 18.9999C14.945 18.9999 16.0887 19.5718 16.0887 19.5718Z" fill="white"/>
<path fill-rule="evenodd" clip-rule="evenodd" d="M21.1663 3.16663C21.1663 3.16663 21.8567 3.16663 22.3449 3.65478C22.3449 3.65478 22.833 4.14294 22.833 4.83329V23.1666C22.833 23.1666 22.833 23.857 22.3449 24.3451C22.3449 24.3451 21.8567 24.8333 21.1663 24.8333H6.16634C6.16634 24.8333 5.47598 24.8333 4.98783 24.3451C4.98783 24.3451 4.49967 23.857 4.49967 23.1666V4.83329C4.49967 4.83329 4.49967 4.14293 4.98783 3.65478C4.98783 3.65478 5.47598 3.16663 6.16634 3.16663L21.1663 3.16663ZM21.1663 4.83329L6.16634 4.83329V23.1666H21.1663V4.83329Z" fill="white"/>
<path d="M10.3333 8.16667H17C17.4602 8.16667 17.8333 7.79357 17.8333 7.33333C17.8333 6.8731 17.4602 6.5 17 6.5H10.3333C9.8731 6.5 9.5 6.8731 9.5 7.33333C9.5 7.79357 9.8731 8.16667 10.3333 8.16667Z" fill="white"/>
</svg>
