<svg width="14" height="19" viewBox="0 0 14 19" fill="none" xmlns="http://www.w3.org/2000/svg">
<path d="M5.6 0C8 0 9.8 0.3 11 1C12.3 1.7 12.9 2.9 12.9 4.6C12.9 5.6 12.6 6.5 12.2 7.2C11.9732 7.54193 11.6788 7.83372 11.3348 8.05733C10.9908 8.28093 10.6045 8.43159 10.2 8.5C10.7717 8.63353 11.314 8.87079 11.8 9.2C12.2 9.5 12.6 10 12.9 10.5C13.213 11.2244 13.35 12.0125 13.3 12.8C13.3354 13.5225 13.1998 14.2431 12.9045 14.9033C12.6091 15.5636 12.1622 16.1449 11.6 16.6C10.1765 17.6167 8.44578 18.1112 6.7 18H0V0H5.6ZM6 7.1C7.1 7.1 7.9 7 8.3 6.6C8.8 6.3 9 5.7 9 5.1C9 4.4 8.7 3.9 8.2 3.6C7.7 3.3 6.9 3.1 5.8 3.1H3.8V7.1H6ZM3.8 10.1V15H6.3C7.4 15 8.3 14.7 8.7 14.3C9.2 13.8 9.4 13.3 9.4 12.5C9.41192 12.1977 9.35512 11.8967 9.23387 11.6196C9.11262 11.3424 8.93008 11.0964 8.7 10.9C8.2 10.5 7.4 10.3 6.2 10.3H3.7L3.8 10.1Z" fill="white" />
</svg>
