<svg width="19" height="18" viewBox="0 0 19 18" fill="none" xmlns="http://www.w3.org/2000/svg">
<path d="M11.875 0C12.085 0 12.2863 0.090306 12.4348 0.251051C12.5833 0.411797 12.6667 0.629814 12.6667 0.857143V8.74286C13.3285 8.09657 14.1503 7.71429 15.0417 7.71429C17.2267 7.71429 19 10.0166 19 12.8571C19 15.6977 17.2267 18 15.0417 18C14.1503 18 13.3285 17.6177 12.6667 16.9714V17.1429C12.6667 17.3702 12.5833 17.5882 12.4348 17.7489C12.2863 17.9097 12.085 18 11.875 18C11.665 18 11.4637 17.9097 11.3152 17.7489C11.1667 17.5882 11.0833 17.3702 11.0833 17.1429V0.857143C11.0833 0.629814 11.1667 0.411797 11.3152 0.251051C11.4637 0.090306 11.665 0 11.875 0ZM15.0417 16.2857C16.0946 16.2857 17.4167 15.0566 17.4167 12.8571C17.4167 10.6577 16.0946 9.42857 15.0417 9.42857C13.9888 9.42857 12.6667 10.6577 12.6667 12.8571C12.6667 15.0566 13.9888 16.2857 15.0417 16.2857ZM7.91192 10.6234L7.91667 10.8583V17.1583C7.9135 17.3629 7.8428 17.5596 7.71735 17.7127C7.59189 17.8659 7.41997 17.9653 7.23267 17.9931L7.125 18C6.93378 17.9999 6.74908 17.9248 6.60501 17.7887C6.46095 17.6525 6.36726 17.4645 6.34125 17.2594L6.33333 17.1429V17.0229C5.28833 17.6709 4.32567 18 3.43108 18C1.48833 18 0 16.5206 0 14.2869C0 12.3154 1.254 10.8514 3.3345 10.5789C4.33901 10.4509 5.35685 10.5317 6.33333 10.8171C6.32225 9.55029 5.7475 8.92457 4.44917 8.85429C3.43267 8.80114 2.71858 8.95543 2.30058 9.27257C2.21544 9.33718 2.11937 9.383 2.01787 9.40742C1.91637 9.43183 1.81142 9.43436 1.70902 9.41486C1.60661 9.39536 1.50876 9.35421 1.42104 9.29376C1.33333 9.23332 1.25747 9.15476 1.19779 9.06257C1.13812 8.97038 1.0958 8.86637 1.07325 8.75648C1.0507 8.64658 1.04836 8.53295 1.06638 8.42208C1.10275 8.19816 1.21979 7.99906 1.39175 7.86857C2.08683 7.34229 3.03208 7.10743 4.22433 7.13143L4.52675 7.14343C6.59617 7.25486 7.82642 8.544 7.91192 10.6234ZM6.01192 12.5417C5.20464 12.2926 4.35996 12.218 3.52608 12.3223C2.22458 12.4937 1.58333 13.2411 1.58333 14.328C1.58333 15.5811 2.33542 16.3286 3.43108 16.3286C4.14833 16.3286 5.03342 15.9686 6.0705 15.2263L6.33333 15.0343V12.6446L6.01192 12.5417Z" fill="white" fill-opacity="0.5"/>
</svg>
