<svg width="22" height="15" viewBox="0 0 22 15" fill="none" xmlns="http://www.w3.org/2000/svg">
<path fill-rule="evenodd" clip-rule="evenodd" d="M5.77644 4.41648e-07C5.93464 -0.000169914 6.08918 0.0489467 6.21968 0.140876C6.35018 0.232805 6.45052 0.36323 6.50747 0.514959L11.5323 13.9039C11.6071 14.103 11.6018 14.3245 11.5177 14.5196C11.4336 14.7147 11.2775 14.8674 11.0838 14.9443C10.8902 15.0211 10.6747 15.0157 10.485 14.9292C10.2952 14.8428 10.1466 14.6823 10.0718 14.4832L8.42662 10.098H3.14661L1.51392 14.4832C1.47713 14.5819 1.42178 14.6722 1.35105 14.7489C1.28031 14.8256 1.19558 14.8872 1.10168 14.9303C1.00777 14.9733 0.906546 14.9969 0.803772 14.9997C0.700998 15.0025 0.59869 14.9845 0.502689 14.9467C0.406689 14.9089 0.318876 14.852 0.244265 14.7792C0.169654 14.7065 0.109705 14.6194 0.0678419 14.5229C0.0259786 14.4264 0.00302053 14.3223 0.000278508 14.2166C-0.00246351 14.111 0.0150642 14.0058 0.0518609 13.9071L5.04541 0.518178C5.10211 0.366148 5.20234 0.235379 5.33287 0.143148C5.46339 0.0509173 5.61806 -4.48878e-05 5.77644 4.41648e-07ZM5.77957 3.0463L7.91318 8.73017H3.65849L5.77957 3.0463ZM17.0612 3.95392C14.494 3.95392 12.5373 6.334 12.5373 9.43019C12.5373 12.6873 14.6506 14.9048 17.0612 14.9048C17.7249 14.9052 18.3813 14.7637 18.989 14.4895C19.5966 14.2152 20.1422 13.8141 20.5912 13.3117V14.1292C20.5912 14.3212 20.6654 14.5054 20.7975 14.6412C20.9296 14.7771 21.1088 14.8533 21.2956 14.8533C21.4824 14.8533 21.6616 14.7771 21.7937 14.6412C21.9258 14.5054 22 14.3212 22 14.1292V4.77946C22 4.5874 21.9258 4.40321 21.7937 4.2674C21.6616 4.1316 21.4824 4.0553 21.2956 4.0553C21.1088 4.0553 20.9296 4.1316 20.7975 4.2674C20.6654 4.40321 20.5912 4.5874 20.5912 4.77946V5.58891C20.1492 5.07511 19.6061 4.66366 18.9978 4.3818C18.3896 4.09995 17.7284 3.9541 17.0612 3.95392ZM20.5912 11.342V7.32529C19.9807 6.16503 18.6924 5.32339 17.3555 5.32339C15.8246 5.32339 14.1434 6.78458 14.1434 9.43019C14.1434 11.9133 15.6681 13.537 17.3555 13.537C18.7378 13.537 19.9932 12.4636 20.5912 11.342Z" fill="white"/>
</svg>
