<svg width="14" height="16" viewBox="0 0 14 16" fill="none" xmlns="http://www.w3.org/2000/svg">
<path fill-rule="evenodd" clip-rule="evenodd" d="M1.27273 8V0H2.54545V8C2.54545 9.14247 3.01477 10.2381 3.85016 11.046C4.68555 11.8538 5.81858 12.3077 7 12.3077C8.18142 12.3077 9.31445 11.8538 10.1498 11.046C10.9852 10.2381 11.4545 9.14247 11.4545 8V0H12.7273V8C12.7273 9.46889 12.1239 10.8776 11.0498 11.9163C9.97572 12.9549 8.51897 13.5385 7 13.5385C5.48103 13.5385 4.02428 12.9549 2.95021 11.9163C1.87613 10.8776 1.27273 9.46889 1.27273 8ZM14 14.7692V16H0V14.7692H14Z" fill="white" />
</svg>
