<svg width="25" height="19" viewBox="0 0 25 19" fill="none" xmlns="http://www.w3.org/2000/svg">
<path d="M6.96664 2.98061e-07C7.21801 -0.000179353 7.4634 0.0808559 7.66972 0.232184C7.87604 0.383511 8.03337 0.597857 8.12051 0.846327L13.8571 17.2547C13.9701 17.5772 13.9569 17.9338 13.8205 18.246C13.684 18.5583 13.4354 18.8006 13.1294 18.9197C12.8233 19.0388 12.485 19.0249 12.1886 18.8811C11.8923 18.7373 11.6624 18.4753 11.5494 18.1528L10.0349 13.8176H3.89838L2.38392 18.1528C2.2709 18.4753 2.04094 18.7373 1.74463 18.8811C1.44832 19.0249 1.10993 19.0388 0.803905 18.9197C0.497878 18.8006 0.249284 18.5583 0.112808 18.246C-0.023667 17.9338 -0.0368435 17.5772 0.0761776 17.2547L5.81277 0.846327C5.89991 0.597857 6.05724 0.383511 6.26356 0.232184C6.46988 0.0808559 6.71526 -0.000179353 6.96664 2.98061e-07ZM6.96664 5.04342L4.80476 11.2268H9.13015L6.96664 5.04342ZM15.5715 2.98061e-07C15.2455 2.98061e-07 14.9328 0.136479 14.7023 0.379414C14.4718 0.622348 14.3423 0.951838 14.3423 1.2954V17.7038C14.3423 18.4188 14.893 18.9992 15.5715 18.9992H19.6691C20.8513 19.0001 22.0003 18.5866 22.9349 17.8238C23.8696 17.0609 24.5369 15.9921 24.8317 14.7856C25.1265 13.5791 25.0321 12.3036 24.5633 11.1599C24.0945 10.0162 23.278 9.06933 22.2424 8.46845C22.8332 7.7096 23.2074 6.78948 23.3213 5.81522C23.4352 4.84097 23.2842 3.85266 22.8858 2.96535C22.4874 2.07805 21.858 1.32826 21.0709 0.803283C20.2837 0.278303 19.3713 -0.000268386 18.4398 2.98061e-07H15.5715ZM20.8984 5.18159C20.8984 5.86872 20.6393 6.52769 20.1783 7.01356C19.7172 7.49943 19.0919 7.77239 18.4398 7.77239H16.8008V2.5908H18.4398C19.0919 2.5908 19.7172 2.86375 20.1783 3.34962C20.6393 3.83549 20.8984 4.49447 20.8984 5.18159ZM19.6691 16.4084H16.8008V10.3632H19.6691C20.0458 10.3632 20.4187 10.4414 20.7667 10.5933C21.1147 10.7452 21.4309 10.9678 21.6973 11.2485C21.9636 11.5292 22.1749 11.8624 22.319 12.2291C22.4632 12.5958 22.5374 12.9888 22.5374 13.3858C22.5374 13.7827 22.4632 14.1758 22.319 14.5425C22.1749 14.9092 21.9636 15.2424 21.6973 15.5231C21.4309 15.8038 21.1147 16.0264 20.7667 16.1783C20.4187 16.3302 20.0458 16.4084 19.6691 16.4084Z" fill="white" fill-opacity="0.5"/>
</svg>
