<svg xmlns="http://www.w3.org/2000/svg" width="39" height="15" viewBox="0 0 39 15">
  <g id="Q_E" data-name="Q &amp; E" transform="translate(-75 -883)">
    <path id="Path_245" data-name="Path 245" d="M1,1V14H14V1H1M1,0H14a1,1,0,0,1,1,1V14a1,1,0,0,1-1,1H1a1,1,0,0,1-1-1V1A1,1,0,0,1,1,0Z" transform="translate(75 883)" fill="#fff"/>
    <path id="Path_244" data-name="Path 244" d="M1,1V14H14V1H1M1,0H14a1,1,0,0,1,1,1V14a1,1,0,0,1-1,1H1a1,1,0,0,1-1-1V1A1,1,0,0,1,1,0Z" transform="translate(99 883)" fill="#fff"/>
    <path id="Path_242" data-name="Path 242" d="M2.744-4.371A2.289,2.289,0,0,1,1.9-4.523a1.99,1.99,0,0,1-.674-.432,2,2,0,0,1-.444-.651,2.057,2.057,0,0,1-.158-.815,2.057,2.057,0,0,1,.158-.815,2,2,0,0,1,.444-.651A2,2,0,0,1,1.9-8.319a2.283,2.283,0,0,1,.847-.153,2.267,2.267,0,0,1,.841.153,2.019,2.019,0,0,1,.671.429,1.96,1.96,0,0,1,.444.651,2.078,2.078,0,0,1,.158.818A2.078,2.078,0,0,1,4.7-5.6a1.96,1.96,0,0,1-.444.651,2.019,2.019,0,0,1-.671.429A2.267,2.267,0,0,1,2.744-4.371ZM4.063-3.6a1.38,1.38,0,0,1-.357-.046A1.455,1.455,0,0,1,3.357-3.8,2.263,2.263,0,0,1,3-4.06q-.184-.161-.4-.392l.467-.115a2.624,2.624,0,0,0,.349.351,1.317,1.317,0,0,0,.334.2.865.865,0,0,0,.325.066.976.976,0,0,0,.766-.369l.207.248A1.212,1.212,0,0,1,4.063-3.6ZM2.744-4.751a1.783,1.783,0,0,0,.671-.124,1.563,1.563,0,0,0,.536-.354A1.669,1.669,0,0,0,4.3-5.762a1.689,1.689,0,0,0,.127-.66A1.7,1.7,0,0,0,4.3-7.087a1.636,1.636,0,0,0-.354-.53,1.584,1.584,0,0,0-.536-.351,1.783,1.783,0,0,0-.671-.124,1.805,1.805,0,0,0-.674.124,1.577,1.577,0,0,0-.539.351,1.675,1.675,0,0,0-.357.53,1.672,1.672,0,0,0-.13.665,1.657,1.657,0,0,0,.13.66,1.709,1.709,0,0,0,.357.533,1.557,1.557,0,0,0,.539.354A1.805,1.805,0,0,0,2.744-4.751Z" transform="translate(79.667 895.49)" fill="#00f6ff"/>
    <path id="Path_243" data-name="Path 243" d="M1.709-6.781H3.624v.326H1.709ZM1.751-5.11H3.929v.331H1.368V-8.4H3.851v.331h-2.1Z" transform="translate(103.852 896.041)" fill="#00f6ff"/>
  </g>
</svg>
