<svg id="Scroll" xmlns="http://www.w3.org/2000/svg" xmlns:xlink="http://www.w3.org/1999/xlink" width="17.538" height="36.281" viewBox="0 0 17.538 36.281">
  <defs>
    <clipPath id="clip-path">
      <rect id="Rectangle_19" data-name="Rectangle 19" width="17.538" height="36.282" fill="none"/>
    </clipPath>
  </defs>
  <g id="Group_6" data-name="Group 6" clip-path="url(#clip-path)">
    <path id="Path_14" data-name="Path 14" d="M69.515,0c.7.757,1.418,1.506,2.1,2.282a.656.656,0,0,1,.106.565.61.61,0,0,1-.475.264q-1.944.032-3.889,0a.61.61,0,0,1-.475-.264.655.655,0,0,1,.107-.564c.683-.776,1.4-1.524,2.1-2.282Z" transform="translate(-60.529)" fill="#16f6fe"/>
    <path id="Path_15" data-name="Path 15" d="M6.284,152.227a2.729,2.729,0,0,0,.879,2.507,2.415,2.415,0,0,0,1.628.587,2.455,2.455,0,0,0,1.961-.968,2.909,2.909,0,0,0,.51-2.129h6.257c.005.114.015.229.015.343,0,2.55.012,5.1,0,7.651a7.49,7.49,0,0,1-5.99,7.456,6.428,6.428,0,0,1-1.369.155,25.371,25.371,0,0,1-3.781-.107,7.374,7.374,0,0,1-6.366-7.327c-.051-2.656-.011-5.313-.011-7.97,0-.058.01-.115.017-.2Z" transform="translate(0 -137.815)" fill="#fff"/>
    <path id="Path_16" data-name="Path 16" d="M7.132,72.991H.943A7.454,7.454,0,0,1,9,66.167v1.187c0,.791.006,1.581-.007,2.371a.373.373,0,0,1-.155.289,2.525,2.525,0,0,0-1.7,2.654c0,.093,0,.185,0,.323" transform="translate(-0.854 -59.881)" fill="#fff"/>
    <path id="Path_17" data-name="Path 17" d="M107.368,73.007h-6.21c0-.232.009-.442,0-.651A2.41,2.41,0,0,0,99.569,70.1a.365.365,0,0,1-.281-.4c.014-1.166.006-2.333.006-3.5a7.463,7.463,0,0,1,8.073,6.808" transform="translate(-89.891 -59.899)" fill="#fff"/>
    <path id="Path_18" data-name="Path 18" d="M81.887,121.5c0,.39.008.779,0,1.169a1.256,1.256,0,1,1-2.509-.018q-.014-1.169,0-2.337a1.256,1.256,0,1,1,2.509-.018c.01.4,0,.8,0,1.2" transform="translate(-71.857 -107.728)" fill="#16f6fe"/>
    <path id="Path_19" data-name="Path 19" d="M68.777,350.2c.637,0,1.275-.02,1.91.012a.659.659,0,0,1,.506.268.7.7,0,0,1-.133.591c-.591.689-1.213,1.351-1.833,2.015a.545.545,0,0,1-.91-.005c-.619-.665-1.228-1.339-1.845-2-.168-.181-.279-.4-.128-.6a.782.782,0,0,1,.522-.264c.635-.032,1.273-.012,1.91-.012" transform="translate(-60.001 -317.049)" fill="#16f6fe"/>
  </g>
</svg>
