<svg id="WASD" xmlns="http://www.w3.org/2000/svg" xmlns:xlink="http://www.w3.org/1999/xlink" width="48.119" height="32.089" viewBox="0 0 48.119 32.089">
  <defs>
    <clipPath id="clip-path">
      <rect id="Rectangle_13" data-name="Rectangle 13" width="48.119" height="32.089" fill="none"/>
    </clipPath>
  </defs>
  <g id="Group_4" data-name="Group 4" clip-path="url(#clip-path)">
    <path id="Path_6" data-name="Path 6" d="M149.72,7.653q0-2.951,0-5.9A1.557,1.557,0,0,1,151.472,0q5.908,0,11.816,0a1.556,1.556,0,0,1,1.751,1.75q0,5.9,0,11.805a1.556,1.556,0,0,1-1.752,1.749q-5.908,0-11.816,0a1.557,1.557,0,0,1-1.75-1.75q0-2.951,0-5.9m14.663.021q0-2.95,0-5.9c0-.807-.316-1.117-1.132-1.118q-5.877,0-11.754,0c-.81,0-1.118.312-1.118,1.131q0,5.872,0,11.744c0,.807.316,1.117,1.132,1.118q5.877,0,11.754,0c.808,0,1.117-.315,1.119-1.131q.005-2.922,0-5.844" transform="translate(-133.301 0)" fill="#fff" stroke="#fff" stroke-width="0.3"/>
    <path id="Path_7" data-name="Path 7" d="M199.945,56.647l-.938-3.7h.5l.439,1.87c.11.461.208.921.274,1.278h.011c.06-.367.175-.806.3-1.283l.493-1.864h.5l.45,1.875c.1.439.2.877.258,1.267h.011c.077-.406.181-.817.3-1.277l.488-1.864h.488l-1.047,3.7h-.5l-.466-1.925a11.15,11.15,0,0,1-.241-1.206h-.011a11.546,11.546,0,0,1-.285,1.206l-.526,1.925Z" transform="translate(-177.185 -47.145)" fill="#16f6fe"/>
    <path id="Path_8" data-name="Path 8" d="M0,160.547q0-2.951,0-5.9A1.557,1.557,0,0,1,1.753,152.9q5.908,0,11.816,0a1.557,1.557,0,0,1,1.751,1.75q0,5.9,0,11.805a1.556,1.556,0,0,1-1.752,1.749q-5.908,0-11.816,0A1.557,1.557,0,0,1,0,166.45q0-2.951,0-5.9m.657-.056q0,2.95,0,5.9c0,.848.3,1.154,1.15,1.155q5.85,0,11.7,0c.849,0,1.155-.3,1.155-1.149q0-5.844,0-11.689c0-.848-.305-1.154-1.151-1.154q-5.85,0-11.7,0c-.852,0-1.154.3-1.155,1.149q0,2.895,0,5.79" transform="translate(0 -136.128)" fill="#fff" stroke="#fff" stroke-width="0.3"/>
    <path id="Path_9" data-name="Path 9" d="M56.641,201.637l-.384,1.162h-.493l1.256-3.7H57.6l1.261,3.7h-.51l-.395-1.162Zm1.212-.373-.362-1.064c-.082-.241-.137-.461-.192-.674h-.011c-.055.219-.115.444-.187.669l-.362,1.069Z" transform="translate(-49.649 -177.271)" fill="#16f6fe"/>
    <path id="Path_10" data-name="Path 10" d="M165.043,160.507q0,2.951,0,5.9a1.578,1.578,0,0,1-1.817,1.795q-5.853,0-11.706,0a1.577,1.577,0,0,1-1.8-1.815q0-5.848,0-11.7c0-1.222.58-1.794,1.816-1.794q5.853,0,11.706,0a1.578,1.578,0,0,1,1.8,1.815q0,2.9,0,5.793m-7.623-6.953q-2.925,0-5.85,0c-.893,0-1.19.291-1.19,1.169q0,5.817,0,11.634c0,.89.294,1.189,1.17,1.189q5.822,0,11.645,0c.891,0,1.19-.294,1.19-1.169q0-5.817,0-11.634c0-.889-.295-1.188-1.171-1.189q-2.9,0-5.795,0" transform="translate(-133.304 -136.131)" fill="#fff" stroke="#fff" stroke-width="0.3"/>
    <path id="Path_11" data-name="Path 11" d="M209.5,201.744a1.69,1.69,0,0,0,.855.241c.488,0,.773-.258.773-.631,0-.345-.2-.543-.7-.735-.6-.214-.976-.526-.976-1.047a1.064,1.064,0,0,1,1.2-1,1.679,1.679,0,0,1,.817.181l-.132.389a1.472,1.472,0,0,0-.7-.176c-.5,0-.7.3-.7.554,0,.346.225.515.735.713.625.241.943.543.943,1.086,0,.57-.422,1.064-1.294,1.064a1.909,1.909,0,0,1-.943-.236Z" transform="translate(-186.422 -176.795)" fill="#16f6fe"/>
    <path id="Path_12" data-name="Path 12" d="M314.422,166.991a2,2,0,0,1-2.04,1.109c-3.808-.037-7.617-.015-11.425-.016-1.3,0-1.855-.559-1.855-1.864q0-5.789,0-11.579c0-1.3.557-1.863,1.855-1.863,3.808,0,7.617.021,11.425-.015a2,2,0,0,1,2.04,1.109Zm-14.663-6.559q0,2.922,0,5.844c0,.846.306,1.151,1.154,1.151q5.85,0,11.7,0c.847,0,1.151-.306,1.152-1.153q0-5.844,0-11.689c0-.845-.306-1.15-1.154-1.151q-5.85,0-11.7,0c-.849,0-1.15.3-1.151,1.153q0,2.922,0,5.844" transform="translate(-266.303 -136.011)" fill="#fff" stroke="#fff" stroke-width="0.3"/>
    <path id="Path_13" data-name="Path 13" d="M355.132,198.915a6.833,6.833,0,0,1,1.014-.077,2.116,2.116,0,0,1,1.5.461,1.7,1.7,0,0,1,.521,1.327,1.954,1.954,0,0,1-.532,1.437,2.277,2.277,0,0,1-1.634.532,7.7,7.7,0,0,1-.866-.044Zm.477,3.268a3.013,3.013,0,0,0,.482.027,1.421,1.421,0,0,0,1.574-1.568,1.318,1.318,0,0,0-1.5-1.426,2.711,2.711,0,0,0-.559.049Z" transform="translate(-316.189 -177.034)" fill="#16f6fe"/>
  </g>
</svg>
