<svg width="4" height="17" viewBox="0 0 4 17" fill="none" xmlns="http://www.w3.org/2000/svg">
<path d="M2.3999 3C3.22833 3 3.8999 2.32843 3.8999 1.5C3.8999 0.671573 3.22833 0 2.3999 0C1.57148 0 0.899902 0.671573 0.899902 1.5C0.899902 2.32843 1.57148 3 2.3999 3Z" fill="white"/>
<path d="M2.3999 10C3.22833 10 3.8999 9.32843 3.8999 8.5C3.8999 7.67157 3.22833 7 2.3999 7C1.57148 7 0.899902 7.67157 0.899902 8.5C0.899902 9.32843 1.57148 10 2.3999 10Z" fill="white"/>
<path d="M2.3999 17C3.22833 17 3.8999 16.3284 3.8999 15.5C3.8999 14.6716 3.22833 14 2.3999 14C1.57148 14 0.899902 14.6716 0.899902 15.5C0.899902 16.3284 1.57148 17 2.3999 17Z" fill="white"/>
</svg>
