<svg width="32" height="32" viewBox="0 0 32 32" fill="none" xmlns="http://www.w3.org/2000/svg">
<g clip-path="url(#clip0_1368_1910)">
<path d="M15.9706 31.9985C12.822 31.9985 9.67348 31.9927 6.52493 32.0014C5.22519 32.0043 4.03677 31.6488 2.94313 30.9984C1.7833 30.3076 0.990516 29.3003 0.471524 28.1037C0.158625 27.381 0.0051836 26.6079 0.00367928 25.8159C0.00217495 22.2447 -0.00985965 18.6736 0.00668793 15.1039C0.0172182 12.7858 1.11387 11.0327 3.11011 9.77974C4.06836 9.17853 5.13644 8.89672 6.26468 8.88226C8.40684 8.85625 10.5505 8.8707 12.6927 8.8707C16.9288 8.8707 21.1635 8.87504 25.3997 8.86781C26.9943 8.86492 28.4234 9.29993 29.6554 10.2899C30.9822 11.3579 31.7344 12.7294 31.951 14.3755C31.9841 14.6256 31.9931 14.8799 31.9931 15.1328C31.9962 18.649 31.9992 22.1667 31.9931 25.6829C31.9901 26.9489 31.6818 28.1398 30.9416 29.202C29.9533 30.6212 28.5934 31.5288 26.8453 31.854C26.364 31.9436 25.8675 31.9913 25.3786 31.9927C22.2421 32.0043 19.1071 31.9985 15.9706 31.9985ZM20.0413 20.8848C19.9856 20.8732 19.957 20.8674 19.927 20.8602C19.2154 20.694 18.5084 20.7258 17.8284 20.9686C16.5603 21.4224 15.4441 22.8647 15.6923 24.4776C15.9224 25.972 17.3651 27.5285 19.4772 27.2582C21.2207 27.0342 22.4362 25.7162 22.4437 23.9429C22.4557 21.2822 22.4497 18.6216 22.4437 15.9595C22.4437 15.6184 22.4271 15.2701 22.364 14.9363C22.2 14.0706 21.7427 13.3971 20.8837 13.0243C20.1661 12.7121 19.423 12.7265 18.6844 12.9144C17.2447 13.2815 15.8111 13.6732 14.373 14.0475C12.9108 14.4276 11.948 15.5664 12.0007 17.1402C12.0548 18.7878 12.0127 20.4397 12.0127 22.0887C12.0127 22.1522 12.0022 22.2144 11.9962 22.2895C11.945 22.2794 11.9149 22.2751 11.8863 22.2679C11.4035 22.1291 10.91 22.1132 10.4211 22.2014C9.19209 22.4225 8.3602 23.1408 7.86829 24.2189C7.27859 25.5066 7.77502 27.3044 9.17856 28.1672C9.92019 28.6225 10.716 28.7916 11.5734 28.6586C12.971 28.4418 14.0435 27.4548 14.3354 26.1194C14.4061 25.7985 14.4151 25.4618 14.4166 25.1323C14.4241 23.5787 14.4226 22.0251 14.4151 20.4729C14.4151 20.3125 14.4708 20.2547 14.6242 20.2214C14.9461 20.1521 15.2651 20.0682 15.584 19.9844C16.9018 19.6405 18.218 19.2936 19.5343 18.9482C19.6998 18.9048 19.8653 18.8644 20.0413 18.8196V20.8848Z" fill="white"/>
<path d="M15.9727 6.17256C12.8242 6.17256 9.6756 6.17256 6.52705 6.17256C6.11938 6.17256 5.76285 6.06417 5.49208 5.75778C4.89486 5.07709 5.27094 4.06833 6.18407 3.89924C6.32999 3.87178 6.48192 3.86021 6.63085 3.86021C12.9159 3.85877 19.1995 3.85877 25.4846 3.86021C26.2683 3.86021 26.8129 4.36171 26.7978 5.06408C26.7843 5.66096 26.2608 6.13354 25.5673 6.17112C25.4981 6.17545 25.4304 6.17256 25.3612 6.17256C22.2322 6.17256 19.1017 6.17256 15.9727 6.17256Z" fill="white"/>
<path d="M16.0166 2.31813C14.4671 2.31813 12.9192 2.31813 11.3697 2.31813C10.7259 2.31813 10.258 1.99874 10.0655 1.4799C9.81727 0.806431 10.3874 0.122843 10.9741 0.0303496C11.0975 0.0115617 11.2223 0.00144522 11.3472 0.00144522C14.4506 0 17.5555 0 20.6589 0C21.3494 0 21.8368 0.349743 21.9692 0.93361C22.1136 1.57095 21.5991 2.24876 20.9237 2.30657C20.7748 2.31957 20.6243 2.31524 20.4739 2.31668C18.9876 2.31668 17.5014 2.31668 16.0151 2.31668L16.0166 2.31813Z" fill="white"/>
<path d="M20.0507 24.031C20.0462 24.5484 19.5859 24.982 19.0503 24.9748C18.5103 24.9675 18.059 24.5253 18.0665 24.0122C18.074 23.4949 18.5163 23.0786 19.0548 23.0801C19.5919 23.0815 20.0552 23.5223 20.0507 24.0296V24.031Z" fill="white"/>
<path d="M12.0016 25.4358C11.9971 25.9547 11.5322 26.4085 11.0147 26.4012C10.4912 26.3926 10.0399 25.9445 10.049 25.4402C10.058 24.8924 10.4897 24.4878 11.0569 24.4921C11.5879 24.4964 12.0046 24.9141 12.0001 25.4358H12.0016Z" fill="white"/>
</g>
<defs>
<clipPath id="clip0_1368_1910">
<rect width="32" height="32" fill="white"/>
</clipPath>
</defs>
</svg>
