<svg width="16" height="18" viewBox="0 0 16 18" fill="none" xmlns="http://www.w3.org/2000/svg">
<path d="M15.1111 2.7C15.3469 2.7 15.573 2.79482 15.7397 2.9636C15.9064 3.13239 16 3.3613 16 3.6C16 3.83869 15.9064 4.06761 15.7397 4.2364C15.573 4.40518 15.3469 4.5 15.1111 4.5H14.2222L14.2196 4.5639L13.3902 16.3278C13.3583 16.7819 13.1576 17.2069 12.8285 17.5172C12.4995 17.8275 12.0665 18 11.6169 18H4.38222C3.93257 18 3.49961 17.8275 3.17056 17.5172C2.84151 17.2069 2.64081 16.7819 2.60889 16.3278L1.77956 4.5648C1.77821 4.54323 1.77761 4.52161 1.77778 4.5H0.888889C0.653141 4.5 0.427048 4.40518 0.260349 4.2364C0.0936505 4.06761 0 3.83869 0 3.6C0 3.3613 0.0936505 3.13239 0.260349 2.9636C0.427048 2.79482 0.653141 2.7 0.888889 2.7H15.1111ZM12.4418 4.5H3.55822L4.38311 16.2H11.6169L12.4418 4.5ZM9.77778 0C10.0135 0 10.2396 0.0948211 10.4063 0.263604C10.573 0.432387 10.6667 0.661305 10.6667 0.9C10.6667 1.13869 10.573 1.36761 10.4063 1.5364C10.2396 1.70518 10.0135 1.8 9.77778 1.8H6.22222C5.98647 1.8 5.76038 1.70518 5.59368 1.5364C5.42698 1.36761 5.33333 1.13869 5.33333 0.9C5.33333 0.661305 5.42698 0.432387 5.59368 0.263604C5.76038 0.0948211 5.98647 0 6.22222 0H9.77778Z" fill="white"/>
</svg>
