<svg width="16" height="16" viewBox="0 0 16 16" fill="none" xmlns="http://www.w3.org/2000/svg">
<path d="M3.47057 4.29419H2.64705C2.21022 4.29419 1.79129 4.46772 1.48241 4.7766C1.17353 5.08548 1 5.50441 1 5.94124V13.353C1 13.7898 1.17353 14.2087 1.48241 14.5176C1.79129 14.8265 2.21022 15 2.64705 15H10.0588C10.4956 15 10.9145 14.8265 11.2234 14.5176C11.5323 14.2087 11.7058 13.7898 11.7058 13.353V12.5294" stroke="#1D1D1D" stroke-width="1.3" stroke-linecap="round" stroke-linejoin="round"/>
<path d="M10.8823 2.64714L13.3529 5.11771M14.4935 3.95242C14.8178 3.62808 15.0001 3.18818 15.0001 2.72949C15.0001 2.2708 14.8178 1.8309 14.4935 1.50656C14.1692 1.18221 13.7293 1 13.2706 1C12.8119 1 12.372 1.18221 12.0476 1.50656L5.11768 8.41181V10.8824H7.58825L14.4935 3.95242Z" stroke="#1D1D1D" stroke-width="1.3" stroke-linecap="round" stroke-linejoin="round"/>
</svg>
