<svg width="70" height="71" viewBox="0 0 70 71" fill="none" xmlns="http://www.w3.org/2000/svg">
<path fill-rule="evenodd" clip-rule="evenodd" d="M47.6415 8.52087H22.3569C13.5457 8.52087 8.02148 14.7596 8.02148 23.5884V47.4117C8.02148 56.2405 13.5165 62.4792 22.3569 62.4792H47.6386C56.479 62.4792 61.9798 56.2405 61.9798 47.4117V23.5884C61.9798 14.7596 56.479 8.52087 47.6415 8.52087Z" fill="#95A4FC" fill-opacity="0.5"/>
<path fill-rule="evenodd" clip-rule="evenodd" d="M35.0746 40.5942C28.803 40.5942 23 43.5755 23 47.3307C23 51.086 28.7682 50.461 35.0738 50.461C41.3454 50.461 46.7005 51.0844 46.7005 47.3307C46.7005 43.5771 41.3802 40.5942 35.0746 40.5942Z" fill="#95A4FC"/>
<path fill-rule="evenodd" clip-rule="evenodd" d="M35.0747 35.2383C39.1904 35.2383 42.5262 31.9382 42.5262 27.8684C42.5262 23.7986 39.1904 20.5 35.0747 20.5C30.959 20.5 27.6216 23.7986 27.6216 27.8684C27.6077 31.9245 30.9219 35.2246 35.0222 35.2383H35.0747Z" fill="#95A4FC"/>
</svg>
