<svg width="14" height="13" viewBox="0 0 14 13" fill="none" xmlns="http://www.w3.org/2000/svg">
<path d="M7.54353 0.327225L9.25989 3.68242C9.29892 3.76758 9.36033 3.84135 9.43799 3.89637C9.51564 3.95139 9.60683 3.98574 9.70247 3.99599L13.4914 4.53952C13.6011 4.55317 13.7045 4.59676 13.7896 4.66521C13.8747 4.73366 13.9379 4.82413 13.9719 4.92606C14.0058 5.02799 14.0091 5.13717 13.9814 5.24085C13.9537 5.34453 13.896 5.43843 13.8152 5.51158L11.0842 8.13512C11.0145 8.19817 10.9622 8.2771 10.932 8.36473C10.9018 8.45235 10.8948 8.54589 10.9115 8.63683L11.5699 12.3265C11.589 12.4325 11.577 12.5416 11.5352 12.6413C11.4934 12.741 11.4235 12.8274 11.3335 12.8905C11.2435 12.9537 11.1371 12.9912 11.0262 12.9986C10.9153 13.0061 10.8045 12.9832 10.7064 12.9327L7.29526 11.1872C7.20791 11.1457 7.1119 11.1241 7.0146 11.1241C6.91729 11.1241 6.82128 11.1457 6.73393 11.1872L3.32282 12.9327C3.22468 12.9832 3.11387 13.0061 3.003 12.9986C2.89213 12.9912 2.78564 12.9537 2.69566 12.8905C2.60568 12.8274 2.53582 12.741 2.49403 12.6413C2.45223 12.5416 2.44018 12.4325 2.45924 12.3265L3.11772 8.59502C3.13441 8.50408 3.12735 8.41054 3.09718 8.32292C3.06702 8.2353 3.01471 8.15637 2.945 8.09331L0.181569 5.51158C0.0998125 5.43643 0.0423172 5.33993 0.0160475 5.23377C-0.0102222 5.12762 -0.00413919 5.01637 0.0335597 4.9135C0.0712586 4.81063 0.138956 4.72054 0.228451 4.65417C0.317946 4.58779 0.425398 4.54796 0.537793 4.53952L4.32672 3.99599C4.42236 3.98574 4.51355 3.95139 4.59121 3.89637C4.66886 3.84135 4.73027 3.76758 4.7693 3.68242L6.48566 0.327225C6.5324 0.229505 6.60703 0.146771 6.70076 0.08879C6.79448 0.0308088 6.90338 0 7.0146 0C7.12581 0 7.23471 0.0308088 7.32844 0.08879C7.42216 0.146771 7.49679 0.229505 7.54353 0.327225Z" fill="#FFD233"/>
</svg>
