<svg width="71" height="71" viewBox="0 0 71 71" fill="none" xmlns="http://www.w3.org/2000/svg">
<path fill-rule="evenodd" clip-rule="evenodd" d="M48.1415 8.52087H22.8569C14.0457 8.52087 8.52148 14.7596 8.52148 23.5884V47.4117C8.52148 56.2405 14.0165 62.4792 22.8569 62.4792H48.1386C56.979 62.4792 62.4798 56.2405 62.4798 47.4117V23.5884C62.4798 14.7596 56.979 8.52087 48.1415 8.52087Z" fill="#B1E3FF" fill-opacity="0.5"/>
<path fill-rule="evenodd" clip-rule="evenodd" d="M30.5746 40.5942C24.303 40.5942 18.5 43.5755 18.5 47.3308C18.5 51.086 24.2682 50.461 30.5738 50.461C36.8455 50.461 42.2005 51.0844 42.2005 47.3308C42.2005 43.5771 36.8802 40.5942 30.5746 40.5942Z" fill="#B1E3FF"/>
<path d="M52.4854 47.4387C52.4854 50.4889 47.9542 49.9823 42.6475 49.9823C42.6475 49.9823 43.645 47.908 43.7406 46.4923C43.8626 44.6845 42.6481 41.9646 42.6481 41.9646C47.9836 41.9646 52.4854 44.3884 52.4854 47.4387Z" fill="#B1E3FF"/>
<path fill-rule="evenodd" clip-rule="evenodd" d="M30.5747 35.2383C34.6904 35.2383 38.0262 31.9382 38.0262 27.8684C38.0262 23.7986 34.6904 20.5 30.5747 20.5C26.459 20.5 23.1216 23.7986 23.1216 27.8684C23.1077 31.9245 26.4219 35.2246 30.5222 35.2383H30.5747Z" fill="#B1E3FF"/>
<path fill-rule="evenodd" clip-rule="evenodd" d="M44.8843 36.5985C48.0948 36.5985 50.697 33.9951 50.697 30.7845C50.697 27.574 48.0948 24.9718 44.8843 24.9718C41.6737 24.9718 39.0703 27.574 39.0703 30.7845C39.0595 33.9842 41.6448 36.5876 44.8433 36.5985H44.8843Z" fill="#B1E3FF"/>
</svg>
