<svg width="71" height="71" viewBox="0 0 71 71" fill="none" xmlns="http://www.w3.org/2000/svg">
<path fill-rule="evenodd" clip-rule="evenodd" d="M48.1415 8.52087H22.8569C14.0457 8.52087 8.52148 14.7596 8.52148 23.5884V47.4117C8.52148 56.2405 14.0165 62.4792 22.8569 62.4792H48.1386C56.979 62.4792 62.4798 56.2405 62.4798 47.4117V23.5884C62.4798 14.7596 56.979 8.52087 48.1415 8.52087Z" fill="#C6C7F8" fill-opacity="0.5"/>
<path fill-rule="evenodd" clip-rule="evenodd" d="M35.5746 40.5942C29.303 40.5942 23.5 43.5755 23.5 47.3307C23.5 51.086 29.2682 50.461 35.5738 50.461C41.8454 50.461 47.2005 51.0844 47.2005 47.3307C47.2005 43.5771 41.8802 40.5942 35.5746 40.5942Z" fill="#C6C7F8"/>
<path fill-rule="evenodd" clip-rule="evenodd" d="M35.5747 35.2383C39.6904 35.2383 43.0262 31.9382 43.0262 27.8684C43.0262 23.7986 39.6904 20.5 35.5747 20.5C31.459 20.5 28.1216 23.7986 28.1216 27.8684C28.1077 31.9245 31.4219 35.2246 35.5222 35.2383H35.5747Z" fill="#C6C7F8"/>
</svg>
