<svg width="43" height="32" viewBox="0 0 43 32" fill="none" xmlns="http://www.w3.org/2000/svg">
<g clip-path="url(#clip0_7147_10545)">
<path d="M31.3629 31.9983C25.1818 31.9745 20.2065 27.1722 19.8292 20.8658C19.4754 14.9325 23.9476 9.53672 29.8822 8.73634C34.9967 8.04788 40.071 11.0069 42.0481 15.8346C42.1336 16.0415 42.2191 16.2552 42.2593 16.4756C42.3382 16.9182 42.1721 17.2573 41.7529 17.432C41.3203 17.6135 40.9849 17.4371 40.7485 17.0691C40.6277 16.8826 40.5623 16.6605 40.4734 16.4536C38.6507 12.1634 34.1096 9.65033 29.7128 10.4999C24.984 11.4139 21.6503 15.3039 21.5061 20.0773C21.3652 24.7389 24.6452 29.0274 29.1393 30.055C33.7491 31.1097 38.4427 28.7645 40.3795 24.4387C40.4835 24.2081 40.559 23.9639 40.6713 23.7367C40.8994 23.2772 41.2498 23.0381 41.7613 23.2534C42.2677 23.4654 42.3566 23.8859 42.2208 24.3777C42.1755 24.5405 42.1051 24.6948 42.0397 24.8508C40.2504 29.1749 36.0062 32.0169 31.3646 32L31.3629 31.9983Z" fill="white"/>
<path d="M36.1674 4.48015H35.2502C25.3598 4.48015 15.4695 4.48015 5.57919 4.48015C5.29915 4.48015 5.01911 4.49372 4.74242 4.46659C4.29301 4.42419 4.02471 4.16475 3.99285 3.70351C3.95763 3.19988 4.22426 2.89635 4.69547 2.80647C4.96545 2.7556 5.2522 2.77934 5.53056 2.77934C15.4209 2.77934 25.3112 2.77934 35.2015 2.77934C35.5017 2.77934 35.8019 2.77934 36.3133 2.77934C35.8153 2.27232 35.4514 1.90604 35.0892 1.53638C34.7035 1.14297 34.5895 0.717341 34.9835 0.266279C35.3022 -0.0983017 35.822 -0.0915188 36.2446 0.317151C37.135 1.17349 38.0137 2.0434 38.8739 2.93026C39.3753 3.44746 39.3854 3.80865 38.9041 4.32754C38.0808 5.2127 37.2272 6.06735 36.3821 6.93047C35.9981 7.32218 35.5688 7.43241 35.121 7.04917C34.732 6.71681 34.7588 6.18944 35.22 5.72142C35.5688 5.36702 35.9746 5.06857 36.3536 4.74638C36.2915 4.6582 36.2312 4.57003 36.1691 4.48185L36.1674 4.48015Z" fill="white"/>
<path d="M20.9375 30.3043C21.3634 30.2822 21.6703 30.2568 21.9772 30.2534C22.6412 30.2466 23.0152 30.5434 23.0051 31.0843C22.995 31.6863 22.6244 31.9067 22.0795 31.9508C18.8615 32.2187 15.9538 31.3827 13.534 29.2207C9.86663 25.9429 8.56033 21.7968 9.93874 17.0522C11.3171 12.3092 14.6441 9.57403 19.4635 8.75669C20.2801 8.61764 21.1354 8.68378 21.9721 8.70752C22.7083 8.72787 23.0504 9.06871 23.0068 9.63338C22.9665 10.1591 22.6144 10.4338 21.9168 10.3914C20.4797 10.3066 19.0761 10.4253 17.7078 10.9154C13.5491 12.4008 10.7286 16.7198 11.1377 20.993C11.6005 25.8208 14.9946 29.5446 19.5507 30.2042C20.0471 30.2754 20.5535 30.2771 20.9375 30.3026V30.3043Z" fill="white"/>
<path d="M0 21.1271C0 13.9728 5.06087 8.76016 11.3291 8.6669C11.4968 8.6652 11.6645 8.6669 11.8322 8.67198C12.3637 8.68724 12.6974 8.97382 12.7042 9.4978C12.7125 10.0303 12.357 10.3067 11.8473 10.3575C11.1262 10.4271 10.3917 10.4169 9.68407 10.5525C4.92672 11.4631 1.58802 15.6821 1.68696 20.6217C1.78086 25.3698 5.37948 29.4836 10.0815 30.2026C10.5225 30.2704 10.9719 30.2738 11.4197 30.2925C12.3067 30.3298 12.7159 30.596 12.7192 31.1522C12.7226 31.7423 12.2782 32.0357 11.3408 31.9916C6.50971 31.7677 3.06536 29.4107 0.987691 25.0188C0.288426 23.5469 0.00503068 21.9648 0 21.1271Z" fill="white"/>
<path d="M42.9269 20.2843C42.9152 20.8167 42.5027 21.2101 42.0382 21.1542C41.5569 21.0965 41.2819 20.7998 41.2651 20.3097C41.2484 19.8434 41.6776 19.4635 42.1522 19.5076C42.6435 19.5551 42.8884 19.857 42.9269 20.2826V20.2843Z" fill="white"/>
</g>
<defs>
<clipPath id="clip0_7147_10545">
<rect width="42.9268" height="32" fill="white"/>
</clipPath>
</defs>
</svg>
