<svg width="12" height="12" viewBox="0 0 12 12" fill="none" xmlns="http://www.w3.org/2000/svg">
<path d="M6 10L8.66667 7.33334L7.73333 6.4L6.66667 7.46667V4.66667H5.33333V7.46667L4.26667 6.4L3.33333 7.33334L6 10ZM1.33333 12C0.966667 12 0.652889 11.8696 0.392 11.6087C0.131111 11.3478 0.000444444 11.0338 0 10.6667V2.35C0 2.19445 0.0251111 2.04445 0.0753333 1.9C0.125556 1.75556 0.200444 1.62223 0.3 1.5L1.13333 0.483337C1.25556 0.327781 1.40822 0.208226 1.59133 0.12467C1.77444 0.0411147 1.96622 -0.000440917 2.16667 3.52734e-06H9.83333C10.0333 3.52734e-06 10.2251 0.0417813 10.4087 0.125337C10.5922 0.208892 10.7449 0.328226 10.8667 0.483337L11.7 1.5C11.8 1.62223 11.8751 1.75556 11.9253 1.9C11.9756 2.04445 12.0004 2.19445 12 2.35V10.6667C12 11.0333 11.8696 11.3473 11.6087 11.6087C11.3478 11.87 11.0338 12.0004 10.6667 12H1.33333ZM1.6 2H10.4L9.83333 1.33334H2.16667L1.6 2Z" fill="white"/>
</svg>
