<svg width="20" height="25" viewBox="0 0 20 25" fill="none" xmlns="http://www.w3.org/2000/svg">
<path d="M13.8571 4.42551V3.12963C13.8571 2.84996 13.8017 2.57303 13.694 2.31466C13.5863 2.05628 13.4285 1.82151 13.2295 1.62375C13.0305 1.426 12.7943 1.26913 12.5343 1.16211C12.2743 1.05508 11.9957 1 11.7143 1H8.28571C7.71739 1 7.17235 1.22437 6.77049 1.62375C6.36862 2.02314 6.14286 2.56482 6.14286 3.12963V4.42551C4.74432 4.53399 3.43829 5.16228 2.48512 6.18515C1.53195 7.20802 1.00168 8.55031 1 9.94444V22.7222C1 23.0611 1.13546 23.3861 1.37658 23.6257C1.6177 23.8654 1.94472 24 2.28571 24H17.7143C18.0553 24 18.3823 23.8654 18.6234 23.6257C18.8645 23.3861 19 23.0611 19 22.7222V9.94444C18.9983 8.55031 18.468 7.20802 17.5149 6.18515C16.5617 5.16228 15.2557 4.53399 13.8571 4.42551ZM8.28571 1.85185H11.7143C12.0553 1.85185 12.3823 1.98647 12.6234 2.2261C12.8645 2.46573 13 2.79074 13 3.12963V4.40741H7V3.12963C7 2.79074 7.13546 2.46573 7.37658 2.2261C7.6177 1.98647 7.94472 1.85185 8.28571 1.85185ZM14.7143 17.1852H5.28571V15.9074C5.28571 15.5685 5.42117 15.2435 5.66229 15.0039C5.90341 14.7643 6.23044 14.6296 6.57143 14.6296H13.4286C13.7696 14.6296 14.0966 14.7643 14.3377 15.0039C14.5788 15.2435 14.7143 15.5685 14.7143 15.9074V17.1852ZM5.28571 18.037H11.2857V19.3148C11.2857 19.4278 11.3309 19.5361 11.4112 19.616C11.4916 19.6959 11.6006 19.7407 11.7143 19.7407C11.828 19.7407 11.937 19.6959 12.0173 19.616C12.0977 19.5361 12.1429 19.4278 12.1429 19.3148V18.037H14.7143V23.1481H5.28571V18.037ZM18.1429 22.7222C18.1429 22.8352 18.0977 22.9435 18.0173 23.0234C17.937 23.1033 17.8279 23.1481 17.7143 23.1481H15.5714V15.9074C15.5714 15.3426 15.3457 14.8009 14.9438 14.4015C14.5419 14.0021 13.9969 13.7778 13.4286 13.7778H6.57143C6.00311 13.7778 5.45806 14.0021 5.0562 14.4015C4.65434 14.8009 4.42857 15.3426 4.42857 15.9074V23.1481H2.28571C2.17205 23.1481 2.06304 23.1033 1.98267 23.0234C1.9023 22.9435 1.85714 22.8352 1.85714 22.7222V9.94444C1.85856 8.70229 2.3557 7.51141 3.23949 6.63307C4.12328 5.75474 5.32156 5.26067 6.57143 5.25926H13.4286C14.6784 5.26067 15.8767 5.75474 16.7605 6.63307C17.6443 7.51141 18.1414 8.70229 18.1429 9.94444V22.7222ZM12.1429 9.09259C12.1429 9.20556 12.0977 9.31389 12.0173 9.39377C11.937 9.47365 11.828 9.51852 11.7143 9.51852H8.28571C8.17205 9.51852 8.06304 9.47365 7.98267 9.39377C7.9023 9.31389 7.85714 9.20556 7.85714 9.09259C7.85714 8.97963 7.9023 8.87129 7.98267 8.79142C8.06304 8.71154 8.17205 8.66667 8.28571 8.66667H11.7143C11.828 8.66667 11.937 8.71154 12.0173 8.79142C12.0977 8.87129 12.1429 8.97963 12.1429 9.09259Z" fill="white" stroke="white" stroke-width="0.5"/>
</svg>
