<svg width="10" height="7" viewBox="0 0 10 7" fill="none" xmlns="http://www.w3.org/2000/svg">
<path d="M0.688267 6.5L9.31173 6.5C9.43243 6.50016 9.55105 6.47892 9.65566 6.43843C9.76028 6.39794 9.84718 6.33962 9.90763 6.26935C9.96808 6.19908 9.99994 6.11933 10 6.03814C10.0001 5.95694 9.96832 5.87718 9.90797 5.80686L0.688267 6.5ZM0.688267 6.5C0.567574 6.50016 0.448949 6.47892 0.344336 6.43843C0.239724 6.39794 0.152817 6.33962 0.0923677 6.26935C0.031918 6.19908 5.94933e-05 6.11933 0 6.03814C-5.93268e-05 5.95694 0.0316825 5.87718 0.0920293 5.80686L0.688267 6.5ZM5.21611 1.05744L9.40833 5.99103C9.37911 5.99671 9.34674 6.00004 9.3124 6H9.31173L0.688267 6L0.687601 6C0.653256 6.00005 0.620888 5.99671 0.591668 5.99103L4.78389 1.05744C4.78467 1.05672 4.78748 1.05419 4.79307 1.05041C4.80205 1.04433 4.81646 1.03622 4.83711 1.02817L4.65736 0.567485L4.83711 1.02817C4.87956 1.0116 4.93632 1 5 1C5.06368 1 5.12044 1.0116 5.16289 1.02817C5.18354 1.03622 5.19795 1.04433 5.20693 1.05041C5.21252 1.05419 5.21533 1.05672 5.21611 1.05744Z" stroke="white"/>
</svg>
