<svg width="16" height="15" viewBox="0 0 16 15" fill="none" xmlns="http://www.w3.org/2000/svg">
<path d="M8 0.833333L6.25833 2.575L8 4.31667M1.55833 0L0.5 1.05833L4.44167 5H0.5V10H3.83333L8 14.1667V8.55833L11.5417 12.1083C10.9833 12.5333 10.3583 12.8833 9.66667 13.0833V14.8083C10.8167 14.5417 11.8583 14.0167 12.7333 13.3L14.4417 15L15.5 13.9417L8 6.44167M13.8333 7.5C13.8333 8.28333 13.6667 9.01667 13.3833 9.7L14.6417 10.9583C15.2041 9.89224 15.4986 8.70533 15.5 7.5C15.5 3.93333 13 0.95 9.66667 0.191667V1.90833C12.075 2.625 13.8333 4.85833 13.8333 7.5ZM11.75 7.5C11.75 6.025 10.9167 4.75833 9.66667 4.14167V5.98333L11.7083 8.025C11.75 7.85833 11.75 7.675 11.75 7.5Z" fill="white"/>
</svg>
