<svg width="32" height="32" viewBox="0 0 32 32" fill="none" xmlns="http://www.w3.org/2000/svg">
<path d="M30.2344 0H1.76561C0.790491 0 0 0.790491 0 1.76561V30.2344C0 31.2095 0.790491 32 1.76561 32H30.2344C31.2095 32 32 31.2095 32 30.2344V1.76561C32 0.790491 31.2095 0 30.2344 0Z" fill="#3D5A98"/>
<path d="M22.0771 31.9973V19.6056H26.2356L26.8575 14.7765H22.0771V11.6941C22.0771 10.2962 22.4664 9.34178 24.47 9.34178H27.0278V5.01563C25.7892 4.88655 24.5445 4.82517 23.2992 4.83177C19.6166 4.83177 17.0804 7.07596 17.0804 11.2155V14.7765H12.9219V19.6056H17.0804V31.9973H22.0771Z" fill="white"/>
</svg>
