<svg width="26" height="24" viewBox="0 0 26 24" fill="none" xmlns="http://www.w3.org/2000/svg">
<path d="M0.72998 3.39502H24.915" stroke="white" stroke-linecap="round"/>
<path d="M0.72998 11.8491H24.915" stroke="white" stroke-linecap="round"/>
<path d="M0.72998 20.3008H24.915" stroke="white" stroke-linecap="round"/>
<path d="M9.91691 6.076C11.3186 6.076 12.4549 4.9397 12.4549 3.538C12.4549 2.1363 11.3186 1 9.91691 1C8.51521 1 7.37891 2.1363 7.37891 3.538C7.37891 4.9397 8.51521 6.076 9.91691 6.076Z" fill="#323545" stroke="white"/>
<path d="M18.3791 14.5369C19.7808 14.5369 20.9171 13.4006 20.9171 11.9989C20.9171 10.5972 19.7808 9.46094 18.3791 9.46094C16.9774 9.46094 15.8411 10.5972 15.8411 11.9989C15.8411 13.4006 16.9774 14.5369 18.3791 14.5369Z" fill="#323545" stroke="white"/>
<path d="M5.68693 22.9989C7.08862 22.9989 8.22493 21.8626 8.22493 20.4609C8.22493 19.0592 7.08862 17.9229 5.68693 17.9229C4.28523 17.9229 3.14893 19.0592 3.14893 20.4609C3.14893 21.8626 4.28523 22.9989 5.68693 22.9989Z" fill="#323545" stroke="white"/>
</svg>
