<svg width="30" height="30" viewBox="0 0 30 30" fill="none" xmlns="http://www.w3.org/2000/svg">
<path d="M29.7082 12.0622H28.5V12H15V18H23.4772C22.2405 21.4927 18.9172 24 15 24C10.0297 24 5.99999 19.9702 5.99999 15C5.99999 10.0297 10.0297 5.99999 15 5.99999C17.2942 5.99999 19.3815 6.86549 20.9707 8.27924L25.2135 4.0365C22.5345 1.53975 18.951 0 15 0C6.71624 0 0 6.71624 0 15C0 23.2837 6.71624 30 15 30C23.2837 30 30 23.2837 30 15C30 13.9942 29.8965 13.0125 29.7082 12.0622Z" fill="#FFC107"/>
<path d="M1.72949 8.01826L6.65774 11.6325C7.99124 8.33101 11.2207 6.00001 15 6.00001C17.2942 6.00001 19.3815 6.86551 20.9707 8.27926L25.2135 4.03651C22.5345 1.53976 18.951 1.52588e-05 15 1.52588e-05C9.23849 1.52588e-05 4.24199 3.25276 1.72949 8.01826Z" fill="#FF3D00"/>
<path d="M15.0002 30C18.8747 30 22.3952 28.5173 25.057 26.106L20.4145 22.1775C18.8579 23.3613 16.9558 24.0016 15.0002 24C11.0987 24 7.78598 21.5123 6.53798 18.0405L1.64648 21.8093C4.12898 26.667 9.17048 30 15.0002 30Z" fill="#4CAF50"/>
<path d="M29.7082 12.0623H28.5V12H15V18H23.4772C22.8856 19.6623 21.82 21.1149 20.412 22.1782L20.4142 22.1767L25.0567 26.1052C24.7282 26.4037 30 22.5 30 15C30 13.9942 29.8965 13.0125 29.7082 12.0623Z" fill="#1976D2"/>
</svg>
