<svg width="55" height="56" viewBox="0 0 55 56" fill="none" xmlns="http://www.w3.org/2000/svg">
<path fill-rule="evenodd" clip-rule="evenodd" d="M21 21.5C21.7956 21.5 22.5587 21.1313 23.1213 20.4749C23.6839 19.8185 24 18.9283 24 18C24 17.0717 23.6839 16.1815 23.1213 15.5251C22.5587 14.8687 21.7956 14.5 21 14.5C20.2044 14.5 19.4413 14.8687 18.8787 15.5251C18.3161 16.1815 18 17.0717 18 18C18 18.9283 18.3161 19.8185 18.8787 20.4749C19.4413 21.1313 20.2044 21.5 21 21.5ZM21 25C22.5913 25 24.1174 24.2625 25.2426 22.9497C26.3679 21.637 27 19.8565 27 18C27 16.1435 26.3679 14.363 25.2426 13.0503C24.1174 11.7375 22.5913 11 21 11C19.4087 11 17.8826 11.7375 16.7574 13.0503C15.6321 14.363 15 16.1435 15 18C15 19.8565 15.6321 21.637 16.7574 22.9497C17.8826 24.2625 19.4087 25 21 25Z" fill="white"/>
<path fill-rule="evenodd" clip-rule="evenodd" d="M31.472 27.1859L41.1318 38.5883H21.8122L31.472 27.1859ZM32.807 24.1974C33.2261 24.3932 33.599 24.6787 33.9006 25.0348L43.5603 36.4372C43.9638 36.913 44.225 37.4974 44.3126 38.1207C44.4003 38.744 44.3109 39.38 44.0549 39.9528C43.799 40.5256 43.3874 41.0111 42.8691 41.3514C42.3508 41.6917 41.7477 41.8726 41.1318 41.8723H21.8122C21.7967 41.8723 21.7811 41.8722 21.7655 41.872H13.2893C12.6944 41.8714 12.1113 41.7019 11.605 41.3824C11.0988 41.0629 10.6892 40.606 10.4221 40.0625C10.155 39.519 10.0407 38.9104 10.0921 38.3044C10.1434 37.6985 10.3584 37.119 10.713 36.6306L16.8455 28.1839C17.1443 27.7723 17.5333 27.4379 17.9812 27.2075C18.4292 26.9771 18.9236 26.8571 19.4251 26.8571C19.9265 26.8571 20.421 26.9771 20.8689 27.2075C21.3168 27.4379 21.7058 27.7723 22.0046 28.1839L24.0224 30.9616L29.0434 25.0348C29.345 24.6787 29.7179 24.3932 30.137 24.1974C30.556 24.0017 31.0113 23.9004 31.472 23.9004C31.9327 23.9004 32.388 24.0017 32.807 24.1974ZM18.5986 38.5879H13.2893L19.4251 30.1412L21.8681 33.5045L19.3837 36.4372C18.9802 36.913 18.719 37.4974 18.6314 38.1207C18.6095 38.2761 18.5986 38.4322 18.5986 38.5879Z" fill="white"/>
<path fill-rule="evenodd" clip-rule="evenodd" d="M50.1471 3.29412H4.85294C4.42391 3.29412 4.01246 3.46765 3.70909 3.77653C3.40572 4.08541 3.23529 4.50435 3.23529 4.94118V51.0588C3.23529 51.4957 3.40572 51.9146 3.70909 52.2235C4.01246 52.5324 4.42391 52.7059 4.85294 52.7059H50.1471C50.5761 52.7059 50.9875 52.5324 51.2909 52.2235C51.5943 51.9146 51.7647 51.4957 51.7647 51.0588V4.94118C51.7647 4.50435 51.5943 4.08541 51.2909 3.77653C50.9875 3.46765 50.5761 3.29412 50.1471 3.29412ZM4.85294 0C3.56586 0 2.3315 0.520587 1.42139 1.44724C0.511291 2.37389 0 3.6307 0 4.94118V51.0588C0 52.3693 0.511291 53.6261 1.42139 54.5528C2.3315 55.4794 3.56586 56 4.85294 56H50.1471C51.4341 56 52.6685 55.4794 53.5786 54.5528C54.4887 53.6261 55 52.3693 55 51.0588V4.94118C55 3.6307 54.4887 2.37389 53.5786 1.44724C52.6685 0.520587 51.4341 0 50.1471 0H4.85294Z" fill="white"/>
</svg>
