<svg width="39" height="39" viewBox="0 0 39 39" fill="none" xmlns="http://www.w3.org/2000/svg">
<path d="M32.1667 13.1667C29.9453 8.48 25.1003 5.25 19.5 5.25C17.6287 5.25 15.7757 5.61859 14.0468 6.33472C12.3179 7.05085 10.747 8.10049 9.42373 9.42373C8.10049 10.747 7.05085 12.3179 6.33472 14.0468C5.61859 15.7757 5.25 17.6287 5.25 19.5C5.25 21.3713 5.61859 23.2243 6.33472 24.9532C7.05085 26.6821 8.10049 28.253 9.42373 29.5763C10.747 30.8995 12.3179 31.9492 14.0468 32.6653C15.7757 33.3814 17.6287 33.75 19.5 33.75M33.75 5.25V14.75H24.25" stroke="white" stroke-width="1.58333"/>
<path d="M13.7992 27.5V21.7424H15.8515C16.2975 21.7424 16.6677 21.8193 16.9619 21.973C17.2581 22.1266 17.4792 22.3394 17.6254 22.6111C17.7716 22.881 17.8447 23.1931 17.8447 23.5473C17.8447 23.8996 17.7707 24.2098 17.6226 24.4778C17.4764 24.744 17.2553 24.9511 16.9591 25.0991C16.6649 25.2472 16.2947 25.3212 15.8487 25.3212H14.294V24.5734H15.77C16.0511 24.5734 16.2797 24.5331 16.4559 24.4525C16.634 24.3719 16.7642 24.2548 16.8467 24.1011C16.9291 23.9474 16.9704 23.7628 16.9704 23.5473C16.9704 23.3299 16.9282 23.1415 16.8439 22.9822C16.7614 22.8229 16.6312 22.7011 16.4531 22.6167C16.2769 22.5305 16.0455 22.4874 15.7587 22.4874H14.6679V27.5H13.7992ZM16.6415 24.9023L18.064 27.5H17.0744L15.68 24.9023H16.6415ZM18.9018 27.5V21.7424H22.5115V22.4902H19.7705V24.2445H22.3231V24.9895H19.7705V26.7522H22.5452V27.5H18.9018ZM26.8121 23.2549C26.7821 22.9888 26.6584 22.7826 26.441 22.6364C26.2236 22.4884 25.95 22.4143 25.6201 22.4143C25.3839 22.4143 25.1797 22.4518 25.0072 22.5268C24.8348 22.5999 24.7008 22.7011 24.6052 22.8304C24.5115 22.9579 24.4646 23.1031 24.4646 23.2662C24.4646 23.403 24.4965 23.5211 24.5602 23.6204C24.6258 23.7197 24.7111 23.8031 24.8161 23.8706C24.9229 23.9362 25.0372 23.9915 25.159 24.0365C25.2809 24.0796 25.398 24.1152 25.5105 24.1433L26.0727 24.2895C26.2564 24.3345 26.4448 24.3954 26.6378 24.4722C26.8308 24.5491 27.0098 24.6503 27.1748 24.7758C27.3397 24.9014 27.4728 25.057 27.574 25.2425C27.677 25.4281 27.7286 25.6502 27.7286 25.9088C27.7286 26.2349 27.6442 26.5245 27.4756 26.7775C27.3088 27.0305 27.0661 27.2301 26.7474 27.3763C26.4307 27.5225 26.0474 27.5956 25.5976 27.5956C25.1665 27.5956 24.7936 27.5272 24.4787 27.3904C24.1638 27.2535 23.9174 27.0596 23.7393 26.8084C23.5613 26.5554 23.4629 26.2555 23.4441 25.9088H24.3156C24.3325 26.1168 24.4 26.2902 24.5181 26.4289C24.638 26.5657 24.7908 26.6679 24.9763 26.7353C25.1637 26.8009 25.369 26.8337 25.592 26.8337C25.8375 26.8337 26.0559 26.7953 26.247 26.7185C26.4401 26.6397 26.5919 26.531 26.7025 26.3923C26.813 26.2518 26.8683 26.0878 26.8683 25.9004C26.8683 25.7298 26.8196 25.5902 26.7221 25.4815C26.6265 25.3728 26.4963 25.2828 26.3314 25.2116C26.1683 25.1404 25.9837 25.0776 25.7775 25.0232L25.0972 24.8377C24.6361 24.7121 24.2707 24.5275 24.0008 24.2839C23.7328 24.0402 23.5988 23.7178 23.5988 23.3168C23.5988 22.985 23.6887 22.6955 23.8686 22.4481C24.0486 22.2007 24.2922 22.0086 24.5996 21.8717C24.907 21.7331 25.2537 21.6637 25.6398 21.6637C26.0296 21.6637 26.3735 21.7321 26.6715 21.8689C26.9714 22.0058 27.2076 22.1941 27.38 22.434C27.5524 22.672 27.6424 22.9457 27.6499 23.2549H26.8121ZM28.7667 27.5V21.7424H32.3764V22.4902H29.6354V24.2445H32.188V24.9895H29.6354V26.7522H32.4101V27.5H28.7667ZM33.2528 22.4902V21.7424H37.7088V22.4902H35.9123V27.5H35.0464V22.4902H33.2528Z" fill="white"/>
</svg>
