<svg width="40" height="40" viewBox="0 0 40 40" fill="none" xmlns="http://www.w3.org/2000/svg">
<path opacity="0.5" d="M30 0H10C4.47715 0 0 4.47715 0 10V30C0 35.5228 4.47715 40 10 40H30C35.5228 40 40 35.5228 40 30V10C40 4.47715 35.5228 0 30 0Z" fill="black"/>
<path d="M24.5169 24.5528C24.3814 24.4649 24.2166 24.4342 24.0586 24.4674C23.9006 24.5006 23.7622 24.595 23.6735 24.73C22.8119 26.05 21.2291 27.6694 19.8174 28.2133C18.4057 28.7572 17.2996 28.5617 16.8596 28.2133C16.6702 28.0483 16.1752 27.6022 16.5969 26.0805C16.878 25.0661 18.6257 20.2872 19.0413 19.1261L17.7091 19.2972C17.2874 20.4339 15.6985 24.6994 15.4113 25.7628C14.9957 27.2844 15.2035 28.3905 16.0774 29.1605C16.688 29.5889 17.422 29.8057 18.1674 29.7778C18.8907 29.7673 19.6056 29.6223 20.2757 29.35C21.9807 28.6839 23.7713 26.8322 24.7124 25.3961C24.7551 25.3279 24.7839 25.252 24.7971 25.1727C24.8104 25.0933 24.8079 25.0122 24.7897 24.9338C24.7715 24.8555 24.7381 24.7815 24.6913 24.7161C24.6444 24.6507 24.5852 24.5952 24.5169 24.5528Z" fill="white"/>
<path d="M20.7949 15.7223C21.3388 15.7223 21.8705 15.561 22.3227 15.2588C22.775 14.9567 23.1275 14.5272 23.3356 14.0247C23.5437 13.5222 23.5982 12.9692 23.4921 12.4358C23.386 11.9023 23.1241 11.4123 22.7395 11.0277C22.3549 10.6432 21.8649 10.3812 21.3314 10.2751C20.798 10.169 20.245 10.2235 19.7425 10.4316C19.24 10.6398 18.8106 10.9922 18.5084 11.4445C18.2062 11.8967 18.0449 12.4284 18.0449 12.9723C18.0449 13.7016 18.3347 14.4011 18.8504 14.9168C19.3661 15.4326 20.0656 15.7223 20.7949 15.7223ZM20.7949 11.4445C21.0971 11.4445 21.3925 11.5341 21.6437 11.702C21.895 11.8699 22.0908 12.1085 22.2064 12.3876C22.322 12.6668 22.3523 12.974 22.2933 13.2703C22.2344 13.5667 22.0889 13.8389 21.8752 14.0526C21.6616 14.2663 21.3893 14.4118 21.093 14.4707C20.7966 14.5297 20.4894 14.4994 20.2103 14.3838C19.9311 14.2681 19.6925 14.0723 19.5246 13.8211C19.3567 13.5698 19.2671 13.2745 19.2671 12.9723C19.2671 12.5671 19.4281 12.1785 19.7146 11.892C20.0011 11.6055 20.3897 11.4445 20.7949 11.4445Z" fill="white"/>
<path d="M16.2169 18.1666C16.2536 18.1666 20.0486 17.6655 20.9408 17.5555C21.338 17.4944 21.6375 17.5555 21.7353 17.6472C21.833 17.7388 21.8636 18.136 21.6925 18.6738C21.3197 19.8105 19.4375 25.396 18.8875 27.0522C19.1563 26.997 19.42 26.9193 19.6758 26.8199C19.9205 26.7188 20.1557 26.596 20.3786 26.4533C21.1303 24.2777 22.5358 20.061 22.8536 19.0955C23.1714 18.1299 23.0919 17.3966 22.6703 16.8955C22.4297 16.6516 22.1286 16.4761 21.7979 16.387C21.4671 16.2978 21.1186 16.2983 20.788 16.3883C19.9142 16.4799 16.223 16.9627 16.0642 16.9994C15.9021 17.0205 15.755 17.105 15.6553 17.2345C15.5556 17.3641 15.5114 17.5279 15.5325 17.6899C15.5536 17.852 15.6382 17.9991 15.7677 18.0988C15.8972 18.1985 16.061 18.2427 16.223 18.2216L16.2169 18.1666Z" fill="white"/>
</svg>
