<svg width="10" height="13" viewBox="0 0 10 13" fill="none" xmlns="http://www.w3.org/2000/svg">
<g opacity="0.5">
<path fill-rule="evenodd" clip-rule="evenodd" d="M8.125 3.125V4.375C8.62228 4.375 9.09919 4.57254 9.45083 4.92417C9.80246 5.27581 10 5.75272 10 6.25V10.625C10 11.1223 9.80246 11.5992 9.45083 11.9508C9.09919 12.3025 8.62228 12.5 8.125 12.5H1.875C1.37772 12.5 0.900806 12.3025 0.549175 11.9508C0.197544 11.5992 0 11.1223 0 10.625V6.25C0 5.75272 0.197544 5.27581 0.549175 4.92417C0.900806 4.57254 1.37772 4.375 1.875 4.375H3.125H3.75H6.875V3.125C6.875 2.62772 6.67746 2.15081 6.32583 1.79917C5.97419 1.44754 5.49728 1.25 5 1.25C4.50272 1.25 4.02581 1.44754 3.67417 1.79917C3.47455 1.9988 3.32458 2.23881 3.23223 2.5H1.93813C2.05977 1.9041 2.3538 1.35178 2.79029 0.915291C3.37634 0.32924 4.1712 0 5 0C5.8288 0 6.62366 0.32924 7.20971 0.915291C7.79576 1.50134 8.125 2.2962 8.125 3.125ZM8.56694 11.0669C8.68415 10.9497 8.75 10.7908 8.75 10.625V6.25C8.75 6.08424 8.68415 5.92527 8.56694 5.80806C8.44973 5.69085 8.29076 5.625 8.125 5.625H1.875C1.70924 5.625 1.55027 5.69085 1.43306 5.80806C1.31585 5.92527 1.25 6.08424 1.25 6.25V10.625C1.25 10.7908 1.31585 10.9497 1.43306 11.0669C1.55027 11.1842 1.70924 11.25 1.875 11.25H8.125C8.29076 11.25 8.44973 11.1842 8.56694 11.0669Z" fill="white"/>
</g>
</svg>
