<svg width="28" height="22" viewBox="0 0 28 22" fill="none" xmlns="http://www.w3.org/2000/svg">
<path d="M8.87751e-09 6.26267L13.5596 13.035C13.6957 13.1029 13.8467 13.1384 14 13.1384C14.1533 13.1384 14.3043 13.1029 14.4404 13.035L28 6.26389V18.0278C28.0001 19.0424 27.5958 20.0186 26.8702 20.7561C26.1446 21.4936 25.1527 21.9364 24.0978 21.9939L23.8636 22H4.13636C3.07982 22.0001 2.06331 21.6119 1.29534 20.9151C0.527376 20.2183 0.0661801 19.2657 0.00636379 18.2527L8.87751e-09 18.0278V6.26267ZM4.13636 8.52523e-09H23.8636C24.9202 -6.64238e-05 25.9367 0.388121 26.7047 1.08493C27.4726 1.78174 27.9338 2.73435 27.9936 3.74733L28 3.97222V4.19711L14 11.1882L8.87751e-09 4.19711V3.97222C-6.91686e-05 2.95761 0.40416 1.98143 1.12976 1.24394C1.85537 0.506449 2.84734 0.0635539 3.90218 0.00611126L4.13636 8.52523e-09Z" fill="#5584EA"/>
</svg>
