<svg width="18" height="26" viewBox="0 0 18 26" fill="none" xmlns="http://www.w3.org/2000/svg">
<path d="M3.85714 5.2C3.85714 3.82087 4.39898 2.49823 5.36345 1.52304C6.32792 0.547856 7.63603 0 9 0C10.364 0 11.6721 0.547856 12.6365 1.52304C13.601 2.49823 14.1429 3.82087 14.1429 5.2V13C14.1429 14.3791 13.601 15.7018 12.6365 16.677C11.6721 17.6521 10.364 18.2 9 18.2C7.63603 18.2 6.32792 17.6521 5.36345 16.677C4.39898 15.7018 3.85714 14.3791 3.85714 13V5.2ZM9 1.625C8.06227 1.625 7.16295 2.00165 6.49987 2.67209C5.8368 3.34254 5.46429 4.25185 5.46429 5.2V13C5.46429 13.9481 5.8368 14.8575 6.49987 15.5279C7.16295 16.1983 8.06227 16.575 9 16.575C9.93773 16.575 10.8371 16.1983 11.5001 15.5279C12.1632 14.8575 12.5357 13.9481 12.5357 13V5.2C12.5357 4.25185 12.1632 3.34254 11.5001 2.67209C10.8371 2.00165 9.93773 1.625 9 1.625ZM9.64286 21.9147C14.3132 21.5813 18 17.6442 18 12.8375C18 12.622 17.9153 12.4153 17.7646 12.263C17.6139 12.1106 17.4095 12.025 17.1964 12.025C16.9833 12.025 16.7789 12.1106 16.6282 12.263C16.4775 12.4153 16.3929 12.622 16.3929 12.8375C16.3929 16.9656 13.0828 20.3125 9 20.3125C4.91721 20.3125 1.60714 16.9656 1.60714 12.8375C1.60714 12.622 1.52248 12.4153 1.37178 12.263C1.22108 12.1106 1.01669 12.025 0.803571 12.025C0.590451 12.025 0.386059 12.1106 0.235361 12.263C0.0846617 12.4153 0 12.622 0 12.8375C0 17.5337 3.51836 21.3993 8.03571 21.8855V25.1875C8.03571 25.403 8.12038 25.6097 8.27107 25.762C8.42177 25.9144 8.62617 26 8.83929 26C9.05241 26 9.2568 25.9144 9.4075 25.762C9.5582 25.6097 9.64286 25.403 9.64286 25.1875V21.9147Z" fill="white"/>
</svg>
