<svg width="47" height="47" viewBox="0 0 47 47" fill="none" xmlns="http://www.w3.org/2000/svg">
<path fill-rule="evenodd" clip-rule="evenodd" d="M22.5217 4.17936C22.8194 4.00748 23.1571 3.91699 23.5009 3.91699C23.8446 3.91699 24.1823 4.00748 24.48 4.17936L28.3967 6.44123C28.8428 6.70277 29.1674 7.13015 29.2996 7.6301C29.4318 8.13006 29.3608 8.662 29.1022 9.10984C28.8437 9.55769 28.4185 9.88508 27.9194 10.0206C27.4203 10.1561 26.8879 10.0887 26.4384 9.83307L25.4592 9.26711V11.7503C25.4592 12.2697 25.2529 12.7678 24.8856 13.135C24.5184 13.5023 24.0203 13.7086 23.5009 13.7086C22.9815 13.7086 22.4834 13.5023 22.1161 13.135C21.7489 12.7678 21.5425 12.2697 21.5425 11.7503V9.26711L20.5634 9.83307C20.1138 10.0887 19.5814 10.1561 19.0824 10.0206C18.5833 9.88508 18.1581 9.55769 17.8995 9.10984C17.6409 8.662 17.57 8.13006 17.7022 7.6301C17.8344 7.13015 18.1589 6.70277 18.605 6.44123L22.5217 4.17936ZM13.8502 11.4467C14.1099 11.8965 14.1803 12.431 14.0458 12.9327C13.9114 13.4344 13.5832 13.8621 13.1335 14.1218L12.1543 14.6878L14.3045 15.9294C14.5291 16.057 14.7261 16.2278 14.8843 16.4319C15.0426 16.636 15.1589 16.8694 15.2265 17.1187C15.2942 17.3679 15.3119 17.6281 15.2786 17.8842C15.2453 18.1403 15.1617 18.3873 15.0326 18.611C14.9034 18.8346 14.7313 19.0305 14.5262 19.1874C14.321 19.3443 14.0869 19.459 13.8372 19.5251C13.5875 19.5911 13.3272 19.607 13.0713 19.5721C12.8155 19.5371 12.569 19.4518 12.3462 19.3212L10.196 18.0796V19.2096C10.196 19.7289 9.98964 20.2271 9.62238 20.5943C9.25512 20.9616 8.75701 21.1679 8.23763 21.1679C7.71825 21.1679 7.22014 20.9616 6.85288 20.5943C6.48562 20.2271 6.2793 19.7289 6.2793 19.2096V14.6878C6.27965 14.3444 6.3703 14.0071 6.54217 13.7097C6.71403 13.4124 6.96105 13.1655 7.25846 12.9938L11.1751 10.7319C11.6249 10.4723 12.1594 10.4019 12.6611 10.5363C13.1628 10.6707 13.5905 10.9989 13.8502 11.4487V11.4467ZM33.1515 11.4467C33.4112 10.997 33.839 10.6688 34.3406 10.5343C34.8423 10.3999 35.3768 10.4703 35.8266 10.73L39.7433 12.9919C40.041 13.1637 40.2882 13.4109 40.4601 13.7086C40.632 14.0063 40.7225 14.344 40.7225 14.6878V19.2115C40.7225 19.7309 40.5161 20.229 40.1489 20.5963C39.7816 20.9635 39.2835 21.1699 38.7641 21.1699C38.2447 21.1699 37.7466 20.9635 37.3794 20.5963C37.0121 20.229 36.8058 19.7309 36.8058 19.2115V18.0796L34.6555 19.3212C34.206 19.5768 33.6736 19.6442 33.1745 19.5087C32.6755 19.3732 32.2502 19.0458 31.9917 18.598C31.7331 18.1501 31.6622 17.6182 31.7943 17.1182C31.9265 16.6183 32.2511 16.1909 32.6972 15.9294L34.8475 14.6878L33.8683 14.1218C33.4185 13.8621 33.0903 13.4344 32.9559 12.9327C32.8215 12.431 32.8919 11.8965 33.1515 11.4467ZM16.7172 19.5836C16.9769 19.1338 17.4046 18.8056 17.9063 18.6712C18.408 18.5368 18.9425 18.6072 19.3923 18.8669L23.5009 21.2384L27.6095 18.8669C28.059 18.6113 28.5914 18.5439 29.0905 18.6793C29.5895 18.8148 30.0148 19.1422 30.2733 19.5901C30.5319 20.0379 30.6028 20.5699 30.4707 21.0698C30.3385 21.5698 30.0139 21.9972 29.5678 22.2587L25.4592 24.6302V29.3753C25.4592 29.8947 25.2529 30.3928 24.8856 30.76C24.5184 31.1273 24.0203 31.3336 23.5009 31.3336C22.9815 31.3336 22.4834 31.1273 22.1161 30.76C21.7489 30.3928 21.5425 29.8947 21.5425 29.3753V24.6302L17.434 22.2587C16.9842 21.999 16.656 21.5713 16.5216 21.0696C16.3872 20.5679 16.4575 20.0334 16.7172 19.5836ZM8.23763 25.8307C8.75701 25.8307 9.25512 26.037 9.62238 26.4043C9.98964 26.7715 10.196 27.2696 10.196 27.789V28.9209L12.3462 27.6794C12.7958 27.4238 13.3282 27.3564 13.8272 27.4918C14.3263 27.6273 14.7515 27.9547 15.0101 28.4026C15.2687 28.8504 15.3396 29.3824 15.2074 29.8823C15.0752 30.3823 14.7507 30.8097 14.3045 31.0712L12.1543 32.3128L13.1335 32.8787C13.358 33.0064 13.555 33.1772 13.7133 33.3813C13.8715 33.5854 13.9878 33.8188 14.0555 34.068C14.1231 34.3173 14.1408 34.5774 14.1075 34.8336C14.0743 35.0897 13.9906 35.3367 13.8615 35.5603C13.7324 35.784 13.5603 35.9799 13.3551 36.1368C13.1499 36.2937 12.9158 36.4084 12.6661 36.4744C12.4164 36.5404 12.1561 36.5564 11.9003 36.5214C11.6444 36.4864 11.3979 36.4012 11.1751 36.2706L7.25846 34.0087C6.96077 33.8368 6.71356 33.5896 6.54168 33.2919C6.3698 32.9942 6.27931 32.6565 6.2793 32.3128V27.789C6.2793 27.2696 6.48562 26.7715 6.85288 26.4043C7.22014 26.037 7.71825 25.8307 8.23763 25.8307ZM38.7641 25.8307C39.2835 25.8307 39.7816 26.037 40.1489 26.4043C40.5161 26.7715 40.7225 27.2696 40.7225 27.789V32.3128C40.7225 32.6565 40.632 32.9942 40.4601 33.2919C40.2882 33.5896 40.041 33.8368 39.7433 34.0087L35.8266 36.2706C35.6038 36.4012 35.3574 36.4864 35.1015 36.5214C34.8456 36.5564 34.5853 36.5404 34.3357 36.4744C34.086 36.4084 33.8518 36.2937 33.6467 36.1368C33.4415 35.9799 33.2694 35.784 33.1403 35.5603C33.0111 35.3367 32.9275 35.0897 32.8942 34.8336C32.8609 34.5774 32.8786 34.3173 32.9463 34.068C33.014 33.8188 33.1303 33.5854 33.2885 33.3813C33.4467 33.1772 33.6438 33.0064 33.8683 32.8787L34.8475 32.3128L32.6972 31.0712C32.4727 30.9435 32.2757 30.7727 32.1174 30.5686C31.9592 30.3645 31.8429 30.1311 31.7752 29.8819C31.7075 29.6326 31.6898 29.3725 31.7231 29.1164C31.7564 28.8603 31.84 28.6133 31.9692 28.3896C32.0983 28.1659 32.2704 27.97 32.4756 27.8131C32.6807 27.6563 32.9149 27.5415 33.1646 27.4755C33.4143 27.4095 33.6745 27.3935 33.9304 27.4285C34.1863 27.4635 34.4327 27.5487 34.6555 27.6794L36.8058 28.9209V27.791C36.8058 27.2716 37.0121 26.7735 37.3794 26.4062C37.7466 26.039 38.2447 25.8326 38.7641 25.8326V25.8307ZM23.5009 33.2919C24.0203 33.2919 24.5184 33.4983 24.8856 33.8655C25.2529 34.2328 25.4592 34.7309 25.4592 35.2503V37.7334L26.4384 37.1675C26.6612 37.0369 26.9076 36.9516 27.1635 36.9166C27.4194 36.8816 27.6797 36.8976 27.9293 36.9636C28.179 37.0296 28.4132 37.1444 28.6184 37.3013C28.8235 37.4581 28.9956 37.6541 29.1247 37.8777C29.2539 38.1014 29.3375 38.3484 29.3708 38.6045C29.4041 38.8606 29.3864 39.1208 29.3187 39.37C29.251 39.6193 29.1347 39.8526 28.9765 40.0568C28.8183 40.2609 28.6212 40.4317 28.3967 40.5593L24.48 42.8212C24.1823 42.9931 23.8446 43.0836 23.5009 43.0836C23.1571 43.0836 22.8194 42.9931 22.5217 42.8212L18.605 40.5593C18.3805 40.4317 18.1835 40.2609 18.0252 40.0568C17.867 39.8526 17.7507 39.6193 17.683 39.37C17.6154 39.1208 17.5977 38.8606 17.631 38.6045C17.6643 38.3484 17.7479 38.1014 17.877 37.8777C18.0061 37.6541 18.1782 37.4581 18.3834 37.3013C18.5886 37.1444 18.8227 37.0296 19.0724 36.9636C19.3221 36.8976 19.5824 36.8816 19.8383 36.9166C20.0941 36.9516 20.3406 37.0369 20.5634 37.1675L21.5425 37.7334V35.2503C21.5425 34.7309 21.7489 34.2328 22.1161 33.8655C22.4834 33.4983 22.9815 33.2919 23.5009 33.2919Z" fill="white"/>
</svg>
