<svg width="18" height="13" viewBox="0 0 18 13" fill="none" xmlns="http://www.w3.org/2000/svg">
<path d="M8.8125 3.913C8.19005 3.913 7.5931 4.16026 7.15296 4.6004C6.71282 5.04054 6.46555 5.63749 6.46555 6.25994C6.46555 6.88239 6.71282 7.47935 7.15296 7.91948C7.5931 8.35962 8.19005 8.60689 8.8125 8.60689C9.43495 8.60689 10.0319 8.35962 10.472 7.91948C10.9122 7.47935 11.1594 6.88239 11.1594 6.25994C11.1594 5.63749 10.9122 5.04054 10.472 4.6004C10.0319 4.16026 9.43495 3.913 8.8125 3.913ZM8.8125 10.1715C7.77508 10.1715 6.78016 9.75941 6.0466 9.02585C5.31303 8.29228 4.90092 7.29736 4.90092 6.25994C4.90092 5.22253 5.31303 4.2276 6.0466 3.49404C6.78016 2.76048 7.77508 2.34837 8.8125 2.34837C9.84991 2.34837 10.8448 2.76048 11.5784 3.49404C12.312 4.2276 12.7241 5.22253 12.7241 6.25994C12.7241 7.29736 12.312 8.29228 11.5784 9.02585C10.8448 9.75941 9.84991 10.1715 8.8125 10.1715ZM8.8125 0.392578C4.90092 0.392578 1.56044 2.82558 0.207031 6.25994C1.56044 9.69431 4.90092 12.1273 8.8125 12.1273C12.7241 12.1273 16.0646 9.69431 17.418 6.25994C16.0646 2.82558 12.7241 0.392578 8.8125 0.392578Z" fill="white" fill-opacity="0.5"/>
</svg>
