<svg width="12" height="16" viewBox="0 0 12 16" fill="none" xmlns="http://www.w3.org/2000/svg">
<path d="M10.8594 6.875H4.10938V3.5C4.10938 2.90326 4.34643 2.33097 4.76838 1.90901C5.19034 1.48705 5.76264 1.25 6.35938 1.25C6.95611 1.25 7.52841 1.48705 7.95037 1.90901C8.37232 2.33097 8.60938 2.90326 8.60938 3.5H9.73438C9.73438 2.60489 9.3788 1.74645 8.74586 1.11351C8.11293 0.480579 7.25448 0.125 6.35938 0.125C5.46427 0.125 4.60582 0.480579 3.97289 1.11351C3.33995 1.74645 2.98438 2.60489 2.98438 3.5V6.875H1.85938C1.56101 6.875 1.27486 6.99353 1.06388 7.2045C0.852901 7.41548 0.734375 7.70163 0.734375 8V14.75C0.734375 15.0484 0.852901 15.3345 1.06388 15.5455C1.27486 15.7565 1.56101 15.875 1.85938 15.875H10.8594C11.1577 15.875 11.4439 15.7565 11.6549 15.5455C11.8658 15.3345 11.9844 15.0484 11.9844 14.75V8C11.9844 7.70163 11.8658 7.41548 11.6549 7.2045C11.4439 6.99353 11.1577 6.875 10.8594 6.875ZM10.8594 14.75H1.85938V8H10.8594V14.75Z" fill="white" fill-opacity="0.5"/>
</svg>
