<svg width="24" height="24" viewBox="0 0 24 24" fill="none" xmlns="http://www.w3.org/2000/svg">
<path fill-rule="evenodd" clip-rule="evenodd" d="M20.5302 4.52985C20.6626 4.38767 20.7348 4.19963 20.7313 4.00532C20.7279 3.81102 20.6492 3.62564 20.5118 3.48822C20.3744 3.35081 20.189 3.2721 19.9947 3.26867C19.8004 3.26524 19.6123 3.33737 19.4702 3.46985L3.47015 19.4698C3.39647 19.5385 3.33736 19.6213 3.29637 19.7133C3.25538 19.8053 3.23334 19.9046 3.23156 20.0053C3.22979 20.106 3.24831 20.2061 3.28603 20.2994C3.32375 20.3928 3.3799 20.4777 3.45112 20.5489C3.52233 20.6201 3.60717 20.6762 3.70056 20.714C3.79394 20.7517 3.89397 20.7702 3.99468 20.7684C4.09538 20.7667 4.19469 20.7446 4.28669 20.7036C4.37869 20.6626 4.46149 20.6035 4.53015 20.5298L7.56515 17.4948C8.88315 18.1028 10.3922 18.4998 12.0002 18.4998C14.6182 18.4998 16.9722 17.4488 18.6682 16.1468C19.5182 15.4948 20.2152 14.7708 20.7032 14.0668C21.1832 13.3748 21.5002 12.6488 21.5002 11.9998C21.5002 11.3508 21.1832 10.6248 20.7032 9.93385C20.2152 9.22885 19.5182 8.50485 18.6682 7.85385C18.3982 7.64585 18.1102 7.44385 17.8082 7.25285L20.5302 4.52985ZM15.1302 9.93185L14.0302 11.0298C14.2307 11.4497 14.2961 11.9214 14.2174 12.38C14.1387 12.8386 13.9198 13.2615 13.5908 13.5905C13.2618 13.9195 12.8389 14.1384 12.3803 14.2171C11.9217 14.2958 11.45 14.2304 11.0302 14.0298L9.93015 15.1298C10.6513 15.6073 11.5153 15.8208 12.3758 15.7343C13.2363 15.6477 14.0405 15.2663 14.6521 14.6547C15.2636 14.0432 15.645 13.239 15.7316 12.3785C15.8181 11.518 15.6046 10.654 15.1272 9.93285" fill="#007B80"/>
<path d="M12.67 8.31C12.7111 8.31771 12.7535 8.31537 12.7936 8.30318C12.8336 8.29099 12.8701 8.26932 12.9 8.24L14.85 6.29C14.8803 6.26019 14.9023 6.22294 14.9137 6.18198C14.9251 6.14102 14.9256 6.09779 14.915 6.05659C14.9045 6.0154 14.8834 5.97769 14.8537 5.94722C14.824 5.91676 14.7869 5.89462 14.746 5.883C13.8523 5.63112 12.9285 5.50226 12 5.5C9.382 5.5 7.028 6.551 5.332 7.853C4.482 8.505 3.785 9.229 3.296 9.933C2.816 10.625 2.5 11.351 2.5 12C2.5 12.649 2.817 13.375 3.296 14.066C3.77186 14.7339 4.33408 15.3358 4.968 15.856C5.01544 15.8952 5.07584 15.9152 5.13731 15.9121C5.19877 15.9089 5.25682 15.8828 5.3 15.839L8.24 12.899C8.26932 12.8691 8.29099 12.8326 8.30318 12.7926C8.31537 12.7525 8.31771 12.7101 8.31 12.669C8.20163 12.0726 8.23945 11.4588 8.42022 10.8803C8.60099 10.3017 8.91932 9.77555 9.34794 9.34694C9.77655 8.91832 10.3027 8.59999 10.8813 8.41922C11.4598 8.23845 12.0736 8.20063 12.67 8.309" fill="#007B80"/>
</svg>
