<svg width="18" height="15" viewBox="0 0 18 15" fill="none" xmlns="http://www.w3.org/2000/svg">
<path d="M7.82111 3.56923C8.30397 3.34792 8.82823 3.23141 9.35938 3.22739C10.3793 3.22739 11.3575 3.63256 12.0787 4.35376C12.7999 5.07496 13.205 6.05312 13.205 7.07305C13.2048 7.52609 13.1208 7.97518 12.9572 8.39766L15.3415 10.611C16.406 9.59908 17.2751 8.39975 17.9053 7.07305C17.9053 7.07305 15.3415 1.09092 9.35938 1.09092C8.18098 1.08474 7.01508 1.33249 5.94102 1.81732L7.82111 3.56923ZM2.52266 0.236328L1.66807 1.09092L3.84727 3.14193C2.57036 4.22394 1.53651 5.56358 0.813477 7.07305C0.813477 7.07305 3.37725 13.0552 9.35938 13.0552C10.7432 13.0609 12.1064 12.7201 13.3247 12.0639L16.1961 14.7644L17.0507 13.9098L2.52266 0.236328ZM9.35938 10.9187C8.33944 10.9187 7.36129 10.5135 6.64009 9.79234C5.91889 9.07114 5.51372 8.09298 5.51372 7.07305C5.51844 6.41245 5.69516 5.76448 6.02647 5.19295L7.334 6.42356C7.2636 6.63301 7.22612 6.85211 7.2229 7.07305C7.22203 7.42087 7.30644 7.7636 7.46874 8.07124C7.63103 8.37888 7.86627 8.64204 8.15384 8.8377C8.44142 9.03335 8.77257 9.15553 9.11831 9.19353C9.46406 9.23154 9.81384 9.18421 10.1371 9.0557L11.4531 10.2949C10.8308 10.7022 10.1031 10.919 9.35938 10.9187Z" fill="white" fill-opacity="0.5"/>
</svg>
