<svg width="17" height="18" viewBox="0 0 17 18" fill="none" xmlns="http://www.w3.org/2000/svg">
<path d="M9.16125 12.9262C9.16125 13.013 9.12678 13.0962 9.06542 13.1576C9.00406 13.219 8.92084 13.2534 8.83406 13.2534C8.57374 13.2534 8.32407 13.15 8.13999 12.9659C7.95592 12.7819 7.8525 12.5322 7.8525 12.2719V9C7.8525 8.91322 7.81803 8.83 7.75667 8.76864C7.69531 8.70728 7.61209 8.67281 7.52531 8.67281C7.43854 8.67281 7.35532 8.63834 7.29396 8.57698C7.2326 8.51562 7.19813 8.4324 7.19813 8.34562C7.19813 8.25885 7.2326 8.17563 7.29396 8.11427C7.35532 8.05291 7.43854 8.01844 7.52531 8.01844C7.78564 8.01844 8.03531 8.12185 8.21938 8.30593C8.40346 8.49001 8.50688 8.73967 8.50688 9V12.2719C8.50688 12.3586 8.54135 12.4419 8.60271 12.5032C8.66407 12.5646 8.74729 12.5991 8.83406 12.5991C8.92084 12.5991 9.00406 12.6335 9.06542 12.6949C9.12678 12.7562 9.16125 12.8395 9.16125 12.9262ZM7.8525 6.05531C7.98193 6.05531 8.10844 6.01693 8.21605 5.94503C8.32366 5.87313 8.40754 5.77093 8.45707 5.65135C8.50659 5.53178 8.51955 5.40021 8.4943 5.27327C8.46905 5.14634 8.40673 5.02974 8.31522 4.93822C8.2237 4.84671 8.1071 4.78438 7.98016 4.75914C7.85323 4.73389 7.72165 4.74684 7.60208 4.79637C7.48251 4.8459 7.38031 4.92977 7.30841 5.03738C7.23651 5.145 7.19813 5.27151 7.19813 5.40094C7.19813 5.57449 7.26707 5.74093 7.38979 5.86365C7.51251 5.98637 7.67895 6.05531 7.8525 6.05531ZM16.3594 9C16.3594 10.6178 15.8796 12.1992 14.9808 13.5444C14.0821 14.8895 12.8046 15.9379 11.3099 16.557C9.81528 17.1761 8.17062 17.3381 6.58391 17.0225C4.99721 16.7069 3.53973 15.9279 2.39578 14.7839C1.25183 13.64 0.472789 12.1825 0.157174 10.5958C-0.158441 9.00907 0.003544 7.36441 0.622645 5.86977C1.24175 4.37513 2.29016 3.09763 3.6353 2.19884C4.98044 1.30004 6.5619 0.820313 8.17969 0.820312C10.3483 0.822694 12.4275 1.68524 13.961 3.21872C15.4944 4.75219 16.357 6.83134 16.3594 9ZM15.705 9C15.705 7.51163 15.2636 6.05669 14.4368 4.81916C13.6099 3.58163 12.4346 2.61709 11.0595 2.04752C9.68443 1.47794 8.17134 1.32892 6.71157 1.61928C5.25181 1.90965 3.91092 2.62637 2.85849 3.6788C1.80606 4.73123 1.08934 6.07212 0.798975 7.53188C0.508609 8.99165 0.657636 10.5047 1.22721 11.8798C1.79678 13.2549 2.76132 14.4302 3.99885 15.2571C5.23638 16.084 6.69132 16.5253 8.17969 16.5253C10.1749 16.5231 12.0877 15.7296 13.4985 14.3188C14.9093 12.908 15.7028 10.9952 15.705 9Z" fill="white" fill-opacity="0.5"/>
</svg>
