<svg width="12" height="16" viewBox="0 0 12 16" fill="none" xmlns="http://www.w3.org/2000/svg">
<path d="M10.5 6.875H3.75V3.5C3.75 2.90326 3.98705 2.33097 4.40901 1.90901C4.83097 1.48705 5.40326 1.25 6 1.25C6.59674 1.25 7.16903 1.48705 7.59099 1.90901C8.01295 2.33097 8.25 2.90326 8.25 3.5V6.875H9.375V3.5C9.375 2.60489 9.01942 1.74645 8.38649 1.11351C7.75355 0.480579 6.89511 0.125 6 0.125C5.10489 0.125 4.24645 0.480579 3.61351 1.11351C2.98058 1.74645 2.625 2.60489 2.625 3.5V6.875H1.5C1.20163 6.875 0.915483 6.99353 0.704505 7.2045C0.493526 7.41548 0.375 7.70163 0.375 8V14.75C0.375 15.0484 0.493526 15.3345 0.704505 15.5455C0.915483 15.7565 1.20163 15.875 1.5 15.875H10.5C10.7984 15.875 11.0845 15.7565 11.2955 15.5455C11.5065 15.3345 11.625 15.0484 11.625 14.75V8C11.625 7.70163 11.5065 7.41548 11.2955 7.2045C11.0845 6.99353 10.7984 6.875 10.5 6.875ZM10.5 14.75H1.5V8H10.5V14.75Z" fill="white" fill-opacity="0.5"/>
</svg>
