<svg width="23" height="22" viewBox="0 0 23 22" fill="none" xmlns="http://www.w3.org/2000/svg">
<path opacity="0.8" d="M19.3674 9.68658H18.8033V4.73496C18.8033 4.36865 18.6566 4.01733 18.3954 3.75831C18.1342 3.49928 17.7799 3.35376 17.4105 3.35376H13.232C13.1879 2.52241 12.8506 1.73286 12.279 1.12313C11.7075 0.513403 10.938 0.122286 10.105 0.0181564C9.62864 -0.0304818 9.14724 0.0188567 8.69094 0.163088C8.23464 0.307318 7.81324 0.543341 7.4531 0.856399C7.09296 1.16946 6.80181 1.55282 6.59786 1.98253C6.39391 2.41223 6.28154 2.87904 6.26777 3.35376H1.39284C1.02343 3.35376 0.669161 3.49928 0.407953 3.75831C0.146745 4.01733 0 4.36865 0 4.73496V10.3772H1.95694C2.4928 10.3617 3.01562 10.5427 3.42545 10.8854C3.83528 11.2281 4.10338 11.7085 4.17852 12.2349C4.20563 12.5237 4.17128 12.8149 4.07771 13.0897C3.98414 13.3645 3.83342 13.6168 3.63531 13.8302C3.4406 14.0461 3.20241 14.2191 2.93611 14.338C2.66981 14.457 2.38132 14.5192 2.08926 14.5208H0V20.6188C0 20.9851 0.146745 21.3364 0.407953 21.5955C0.669161 21.8545 1.02343 22 1.39284 22H17.4105C17.7799 22 18.1342 21.8545 18.3954 21.5955C18.6566 21.3364 18.8033 20.9851 18.8033 20.6188V16.5926H19.4997C19.9885 16.5951 20.4723 16.4956 20.9197 16.3005C21.3671 16.1053 21.7681 15.819 22.0966 15.4601C22.425 15.1011 22.6736 14.6777 22.8261 14.2172C22.9786 13.7567 23.0317 13.2695 22.9818 12.7874C22.869 11.9204 22.4381 11.1249 21.7714 10.553C21.1047 9.98102 20.2489 9.67259 19.3674 9.68658ZM21.0458 14.5208C20.8511 14.7367 20.6129 14.9097 20.3466 15.0286C20.0803 15.1476 19.7918 15.2098 19.4997 15.2114H17.4105V20.6188H1.39284V15.902H2.08926C2.57802 15.9045 3.06184 15.805 3.50925 15.6099C3.95666 15.4147 4.35763 15.1284 4.68608 14.7695C5.01454 14.4105 5.26311 13.9871 5.41563 13.5266C5.56816 13.0661 5.62121 12.5789 5.57135 12.0968C5.45849 11.2298 5.02757 10.4343 4.36087 9.86238C3.69417 9.29042 2.83839 8.98199 1.95694 8.99597H1.39284V4.73496H7.66061V3.47116C7.66218 3.18154 7.72497 2.89546 7.84492 2.63138C7.96488 2.36731 8.13933 2.13111 8.35703 1.93803C8.57222 1.74157 8.8266 1.59211 9.10372 1.49932C9.38085 1.40653 9.67453 1.37248 9.96576 1.39936C10.4966 1.47387 10.9811 1.73973 11.3267 2.14614C11.6722 2.55254 11.8547 3.07099 11.8391 3.60238V4.73496H17.4105V11.0678H19.3674C19.9033 11.0523 20.4261 11.2333 20.8359 11.576C21.2458 11.9187 21.5139 12.3991 21.589 12.9255C21.6161 13.2143 21.5818 13.5055 21.4882 13.7803C21.3946 14.0551 21.2439 14.3074 21.0458 14.5208Z" fill="white"/>
</svg>
