<svg width="35" height="35" viewBox="0 0 35 35" fill="none" xmlns="http://www.w3.org/2000/svg">
<path d="M4.1171 34.037C3.35129 33.8546 2.63614 33.5027 2.02421 33.0074C1.41228 32.5122 0.91913 31.886 0.581094 31.175C0.133439 30.2632 -0.0613856 29.248 0.0168845 28.2352C0.0951547 27.2225 0.443722 26.2493 1.02616 25.4171C1.26316 25.0481 1.58611 24.7261 1.85111 24.3701C1.94537 24.2517 2.00336 24.1086 2.01811 23.958C2.03611 23.372 2.01814 22.784 2.02714 22.197C2.02791 21.9497 2.07987 21.7052 2.17985 21.479C2.27983 21.2528 2.4257 21.0497 2.60807 20.8827C2.79044 20.7156 3.00545 20.5882 3.23954 20.5084C3.47363 20.4286 3.72162 20.3981 3.96806 20.419C6.24806 20.412 8.52812 20.419 10.8091 20.419H11.2972V20.052C11.2972 18.358 11.2862 16.664 11.2972 14.97C11.2781 13.5845 11.6544 12.2223 12.382 11.0431C13.1096 9.86386 14.1582 8.91648 15.4051 8.31201C15.4643 8.27137 15.5141 8.21846 15.5511 8.15686C15.588 8.09526 15.6111 8.0264 15.6191 7.95502C15.6471 7.58002 15.6262 7.20305 15.6302 6.82605C15.6355 6.3538 15.7898 5.89527 16.0712 5.51599C16.3526 5.13671 16.7466 4.85606 17.1971 4.71405C17.4061 4.63805 17.5042 4.55105 17.4892 4.33405C17.4672 4.03405 17.4831 3.74005 17.4831 3.39905H17.0641C15.6281 3.39905 14.1921 3.37102 12.7571 3.40802C12.3062 3.4622 11.851 3.35124 11.4756 3.0957C11.1002 2.84017 10.8301 2.45734 10.7151 2.01801C10.5391 1.11801 11.0501 0.402044 12.1051 0.0450439C12.1251 0.0380439 12.1381 0.016 12.1551 0H20.9201C21.0201 0.036 21.1201 0.0740088 21.2201 0.109009C21.519 0.18372 21.7899 0.343159 22.0004 0.568115C22.2109 0.793071 22.352 1.07402 22.4067 1.3772C22.4614 1.68037 22.4273 1.99289 22.3088 2.27722C22.1902 2.56155 21.992 2.80559 21.7381 2.98004C21.5364 3.08631 21.3747 3.25522 21.2773 3.46136C21.1799 3.66751 21.1522 3.89974 21.1982 4.12305C21.2082 4.20005 21.2082 4.27804 21.1982 4.35504C21.1672 4.55504 21.2661 4.636 21.4651 4.711C21.9135 4.84449 22.3077 5.11745 22.5904 5.49023C22.8731 5.86302 23.0296 6.31621 23.0371 6.784C23.0531 7.16 23.0571 7.53802 23.0371 7.91302C23.0273 8.00764 23.0501 8.10276 23.102 8.1825C23.1539 8.26223 23.2316 8.32173 23.3221 8.35101C24.3483 8.85773 25.2362 9.60623 25.9091 10.532C25.966 10.6179 26.0455 10.6863 26.1388 10.7299C26.2322 10.7735 26.3358 10.7905 26.4381 10.7791C28.3335 10.7717 30.2284 10.7717 32.1231 10.7791C32.5406 10.7469 32.9563 10.8613 33.2985 11.1026C33.6407 11.3439 33.8881 11.697 33.9981 12.101C34.0492 12.4401 34.0492 12.7849 33.9981 13.124C33.7981 15.208 33.5872 17.292 33.3802 19.376C33.1802 21.427 32.9681 23.4761 32.7801 25.5291C32.4835 27.7473 32.3265 29.9821 32.3101 32.22C32.3405 32.6327 32.2162 33.0419 31.9615 33.3679C31.7067 33.694 31.3399 33.9136 30.9322 33.984C30.9019 33.9989 30.8739 34.0181 30.8492 34.041L4.1171 34.037ZM24.5572 10.777C24.4442 10.648 24.3911 10.577 24.3261 10.514C23.5296 9.7185 22.5507 9.12993 21.4745 8.79962C20.3984 8.46931 19.2578 8.40729 18.1521 8.61902C16.6258 8.79718 15.2157 9.52233 14.183 10.6602C13.1503 11.7981 12.5648 13.2717 12.5351 14.808C12.5201 16.569 12.5351 18.33 12.5351 20.091C12.5351 20.191 12.5471 20.2841 12.5551 20.3911C12.6441 20.3991 12.7141 20.411 12.7841 20.411C13.5201 20.411 14.2561 20.402 14.9921 20.411C15.23 20.3982 15.4681 20.4334 15.6922 20.5143C15.9163 20.5953 16.1218 20.7205 16.2965 20.8824C16.4713 21.0443 16.6118 21.2397 16.7096 21.4569C16.8075 21.6741 16.8607 21.9088 16.8661 22.147C16.8731 22.734 16.8541 23.321 16.8761 23.908C16.8935 24.0795 16.9586 24.2427 17.0641 24.379C17.3241 24.738 17.6422 25.062 17.8852 25.429C18.6572 26.5415 19.0046 27.8939 18.8644 29.2407C18.7242 30.5875 18.1057 31.8394 17.1211 32.769C17.0957 32.8017 17.0754 32.8381 17.0611 32.877H23.6711C23.6711 32.477 23.6811 32.088 23.6711 31.703C23.6441 30.841 23.6451 29.975 23.5711 29.116C23.3611 26.788 23.1162 24.463 22.8852 22.137C22.6778 20.0537 22.4704 17.97 22.2631 15.886C22.1521 14.762 22.0161 13.638 21.9501 12.511C21.9484 12.2787 21.9935 12.0483 22.0828 11.8337C22.1721 11.6192 22.3036 11.4249 22.4696 11.2623C22.6357 11.0997 22.8329 10.9722 23.0492 10.8875C23.2656 10.8027 23.4969 10.7625 23.7292 10.769C23.9722 10.767 24.2282 10.777 24.5572 10.777ZM3.27116 23.821H3.69206C3.95806 23.821 4.2241 23.811 4.4921 23.827C4.65064 23.8183 4.80614 23.8727 4.9246 23.9785C5.04306 24.0842 5.11478 24.2326 5.12406 24.3911C5.11998 24.4695 5.10051 24.5462 5.06657 24.617C5.03262 24.6878 4.98489 24.7511 4.92631 24.8034C4.86772 24.8557 4.79945 24.8958 4.72526 24.9215C4.65107 24.9472 4.57241 24.9579 4.49406 24.953C4.33806 24.963 4.18011 24.953 4.02311 24.953C2.79011 24.953 2.79012 24.953 2.13712 25.914L2.08012 25.999C1.50183 26.8332 1.21121 27.8331 1.25236 28.8472C1.2935 29.8614 1.66419 30.8345 2.30814 31.619C2.65361 32.0402 3.09156 32.3761 3.58793 32.6005C4.0843 32.825 4.62566 32.9319 5.17008 32.913C8.11408 32.867 11.0601 32.8921 14.0041 32.9041C14.5078 32.912 15.0047 32.7864 15.4441 32.54C16.1971 32.1483 16.8009 31.5206 17.1631 30.7531C17.6031 29.8484 17.7486 28.8287 17.5795 27.8371C17.4104 26.8455 16.9351 25.9317 16.2201 25.224C16.1434 25.1297 16.0451 25.0553 15.9335 25.0069C15.822 24.9585 15.7004 24.9377 15.5791 24.946C13.0321 24.956 10.4861 24.952 7.93913 24.951C7.7946 24.9551 7.64997 24.9497 7.50614 24.935C7.37123 24.9294 7.24323 24.8736 7.14738 24.7785C7.05153 24.6834 6.9947 24.5559 6.98808 24.421C6.97706 24.2815 7.02068 24.1432 7.10966 24.0352C7.19864 23.9271 7.32609 23.8579 7.46513 23.842C7.60796 23.8195 7.75261 23.8105 7.89713 23.815C10.3231 23.815 12.7491 23.815 15.1751 23.815H15.6331C15.6331 23.302 15.6331 22.828 15.6331 22.355C15.6331 21.719 15.4441 21.545 14.7531 21.545H4.14408C4.03563 21.5407 3.92704 21.5443 3.81913 21.556C3.50913 21.603 3.29307 21.773 3.28007 22.056C3.25407 22.637 3.27116 23.21 3.27116 23.821ZM31.1361 29.486L32.5921 14.78H23.3921C23.8791 19.7 24.3642 24.59 24.8492 29.486H31.1361ZM32.7011 13.61C32.7351 13.297 32.7751 13.01 32.7961 12.729C32.8421 12.104 32.6392 11.908 31.9532 11.908H24.0291C23.9209 11.9031 23.8126 11.9072 23.7051 11.92C23.4151 11.969 23.1891 12.127 23.1841 12.396C23.1751 12.796 23.2361 13.203 23.2671 13.61H32.7011ZM24.9012 30.656C24.9012 31.244 24.8912 31.797 24.9012 32.349C24.9025 32.4251 24.9192 32.5003 24.9505 32.5697C24.9817 32.6391 25.0268 32.7015 25.0829 32.7529C25.1391 32.8044 25.2051 32.8439 25.277 32.869C25.3489 32.8941 25.4252 32.9044 25.5011 32.899C27.1525 32.9084 28.8038 32.9084 30.4551 32.899C30.5256 32.9081 30.5972 32.9028 30.6656 32.8836C30.734 32.8644 30.7978 32.8315 30.8532 32.7871C30.9086 32.7427 30.9545 32.6876 30.9882 32.625C31.0219 32.5624 31.0426 32.4938 31.0491 32.423C31.0791 31.841 31.0581 31.257 31.0581 30.657L24.9012 30.656ZM16.5522 2.26501H20.2051C20.2901 2.26501 20.3742 2.26501 20.4582 2.26501C20.9052 2.25901 21.1951 2.03205 21.1881 1.69305C21.1811 1.35405 20.8931 1.13406 20.4401 1.13306C17.8601 1.13306 15.2801 1.13306 12.7001 1.13306C12.2001 1.13306 11.9311 1.33305 11.9261 1.69305C11.9211 2.05305 12.1921 2.26401 12.7181 2.26501C13.9987 2.26568 15.2785 2.26568 16.5572 2.26501H16.5522ZM16.8671 7.73102C18.4782 7.26726 20.1871 7.26552 21.7991 7.72601C21.7991 7.40801 21.8041 7.12603 21.7991 6.84003C21.8004 6.68307 21.7696 6.5275 21.7088 6.38281C21.6479 6.23812 21.5583 6.10732 21.4452 5.99841C21.3322 5.8895 21.1982 5.80476 21.0513 5.74933C20.9045 5.6939 20.7479 5.66896 20.5911 5.67603C19.7478 5.65203 18.9038 5.65203 18.0591 5.67603C17.771 5.66771 17.4901 5.76678 17.2709 5.95398C17.0517 6.14118 16.9099 6.40315 16.8731 6.68903C16.8491 7.01903 16.8711 7.35202 16.8711 7.73102H16.8671ZM19.9372 3.422H18.7371V4.50806H19.9372V3.422Z" fill="white"/>
</svg>
