<svg width="40" height="40" viewBox="0 0 40 40" fill="none" xmlns="http://www.w3.org/2000/svg">
<path d="M4.83998 40C3.93995 39.7857 3.09936 39.3723 2.38014 38.7903C1.66092 38.2084 1.08135 37.4725 0.683974 36.637C0.157919 35.5654 -0.0710347 34.3721 0.0211324 33.1819C0.113299 31.9916 0.523137 30.8479 1.2079 29.87C1.4859 29.436 1.86589 29.057 2.17689 28.639C2.28899 28.5004 2.35854 28.3323 2.37697 28.155C2.39897 27.466 2.37695 26.776 2.38795 26.086C2.38839 25.7952 2.4492 25.5077 2.56654 25.2417C2.68389 24.9757 2.85517 24.7369 3.06959 24.5405C3.28402 24.3441 3.53697 24.1945 3.81227 24.1009C4.08757 24.0073 4.37928 23.9719 4.66896 23.997C7.34896 23.989 10.0279 23.997 12.7079 23.997H13.282V23.567C13.282 21.576 13.269 19.585 13.282 17.594C13.2595 15.9658 13.7016 14.3649 14.5565 12.9789C15.4115 11.593 16.6437 10.4795 18.1089 9.76898C18.1783 9.72121 18.2367 9.65908 18.28 9.58679C18.3233 9.5145 18.3506 9.43372 18.36 9.34998C18.393 8.90998 18.3679 8.46601 18.3729 8.02301C18.3791 7.46781 18.5606 6.92877 18.8914 6.48285C19.2222 6.03692 19.6854 5.70689 20.215 5.53998C20.46 5.45098 20.576 5.34899 20.558 5.09399C20.532 4.74699 20.5519 4.39402 20.5519 3.99402H20.059C18.372 3.99402 16.684 3.96103 14.997 4.00403C14.467 4.06778 13.9319 3.93737 13.4906 3.63696C13.0494 3.33655 12.7319 2.88645 12.5969 2.37C12.3909 1.315 12.991 0.470002 14.231 0.052002C14.254 0.044002 14.27 0.018 14.289 0H24.589C24.705 0.043 24.822 0.0869907 24.939 0.127991C25.2892 0.217027 25.6062 0.404953 25.8526 0.669312C26.0989 0.93367 26.264 1.2633 26.3281 1.6189C26.3922 1.97449 26.3526 2.34102 26.2141 2.67474C26.0756 3.00847 25.8439 3.29527 25.5469 3.50098C25.3096 3.62581 25.1193 3.82446 25.0048 4.06689C24.8902 4.30933 24.8577 4.58245 24.912 4.84503C24.9239 4.93564 24.9239 5.02737 24.912 5.11798C24.876 5.35098 24.992 5.44801 25.226 5.53601C25.7534 5.69202 26.2172 6.01251 26.5497 6.45074C26.8821 6.88898 27.0659 7.42198 27.074 7.97198C27.092 8.41399 27.097 8.85801 27.074 9.29901C27.0624 9.41011 27.0893 9.52184 27.1503 9.61542C27.2113 9.709 27.3026 9.77873 27.4089 9.81299C28.615 10.4084 29.6583 11.288 30.449 12.376C30.5157 12.4769 30.609 12.5575 30.7185 12.6088C30.8281 12.6602 30.9497 12.6803 31.07 12.667C33.2966 12.6583 35.5237 12.6583 37.751 12.667C38.2411 12.6296 38.7288 12.7642 39.1304 13.0477C39.5319 13.3311 39.8221 13.7457 39.9509 14.22C40.0109 14.6178 40.0109 15.0222 39.9509 15.42C39.7169 17.869 39.468 20.32 39.225 22.767C38.986 25.177 38.7409 27.587 38.5149 29.997C38.1661 32.6038 37.9815 35.23 37.9619 37.86C37.9976 38.3449 37.8516 38.8257 37.5524 39.2089C37.2531 39.592 36.822 39.8501 36.3429 39.933C36.3065 39.9503 36.2728 39.9729 36.2429 40H4.83998ZM28.861 12.666C28.728 12.514 28.661 12.43 28.59 12.357C27.6544 11.4214 26.5038 10.7292 25.2389 10.341C23.974 9.95278 22.6334 9.88035 21.334 10.13C19.5404 10.3398 17.8836 11.1922 16.6702 12.5295C15.4568 13.8669 14.7688 15.5985 14.7339 17.404C14.7159 19.473 14.7339 21.543 14.7339 23.613C14.7339 23.727 14.748 23.84 14.757 23.969C14.857 23.979 14.9439 23.993 15.0259 23.993C15.8909 23.993 16.756 23.983 17.626 23.993C17.9054 23.9783 18.1849 24.0199 18.4479 24.1152C18.7109 24.2105 18.9521 24.3576 19.1572 24.5479C19.3624 24.7381 19.5272 24.9676 19.6421 25.2227C19.757 25.4778 19.8195 25.7533 19.8259 26.033C19.8339 26.723 19.8119 27.413 19.8379 28.102C19.858 28.3036 19.9343 28.4956 20.058 28.656C20.364 29.078 20.737 29.456 21.023 29.89C21.9298 31.1975 22.3376 32.7868 22.1725 34.3694C22.0074 35.952 21.2802 37.4229 20.1229 38.515C20.0931 38.5534 20.0695 38.5963 20.053 38.642H27.8209C27.8209 38.167 27.8319 37.715 27.8209 37.262C27.7899 36.249 27.79 35.232 27.699 34.222C27.452 31.486 27.164 28.754 26.893 26.022C26.649 23.5733 26.4053 21.1247 26.162 18.676C26.031 17.355 25.872 16.034 25.794 14.71C25.792 14.437 25.845 14.1664 25.9498 13.9143C26.0547 13.6622 26.2093 13.4338 26.4043 13.2428C26.5994 13.0518 26.8309 12.902 27.0851 12.8024C27.3393 12.7028 27.611 12.6554 27.8839 12.663C28.1729 12.653 28.471 12.666 28.861 12.666ZM3.84694 27.995H4.34193C4.65393 27.995 4.96697 27.984 5.27797 28.002C5.46429 27.9919 5.64704 28.0559 5.78627 28.1802C5.9255 28.3044 6.0098 28.4787 6.02089 28.665C6.01591 28.757 5.99282 28.8473 5.9529 28.9304C5.91297 29.0135 5.8571 29.0879 5.78834 29.1493C5.71958 29.2107 5.63933 29.2579 5.55226 29.2883C5.4652 29.3186 5.37294 29.3314 5.2809 29.326C5.0979 29.338 4.91192 29.331 4.72792 29.331C3.27992 29.331 3.27998 29.331 2.51198 30.461L2.44496 30.561C1.76653 31.5408 1.42566 32.7151 1.47401 33.9059C1.52237 35.0967 1.95726 36.2394 2.7129 37.161C3.11889 37.6562 3.63372 38.051 4.21718 38.3148C4.80063 38.5786 5.43699 38.7043 6.07692 38.682C9.53692 38.629 12.998 38.657 16.459 38.672C17.0509 38.6812 17.6346 38.5336 18.1509 38.244C19.0356 37.7836 19.7452 37.0459 20.1709 36.144C20.6885 35.0806 20.86 33.8818 20.6613 32.716C20.4625 31.5502 19.9036 30.4759 19.063 29.644C18.9727 29.533 18.8571 29.4454 18.7258 29.3885C18.5946 29.3316 18.4517 29.3071 18.309 29.317C15.316 29.329 12.3229 29.324 9.33095 29.323C9.16107 29.3281 8.99101 29.3221 8.82191 29.305C8.664 29.2985 8.51421 29.2335 8.40163 29.1226C8.28904 29.0117 8.22172 28.8628 8.2129 28.705C8.20017 28.5413 8.25143 28.3789 8.35585 28.2521C8.46027 28.1253 8.60979 28.0439 8.77296 28.025C8.94059 27.9985 9.11029 27.9878 9.27992 27.993C12.1306 27.993 14.9816 27.993 17.8329 27.993H18.372C18.372 27.393 18.372 26.833 18.372 26.277C18.372 25.53 18.1499 25.325 17.3379 25.325H4.87099C4.74351 25.3199 4.61575 25.3243 4.48891 25.338C4.12491 25.393 3.87097 25.593 3.85597 25.928C3.82897 26.603 3.84694 27.277 3.84694 27.995ZM36.5929 34.653C37.1642 28.8797 37.7346 23.119 38.304 17.371H27.4889C28.0619 23.152 28.6319 28.9 29.2009 34.653H36.5929ZM38.433 15.995C38.473 15.627 38.5199 15.295 38.5449 14.96C38.5989 14.225 38.36 13.995 37.554 13.995H28.242C28.1148 13.9892 27.9874 13.994 27.861 14.009C27.521 14.067 27.2549 14.253 27.2479 14.569C27.2379 15.042 27.3089 15.517 27.3479 15.996L38.433 15.995ZM29.2709 36.027C29.2709 36.718 29.2589 37.367 29.2709 38.016C29.2726 38.1054 29.2924 38.1935 29.3292 38.275C29.366 38.3565 29.4191 38.4298 29.485 38.4902C29.5509 38.5506 29.6284 38.5969 29.7128 38.6265C29.7972 38.656 29.8868 38.6681 29.976 38.662C31.9166 38.6733 33.8573 38.6733 35.798 38.662C35.881 38.6728 35.9653 38.6668 36.0459 38.6443C36.1265 38.6218 36.2017 38.5832 36.2671 38.5309C36.3325 38.4787 36.3866 38.4137 36.4263 38.34C36.466 38.2663 36.4903 38.1853 36.4979 38.102C36.5329 37.418 36.5079 36.732 36.5079 36.026L29.2709 36.027ZM19.46 2.66199H23.7529C23.8529 2.66199 23.953 2.66199 24.053 2.66199C24.579 2.65399 24.919 2.38799 24.912 1.98999C24.905 1.59199 24.566 1.33303 24.032 1.33203C21 1.33203 17.9666 1.33203 14.9319 1.33203C14.3469 1.33203 14.032 1.56699 14.022 1.98999C14.016 2.42899 14.3349 2.66199 14.9529 2.66199C16.4542 2.66332 17.9559 2.66369 19.4579 2.66302L19.46 2.66199ZM19.83 9.086C21.7245 8.54013 23.7343 8.53806 25.6299 9.08002C25.6299 8.70602 25.6359 8.37202 25.6299 8.03802C25.6313 7.85355 25.5952 7.67072 25.5237 7.50067C25.4522 7.33063 25.3467 7.17694 25.2139 7.04895C25.081 6.92096 24.9235 6.82131 24.7509 6.75616C24.5783 6.69102 24.3943 6.6617 24.21 6.66998C23.219 6.64198 22.2249 6.64198 21.2339 6.66998C20.8952 6.66026 20.565 6.77679 20.3074 6.99689C20.0498 7.21698 19.8832 7.52497 19.84 7.86102C19.802 8.25302 19.829 8.63998 19.829 9.08698L19.83 9.086ZM23.438 4.02197H22.032V5.29797H23.438V4.02197Z" fill="white"/>
</svg>
