<svg width="20" height="20" viewBox="0 0 20 20" fill="none" xmlns="http://www.w3.org/2000/svg">
<path d="M10 0C8.02219 0 6.08879 0.58649 4.4443 1.6853C2.79981 2.78412 1.51809 4.3459 0.761209 6.17316C0.00433284 8.00042 -0.1937 10.0111 0.192152 11.9509C0.578004 13.8907 1.53041 15.6725 2.92894 17.0711C4.32746 18.4696 6.10929 19.422 8.0491 19.8078C9.98891 20.1937 11.9996 19.9957 13.8268 19.2388C15.6541 18.4819 17.2159 17.2002 18.3147 15.5557C19.4135 13.9112 20 11.9778 20 10C19.9972 7.34869 18.9427 4.80678 17.068 2.93202C15.1932 1.05727 12.6513 0.00279983 10 0ZM7.46443 13.8462H12.5356C12.0192 15.6096 11.1538 17.199 10 18.451C8.84616 17.199 7.98077 15.6096 7.46443 13.8462ZM7.11539 12.3077C6.86026 10.7798 6.86026 9.22019 7.11539 7.69231H12.8846C13.1397 9.22019 13.1397 10.7798 12.8846 12.3077H7.11539ZM1.53847 10C1.5378 9.21965 1.64556 8.44299 1.85866 7.69231H5.55673C5.32725 9.22221 5.32725 10.7778 5.55673 12.3077H1.85866C1.64556 11.557 1.5378 10.7803 1.53847 10ZM12.5356 6.15384H7.46443C7.98077 4.39038 8.84616 2.80096 10 1.54904C11.1538 2.80096 12.0192 4.39038 12.5356 6.15384ZM14.4433 7.69231H18.1413C18.5683 9.20115 18.5683 10.7988 18.1413 12.3077H14.4433C14.6728 10.7778 14.6728 9.22221 14.4433 7.69231ZM17.5356 6.15384H14.1288C13.7363 4.60914 13.077 3.14485 12.1808 1.82692C13.3258 2.13463 14.3938 2.67858 15.316 3.42378C16.2382 4.16898 16.9943 5.09893 17.5356 6.15384ZM7.81923 1.82692C6.92298 3.14485 6.26372 4.60914 5.87116 6.15384H2.46443C3.0057 5.09893 3.76176 4.16898 4.68399 3.42378C5.60621 2.67858 6.67419 2.13463 7.81923 1.82692ZM2.46443 13.8462H5.87116C6.26372 15.3909 6.92298 16.8551 7.81923 18.1731C6.67419 17.8654 5.60621 17.3214 4.68399 16.5762C3.76176 15.831 3.0057 14.9011 2.46443 13.8462ZM12.1808 18.1731C13.077 16.8551 13.7363 15.3909 14.1288 13.8462H17.5356C16.9943 14.9011 16.2382 15.831 15.316 16.5762C14.3938 17.3214 13.3258 17.8654 12.1808 18.1731Z" fill="white"/>
</svg>
