<svg width="23" height="22" viewBox="0 0 23 22" fill="none" xmlns="http://www.w3.org/2000/svg">
<path d="M16.3131 8.544C16.3131 10.036 15.8707 11.4945 15.0418 12.7351C14.2129 13.9757 13.0347 14.9426 11.6563 15.5137C10.2779 16.0847 8.76107 16.2341 7.29771 15.9431C5.83434 15.6521 4.49013 14.9337 3.43504 13.8788C2.37995 12.8238 1.66138 11.4797 1.37018 10.0164C1.07898 8.55305 1.22823 7.03623 1.79907 5.65773C2.3699 4.27923 3.33668 3.10094 4.57715 2.27188C5.81762 1.44281 7.27608 1.0002 8.7681 1C9.75888 0.999869 10.74 1.1949 11.6554 1.57397C12.5708 1.95303 13.4025 2.50869 14.1032 3.20923C14.8038 3.90977 15.3596 4.74146 15.7388 5.65681C16.1179 6.57215 16.3131 7.55322 16.3131 8.544Z" stroke="white" stroke-width="2" stroke-linecap="round" stroke-linejoin="round"/>
<path d="M21.1212 20.8972L14.1492 14.5972" stroke="white" stroke-width="2" stroke-linecap="round" stroke-linejoin="round"/>
</svg>
