<svg width="16" height="16" viewBox="0 0 16 16" fill="none" xmlns="http://www.w3.org/2000/svg">
<path d="M1.77305e-06 16V14H2.75L2.35 13.65C1.53333 12.8333 0.937335 11.9457 0.562002 10.987C0.186668 10.0283 -0.000664894 9.04933 1.77305e-06 8.05C1.77305e-06 6.2 0.554335 4.554 1.663 3.112C2.77167 1.67 4.21734 0.716 6 0.25V2.35C4.8 2.78333 3.83333 3.52067 3.1 4.562C2.36667 5.60333 2 6.766 2 8.05C2 8.8 2.14167 9.52933 2.425 10.238C2.70834 10.9467 3.15 11.6007 3.75 12.2L4 12.45V10H6V16H1.77305e-06ZM10 15.75V13.65C11.2 13.2167 12.1667 12.4793 12.9 11.438C13.6333 10.3967 14 9.234 14 7.95C14 7.2 13.8583 6.471 13.575 5.763C13.2917 5.055 12.85 4.40067 12.25 3.8L12 3.55V6H10V0H16V2H13.25L13.65 2.35C14.4667 3.16667 15.0627 4.05433 15.438 5.013C15.8133 5.97167 16.0007 6.95067 16 7.95C16 9.8 15.4457 11.446 14.337 12.888C13.2283 14.33 11.7827 15.284 10 15.75Z" fill="white"/>
</svg>
