<svg width="30" height="31" viewBox="0 0 30 31" fill="none" xmlns="http://www.w3.org/2000/svg">
<mask id="mask0_254_2415" style="mask-type:luminance" maskUnits="userSpaceOnUse" x="0" y="0" width="30" height="31">
<path d="M30.0006 0.0151978H0.015625V30.0018H30.0006V0.0151978Z" fill="white"/>
</mask>
<g mask="url(#mask0_254_2415)">
<path d="M15.0024 4.73443H17.6519C17.9251 4.70981 18.1983 4.7826 18.423 4.93994C18.6477 5.09727 18.8096 5.32902 18.88 5.59419C19.3367 6.88856 19.7863 8.18529 20.2398 9.48124C20.7131 10.8363 21.1882 12.1914 21.6651 13.5465C22.162 14.9611 22.66 16.3751 23.159 17.7885C23.5282 18.8408 23.8887 19.8953 24.2578 20.9436C24.6317 22.0092 25.0158 23.0733 25.3865 24.1373C25.4521 24.3042 25.4824 24.4827 25.4757 24.6619C25.4546 24.8387 25.3668 25.0009 25.2301 25.1151C25.0935 25.2293 24.9183 25.287 24.7405 25.2763C24.272 25.2803 23.8035 25.2763 23.3349 25.2763H19.8644C19.5838 25.3042 19.3025 25.2311 19.0711 25.07C18.8397 24.9089 18.6735 24.6704 18.6023 24.3976C18.2116 23.3328 17.822 22.2677 17.4334 21.2023C17.4256 21.1674 17.4052 21.1365 17.3761 21.1157C17.347 21.0949 17.3112 21.0856 17.2756 21.0895C15.7728 21.0895 14.2699 21.0895 12.767 21.0895C12.7269 21.0844 12.6864 21.0949 12.6538 21.1189C12.6212 21.1428 12.5991 21.1783 12.5919 21.2181C12.2796 22.0679 11.9641 22.9166 11.6454 23.7642C11.5563 24.0009 11.464 24.2375 11.3709 24.4741C11.2903 24.7201 11.1305 24.9323 10.9164 25.0777C10.7023 25.2232 10.4461 25.2936 10.1878 25.2779C8.58761 25.2779 6.9872 25.2779 5.38653 25.2779C5.19494 25.3023 5.00128 25.2522 4.84564 25.1378C4.69001 25.0234 4.58431 24.8536 4.55044 24.6634C4.53445 24.5139 4.55334 24.3627 4.60565 24.2217C4.8202 23.5797 5.04736 22.9431 5.27137 22.3042C6.88992 17.6878 8.50874 13.0714 10.1278 8.45505C10.4644 7.49486 10.8027 6.53545 11.143 5.57684C11.2164 5.31861 11.3772 5.09387 11.5978 4.94096C11.8185 4.78805 12.0854 4.71645 12.3529 4.73838H15.0024M16.0546 5.62416C16.0588 5.655 16.0649 5.68555 16.0728 5.71566C16.3777 6.58383 16.683 7.45147 16.9885 8.31859C17.2109 8.94961 17.4342 9.58614 17.6495 10.2227C17.6801 10.294 17.6903 10.3725 17.6789 10.4493C17.6676 10.5261 17.6351 10.5982 17.5851 10.6576C17.5351 10.717 17.4696 10.7613 17.3958 10.7856C17.3221 10.81 17.2431 10.8133 17.1676 10.7953C17.0855 10.7794 17.0096 10.7405 16.9489 10.6831C16.8881 10.6257 16.8449 10.5522 16.8244 10.4711C16.4732 9.47992 16.1219 8.4887 15.7707 7.49749C15.5821 6.96034 15.4023 6.41924 15.2185 5.88209C15.1396 5.6636 15.0718 5.61154 14.873 5.61154C14.0291 5.61154 13.1848 5.61154 12.3403 5.61154C12.1084 5.61154 12.0461 5.66123 11.9664 5.88367C11.8292 6.26858 11.6896 6.6535 11.5531 7.03921C11.2902 7.78749 11.0273 8.53603 10.7643 9.28483C10.2674 10.7046 9.77129 12.1244 9.27594 13.5442C8.7309 15.0965 8.18034 16.6472 7.63688 18.1979C7.16836 19.5388 6.70693 20.8742 6.23998 22.2119C6.05856 22.7317 5.86925 23.2484 5.68784 23.7674C5.61764 23.9677 5.5569 24.1705 5.4867 24.3889C5.54902 24.3937 5.59161 24.4 5.63341 24.4C6.15558 24.4 6.67774 24.4016 7.19991 24.4047C7.64635 24.4047 7.65345 24.3984 7.80726 23.9772C7.88061 23.7761 7.94687 23.571 8.03442 23.3762C8.07706 23.2724 8.15916 23.1897 8.26268 23.1464C8.3662 23.1031 8.48269 23.1026 8.58656 23.1451C8.68784 23.1854 8.76931 23.2638 8.81354 23.3634C8.85776 23.4631 8.86123 23.5761 8.82319 23.6783C8.77034 23.8502 8.70014 24.0166 8.63941 24.1862C8.61574 24.2525 8.59524 24.3195 8.56605 24.4047H10.0529C10.5056 24.4047 10.5017 24.4047 10.6571 23.9812C10.9418 23.2042 11.2321 22.4296 11.52 21.6535C11.587 21.4729 11.6533 21.2922 11.7203 21.1077C11.7004 21.1026 11.6801 21.099 11.6596 21.0966C11.0688 21.0966 10.4764 21.0895 9.88881 21.0966C9.86075 21.1024 9.83441 21.1146 9.81183 21.1323C9.78926 21.1499 9.77107 21.1725 9.75867 21.1984C9.68452 21.3727 9.62694 21.5549 9.5599 21.7316C9.54451 21.7886 9.51755 21.8417 9.48071 21.8878C9.44387 21.9339 9.39794 21.972 9.34576 21.9995C9.29359 22.0271 9.2363 22.0436 9.17746 22.0481C9.11862 22.0526 9.05949 22.0449 9.00376 22.0255C8.94802 22.0061 8.89687 21.9755 8.85349 21.9355C8.8101 21.8955 8.77542 21.847 8.7516 21.793C8.72778 21.739 8.71533 21.6807 8.71503 21.6217C8.71473 21.5627 8.72657 21.5042 8.74983 21.45C8.86184 21.1282 8.98647 20.8103 9.10873 20.4924C9.13338 20.4228 9.1765 20.3613 9.23347 20.3143C9.29043 20.2673 9.3591 20.2368 9.43212 20.2258C9.52866 20.2109 9.6263 20.2043 9.72396 20.2061C12.2417 20.2061 14.7595 20.2061 17.2772 20.2061C17.4282 20.1969 17.5797 20.2011 17.73 20.2187C17.8429 20.2385 17.9474 20.2912 18.0305 20.3702C18.1011 20.4628 18.1528 20.5684 18.1827 20.6809C18.6008 21.8136 19.0172 22.9468 19.4321 24.0805C19.537 24.3645 19.5859 24.396 19.8793 24.4C20.431 24.4 20.9831 24.4 21.5358 24.4C21.591 24.3957 21.6461 24.3886 21.7006 24.3787C21.662 24.2754 21.6304 24.1941 21.6012 24.1121C20.8692 22.0213 20.1378 19.9308 19.4069 17.8406C18.9383 16.5036 18.4651 15.169 17.9989 13.8313C17.8325 13.3533 17.6637 12.8753 17.5257 12.3894C17.5079 12.3179 17.5095 12.2429 17.5305 12.1722C17.5514 12.1015 17.5909 12.0377 17.6448 11.9874C17.6987 11.9371 17.7651 11.9022 17.8371 11.8862C17.9091 11.8702 17.984 11.8737 18.0541 11.8964C18.1335 11.9214 18.2049 11.9668 18.2612 12.0282C18.3174 12.0895 18.3564 12.1646 18.3744 12.2459C18.7809 13.4132 19.1876 14.5809 19.5946 15.7488C20.2414 17.5956 20.8895 19.4418 21.5389 21.2875C21.8854 22.275 22.2307 23.2631 22.5746 24.2517C22.584 24.3005 22.6121 24.3438 22.6529 24.3722C22.6937 24.4006 22.744 24.412 22.7931 24.4039C23.305 24.396 23.8185 24.4039 24.3304 24.4039C24.3966 24.4039 24.4621 24.3953 24.5457 24.3897C24.5212 24.3109 24.5031 24.2533 24.4826 24.1949C23.9483 22.6836 23.4154 21.1726 22.8838 19.6619C21.9725 17.0621 21.0617 14.4623 20.1515 11.8625C19.7744 10.7874 19.3935 9.71392 19.018 8.63883C18.697 7.71992 18.3823 6.79864 18.0597 5.87814C17.9705 5.62416 17.9366 5.60523 17.6653 5.60602C17.177 5.60602 16.6896 5.60602 16.2013 5.61154C16.1587 5.61154 16.1153 5.61154 16.0554 5.61785" fill="white"/>
<path d="M16.2414 28.8282C16.232 28.9859 16.2327 29.124 16.2138 29.2588C16.2052 29.3426 16.1684 29.4209 16.1093 29.4808C16.0502 29.5408 15.9724 29.5788 15.8888 29.5886C15.7686 29.6076 15.6469 29.6163 15.5252 29.6146C15.145 29.6146 14.7641 29.6146 14.3839 29.6146C13.9319 29.6146 13.7828 29.4616 13.7828 29.0041C13.7828 28.9512 13.7828 28.8984 13.7828 28.8266H13.6148C10.2089 28.8266 6.80329 28.8266 3.39792 28.8266C3.24805 28.8266 3.21492 28.8755 3.22597 29.0104C3.23859 29.1681 3.23622 29.3259 3.23701 29.4781C3.2452 29.5455 3.23851 29.6138 3.21741 29.6783C3.19632 29.7428 3.16133 29.8018 3.11493 29.8513C3.06852 29.9008 3.01182 29.9395 2.94882 29.9647C2.88583 29.9899 2.81808 30.001 2.75034 29.9971C2.00417 30.0061 1.25773 30.0061 0.511029 29.9971C0.442858 30.0007 0.374729 29.9894 0.311316 29.9641C0.247903 29.9389 0.190707 29.9002 0.143652 29.8507C0.0965975 29.8013 0.0607975 29.7422 0.0387085 29.6777C0.0166196 29.6131 0.00876465 29.5445 0.0156826 29.4765C0.0156826 28.7546 0.0156826 28.0313 0.0156826 27.3066C0.00622981 27.2341 0.013739 27.1603 0.03762 27.0911C0.0615009 27.0219 0.101103 26.9592 0.153312 26.9079C0.205522 26.8566 0.268917 26.8181 0.338514 26.7955C0.408111 26.7728 0.482013 26.7666 0.554411 26.7774C0.758702 26.7774 0.962204 26.7774 1.17596 26.7774V16.2363C1.04422 16.2366 0.912567 16.2298 0.781576 16.2158C0.684613 16.2105 0.593329 16.1684 0.526448 16.098C0.459567 16.0276 0.422159 15.9343 0.421898 15.8372C0.404545 15.5698 0.410066 15.3008 0.410066 15.0326C0.410066 14.796 0.404545 14.5641 0.410066 14.3298C0.417954 13.9355 0.576496 13.784 0.969303 13.784H1.18306V3.23661C0.954316 3.23661 0.731095 3.23661 0.507874 3.23661C0.442264 3.24434 0.375757 3.23727 0.313234 3.21594C0.25071 3.1946 0.193758 3.15954 0.146555 3.11332C0.0993524 3.0671 0.0630975 3.0109 0.0404511 2.94884C0.0178047 2.88678 0.00934152 2.82044 0.0156826 2.75468C0.0156826 2.01797 0.0156826 1.28126 0.0156826 0.54455C0.00848801 0.474132 0.0169968 0.402995 0.0405962 0.336261C0.0641957 0.269526 0.102299 0.208855 0.152162 0.158614C0.202025 0.108374 0.262408 0.069815 0.328962 0.0457134C0.395517 0.0216117 0.466588 0.0125671 0.537058 0.0192308C1.2643 0.0134465 1.99128 0.0134465 2.718 0.0192308C2.78802 0.0110876 2.85898 0.0190131 2.92548 0.0424051C2.99198 0.0657971 3.05227 0.10404 3.10177 0.154228C3.15128 0.204415 3.18869 0.265227 3.21116 0.332041C3.23364 0.398855 3.24059 0.469914 3.23149 0.539817C3.23543 0.748841 3.23149 0.957864 3.23149 1.1874H3.41133C4.12122 1.1874 4.83584 1.1874 5.5481 1.1874C5.64068 1.17643 5.7345 1.19108 5.81934 1.22974C5.90418 1.2684 5.97678 1.3296 6.02925 1.40667C6.06574 1.46333 6.08788 1.52803 6.09376 1.59517C6.09964 1.6623 6.08907 1.72986 6.06297 1.792C6.03687 1.85414 5.99603 1.90898 5.94398 1.95179C5.89193 1.9946 5.83023 2.02408 5.76422 2.03769C5.63979 2.05954 5.5135 2.06905 5.38719 2.06608C4.72384 2.06608 4.06048 2.06608 3.39634 2.06608C3.34901 2.06608 3.3009 2.07082 3.23859 2.07397C3.23859 2.28063 3.23859 2.4794 3.23859 2.67738C3.23859 3.07728 3.08635 3.23661 2.68645 3.23819C2.48768 3.23819 2.29207 3.23819 2.07673 3.23819V13.7801C2.19032 13.7801 2.30074 13.7801 2.41117 13.7801C2.46895 13.7772 2.5267 13.7863 2.58073 13.807C2.63475 13.8277 2.68387 13.8595 2.72492 13.9002C2.76598 13.941 2.79808 13.9899 2.81916 14.0437C2.84024 14.0976 2.84985 14.1553 2.84736 14.2131C2.85603 14.7345 2.8584 15.2574 2.84736 15.7788C2.84876 15.8407 2.83735 15.9021 2.81387 15.9593C2.79038 16.0166 2.75531 16.0683 2.71087 16.1114C2.66643 16.1544 2.61358 16.1878 2.55562 16.2094C2.49767 16.231 2.43587 16.2405 2.3741 16.2371C2.27708 16.2426 2.18006 16.2371 2.07121 16.2371C2.06648 16.2836 2.05938 16.3199 2.05938 16.357C2.05938 19.7429 2.05938 23.1291 2.05938 26.5155C2.05938 26.7845 2.05938 26.7845 2.32441 26.7845C2.44114 26.7845 2.56104 26.7845 2.67541 26.7845C3.05559 26.7845 3.22281 26.9493 3.22754 27.3256C3.22754 27.4833 3.23622 27.6411 3.22754 27.7933C3.21808 27.9172 3.24569 27.9605 3.3853 27.9597C6.69339 27.9555 10.0015 27.9555 13.3096 27.9597C13.4265 27.9538 13.5436 27.9538 13.6606 27.9597C13.7734 27.9716 13.7884 27.925 13.7868 27.8272C13.7805 27.294 13.9146 27.1639 14.4517 27.1662C14.8563 27.1662 15.2618 27.1662 15.6664 27.1662C16.071 27.1662 16.2367 27.3319 16.2351 27.7334C16.2351 27.9566 16.2351 27.959 16.4552 27.9582C18.4071 27.9582 20.3588 27.9582 22.3102 27.9582C22.4159 27.9555 22.5217 27.9637 22.6257 27.9826C22.7168 28.0021 22.7988 28.0515 22.8585 28.123C22.9183 28.1945 22.9524 28.2839 22.9554 28.377C22.9578 28.4705 22.929 28.5622 22.8736 28.6376C22.8182 28.713 22.7393 28.7678 22.6494 28.7935C22.5504 28.8184 22.4486 28.8303 22.3465 28.829C20.3704 28.829 18.3942 28.829 16.4181 28.829H16.2375M2.35043 0.900284H0.897525V2.35241H2.35043V0.900284ZM2.35043 27.6569C1.90399 27.6569 1.46702 27.6608 1.02925 27.6569C0.912511 27.6569 0.878594 27.69 0.880961 27.8044C0.88806 28.2035 0.88806 28.6034 0.880961 29.0025C0.880961 29.0956 0.899891 29.1303 1.00164 29.1287C1.40628 29.124 1.81013 29.1287 2.21477 29.1287C2.25657 29.1287 2.29916 29.1232 2.34649 29.12L2.35043 27.6569ZM1.26509 15.3458H1.9876V14.6572C1.76675 14.6572 1.55851 14.6572 1.35028 14.6572C1.33032 14.6627 1.31209 14.6731 1.29732 14.6876C1.28255 14.7021 1.27173 14.7201 1.26588 14.74C1.25799 14.938 1.26194 15.1344 1.26194 15.3418M14.6568 28.0276C14.6568 28.2469 14.6568 28.4551 14.6568 28.6641C14.6568 28.6941 14.6994 28.7469 14.7238 28.7477C14.9305 28.754 15.1379 28.7477 15.3493 28.7477V28.0236L14.6568 28.0276Z" fill="white"/>
<path d="M16.2376 2.05968C16.2376 2.18431 16.2376 2.2766 16.2376 2.36888C16.2448 2.43264 16.2376 2.49719 16.2168 2.55787C16.1959 2.61854 16.1618 2.67383 16.117 2.71972C16.0722 2.76561 16.0177 2.80097 15.9575 2.82323C15.8974 2.8455 15.833 2.85411 15.7691 2.84845C15.5743 2.84845 15.3786 2.83504 15.1838 2.83504C14.9006 2.83504 14.6183 2.84609 14.3351 2.84687C13.9407 2.84687 13.7759 2.6765 13.7782 2.28212C13.7782 2.21507 13.7782 2.14724 13.7782 2.06757C13.7285 2.06757 13.6867 2.05811 13.6449 2.05811C11.7761 2.05811 9.90748 2.05811 8.03916 2.05811C7.927 2.05987 7.81489 2.05248 7.70393 2.03602C7.60952 2.01905 7.52381 1.97013 7.4612 1.89745C7.39858 1.82478 7.36286 1.73279 7.36003 1.63691C7.35459 1.54087 7.38328 1.44601 7.44101 1.36908C7.49874 1.29215 7.58181 1.23811 7.67554 1.21649C7.77685 1.19698 7.88003 1.18878 7.98315 1.19204C9.85674 1.19204 11.7303 1.19204 13.6039 1.19204H13.7885C13.7885 1.08398 13.7885 0.992482 13.7885 0.900985C13.7809 0.835684 13.788 0.76952 13.8093 0.707317C13.8306 0.645114 13.8654 0.588442 13.9114 0.541433C13.9573 0.494424 14.0132 0.458264 14.0749 0.43559C14.1366 0.412917 14.2026 0.404301 14.2681 0.410372C14.7815 0.394596 15.299 0.396174 15.8164 0.403273C15.8705 0.403376 15.924 0.414129 15.9739 0.434916C16.0238 0.455703 16.0692 0.486119 16.1073 0.524425C16.1455 0.562732 16.1757 0.608179 16.1963 0.658173C16.2169 0.708167 16.2275 0.761728 16.2274 0.815798C16.2368 0.931747 16.2274 1.05243 16.2274 1.17705H26.7834C26.7834 1.07767 26.7834 0.976707 26.7834 0.876533C26.7834 0.77636 26.7834 0.661988 26.7834 0.554716C26.7726 0.481142 26.7792 0.406043 26.8028 0.335509C26.8264 0.264976 26.8662 0.200993 26.9192 0.148751C26.9721 0.096509 27.0366 0.0574775 27.1074 0.034822C27.1783 0.0121664 27.2535 0.00652463 27.3269 0.0183541C27.6882 0.0144103 28.0494 0.0183541 28.4099 0.0183541C28.7561 0.0183541 29.1024 0.0183541 29.4495 0.0183541C29.5233 0.00851744 29.5984 0.0157299 29.669 0.0394377C29.7396 0.0631455 29.8038 0.102718 29.8568 0.155117C29.9097 0.207517 29.9499 0.271349 29.9744 0.341713C29.9988 0.412077 30.0068 0.487101 29.9977 0.561026C29.9977 1.27828 29.9977 1.99553 29.9977 2.71278C30.0051 2.78253 29.997 2.85306 29.9738 2.91926C29.9506 2.98547 29.913 3.0457 29.8637 3.0956C29.8145 3.14549 29.7547 3.18381 29.6888 3.20777C29.6228 3.23174 29.5524 3.24075 29.4826 3.23416C29.3753 3.23416 29.268 3.23416 29.1608 3.23416H28.8366V13.7768C28.966 13.7823 29.0882 13.7768 29.2073 13.795C29.314 13.7987 29.415 13.844 29.4887 13.9212C29.5625 13.9985 29.603 14.1015 29.6017 14.2083C29.6159 14.7494 29.6159 15.2913 29.6088 15.8324C29.6079 15.9292 29.5707 16.0221 29.5045 16.0928C29.4383 16.1635 29.348 16.2068 29.2515 16.2141C29.1174 16.2338 28.9801 16.2315 28.8342 16.2401V26.7828H29.2144C29.3122 26.7828 29.41 26.7781 29.507 26.7828C29.5708 26.7784 29.6348 26.7875 29.6949 26.8096C29.7549 26.8317 29.8095 26.8662 29.8553 26.9109C29.901 26.9556 29.9368 27.0094 29.9602 27.0689C29.9837 27.1284 29.9943 27.1922 29.9914 27.2561C29.9998 28.0122 29.9998 28.7684 29.9914 29.5246C29.9937 29.5878 29.9828 29.6508 29.9592 29.7095C29.9356 29.7682 29.8999 29.8212 29.8544 29.8652C29.8089 29.9092 29.7547 29.9431 29.6953 29.9647C29.6358 29.9863 29.5725 29.9952 29.5094 29.9907C28.7585 29.9997 28.0071 29.9997 27.2551 29.9907C27.1908 29.9944 27.1264 29.9841 27.0664 29.9607C27.0064 29.9373 26.9521 29.9013 26.9072 29.855C26.8623 29.8088 26.8279 29.7535 26.8063 29.6928C26.7847 29.6321 26.7763 29.5675 26.7819 29.5033C26.7763 29.3913 26.7819 29.2793 26.7819 29.1665C26.7819 29.0537 26.7819 28.9527 26.7819 28.8241H24.6711C24.5779 28.834 24.4838 28.8169 24.3999 28.775C24.3161 28.733 24.2459 28.668 24.1979 28.5875C24.1659 28.5329 24.1466 28.4717 24.1415 28.4086C24.1364 28.3455 24.1455 28.2821 24.1683 28.223C24.191 28.1639 24.2267 28.1107 24.2728 28.0673C24.3189 28.0239 24.3741 27.9914 24.4345 27.9723C24.5196 27.9511 24.6071 27.9415 24.6948 27.9439C25.3439 27.9439 25.9923 27.9439 26.6415 27.9439C26.7471 27.9439 26.789 27.9242 26.7819 27.8074C26.7727 27.6272 26.7727 27.4466 26.7819 27.2663C26.7759 27.1987 26.7851 27.1306 26.8087 27.0669C26.8324 27.0033 26.8698 26.9457 26.9184 26.8983C26.967 26.8509 27.0256 26.8149 27.0898 26.7928C27.154 26.7708 27.2224 26.7634 27.2898 26.771C27.4704 26.771 27.6511 26.7655 27.8309 26.771C27.9295 26.7749 27.9548 26.7434 27.954 26.6471C27.954 25.8229 27.954 24.9978 27.954 24.1736C27.954 21.5727 27.954 18.9722 27.954 16.3719C27.954 16.2528 27.9279 16.1983 27.8017 16.2196C27.7493 16.2247 27.6964 16.2247 27.644 16.2196C27.5825 16.2248 27.5207 16.2169 27.4625 16.1964C27.4044 16.176 27.3512 16.1435 27.3065 16.101C27.2618 16.0585 27.2266 16.0071 27.2032 15.9501C27.1798 15.893 27.1687 15.8317 27.1707 15.77C27.1602 15.2389 27.1623 14.7073 27.177 14.1752C27.1777 14.1172 27.1905 14.06 27.2145 14.0073C27.2385 13.9546 27.2733 13.9074 27.3165 13.8689C27.3598 13.8304 27.4107 13.8013 27.4658 13.7836C27.521 13.7658 27.5792 13.7597 27.6369 13.7658C27.9587 13.7579 27.9524 13.7579 27.9524 13.4329C27.9524 10.0907 27.9524 6.74838 27.9524 3.40611C27.9524 3.21444 27.9524 3.21444 27.7654 3.21681C27.6077 3.21681 27.4499 3.22154 27.2969 3.21681C27.2283 3.22531 27.1587 3.21827 27.0932 3.19621C27.0278 3.17416 26.9681 3.13765 26.9186 3.0894C26.8691 3.04115 26.8312 2.98238 26.8075 2.91746C26.7838 2.85254 26.7751 2.78313 26.7819 2.71436C26.7755 2.53926 26.774 2.36257 26.7819 2.18747C26.7882 2.06994 26.7511 2.03997 26.6344 2.03997C24.5268 2.04417 22.4189 2.04549 20.3108 2.04391H16.52H16.2321M27.6661 0.888365V2.35153H29.1261C29.1261 1.88221 29.1261 1.42157 29.1213 0.960143C29.1213 0.935691 29.0582 0.892309 29.0243 0.89152C28.5763 0.886787 28.1291 0.89152 27.6653 0.89152M27.6653 27.6654V29.1144C27.6865 29.12 27.7081 29.124 27.73 29.1262C28.1638 29.1262 28.5976 29.1262 29.0306 29.1262C29.1269 29.1262 29.1276 29.0766 29.1269 29.0064C29.1269 28.6656 29.1269 28.3241 29.1269 27.981C29.1269 27.876 29.1269 27.7704 29.1269 27.6599L27.6653 27.6654ZM14.6648 1.99185H15.3479V1.27802H14.6648V1.99185ZM28.0289 15.3488H28.7348V14.6634H28.0289V15.3488Z" fill="white"/>
<path d="M13.5802 18.1703H10.6823C10.5994 18.1726 10.5163 18.1695 10.4338 18.1608C10.3635 18.159 10.2947 18.14 10.2334 18.1054C10.1721 18.0709 10.1202 18.0219 10.0821 17.9627C10.0441 17.9036 10.0211 17.836 10.0152 17.7659C10.0093 17.6958 10.0206 17.6253 10.0481 17.5606C10.2295 17.0084 10.4204 16.4563 10.6121 15.9041C11.353 13.7755 12.0955 11.6474 12.8396 9.51986C12.9524 9.19804 13.0644 8.87622 13.1922 8.56072C13.2132 8.4951 13.2504 8.43583 13.3004 8.38836C13.3504 8.34089 13.4114 8.30675 13.4781 8.28907C13.5447 8.2714 13.6147 8.27076 13.6816 8.28722C13.7485 8.30367 13.8102 8.3367 13.861 8.38324C13.9403 8.46666 13.9997 8.56699 14.0346 8.67667C14.3406 9.54431 14.6364 10.412 14.9409 11.2835C15.4541 12.7491 15.9691 14.2141 16.486 15.6786C16.6974 16.2804 16.9144 16.8799 17.121 17.4825C17.2677 17.9116 17.0824 18.1671 16.6241 18.1687C15.7698 18.1687 14.9164 18.1687 14.0622 18.1687H13.5794M11.0554 17.2734C11.1138 17.2782 11.1595 17.2861 11.206 17.2861C11.7227 17.2861 12.2401 17.2719 12.7568 17.2805C12.791 17.2866 12.8261 17.2859 12.86 17.2783C12.8939 17.2707 12.9259 17.2564 12.9543 17.2363C12.9826 17.2162 13.0067 17.1906 13.025 17.1611C13.0434 17.1316 13.0557 17.0987 13.0612 17.0644C13.5345 15.6746 14.0298 14.2903 14.5141 12.9029C14.5388 12.841 14.5438 12.7729 14.5283 12.7081C14.2475 11.8885 13.9604 11.0714 13.6749 10.2542C13.6504 10.1856 13.6236 10.117 13.585 10.0176L11.0562 17.2742M15.0126 14.09L13.9084 17.2711H16.1169L15.0126 14.09Z" fill="white"/>
</g>
</svg>
