<svg width="27" height="31" viewBox="0 0 27 31" fill="none" xmlns="http://www.w3.org/2000/svg">
<path d="M13.2572 31C12.5414 30.7429 12.1469 30.2717 12.2076 29.472C12.213 29.3952 12.0827 29.2845 11.9916 29.2292C10.1032 28.1064 8.21292 26.9871 6.32267 25.8696C5.04822 25.1163 3.7702 24.3648 2.49754 23.6079C2.34582 23.5169 2.24587 23.4865 2.07808 23.6133C1.46406 24.0792 0.610862 23.9096 0.205681 23.2652C-0.1995 22.6208 0.0164774 21.7764 0.701894 21.4247C0.896452 21.3248 0.950001 21.2159 0.950001 21.0106C0.944646 17.3083 0.944646 13.606 0.948216 9.90374C0.948216 9.73059 0.928581 9.61991 0.741163 9.5253C0.0146925 9.16293 -0.211995 8.31501 0.214606 7.65095C0.632281 6.99939 1.48191 6.86015 2.11914 7.33856C2.16733 7.37426 2.21374 7.41175 2.26907 7.45281C3.6399 6.65308 5.00538 5.85515 6.37086 5.05721C8.23255 3.97009 10.0942 2.87939 11.9595 1.79762C12.1416 1.6923 12.2272 1.59591 12.2076 1.35671C12.1505 0.630172 12.7627 0.00538889 13.4928 3.36031e-05C14.2335 -0.00532168 14.8493 0.630172 14.7922 1.3692C14.7761 1.57627 14.8315 1.6691 15.0046 1.76728C18.2014 3.60593 21.3965 5.45171 24.588 7.29929C24.7415 7.38854 24.8486 7.41353 25.0181 7.30643C25.6482 6.90657 26.4568 7.12435 26.8227 7.76698C27.1886 8.40962 26.9691 9.21827 26.3033 9.55743C26.0909 9.66632 26.0516 9.7895 26.0516 10.0001C26.057 13.6632 26.057 17.3244 26.0516 20.9874C26.0516 21.2016 26.0962 21.3212 26.3051 21.4283C26.9798 21.7746 27.1957 22.6011 26.8084 23.2455C26.43 23.8757 25.6196 24.072 24.9913 23.6597C24.8325 23.5544 24.7325 23.5794 24.5915 23.6633C21.3983 25.5305 18.205 27.3959 15.0082 29.256C14.8565 29.3434 14.7815 29.4238 14.7886 29.6237C14.8118 30.3538 14.3906 30.7679 13.7427 30.9982H13.2589L13.2572 31ZM7.25619 15.7124C7.25619 14.6432 7.25084 13.5739 7.26155 12.5046C7.26333 12.3029 7.19372 12.2012 7.02593 12.1048C5.51944 11.2283 4.0076 10.3589 2.52075 9.45033C2.19767 9.25218 2.03346 9.44319 1.83712 9.56993C1.7443 9.63062 1.68718 9.80913 1.68718 9.93409C1.67826 12.7777 1.68004 15.6232 1.68004 18.4668C1.68004 19.3344 1.67469 20.202 1.68718 21.0695C1.68718 21.173 1.76036 21.323 1.84426 21.3694C2.37795 21.6604 2.63141 22.0924 2.60999 22.7029C2.60642 22.8028 2.68496 22.951 2.76885 23.001C5.97282 24.8682 9.18214 26.7247 12.3897 28.583C12.702 28.7633 13.1286 28.5151 13.1286 28.1546C13.1286 26.3802 13.1251 24.604 13.1358 22.8296C13.1358 22.6136 13.0537 22.5101 12.8823 22.4101C11.0777 21.3658 9.27674 20.3126 7.47217 19.2701C7.31152 19.1773 7.24905 19.0791 7.25084 18.8917C7.25976 17.8331 7.25441 16.7746 7.25441 15.7142L7.25619 15.7124ZM25.3162 15.5143C25.3162 13.6685 25.3162 11.8209 25.3162 9.97515C25.3162 9.56457 24.9271 9.34501 24.5665 9.55029C23.0333 10.4232 21.5036 11.2997 19.9667 12.1655C19.7918 12.2636 19.7365 12.3725 19.7383 12.5671C19.7454 14.645 19.7383 16.7246 19.7472 18.8024C19.7472 19.0381 19.6883 19.1791 19.4705 19.3023C17.6784 20.3305 15.8953 21.3748 14.1068 22.4101C13.9622 22.494 13.8587 22.5672 13.8605 22.7707C13.8712 24.5772 13.8658 26.382 13.8676 28.1885C13.8676 28.4991 14.346 28.7686 14.6173 28.6098C17.8105 26.7443 21.0038 24.8753 24.1988 23.0135C24.3631 22.9189 24.4059 22.8136 24.4041 22.6315C24.4005 22.1013 24.5951 21.6568 25.0895 21.4123C25.2769 21.3194 25.3198 21.2123 25.3198 21.0195C25.3126 19.1827 25.3162 17.3476 25.3162 15.5107V15.5143ZM13.8676 5.47849C13.8676 6.36568 13.8747 7.25466 13.8623 8.14185C13.8587 8.35964 13.9194 8.48102 14.1139 8.59348C15.8007 9.56279 17.4821 10.541 19.1599 11.5246C19.317 11.6174 19.433 11.6299 19.5973 11.5335C21.1287 10.6392 22.6674 9.75379 24.2006 8.86482C24.513 8.68452 24.5076 8.14721 24.1935 7.96334C21.0074 6.10327 17.8212 4.24499 14.6351 2.38849C14.3335 2.21355 13.8676 2.49024 13.8676 2.84369C13.8676 3.72196 13.8676 4.59844 13.8676 5.47671V5.47849ZM13.134 5.52669C13.134 4.6395 13.134 3.75052 13.134 2.86333C13.134 2.47596 12.7431 2.24747 12.4075 2.44204C9.21962 4.27534 6.03172 6.11041 2.84382 7.94549C2.49219 8.14721 2.49219 8.5792 2.84204 8.78627C4.37887 9.69132 5.91749 10.5946 7.44896 11.5068C7.61139 11.6032 7.72384 11.5996 7.8827 11.5068C9.56055 10.5232 11.2402 9.54494 12.9252 8.57206C13.0858 8.47924 13.1411 8.3757 13.1393 8.19184C13.1304 7.30464 13.1358 6.41567 13.1358 5.52847L13.134 5.52669ZM19.2046 11.7585C19.0903 11.8227 19.0189 11.8602 18.9493 11.9013C17.2144 12.9081 15.4794 13.9113 13.7498 14.9252C13.5695 15.0305 13.441 15.0341 13.2607 14.9252C11.5561 13.9095 9.84257 12.9045 8.1326 11.8977C8.04156 11.8441 7.94696 11.7924 7.84344 11.7317C7.71135 11.9584 7.59711 12.1583 7.47752 12.3636C7.5632 12.4207 7.62746 12.4689 7.69529 12.51C9.38741 13.5079 11.0777 14.5129 12.7788 15.4947C13.0519 15.6518 13.1393 15.8249 13.1376 16.1319C13.1233 18.1188 13.1304 20.1056 13.1304 22.0924C13.1304 22.2084 13.1304 22.3244 13.1304 22.4333H13.8712V22.0495C13.8712 20.0324 13.8747 18.0152 13.8658 15.9981C13.8658 15.791 13.9247 15.675 14.1086 15.5714C15.8293 14.5825 17.5446 13.5828 19.2599 12.585C19.3616 12.526 19.4616 12.4618 19.5741 12.3922C19.4473 12.1726 19.3331 11.9745 19.2046 11.7549V11.7585Z" fill="white"/>
</svg>
