<svg width="24" height="12" viewBox="0 0 24 12" fill="none" xmlns="http://www.w3.org/2000/svg">
<path d="M17.8598 11.8649C17.7759 11.7783 17.7288 11.6608 17.7288 11.5384C17.7288 11.416 17.7759 11.2986 17.8598 11.2119L22.4705 6.45644L0.447998 6.54308C0.329181 6.54308 0.215233 6.49441 0.131216 6.40776C0.047199 6.32112 -2.71169e-07 6.20361 -2.65813e-07 6.08108C-2.60457e-07 5.95855 0.047199 5.84104 0.131216 5.7544C0.215233 5.66776 0.329181 5.61908 0.447998 5.61908L22.4705 5.53244L17.8598 0.776951C17.7807 0.689372 17.7376 0.573536 17.7397 0.453847C17.7417 0.334158 17.7887 0.219961 17.8708 0.135316C17.9529 0.0506696 18.0636 0.00218349 18.1797 7.17231e-05C18.2957 -0.00204004 18.4081 0.0423874 18.493 0.123995L23.869 5.66796C23.9529 5.75459 24 5.87201 24 5.99444C24 6.11687 23.9529 6.23429 23.869 6.32092L18.493 11.8649C18.409 11.9514 18.2951 12 18.1764 12C18.0577 12 17.9438 11.9514 17.8598 11.8649Z" fill="white"/>
</svg>
