<svg xmlns="http://www.w3.org/2000/svg" xmlns:xlink="http://www.w3.org/1999/xlink" width="80" height="80" viewBox="0 0 80 80">
  <defs>
    <clipPath id="clip-path">
      <rect id="Rectangle_337" data-name="Rectangle 337" width="55.129" height="71.012" fill="none"/>
    </clipPath>
    <clipPath id="clip-path-2">
      <rect id="Rectangle_338" data-name="Rectangle 338" width="48.166" height="62.043" fill="none"/>
    </clipPath>
  </defs>
  <g id="Draft_Icon" data-name="Draft Icon" transform="translate(-0.406 -0.797)">
    <rect id="Rectangle_335" data-name="Rectangle 335" width="80" height="80" transform="translate(0.406 0.797)" fill="none"/>
    <g id="Group_250" data-name="Group 250" transform="translate(12.406 4.797)">
      <g id="Group_249" data-name="Group 249" clip-path="url(#clip-path)">
        <path id="Path_254" data-name="Path 254" d="M0,35.429Q0,22.1,0,8.771A8.445,8.445,0,0,1,4.364,1.1,8.194,8.194,0,0,1,8.705,0Q20.526.011,32.346,0a8.682,8.682,0,0,1,6.406,2.654q6.485,6.5,12.971,13.005a20.494,20.494,0,0,1,1.969,2.224,7.3,7.3,0,0,1,1.4,4.171q.032.9.033,1.8,0,19.222,0,38.444a8.534,8.534,0,0,1-7.122,8.587A7.97,7.97,0,0,1,46.559,71q-19,.009-37.993.012A8.547,8.547,0,0,1,.1,63.605,12.2,12.2,0,0,1,0,62.086q-.01-6.673,0-13.346,0-6.656,0-13.311M30.587,17.036h0q0,3.293,0,6.586c0,1.253.159,1.423,1.411,1.423q6.69,0,13.381,0a3.706,3.706,0,0,0,.381-.011.8.8,0,0,0,.582-1.292,3.461,3.461,0,0,0-.369-.412q-.99-1-1.984-1.986Q38.138,15.5,32.291,9.653c-.336-.336-.677-.659-1.205-.452s-.5.691-.5,1.143q0,3.345,0,6.69" fill="#fff"/>
      </g>
    </g>
    <g id="Group_252" data-name="Group 252" transform="translate(16.407 9.297)">
      <g id="Group_251" data-name="Group 251" clip-path="url(#clip-path-2)">
        <path id="Path_255" data-name="Path 255" d="M0,30.954Q0,19.308,0,7.663A7.378,7.378,0,0,1,3.813.957,7.159,7.159,0,0,1,7.606,0Q17.933.01,28.261,0a7.585,7.585,0,0,1,5.6,2.319Q39.524,8,45.19,13.682a17.906,17.906,0,0,1,1.721,1.943,6.378,6.378,0,0,1,1.222,3.644q.028.787.029,1.574,0,16.794,0,33.588a7.456,7.456,0,0,1-6.222,7.5,6.964,6.964,0,0,1-1.265.1q-16.6.008-33.194.01a7.467,7.467,0,0,1-7.4-6.471A10.661,10.661,0,0,1,0,54.244q-.009-5.83,0-11.66,0-5.815,0-11.63m26.723-16.07h0q0,2.877,0,5.754c0,1.095.139,1.243,1.232,1.243H39.644a3.238,3.238,0,0,0,.333-.01.7.7,0,0,0,.508-1.128,3.024,3.024,0,0,0-.323-.36q-.865-.87-1.734-1.735Q33.321,13.542,28.213,8.434c-.294-.294-.592-.576-1.053-.394s-.435.6-.435,1q0,2.923,0,5.845" fill="#fff"/>
      </g>
    </g>
  </g>
</svg>
