<svg width="30" height="30" viewBox="0 0 30 30" fill="none" xmlns="http://www.w3.org/2000/svg">
<rect width="30" height="30" rx="3" fill="#101010" fill-opacity="0.8"/>
<path d="M22.5625 6.92188H11.5625C11.4257 6.92188 11.2946 6.9762 11.1979 7.0729C11.1012 7.1696 11.0469 7.30075 11.0469 7.4375V11.0469H7.4375C7.30075 11.0469 7.1696 11.1012 7.0729 11.1979C6.9762 11.2946 6.92188 11.4257 6.92188 11.5625V22.5625C6.92188 22.6993 6.9762 22.8304 7.0729 22.9271C7.1696 23.0238 7.30075 23.0781 7.4375 23.0781H18.4375C18.5743 23.0781 18.7054 23.0238 18.8021 22.9271C18.8988 22.8304 18.9531 22.6993 18.9531 22.5625V18.9531H22.5625C22.6993 18.9531 22.8304 18.8988 22.9271 18.8021C23.0238 18.7054 23.0781 18.5743 23.0781 18.4375V7.4375C23.0781 7.30075 23.0238 7.1696 22.9271 7.0729C22.8304 6.9762 22.6993 6.92188 22.5625 6.92188ZM17.9219 22.0469H7.95312V12.0781H17.9219V22.0469ZM22.0469 17.9219H18.9531V11.5625C18.9531 11.4257 18.8988 11.2946 18.8021 11.1979C18.7054 11.1012 18.5743 11.0469 18.4375 11.0469H12.0781V7.95312H22.0469V17.9219Z" fill="white"/>
</svg>
