<svg width="30" height="30" viewBox="0 0 30 30" fill="none" xmlns="http://www.w3.org/2000/svg">
<rect width="30" height="30" rx="3" fill="white" fill-opacity="0.8"/>
<path d="M19.5 14.875H12.75V11.5C12.75 10.9033 12.9871 10.331 13.409 9.90901C13.831 9.48705 14.4033 9.25 15 9.25C15.5967 9.25 16.169 9.48705 16.591 9.90901C17.0129 10.331 17.25 10.9033 17.25 11.5V14.875H18.375V11.5C18.375 10.6049 18.0194 9.74645 17.3865 9.11351C16.7536 8.48058 15.8951 8.125 15 8.125C14.1049 8.125 13.2464 8.48058 12.6135 9.11351C11.9806 9.74645 11.625 10.6049 11.625 11.5V14.875H10.5C10.2016 14.875 9.91548 14.9935 9.7045 15.2045C9.49353 15.4155 9.375 15.7016 9.375 16V22.75C9.375 23.0484 9.49353 23.3345 9.7045 23.5455C9.91548 23.7565 10.2016 23.875 10.5 23.875H19.5C19.7984 23.875 20.0845 23.7565 20.2955 23.5455C20.5065 23.3345 20.625 23.0484 20.625 22.75V16C20.625 15.7016 20.5065 15.4155 20.2955 15.2045C20.0845 14.9935 19.7984 14.875 19.5 14.875ZM19.5 22.75H10.5V16H19.5V22.75Z" fill="black"/>
</svg>
