<svg width="30" height="30" viewBox="0 0 30 30" fill="none" xmlns="http://www.w3.org/2000/svg">
<rect width="30" height="30" rx="3" fill="#101010" fill-opacity="0.8"/>
<path d="M21.6667 9.1665C21.8877 9.1665 22.0996 9.2543 22.2559 9.41058C22.4122 9.56686 22.5 9.77882 22.5 9.99984C22.5 10.2209 22.4122 10.4328 22.2559 10.5891C22.0996 10.7454 21.8877 10.8332 21.6667 10.8332H20.8333L20.8308 10.8923L20.0533 21.7848C20.0234 22.2053 19.8352 22.5988 19.5268 22.8861C19.2183 23.1734 18.8124 23.3332 18.3908 23.3332H11.6083C11.1868 23.3332 10.7809 23.1734 10.4724 22.8861C10.1639 22.5988 9.97576 22.2053 9.94583 21.7848L9.16833 10.8932C9.16707 10.8732 9.16651 10.8532 9.16667 10.8332H8.33333C8.11232 10.8332 7.90036 10.7454 7.74408 10.5891C7.5878 10.4328 7.5 10.2209 7.5 9.99984C7.5 9.77882 7.5878 9.56686 7.74408 9.41058C7.90036 9.2543 8.11232 9.1665 8.33333 9.1665H21.6667ZM19.1642 10.8332H10.8358L11.6092 21.6665H18.3908L19.1642 10.8332ZM16.6667 6.6665C16.8877 6.6665 17.0996 6.7543 17.2559 6.91058C17.4122 7.06686 17.5 7.27882 17.5 7.49984C17.5 7.72085 17.4122 7.93281 17.2559 8.08909C17.0996 8.24537 16.8877 8.33317 16.6667 8.33317H13.3333C13.1123 8.33317 12.9004 8.24537 12.7441 8.08909C12.5878 7.93281 12.5 7.72085 12.5 7.49984C12.5 7.27882 12.5878 7.06686 12.7441 6.91058C12.9004 6.7543 13.1123 6.6665 13.3333 6.6665H16.6667Z" fill="#FF4848"/>
</svg>
