<svg width="30" height="30" viewBox="0 0 30 30" fill="none" xmlns="http://www.w3.org/2000/svg">
<rect width="30" height="30" rx="3" fill="#101010" fill-opacity="0.8"/>
<path d="M16.64 20.06C16.64 20.1608 16.6 20.2574 16.5287 20.3287C16.4574 20.4 16.3608 20.44 16.26 20.44C15.9577 20.44 15.6677 20.3199 15.4539 20.1061C15.2401 19.8923 15.12 19.6023 15.12 19.3V15.5C15.12 15.3992 15.08 15.3026 15.0087 15.2313C14.9374 15.16 14.8408 15.12 14.74 15.12C14.6392 15.12 14.5426 15.08 14.4713 15.0087C14.4 14.9374 14.36 14.8408 14.36 14.74C14.36 14.6392 14.4 14.5426 14.4713 14.4713C14.5426 14.4 14.6392 14.36 14.74 14.36C15.0423 14.36 15.3323 14.4801 15.5461 14.6939C15.7599 14.9077 15.88 15.1977 15.88 15.5V19.3C15.88 19.4008 15.92 19.4974 15.9913 19.5687C16.0626 19.64 16.1592 19.68 16.26 19.68C16.3608 19.68 16.4574 19.72 16.5287 19.7913C16.6 19.8626 16.64 19.9592 16.64 20.06ZM15.12 12.08C15.2703 12.08 15.4173 12.0354 15.5422 11.9519C15.6672 11.8684 15.7646 11.7497 15.8222 11.6108C15.8797 11.472 15.8947 11.3192 15.8654 11.1717C15.8361 11.0243 15.7637 10.8889 15.6574 10.7826C15.5511 10.6763 15.4157 10.6039 15.2683 10.5746C15.1208 10.5453 14.968 10.5603 14.8292 10.6179C14.6903 10.6754 14.5716 10.7728 14.4881 10.8978C14.4046 11.0227 14.36 11.1697 14.36 11.32C14.36 11.5216 14.4401 11.7149 14.5826 11.8574C14.7251 11.9999 14.9184 12.08 15.12 12.08ZM25 15.5C25 17.3789 24.4428 19.2156 23.399 20.7779C22.3551 22.3402 20.8714 23.5578 19.1355 24.2769C17.3996 24.9959 15.4895 25.184 13.6466 24.8175C11.8038 24.4509 10.1111 23.5461 8.78249 22.2175C7.45389 20.8889 6.5491 19.1962 6.18254 17.3534C5.81598 15.5105 6.00412 13.6004 6.72315 11.8645C7.44218 10.1286 8.65982 8.64491 10.2221 7.60104C11.7844 6.55717 13.6211 6 15.5 6C18.0187 6.00277 20.4335 7.00454 22.2145 8.78554C23.9955 10.5665 24.9972 12.9813 25 15.5ZM24.24 15.5C24.24 13.7714 23.7274 12.0816 22.767 10.6443C21.8067 9.20703 20.4417 8.0868 18.8447 7.42529C17.2476 6.76378 15.4903 6.5907 13.7949 6.92794C12.0995 7.26517 10.5422 8.09758 9.31989 9.31989C8.09758 10.5422 7.26518 12.0995 6.92794 13.7949C6.59071 15.4903 6.76379 17.2476 7.4253 18.8447C8.08681 20.4417 9.20703 21.8067 10.6443 22.767C12.0816 23.7274 13.7714 24.24 15.5 24.24C17.8172 24.2375 20.0388 23.3159 21.6773 21.6773C23.3159 20.0388 24.2375 17.8172 24.24 15.5Z" fill="white"/>
</svg>
