<svg width="30" height="30" viewBox="0 0 30 30" fill="none" xmlns="http://www.w3.org/2000/svg">
<rect width="30" height="30" rx="3" fill="#101010" fill-opacity="0.8"/>
<path d="M21.25 17.5H16.1437L17.7562 15.8812L16.875 15L13.75 18.125L16.875 21.25L17.7562 20.3688L16.1437 18.75H21.25V23.75H22.5V18.75C22.5 18.4185 22.3683 18.1005 22.1339 17.8661C21.8995 17.6317 21.5815 17.5 21.25 17.5Z" fill="white"/>
<path d="M19.8187 10.8063L15.4437 6.43126C15.3853 6.37333 15.3161 6.32751 15.2399 6.2964C15.1638 6.2653 15.0823 6.24953 15 6.25001H8.75C8.41848 6.25001 8.10054 6.38171 7.86612 6.61613C7.6317 6.85055 7.5 7.16849 7.5 7.50001V22.5C7.5 22.8315 7.6317 23.1495 7.86612 23.3839C8.10054 23.6183 8.41848 23.75 8.75 23.75H13.75V22.5H8.75V7.50001H13.75V11.25C13.75 11.5815 13.8817 11.8995 14.1161 12.1339C14.3505 12.3683 14.6685 12.5 15 12.5H18.75V13.75H20V11.25C20.0005 11.1678 19.9847 11.0862 19.9536 11.0101C19.9225 10.9339 19.8767 10.8647 19.8187 10.8063ZM15 7.75626L18.4937 11.25H15V7.75626Z" fill="white"/>
</svg>
