<svg width="17" height="20" viewBox="0 0 17 20" fill="none" xmlns="http://www.w3.org/2000/svg">
<path d="M11.2763 17.1473C10.5096 18.4752 9.39773 19.3343 7.94064 19.7248C6.48355 20.1152 5.09105 19.9271 3.76314 19.1604C2.43523 18.3937 1.57607 17.2819 1.18564 15.8248C0.795214 14.3677 0.983333 12.9752 1.75 11.6473L7 2.55399C7.55 1.60136 8.36003 0.98169 9.43008 0.694971C10.5001 0.408251 11.5115 0.539891 12.4641 1.08989C13.4167 1.63989 14.0364 2.44992 14.3231 3.51997C14.6098 4.59002 14.4782 5.60136 13.9282 6.55399L9.1782 14.7812C8.8282 15.3875 8.32308 15.779 7.66283 15.9559C7.00259 16.1328 6.36936 16.0463 5.76314 15.6963C5.15692 15.3463 4.76536 14.8412 4.58844 14.1809C4.41153 13.5207 4.49808 12.8875 4.84808 12.2812L9.59808 4.05399L10.8971 4.80399L6.14711 13.0312C6.00545 13.2766 5.96975 13.5304 6.04003 13.7927C6.11031 14.055 6.26801 14.2565 6.51314 14.3973C6.75851 14.5389 7.01234 14.5746 7.27462 14.5043C7.53689 14.4341 7.73841 14.2764 7.87917 14.0312L12.6292 5.80399C12.9792 5.19777 13.0657 4.56454 12.8888 3.9043C12.7119 3.24405 12.3203 2.73893 11.7141 2.38893C11.1079 2.03893 10.4747 1.95239 9.81441 2.1293C9.15416 2.30621 8.64904 2.69777 8.29904 3.30399L3.04904 12.3973C2.49904 13.3499 2.3674 14.3612 2.65412 15.4313C2.94084 16.5013 3.56051 17.3114 4.51314 17.8614C5.46577 18.4114 6.47711 18.543 7.54716 18.2563C8.61722 17.9696 9.42724 17.3499 9.97724 16.3973L15.2272 7.30399L16.5263 8.05399L11.2763 17.1473Z" fill="white"/>
</svg>
