<svg width="21" height="21" viewBox="0 0 21 21" fill="none" xmlns="http://www.w3.org/2000/svg">
<path d="M10.5 0C13.2848 0 15.9555 1.10625 17.9246 3.07538C19.8938 5.04451 21 7.71523 21 10.5C21 13.2848 19.8938 15.9555 17.9246 17.9246C15.9555 19.8938 13.2848 21 10.5 21C7.71523 21 5.04451 19.8938 3.07538 17.9246C1.10625 15.9555 0 13.2848 0 10.5C0 7.71523 1.10625 5.04451 3.07538 3.07538C5.04451 1.10625 7.71523 0 10.5 0ZM10.5 1.3125C9.29348 1.3125 8.09877 1.55014 6.9841 2.01186C5.86942 2.47357 4.85659 3.15032 4.00346 4.00346C3.15032 4.85659 2.47357 5.86942 2.01186 6.9841C1.55014 8.09877 1.3125 9.29348 1.3125 10.5C1.3125 11.7065 1.55014 12.9012 2.01186 14.0159C2.47357 15.1306 3.15032 16.1434 4.00346 16.9965C4.85659 17.8497 5.86942 18.5264 6.9841 18.9881C8.09877 19.4499 9.29348 19.6875 10.5 19.6875C12.9367 19.6875 15.2736 18.7195 16.9965 16.9965C18.7195 15.2736 19.6875 12.9367 19.6875 10.5C19.6875 8.06332 18.7195 5.72645 16.9965 4.00346C15.2736 2.28047 12.9367 1.3125 10.5 1.3125ZM6.76594 13.6854C7.71463 14.6406 8.99318 15.196 10.3388 15.2375C11.6843 15.279 12.9947 14.8034 14.0004 13.9086L14.2341 13.6854C14.3494 13.5683 14.5045 13.4986 14.6686 13.4903C14.8328 13.482 14.9942 13.5356 15.1207 13.6406C15.2473 13.7455 15.3298 13.8941 15.352 14.057C15.3743 14.2199 15.3346 14.3852 15.2408 14.5202L15.1659 14.6121L15.1357 14.6409C14.523 15.2498 13.7964 15.7319 12.9973 16.0599C12.1983 16.3879 11.3424 16.5552 10.4787 16.5524C9.6149 16.5496 8.76015 16.3767 7.96323 16.0436C7.16631 15.7104 6.44281 15.2235 5.83406 14.6108C5.71136 14.4872 5.64277 14.3199 5.64339 14.1458C5.644 13.9716 5.71377 13.8049 5.83734 13.6822C5.96092 13.5595 6.12818 13.4909 6.30232 13.4915C6.47647 13.4921 6.64323 13.5619 6.76594 13.6854ZM13.7812 7.21875C14.1293 7.21875 14.4632 7.35703 14.7093 7.60317C14.9555 7.84931 15.0938 8.18315 15.0938 8.53125C15.0938 8.87935 14.9555 9.21319 14.7093 9.45933C14.4632 9.70547 14.1293 9.84375 13.7812 9.84375C13.4332 9.84375 13.0993 9.70547 12.8532 9.45933C12.607 9.21319 12.4688 8.87935 12.4688 8.53125C12.4688 8.18315 12.607 7.84931 12.8532 7.60317C13.0993 7.35703 13.4332 7.21875 13.7812 7.21875ZM7.21875 7.21875C7.56685 7.21875 7.90069 7.35703 8.14683 7.60317C8.39297 7.84931 8.53125 8.18315 8.53125 8.53125C8.53125 8.87935 8.39297 9.21319 8.14683 9.45933C7.90069 9.70547 7.56685 9.84375 7.21875 9.84375C6.87065 9.84375 6.53681 9.70547 6.29067 9.45933C6.04453 9.21319 5.90625 8.87935 5.90625 8.53125C5.90625 8.18315 6.04453 7.84931 6.29067 7.60317C6.53681 7.35703 6.87065 7.21875 7.21875 7.21875Z" fill="white"/>
</svg>
