<svg width="31" height="30" viewBox="0 0 31 30" fill="none" xmlns="http://www.w3.org/2000/svg">
<path d="M25.3449 13.3554H21.4704V10.9651C21.4704 10.3296 21.5629 9.93307 21.7638 9.68847C21.9461 9.46658 22.3134 9.26024 23.1606 9.26024H25.4986H25.9986V8.76024V4.71047V4.26205L25.5528 4.21342C24.4023 4.08789 23.2459 4.02682 22.0888 4.03048C20.2986 4.03064 18.7408 4.59322 17.6305 5.71882C16.5199 6.84461 15.9114 8.47822 15.9114 10.5151V13.3554H12.5957H12.0957V13.8554V18.3822V18.8822H12.5957H15.91V29.499H2.50635C1.90166 29.499 1.39111 28.9937 1.39111 28.3431V1.65664C1.39111 1.00604 1.90166 0.500732 2.50635 0.500732H28.5374C29.1421 0.500732 29.6526 1.00604 29.6526 1.65664V28.3431C29.6526 28.9937 29.1421 29.499 28.5374 29.499H21.4718V18.8822H24.7758H25.2169L25.2719 18.4446L25.841 13.9178L25.9117 13.3554H25.3449Z" stroke="white"/>
</svg>
