<svg width="30" height="30" viewBox="0 0 30 30" fill="none" xmlns="http://www.w3.org/2000/svg">
<path d="M5.41664 29.2119C6.35009 29.5808 7.41229 29.8358 8.96901 29.9108C9.31616 29.9279 9.6634 29.9429 10.0107 29.9558L5.41664 29.2119ZM5.41664 29.2119C4.44031 28.8359 3.55595 28.2456 2.82552 27.4824M5.41664 29.2119L2.82552 27.4824M2.82552 27.4824C2.08088 26.7329 1.50469 25.8258 1.13713 24.8245M2.82552 27.4824L1.13713 24.8245M1.13713 24.8245C0.775745 23.869 0.529947 22.7801 0.456793 21.1841C0.440499 20.8282 0.425868 20.4722 0.412901 20.1162L0.405585 19.8252C0.378611 18.7309 0.366418 17.6364 0.369008 16.5418M1.13713 24.8245L0.369008 16.5418M0.369008 16.5418V13.4579M0.369008 16.5418V13.4579M0.369008 13.4579C0.364925 12.3638 0.375655 11.2698 0.401196 10.176L0.411438 9.88501M0.369008 13.4579L0.411438 9.88501M0.411438 9.88501C0.423142 9.54902 0.437773 9.21603 0.45533 8.81705C0.528484 7.2196 0.774282 6.13214 1.13566 5.17517M0.411438 9.88501L1.13566 5.17517M1.13566 5.17517C1.50344 4.17413 2.08076 3.2679 2.82699 2.52026M1.13566 5.17517L2.82699 2.52026M2.82699 2.52026C3.55691 1.75641 4.44071 1.16517 5.41664 0.787819M2.82699 2.52026L5.41664 0.787819M5.41664 0.787819C6.35009 0.417332 7.41083 0.16534 8.96901 0.0903425L5.41664 0.787819ZM16.5036 0.50185L16.5059 0.501842C17.5677 0.497664 18.6296 0.508591 19.6912 0.534618L19.9719 0.545002L19.9721 0.545009C20.2873 0.556551 20.5987 0.570901 20.9744 0.588211L21.0081 0.589763C21.0082 0.589772 21.0084 0.58978 21.0086 0.589788C22.5171 0.662506 23.524 0.904868 24.3983 1.25245L24.3995 1.25293C25.3018 1.60893 26.0552 2.08623 26.8177 2.86789L26.8177 2.8679L26.8207 2.87099C27.5134 3.56885 28.0503 4.41382 28.3932 5.34755L28.3932 5.34756L28.3949 5.35205C28.7351 6.25164 28.9722 7.289 29.0434 8.83903C29.0609 9.23794 29.0754 9.56827 29.087 9.90114C29.087 9.90156 29.0871 9.90199 29.0871 9.90242L29.0957 10.1879C29.0957 10.1884 29.0957 10.189 29.0957 10.1895C29.1216 11.2782 29.1328 12.3673 29.1292 13.4563L29.1292 13.4585L29.1307 14.5769V14.5775L29.1307 16.5418L29.1307 16.5434C29.1343 17.633 29.1231 18.7225 29.0972 19.8117C29.0972 19.8122 29.0972 19.8128 29.0972 19.8133L29.0885 20.0988C29.0885 20.0992 29.0885 20.0996 29.0885 20.1C29.0772 20.423 29.0632 20.7422 29.0464 21.1268L29.0449 21.1612C29.0449 21.1613 29.0449 21.1613 29.0449 21.1613C28.9738 22.7108 28.734 23.7473 28.3946 24.6482L28.393 24.6528C28.0513 25.5872 27.5144 26.4325 26.8211 27.1299L26.821 27.1298L26.8148 27.1362C26.1334 27.8464 25.3103 28.3952 24.403 28.7454L24.403 28.7454L24.3983 28.7472C23.5239 29.0948 22.5168 29.3372 21.0081 29.4099L20.9734 29.4115C20.5987 29.4288 20.2879 29.4431 19.9734 29.4546C19.973 29.4546 19.9726 29.4546 19.9721 29.4547L19.6941 29.4635C19.6935 29.4635 19.693 29.4635 19.6924 29.4635C18.6304 29.49 17.568 29.5015 16.5056 29.4978L16.5032 29.4978L15.4124 29.4993H15.4117L13.4973 29.4993L13.4955 29.4993C12.4331 29.503 11.3707 29.4916 10.3086 29.465C10.3081 29.465 10.3076 29.465 10.3071 29.465L10.0293 29.4562C10.0289 29.4562 10.0284 29.4561 10.028 29.4561C9.68311 29.4433 9.33831 29.4284 8.99359 29.4114L8.99307 29.4114C7.48529 29.3388 6.47773 29.0937 5.60046 28.7468L5.59632 28.7453C4.68935 28.396 3.86681 27.8473 3.18675 27.1367L3.18681 27.1366L3.18024 27.13C2.48683 26.4321 1.9495 25.5866 1.6065 24.6522L1.60652 24.6522L1.60479 24.6476C1.26446 23.7478 1.02734 22.7117 0.95627 21.1613C0.94009 20.8078 0.925557 20.4543 0.912672 20.1008L0.905434 19.8129C0.905433 19.8128 0.905432 19.8128 0.905431 19.8127C0.90543 19.8127 0.905429 19.8126 0.905428 19.8126C0.878569 18.723 0.866427 17.633 0.869008 16.543V16.5418L0.869012 13.4579L0.869005 13.456C0.864942 12.3675 0.875605 11.2789 0.900991 10.1906L0.911128 9.9026L0.911135 9.90242C0.922741 9.56924 0.93726 9.23869 0.954828 8.83946C1.02592 7.28789 1.263 6.25328 1.60342 5.35181L1.60344 5.35182L1.60499 5.3476C1.94807 4.41379 2.48626 3.56941 3.18088 2.87348L3.18096 2.87356L3.18848 2.8657C3.86814 2.15444 4.69026 1.60475 5.59696 1.25417L5.59697 1.25419L5.6011 1.25255C6.47703 0.904891 7.4824 0.662578 8.99183 0.589823C8.99224 0.589804 8.99264 0.589784 8.99305 0.589764L10.0281 0.545059L10.3075 0.537677C10.3076 0.537675 10.3076 0.537673 10.3077 0.537672C10.3077 0.537671 10.3078 0.537671 10.3078 0.53767C11.3698 0.510157 12.4322 0.497714 13.4946 0.500345L13.4955 0.500346L16.5036 0.50185ZM12.2556 12.1671C12.9381 11.4674 13.8455 11.0562 14.7998 11.0054L15.0093 11.0014C15.5241 10.9917 16.036 11.0872 16.5151 11.2827C16.9942 11.4783 17.4314 11.77 17.8007 12.1417C18.1701 12.5134 18.4641 12.9575 18.6651 13.4484C18.8661 13.9393 18.9699 14.4668 18.9699 14.9999C18.97 15.533 18.8665 16.0606 18.6656 16.5515C18.4648 17.0425 18.1709 17.4867 17.8016 17.8585C17.4324 18.2303 16.9954 18.5222 16.5163 18.7179C16.0373 18.9136 15.5254 19.0093 15.0106 18.9998L15.0106 18.9997H15.0013C13.9739 18.9997 12.9859 18.5814 12.2556 17.8326C11.5248 17.0834 11.1121 16.0646 11.1121 14.9998C11.1121 13.9351 11.5248 12.9163 12.2556 12.1671ZM22.6605 9.49812L22.6708 9.49854H22.681C23.3027 9.49854 23.8964 9.24522 24.3321 8.79851C24.7675 8.35222 25.0099 7.74952 25.0099 7.1236C25.0099 6.49769 24.7675 5.89498 24.3321 5.4487L23.9742 5.79782L24.3321 5.4487C23.8964 5.00198 23.3027 4.74867 22.681 4.74867H22.181V4.82319C21.7596 4.93232 21.374 5.16035 21.0705 5.4842C20.6553 5.9273 20.4253 6.5155 20.4253 7.1251C20.4253 7.73471 20.6553 8.32291 21.0705 8.76601C21.4861 9.20949 22.0556 9.4733 22.6605 9.49812ZM15.0035 7.00159C13.9674 6.98706 12.9391 7.18355 11.9783 7.57937C11.0164 7.97563 10.1418 8.5636 9.40486 9.30845C8.668 10.0533 8.08353 10.9401 7.68482 11.9172C7.28613 12.8942 7.08097 13.9422 7.08097 15.0006C7.08097 16.0589 7.28613 17.107 7.68482 18.084C8.08353 19.061 8.668 19.9479 9.40486 20.6927C10.1418 21.4376 11.0164 22.0255 11.9783 22.4218C12.9391 22.8176 13.9673 23.0141 15.0034 22.9996C17.079 22.9986 19.0667 22.1528 20.5305 20.6521C21.9948 19.1509 22.8153 17.1175 22.8153 14.9998C22.8153 12.8821 21.9948 10.8487 20.5305 9.34759C19.0666 7.84671 17.0787 7.00257 15.0035 7.00159Z" stroke="white"/>
</svg>
