<svg width="32" height="24" viewBox="0 0 32 24" fill="none" xmlns="http://www.w3.org/2000/svg">
<path d="M21.4794 3.63438C22.9134 2.19438 25.0114 2.16438 26.1724 3.33038C27.3364 4.49838 27.3054 6.61038 25.8694 8.05038L23.4464 10.4834C23.31 10.625 23.2347 10.8146 23.2366 11.0112C23.2386 11.2079 23.3178 11.3959 23.457 11.5348C23.5963 11.6736 23.7845 11.7522 23.9812 11.7537C24.1778 11.7551 24.3672 11.6792 24.5084 11.5424L26.9324 9.10938C28.8434 7.19038 29.0834 4.12738 27.2354 2.27138C25.3854 0.414382 22.3284 0.656382 20.4154 2.57538L15.5694 7.44238C13.6584 9.36138 13.4184 12.4244 15.2664 14.2794C15.3355 14.3512 15.4181 14.4085 15.5095 14.448C15.6009 14.4875 15.6992 14.5084 15.7988 14.5095C15.8984 14.5106 15.9972 14.4918 16.0894 14.4543C16.1817 14.4168 16.2655 14.3614 16.3361 14.2911C16.4067 14.2209 16.4626 14.1373 16.5005 14.0452C16.5384 13.9531 16.5577 13.8544 16.557 13.7548C16.5564 13.6553 16.536 13.5568 16.4969 13.4652C16.4578 13.3736 16.4009 13.2907 16.3294 13.2214C15.1654 12.0534 15.1974 9.94138 16.6324 8.50138L21.4794 3.63438Z" fill="black"/>
<path d="M20.2355 9.22035C20.0949 9.07939 19.9041 9.00004 19.705 8.99976C19.5059 8.99948 19.3149 9.07829 19.174 9.21885C19.033 9.35942 18.9536 9.55022 18.9534 9.74929C18.9531 9.94836 19.0319 10.1394 19.1725 10.2804C20.3365 11.4484 20.3055 13.5594 18.8695 15.0004L14.0225 19.8664C12.5875 21.3064 10.4895 21.3364 9.32846 20.1704C8.16446 19.0024 8.19646 16.8904 9.63146 15.4504L12.0555 13.0174C12.125 12.9476 12.1801 12.8647 12.2176 12.7736C12.2552 12.6826 12.2744 12.585 12.2742 12.4864C12.274 12.3879 12.2544 12.2904 12.2165 12.1994C12.1787 12.1085 12.1233 12.0259 12.0535 11.9564C11.9837 11.8868 11.9009 11.8317 11.8098 11.7942C11.7187 11.7566 11.6211 11.7374 11.5225 11.7376C11.424 11.7378 11.3265 11.7574 11.2355 11.7953C11.1446 11.8331 11.062 11.8886 10.9925 11.9584L8.56846 14.3914C6.65746 16.3114 6.41746 19.3734 8.26546 21.2294C10.1155 23.0874 13.1725 22.8443 15.0855 20.9254L19.9325 16.0584C21.8435 14.1404 22.0835 11.0754 20.2355 9.22035Z" fill="black"/>
</svg>
