<svg width="44" height="31" viewBox="0 0 44 31" fill="none" xmlns="http://www.w3.org/2000/svg">
<path d="M0 0V2.81818H26.125V23.9545H17.6605C17.0473 21.5323 14.9215 19.7273 12.375 19.7273C9.8285 19.7273 7.70275 21.5323 7.0895 23.9545H5.5V16.9091H2.75V26.7727H7.0895C7.70275 29.195 9.8285 31 12.375 31C14.9215 31 17.0473 29.195 17.6605 26.7727H29.0895C29.7027 29.195 31.8285 31 34.375 31C36.9215 31 39.0472 29.195 39.6605 26.7727H44V15.2802L43.9134 15.059L41.1634 6.60441L40.865 5.63636H28.875V0H0ZM1.375 5.63636V8.45455H13.75V5.63636H1.375ZM28.875 8.45455H38.8864L41.25 15.6761V23.9545H39.6605C39.0472 21.5323 36.9215 19.7273 34.375 19.7273C31.8285 19.7273 29.7027 21.5323 29.0895 23.9545H28.875V8.45455ZM2.75 11.2727V14.0909H11V11.2727H2.75ZM12.375 22.5455C13.9109 22.5455 15.125 23.7897 15.125 25.3636C15.125 26.9376 13.9109 28.1818 12.375 28.1818C10.8391 28.1818 9.625 26.9376 9.625 25.3636C9.625 23.7897 10.8391 22.5455 12.375 22.5455ZM34.375 22.5455C35.9109 22.5455 37.125 23.7897 37.125 25.3636C37.125 26.9376 35.9109 28.1818 34.375 28.1818C32.8391 28.1818 31.625 26.9376 31.625 25.3636C31.625 23.7897 32.8391 22.5455 34.375 22.5455Z" fill="url(#paint0_linear_601_1405)"/>
<defs>
<linearGradient id="paint0_linear_601_1405" x1="44" y1="16.12" x2="3.66667" y2="16.12" gradientUnits="userSpaceOnUse">
<stop stop-color="#FF6500"/>
<stop offset="1" stop-color="#FF6500" stop-opacity="0.15"/>
</linearGradient>
</defs>
</svg>
