<svg width="31" height="30" viewBox="0 0 31 30" fill="none" xmlns="http://www.w3.org/2000/svg">
<path d="M11.597 8.35199L12.0563 8.15448C12.0564 8.15455 12.0564 8.15461 12.0564 8.15468C12.494 9.17225 12.9199 10.1976 13.3312 11.2276L10.8104 7.45514C10.7744 7.45331 10.7384 7.45184 10.7024 7.45074M11.597 8.35199C11.5454 8.23178 11.433 8.13195 11.3013 8.06503L11.0437 7.80085L11.0424 7.79945L10.8489 7.60096L10.8474 7.59946L10.8145 7.56568L10.8052 7.5562L10.7024 7.45074M11.597 8.35199C11.6012 8.36175 11.6054 8.37151 11.6096 8.38126M11.597 8.35199L11.6096 8.38126M10.7024 7.45074C10.6271 7.44843 10.5517 7.44772 10.4763 7.44861M10.7024 7.45074L10.6918 7.43982L10.4763 7.44861M10.4763 7.44861C10.3707 7.44986 10.2651 7.45424 10.1597 7.46176L10.1598 7.46343M10.4763 7.44861L10.1598 7.46343M10.1598 7.46343C9.90375 7.48042 9.65404 7.54986 9.42551 7.66722L9.41404 7.67311L9.40289 7.67958C9.20548 7.79419 9.02539 7.93671 8.86785 8.10264C8.69126 8.27459 8.57381 8.43412 8.48471 8.55514C8.46969 8.57554 8.45548 8.59485 8.44192 8.61293L10.1598 7.46343ZM7.51373 11.4323C7.50881 10.4144 7.83463 9.42247 8.44179 8.61311L7.51373 11.4323ZM7.51373 11.4323C7.51704 12.2508 7.72543 13.0342 8.03847 13.7499L8.0393 13.7517C8.66548 15.1675 9.68709 16.6487 11.0217 18.0122L11.0219 18.0125C11.0643 18.0557 11.107 18.0994 11.15 18.1434C11.418 18.4179 11.6976 18.7042 11.995 18.9726L11.995 18.9727C13.6674 20.4822 15.6613 21.5716 17.8184 22.1532L17.8444 22.1603L17.871 22.1644L18.7021 22.2949L18.7269 22.2988L18.752 22.3002C19.0058 22.3143 19.2625 22.3002 19.4871 22.2878C19.5321 22.2854 19.5758 22.283 19.6179 22.2809L19.6196 22.2808C20.1196 22.2543 20.6074 22.1158 21.0484 21.8755C21.2527 21.7676 21.452 21.6502 21.6457 21.5236L21.6457 21.5237L21.65 21.5208L21.3724 21.105L21.65 21.5208L21.6501 21.5208L21.6502 21.5207L21.6505 21.5205L21.6511 21.5201L21.6525 21.5191L21.6566 21.5164L21.669 21.5078C21.6792 21.5008 21.6932 21.4909 21.711 21.4781C21.7461 21.4528 21.7959 21.416 21.8595 21.3667C22.0746 21.2033 22.2175 21.0784 22.4028 20.8801M7.51373 11.4323L23.1406 18.4078L22.6409 18.426M22.4028 20.8801C22.4026 20.8803 22.4024 20.8805 22.4021 20.8807L22.0381 20.538L22.4035 20.8792C22.4033 20.8795 22.403 20.8798 22.4028 20.8801ZM22.4028 20.8801C22.559 20.714 22.6947 20.5187 22.7984 20.2965C22.7984 20.2964 22.7985 20.2964 22.7985 20.2964L22.3454 20.085C22.4595 19.8405 22.5736 19.374 22.6204 18.9855C22.6536 18.7052 22.6463 18.5451 22.6417 18.4435C22.6414 18.4375 22.6412 18.4316 22.6409 18.426M22.6409 18.426C22.6351 18.2655 22.5048 18.099 22.3629 18.0285M22.6409 18.426L23.1404 18.4042C23.1405 18.4047 23.1405 18.4052 23.1405 18.4057L22.3629 18.0285M22.3629 18.0285L21.5114 17.637M22.3629 18.0285L21.5114 17.637M21.5114 17.637C21.5114 17.637 20.2384 17.0685 19.46 16.7055C19.3786 16.669 19.2913 16.6482 19.2025 16.644M21.5114 17.637L21.7152 17.1804L21.7152 17.1804L21.715 17.1804L21.7144 17.1801L21.7116 17.1788L21.7009 17.174L21.6593 17.1555L21.5049 17.0863C21.3736 17.0274 21.1906 16.9452 20.9832 16.8516C20.568 16.6642 20.0575 16.4324 19.6713 16.2523L19.6714 16.2523L19.6643 16.2491C19.5304 16.1892 19.3869 16.154 19.2404 16.1453M19.2025 16.644L19.2548 16.1467C19.25 16.1462 19.2452 16.1458 19.2404 16.1453M19.2025 16.644L19.2261 16.1445C19.2309 16.1448 19.2357 16.145 19.2404 16.1453M19.2025 16.644C19.1024 16.6334 19.0012 16.645 18.9058 16.6779C18.8104 16.7107 18.723 16.7641 18.6494 16.8345M19.2404 16.1453C19.0722 16.1297 18.9028 16.1501 18.743 16.2051C18.5936 16.2566 18.4563 16.3371 18.3384 16.4414M18.3384 16.4414C18.3288 16.4487 18.3217 16.4547 18.3174 16.4583C18.291 16.4808 18.2676 16.5047 18.251 16.5221C18.2144 16.5606 18.1611 16.6206 18.081 16.7148C17.9187 16.9055 17.6263 17.2597 17.0967 17.9174L17.0889 17.9272L17.0816 17.9373C17.0788 17.9412 17.0763 17.9423 17.0757 17.9425L17.0754 17.9425C17.005 17.9229 16.936 17.8983 16.8687 17.8689L16.8658 17.8676C16.7555 17.8202 16.7004 17.7956 16.6458 17.7712C16.605 17.753 16.5644 17.7349 16.5013 17.7075C15.7107 17.3535 14.9783 16.8752 14.3304 16.2896L14.3286 16.2879C14.2056 16.1779 14.0932 16.0647 13.9697 15.9403C13.9206 15.8909 13.8698 15.8398 13.8159 15.7863L13.8143 15.7847C13.2695 15.2499 12.7945 14.6446 12.4012 13.9838L12.4012 13.9838L12.3992 13.9804L12.3129 13.8379L12.309 13.8315L12.3049 13.8252C12.2767 13.7816 12.2522 13.7354 12.2318 13.6871L12.2586 13.6567C12.2953 13.6151 12.3459 13.5573 12.402 13.4925L18.3384 16.4414ZM18.3384 16.4414C18.3534 16.4298 18.3744 16.4149 18.3999 16.4004C18.4203 16.3889 18.4628 16.3664 18.521 16.351C18.5684 16.3385 18.6722 16.3186 18.795 16.3561C18.8095 16.3605 18.8242 16.3657 18.8391 16.3718L18.8181 16.423L18.6494 16.8345M18.3384 16.4414C18.3267 16.4517 18.3152 16.4623 18.3039 16.4731L18.6494 16.8345M18.3384 16.4414L18.6494 16.8345M11.6096 8.38126L11.6314 8.40364L11.6194 8.40414L11.6096 8.38126ZM15.4773 29.5H15.4765C12.982 29.5041 10.5306 28.8274 8.37416 27.5383L8.18978 27.4281L7.98292 27.486L1.55927 29.2828L3.31303 22.6763L3.36552 22.4785L3.26433 22.3007C2.00409 20.0861 1.34154 17.5664 1.34572 15.0008V15C1.34572 6.97984 7.68407 0.5 15.4773 0.5C23.2705 0.5 29.6089 6.97984 29.6089 15C29.6089 23.0201 23.2705 29.5 15.4773 29.5Z" stroke="white"/>
</svg>
