<svg xmlns="http://www.w3.org/2000/svg" xmlns:xlink="http://www.w3.org/1999/xlink" width="314.814" height="282.027" viewBox="0 0 314.814 282.027">
  <defs>
    <linearGradient id="linear-gradient" x1="0%" y1="50%" x2="100%" y2="50%">
      <stop offset="0%" stop-color="#16F6FE"/>
      <stop offset="100%" stop-color="#9904FC"/>
    </linearGradient>
  </defs>
  <path id="Exclusion_2" data-name="Exclusion 2" d="M240.711,284.944a9.96,9.96,0,0,1-3.582-.667L9.336,196.835a10.011,10.011,0,0,1-5.752-12.92L70.6,9.336A9.991,9.991,0,0,1,83.518,3.584L311.312,91.025a10,10,0,0,1,5.752,12.919l-67.015,174.58a10,10,0,0,1-9.338,6.419ZM86.98,15.261a10.063,10.063,0,0,0-9.338,6.419L17.078,179.456a10.012,10.012,0,0,0,5.752,12.919l207.255,79.557A9.991,9.991,0,0,0,243,266.18l60.565-157.775a10.011,10.011,0,0,0-5.752-12.92L90.562,15.928A9.956,9.956,0,0,0,86.98,15.261Z" transform="translate(-2.919 -2.917)" fill="url(#linear-gradient)"/>
</svg>
