<svg xmlns="http://www.w3.org/2000/svg" xmlns:xlink="http://www.w3.org/1999/xlink" width="373.69" height="21.376" viewBox="0 0 373.69 21.376">
  <defs>
    <linearGradient id="linear-gradient" x1="0.079" y1="0.5" x2="0.967" y2="0.5" gradientUnits="objectBoundingBox">
      <stop offset="0" stopColor="#16f6fe"/>
      <stop offset="0" stopColor="#19f1fe"/>
      <stop offset="1" stopColor="#9904fc"/>
    </linearGradient>
  </defs>
  <path id="Path_4874" data-name="Path 4874" d="M-849.03,658.482c-1.995.385-4.436.4-6.551.615,1.326.091,2.857.038,3.441.423-.3.1-1.695.031-1.4.125.7.225-.017.238-.382.38-.7.274,1.107.18,1.424.335-1.124.32-3.149-.162-4.1.262a10.347,10.347,0,0,0,2.51.175,6.65,6.65,0,0,1,1.536-.033c-.8.14,1.772.35-.185.467l.575.246c-2,.025-3.93.1-5.925.29a3.17,3.17,0,0,1,1.708.912c.116.2-.562.241-1.218.216-1.008-.039-1.974-.014-2.943.039-.6.076.249.2-.094.29a21.735,21.735,0,0,1,3.132-.042,6.065,6.065,0,0,1,.631,0,17.946,17.946,0,0,0,5.316.068,10.977,10.977,0,0,1-3.381.587,6.793,6.793,0,0,1-2.42.342,15.374,15.374,0,0,0-2.029.259c1.549.271,3.346.16,4.818.362-.579.151-2.377.394.528.46-.888.2-2.789.141-2.458.6a8.116,8.116,0,0,1-1.888.054l-.107.022-.1-.018-1.034.067a5.572,5.572,0,0,0-1.184.13c1.266.06,2.364.221,3.733.213-1.446.6-4.307.373-6.35.6-.176.089-1.167.172-.047.274l2.132.012a33,33,0,0,1,3.977.2c-.575.161-1.193.337-1.836.509-.24.064-.974.058-.678.188a8.7,8.7,0,0,0,1.137.084c-1.055.17-2.373.108-3.745.276a26.85,26.85,0,0,1,2.935.379c1.738.353,1.768.385-.3.652a11.73,11.73,0,0,0,1.334.081c-2.3.546-5.47.481-8.358.584-6.028.214-12.009.032-18.037-.2,2.621-.094,4.891-.369,7.212-.613a10.124,10.124,0,0,0-2.548-.059c-2.69.017-5.4.141-8.032-.1l-2.681.037-.42.011-1.437.092h0c-.009.006-.034.029-.034.029l-.1-.015c-1.995.21-4.089.09-6.144.1l-1.279,0c-.858.044-1.716.034-2.57,0-2.39.063-4.844-.037-7.328.172.819-.152,1.995-.13,2.2-.393l-3.063-.021-.785-.008a6.879,6.879,0,0,1-1.317-.031,5.619,5.619,0,0,1-1.3-.016h-1.7c-.88.07-1.725-.019-2.587-.028-4.419.039-8.92.006-13.2.244-11.46.64-23.177.554-34.795.734-1.4.021-2.235.233-3.767.36l2.724.164a.682.682,0,0,0-.017.091c-2.149,0-4.307.028-6.44-.011a11.614,11.614,0,0,1-3.471-.378,7.5,7.5,0,0,0-2.167-.107c-5.629.057-11.262.117-16.857.276-5.539.158-11.1.118-16.659.126a29.141,29.141,0,0,1-3.141.075l-5.166.093-.845.008-2.463.02a16.121,16.121,0,0,1-2.231.056l-.9.022c.807.324,2.471.137,3.557.347-3.136-.044-6.14.263-9.28.148-.789-.029-2.27,0-1.437-.383.39-.182-.27-.183-.742-.2-.914-.026-1.832-.042-2.75-.062l-.9-.021c-3.634,0-7.272.049-10.893.007-7.264-.085-14.467.087-21.688.192a.48.48,0,0,1-.219.069l-1.557-.017-.828.018c-4.23.126-8.478.133-12.729.118-4.325.12-8.667.062-13,.07-6.577.386-13.274.2-19.924.22-3.437.011-6.809-.112-10.125-.311a10.738,10.738,0,0,1-1.931-.076l-.094.016-.094-.016a35.227,35.227,0,0,1-4.11-.291l-2.759-.222c-1.9.027-2.8-.425-4.754-.467-5.753-.121-11.472-.328-17.2-.508-3.183-.1-6.457-.133-9.5-.339-2.476-.168-5.071-.119-7.409-.3-5.826-.443-12.129-.626-17.243-1.487-1.609-.271-2.875-.65-4.925-.827l11.1.4c-5.363-.358-11.039-.442-16.359-.983a14.43,14.43,0,0,1,3.484-.083,4.028,4.028,0,0,0-1.952-.422,23.582,23.582,0,0,1-3.745-.6c-1.034-.155-.472-.3.618-.406.772-.076,2.248.017,2.252-.264,0-.222-1.351-.253-2.072-.375-.738-.123-1.592-.212-2.6-.342.648-.062,1.63-.039,1.54-.222-.073-.146-.905-.133-1.416-.176-1.115-.094-2.244-.176-3.6-.281a37.889,37.889,0,0,1,4.269.018c-1.66-.3-3.81.036-5.436-.286a67.922,67.922,0,0,1,9.177-.036c-2.947-.591-6.895-.373-9.387-.954l3-.083a12.9,12.9,0,0,0-2.145-.421c.369-.077,1.617-.091.425-.291-1.587-.267-3.582-.458-3.758-1.007-.009-.027-.48-.047-1.017-.1l7.049-.185c-2.776-.308-5.213-.231-7.5-.331-.768-.034-1.562-.039-2.343-.061-1.073-.029-1.871-.109-1.158-.4.18-.076.416-.155.142-.22-1.279-.3.09-.242.7-.275,1.888-.106,3.84.015,5.753-.1,1.12-.065,1.227-.131,1.2-.416-.056-.713-1.609-1.134-4.595-1.419a29.822,29.822,0,0,1,3.9-.01c1.073-.011,1.055.008,1.146-.267a1.823,1.823,0,0,1,.528-.126c.807-.152.536-.227-.326-.289a14.557,14.557,0,0,1-3-.358l8.662-.955c-1.875-.247-3.883-.17-5.642-.351a12.061,12.061,0,0,1,1.351-.165c4-.038,6.848-.722,10.477-.962a17.518,17.518,0,0,0,3.467-.562,34.368,34.368,0,0,1,4.724-.479c6.4-.428,13.043-.49,19.62-.654a4.828,4.828,0,0,1,1.489,0l1.244.044a6.86,6.86,0,0,1,1.3.07l3.831-.01a16.14,16.14,0,0,1,2.227-.036c4.411-.045,8.825-.072,13.24-.029.129-.013.262-.019.4-.019a45.562,45.562,0,0,1,5.174-.087l2.132-.013a18.965,18.965,0,0,1,3-.078l.862-.006c9.979-.139,19.954-.027,29.925.058l4.4.039,2.96.028.944.016.549.032c3.424.006,6.852-.015,10.271.023,10.091.111,20.1-.178,30.148-.293,4.419-.05,8.859.066,13.27.049,7.839-.029,15.673-.141,23.494-.268,3.355-.055,6.71-.131,10.048-.075,7.787.13,15.6.113,23.322-.032,9.186-.174,18.346-.291,27.553-.271q7.5.016,15,0c8.714-.009,17.423-.04,26.12-.172,5.547-.083,10.949.16,16.411.3,5.659.142,11.357.377,17.054.149a171.935,171.935,0,0,1,23.807.889c-.395.134-1.261.126-1.137.267s.652.065,1.034.079c.952.035,1.3.252,1.4.4.159.238-.862.125-1.4.145s-1.218-.006-1.364.16c-.086.1.412.115.721.148a3.855,3.855,0,0,0,1.72.166c1.141-.11,2.368-.175,3.591-.236-2.077.123-3.857.474-6.17.412-.352.29.747.218,1.249.229a70.045,70.045,0,0,0,9.164.018c.91-.1.6.073.36.173l2.8-.134a51.493,51.493,0,0,0-8.632,1.509h2.566c-.1.215-1.313.124-1.5.352,2.463-.1.88.495,2.154.625l3.741-.143a7.38,7.38,0,0,1-1.48.288c-.626.137-1.939.2-1.493.463.416.242,1.373-.112,2.042.03-.609.267-2.077.04-2.81.244-.047.149.279.2.9.192.712-.011.854.078.678.217.828,0,1.656-.006,2.476.006.961.014.734.147.472.274l0,0a3.764,3.764,0,0,0,2.343.109c-.185.372-2.192.412-1.652.76S-850.317,658.41-849.03,658.482Z" transform="translate(1222.72 -650.057)" fill="url(#linear-gradient)"/>
</svg>
