<svg xmlns="http://www.w3.org/2000/svg" xmlns:xlink="http://www.w3.org/1999/xlink" width="218.809" height="218.8" viewBox="0 0 218.809 218.8">
  <defs>
    <linearGradient id="linear-gradient" x1="0%" y1="50%" x2="100%" y2="50%">
      <stop offset="0%" stop-color="#16F6FE"/>
      <stop offset="100%" stop-color="#9904FC"/>
    </linearGradient>
  </defs>
  <path id="Exclusion_7" data-name="Exclusion 7" d="M-10107.755,130.062a93.2,93.2,0,0,1-31.777-5.573,94.178,94.178,0,0,1-27.572-15.629,93.661,93.661,0,0,1-20.94-24.049,93.713,93.713,0,0,1-11.883-30.833l-.136-.7a93.4,93.4,0,0,1,.270-37.327,93.978,93.978,0,0,1,5.46-17.328,94.675,94.675,0,0,1,8.613-15.846,94.648,94.648,0,0,1,11.466-13.922,94.056,94.056,0,0,1,14.02-11.554,93.413,93.413,0,0,1,34.509-14.233l.7-.136a94.772,94.772,0,0,1,18.039-1.745,93.2,93.2,0,0,1,31.776,5.573,94.183,94.183,0,0,1,27.571,15.629,93.654,93.654,0,0,1,20.938,24.048,93.678,93.678,0,0,1,11.882,30.832l.136.7a93.4,93.4,0,0,1-.27,37.326,93.989,93.989,0,0,1-5.461,17.328,94.735,94.735,0,0,1-8.612,15.846,94.755,94.755,0,0,1-11.466,13.922,94.037,94.037,0,0,1-14.021,11.554,93.419,93.419,0,0,1-34.507,14.233l-.7.136A94.785,94.785,0,0,1-10107.755,130.062Zm-1.526-177.217a85.057,85.057,0,0,0-16.187,1.565,83.787,83.787,0,0,0-53.807,35.656,83.788,83.788,0,0,0-12.905,63.246,84.458,84.458,0,0,0,82.715,68.277h.007a85.019,85.019,0,0,0,16.181-1.565,83.81,83.81,0,0,0,53.839-35.635,83.8,83.8,0,0,0,12.87-63.267A84.452,84.452,0,0,0-10109.281-47.155Z" transform="matrix(0.985, 0.174, -0.174, 0.985, 10069.411, 1829.442)" fill="url(#linear-gradient)" style="mix-blend-mode: lighten;isolation: isolate"/>
</svg>
