<svg width="27" height="28" viewBox="0 0 27 28" fill="none" xmlns="http://www.w3.org/2000/svg">
<path fill-rule="evenodd" clip-rule="evenodd" d="M5.83333 3.99996H20.8333C21.0543 3.99996 21.2663 4.08785 21.4225 4.2441C21.5788 4.40035 21.6667 4.61234 21.6667 4.83329V23.1666C21.6667 23.3876 21.5788 23.5996 21.4225 23.7558C21.2663 23.9121 21.0543 24 20.8333 24H5.83333C5.61239 24 5.40039 23.9121 5.24414 23.7558C5.08789 23.5996 5 23.3876 5 23.1666V4.83329C5 4.61234 5.08789 4.40035 5.24414 4.2441C5.40039 4.08785 5.61239 3.99996 5.83333 3.99996ZM11.4815 17.6049C12.0296 17.9711 12.6742 18.1666 13.3333 18.1666C14.2173 18.1666 15.0653 17.8155 15.6903 17.1903C16.3155 16.5653 16.6667 15.7173 16.6667 14.8333C16.6667 14.1741 16.4712 13.5296 16.1049 12.9815C15.7385 12.4332 15.2181 12.0059 14.609 11.7537C13.9998 11.5014 13.3297 11.4355 12.6831 11.564C12.0363 11.6926 11.4425 12.01 10.9764 12.4763C10.5101 12.9424 10.1927 13.5363 10.0641 14.1831C9.93551 14.8296 10.0014 15.4998 10.2537 16.1089C10.506 16.7181 10.9332 17.2385 11.4815 17.6049Z" fill="white" fill-opacity="0.1"/>
<path fill-rule="evenodd" clip-rule="evenodd" d="M13.3346 10.6666C13.3346 10.6666 15.0605 10.6666 16.2809 11.887C16.2809 11.887 17.5013 13.1074 17.5013 14.8333C17.5013 14.8333 17.5013 16.5592 16.2809 17.7796C16.2809 17.7796 15.0605 19 13.3346 19C13.3346 19 11.6087 19 10.3884 17.7796C10.3884 17.7796 9.16797 16.5592 9.16797 14.8333C9.16797 14.8333 9.16797 13.1074 10.3884 11.887C10.3884 11.887 11.6087 10.6666 13.3346 10.6666ZM13.3346 12.3333C13.3346 12.3333 12.2991 12.3333 11.5669 13.0655C11.5669 13.0655 10.8346 13.7978 10.8346 14.8333C10.8346 14.8333 10.8346 15.8688 11.5669 16.6011C11.5669 16.6011 12.2991 17.3333 13.3346 17.3333C13.3346 17.3333 14.3702 17.3333 15.1024 16.6011C15.1024 16.6011 15.8346 15.8688 15.8346 14.8333C15.8346 14.8333 15.8346 13.7978 15.1024 13.0655C15.1024 13.0655 14.3702 12.3333 13.3346 12.3333Z" fill="white"/>
<path d="M15.7557 19.5718C16.8994 20.1437 17.6667 21.1666 17.6667 21.1666C17.7993 21.3434 17.9967 21.4603 18.2155 21.4916C18.2545 21.4972 18.2939 21.5 18.3333 21.5L18.3362 21.5C18.5155 21.4993 18.6899 21.4409 18.8333 21.3333C19.0432 21.1759 19.1667 20.9289 19.1667 20.6666L19.1666 20.6557C19.1643 20.4791 19.1059 20.3079 19 20.1666C17.9967 18.8289 16.5011 18.0811 16.5011 18.0811C15.0055 17.3333 13.3333 17.3333 13.3333 17.3333C11.6612 17.3333 10.1656 18.0811 10.1656 18.0811C8.66996 18.8289 7.66667 20.1666 7.66667 20.1666C7.55848 20.3109 7.5 20.4863 7.5 20.6666L7.50003 20.674C7.50036 20.7109 7.50315 20.7479 7.50838 20.7845C7.53963 21.0033 7.65652 21.2007 7.83333 21.3333C7.97758 21.4415 8.15302 21.5 8.33333 21.5L8.34067 21.4999C8.37765 21.4996 8.41457 21.4968 8.45118 21.4916C8.66998 21.4603 8.86739 21.3434 9 21.1666C9.76722 20.1437 10.9109 19.5718 10.9109 19.5718C12.0546 19 13.3333 19 13.3333 19C14.612 19 15.7557 19.5718 15.7557 19.5718Z" fill="white"/>
<path fill-rule="evenodd" clip-rule="evenodd" d="M20.8333 3.16663C20.8333 3.16663 21.5237 3.16663 22.0118 3.65478C22.0118 3.65478 22.5 4.14294 22.5 4.83329V23.1666C22.5 23.1666 22.5 23.857 22.0118 24.3451C22.0118 24.3451 21.5237 24.8333 20.8333 24.8333H5.83333C5.83333 24.8333 5.14297 24.8333 4.65482 24.3451C4.65482 24.3451 4.16667 23.857 4.16667 23.1666V4.83329C4.16667 4.83329 4.16667 4.14293 4.65482 3.65478C4.65482 3.65478 5.14297 3.16663 5.83333 3.16663L20.8333 3.16663ZM20.8333 4.83329L5.83333 4.83329V23.1666H20.8333V4.83329Z" fill="white"/>
<path d="M9.99935 8.16663H16.666C17.1263 8.16663 17.4993 7.79353 17.4993 7.3333C17.4993 6.87306 17.1263 6.49996 16.666 6.49996H9.99935C9.53911 6.49996 9.16602 6.87306 9.16602 7.3333C9.16602 7.79353 9.53911 8.16663 9.99935 8.16663Z" fill="white"/>
</svg>
