<svg width="31" height="33" viewBox="0 0 31 33" fill="none" xmlns="http://www.w3.org/2000/svg">
<path d="M27.1616 8.44487C27.2302 8.66484 27.1461 8.85296 27.0133 9.04806C26.1945 10.245 25.3815 11.446 24.57 12.6482C24.5364 12.6981 24.5112 12.7707 24.5154 12.827C24.5648 13.5682 24.6315 14.3072 24.6726 15.0504C24.7189 15.8855 24.7349 16.7252 24.7794 17.5606C24.8113 18.1611 24.652 18.7039 24.2976 19.2274C22.6444 21.6629 21.0026 24.1064 19.3563 26.5467C19.1221 26.8938 18.9278 26.9892 18.7301 26.8567C18.5337 26.7251 18.5501 26.5118 18.7855 26.1629C20.4316 23.7224 22.0753 21.2803 23.7262 18.8432C23.9641 18.4928 24.0844 18.1352 24.0664 17.7289C24.0052 16.3512 23.9525 14.9716 23.898 13.5933C23.8947 13.5281 23.9 13.4629 23.9011 13.3818C23.6337 13.5417 23.4132 13.6914 23.1803 13.81C22.5323 14.1415 21.8667 14.2501 21.1881 14.1714C21.1036 14.1616 20.9858 14.1975 20.915 14.256C20.4587 14.6366 19.9075 14.6963 19.4996 14.394C19.1186 14.1116 18.9859 13.5427 19.1891 13.059C19.4068 12.5407 19.9165 12.2083 20.4253 12.2524C20.9454 12.2979 21.2996 12.6955 21.333 13.2713C21.3348 13.3115 21.3357 13.3525 21.3369 13.3897C21.9343 13.5944 23.0577 13.2422 23.5759 12.6729L23.3522 12.522C22.1797 11.7311 21.005 10.9448 19.8368 10.147C19.4961 9.91427 19.1272 9.87006 18.7166 10.0161C17.3705 10.4953 16.0257 10.9788 14.6798 11.4591C14.3864 11.5636 14.1669 11.7671 13.9888 12.0312C13.7395 12.4013 13.4896 12.7712 13.2401 13.1412C11.0373 16.407 8.83692 19.6744 6.62865 22.9366C6.27974 23.4529 6.09442 23.9844 6.19637 24.5743C6.27081 25.0061 6.47097 25.3559 6.81306 25.5875C9.1745 27.186 11.5354 28.783 13.9047 30.3702C14.6234 30.8518 15.6723 30.6316 16.263 29.8603C16.7101 29.2754 17.1027 28.6474 17.52 28.039C17.5741 27.9617 17.624 27.8806 17.6847 27.809C17.8208 27.6495 17.9822 27.6152 18.138 27.7091C18.294 27.8033 18.33 27.962 18.2532 28.1549C18.2368 28.1938 18.2174 28.2329 18.1936 28.2681C17.76 28.9072 17.3501 29.5647 16.8867 30.1807C15.9707 31.3995 14.5061 31.7103 13.3805 30.9527C11.1549 29.4546 8.93091 27.9534 6.70828 26.4514C6.51293 26.3193 6.31462 26.1854 6.14183 26.025C5.66897 25.5862 5.46323 25.0006 5.44848 24.3134C5.44557 24.1884 5.41564 24.0546 5.35745 23.9518C4.65216 22.6948 3.93637 21.4434 3.22685 20.188C2.518 18.9333 2.87286 17.5204 4.13292 16.5923C5.85954 15.3199 7.58983 14.0534 9.31768 12.7839C9.34574 12.7644 9.37206 12.7427 9.39972 12.7238C9.61733 12.5775 9.81036 12.5965 9.91941 12.7734C10.0275 12.9476 9.97429 13.1627 9.7704 13.3155C9.35191 13.6303 8.92798 13.9377 8.50614 14.2476C7.15268 15.2423 5.79602 16.2337 4.44364 17.231C3.59797 17.8542 3.34308 18.8523 3.81673 19.6966C4.42368 20.7778 5.03717 21.8531 5.64893 22.931C5.67098 22.9702 5.69852 23.0056 5.72733 23.0479L6.08982 22.5105C8.49419 18.9458 10.9023 15.3836 13.299 11.8139C13.6819 11.2426 14.1479 10.8587 14.7756 10.655C15.5912 10.3906 16.3977 10.0807 17.2107 9.74614C16.7943 9.70665 16.3679 9.70492 15.9653 9.62046C15.2234 9.46449 14.5911 9.6754 13.9489 10.2052C13.1073 10.9009 12.208 11.5162 11.3331 12.1658C11.286 12.2014 11.2408 12.2406 11.1904 12.271C10.9963 12.3924 10.8128 12.3664 10.7107 12.2065C10.6069 12.0443 10.6379 11.8413 10.8122 11.6939C11.0001 11.5356 11.201 11.3954 11.3971 11.249C12.2781 10.5932 13.1625 9.9427 14.0394 9.28113C14.5097 8.92711 15.0046 8.77659 15.5461 8.82903C16.8375 8.95327 18.1332 9.05703 19.4216 9.2C19.7066 9.23159 19.9974 9.34259 20.2321 9.49694C21.5083 10.3372 22.7688 11.2033 24.0346 12.0596C24.0533 12.0723 24.0762 12.0759 24.1236 12.0941C24.1784 12.0129 24.2348 11.9292 24.2913 11.8455C25.0064 10.7853 25.725 9.72744 26.4352 8.66419C26.5657 8.46781 26.7079 8.32193 26.9332 8.29077L27.1616 8.44487ZM19.9724 13.7805C20.151 13.899 20.4093 13.8293 20.5394 13.6269C20.6708 13.4241 20.6286 13.1617 20.4468 13.0495C20.2699 12.9402 20.0319 13.0063 19.8985 13.2002C19.7595 13.403 19.7921 13.6609 19.9724 13.7805Z" stroke="white" stroke-opacity="0.8"/>
<path d="M26.9806 8.13901L27.2839 8.34359L27.2973 8.38649C27.389 8.68067 27.2624 8.92434 27.1265 9.1239C26.2566 10.3956 25.4035 11.6571 24.6837 12.7234C24.6659 12.7498 24.656 12.7865 24.657 12.8002C24.6769 13.0992 24.7 13.402 24.7223 13.6949C24.7555 14.1305 24.7898 14.581 24.8144 15.0264C24.8384 15.4581 24.8545 15.8975 24.87 16.3224C24.8846 16.721 24.8997 17.1331 24.9213 17.5369C24.9549 18.1685 24.788 18.7462 24.4111 19.3029C23.2272 21.0471 22.0294 22.8246 20.8711 24.5435C20.4041 25.2364 19.9372 25.9293 19.47 26.6219C19.3353 26.8216 19.2077 26.9494 19.08 27.0125C18.9784 27.0627 18.821 27.0981 18.6479 26.9822L18.6465 26.9812C18.4746 26.8652 18.4494 26.7066 18.4585 26.5939C18.47 26.4512 18.5391 26.2903 18.6759 26.0875C19.0874 25.4774 19.4988 24.8673 19.9102 24.257C21.1237 22.457 22.3785 20.5956 23.6168 18.7676C23.8454 18.4309 23.9444 18.108 23.9286 17.7511C23.8782 16.616 23.8328 15.4611 23.7889 14.3442C23.7795 14.1061 23.7702 13.8681 23.7608 13.6301C23.7454 13.6396 23.7301 13.6491 23.7149 13.6585C23.5504 13.7608 23.3949 13.8573 23.2324 13.9401C22.5802 14.2737 21.8829 14.4004 21.1601 14.3166C21.1129 14.3112 21.0348 14.3351 20.9963 14.3668C20.756 14.5674 20.4854 14.691 20.2144 14.7238C19.9223 14.7591 19.6437 14.6873 19.4128 14.5162C19.2049 14.3621 19.0551 14.1257 18.991 13.8504C18.9269 13.5747 18.9527 13.2772 19.0639 13.0127C19.3088 12.4295 19.8803 12.0569 20.4536 12.1066C20.6482 12.1236 20.8239 12.1842 20.9758 12.2867C21.2733 12.4873 21.4505 12.8283 21.4748 13.2469L21.4749 13.2489C21.4753 13.2569 21.4756 13.265 21.4759 13.2731C21.7312 13.332 22.091 13.2996 22.4609 13.1819C22.8103 13.0709 23.1257 12.9006 23.3528 12.7033L23.2698 12.6473C22.9463 12.4291 22.6227 12.2113 22.2991 11.9935C21.9756 11.7757 21.6519 11.5579 21.3285 11.3397C20.7102 10.9226 20.2097 10.5833 19.7537 10.2719L19.7471 10.2673C19.4415 10.0612 19.1156 10.0242 18.7507 10.154C17.981 10.428 17.1988 10.708 16.4423 10.9788C15.8663 11.1851 15.2903 11.3912 14.714 11.5969C14.4767 11.6814 14.2767 11.8481 14.1024 12.1065C13.9363 12.3531 13.7698 12.5998 13.6034 12.8465L13.3538 13.2164C12.8381 13.9808 12.3227 14.7454 11.8072 15.51C10.1486 17.9697 8.43355 20.5133 6.74218 23.012C6.37881 23.5497 6.24986 24.0333 6.33634 24.5337C6.40716 24.9447 6.59678 25.2571 6.89978 25.4622C8.09121 26.2687 9.47588 27.2058 10.8316 28.1203C11.9844 28.8978 13.0179 29.5927 13.991 30.2446C14.6506 30.6867 15.6233 30.4767 16.1594 29.7766C16.4634 29.379 16.7482 28.9518 17.0236 28.5386C17.1497 28.3493 17.2802 28.1536 17.4112 27.9625C17.4267 27.9404 17.441 27.9192 17.4552 27.8981C17.4953 27.8388 17.5366 27.7775 17.5863 27.7189C17.77 27.5036 18.0066 27.4521 18.2195 27.5805C18.2272 27.5851 18.2346 27.5899 18.2418 27.5947C18.4333 27.7239 18.485 27.9438 18.3837 28.1982L18.3824 28.2013C18.3593 28.2562 18.3347 28.3027 18.3073 28.3433C18.1743 28.5392 18.0414 28.7403 17.9129 28.9347C17.6211 29.3759 17.3194 29.8322 16.9953 30.2631C16.5301 30.8821 15.9026 31.304 15.2285 31.4508C14.5579 31.5969 13.8724 31.4645 13.2982 31.078C12.3959 30.4707 11.4744 29.8498 10.4812 29.1799C9.31396 28.3925 8.05282 27.541 6.62576 26.5766L6.62266 26.5745C6.42641 26.4418 6.22344 26.3045 6.04477 26.1386C5.574 25.7018 5.32695 25.094 5.31055 24.3322C5.30799 24.222 5.28116 24.1138 5.23697 24.0357C4.80307 23.2624 4.358 22.4786 3.92761 21.7206C3.65813 21.246 3.37949 20.7552 3.10633 20.2719C2.74053 19.6245 2.63754 18.9236 2.80843 18.245C2.97933 17.5661 3.41307 16.9543 4.06277 16.4757C5.17261 15.6579 6.30251 14.8289 7.39512 14.0271C8.01279 13.5739 8.63039 13.1208 9.24768 12.6672L9.25117 12.6647C9.26208 12.6572 9.27353 12.6485 9.28565 12.6394C9.30093 12.6279 9.31674 12.6159 9.33427 12.604C9.54548 12.462 9.7555 12.4413 9.9114 12.5464C9.96207 12.5806 10.0059 12.6273 10.0416 12.6853C10.1909 12.926 10.1105 13.2328 9.84574 13.4311C9.53607 13.664 9.2184 13.8966 8.91122 14.1215C8.80081 14.2023 8.69042 14.2831 8.58019 14.3641C8.06148 14.7453 7.53358 15.1324 7.02307 15.5068C6.20147 16.1093 5.3519 16.7323 4.51795 17.3473C3.73614 17.9234 3.50454 18.8339 3.94158 19.6129C4.40117 20.4317 4.8725 21.2611 5.32824 22.063C5.4659 22.3053 5.60352 22.5474 5.7411 22.7898L5.9803 22.4352C6.57264 21.5569 7.16522 20.6787 7.75784 19.8007C9.54013 17.1597 11.3831 14.4289 13.1893 11.7388C13.608 11.1139 14.1038 10.7252 14.7495 10.5157C15.3161 10.332 15.9107 10.1161 16.5873 9.84796C16.3663 9.83158 16.1426 9.80934 15.926 9.76386C15.25 9.62177 14.6654 9.79209 14.0302 10.3161C13.436 10.8073 12.8046 11.2649 12.1941 11.7074C11.9356 11.8947 11.6683 12.0885 11.4079 12.2818C11.3961 12.2907 11.3835 12.3006 11.3709 12.3105C11.3365 12.3376 11.2974 12.3683 11.2536 12.3949C11.0616 12.5146 10.8662 12.5257 10.7175 12.4254C10.6693 12.3929 10.6276 12.3494 10.5937 12.2962C10.4485 12.0694 10.5059 11.7766 10.7334 11.5842C10.8772 11.4631 11.0283 11.3523 11.1744 11.2451C11.225 11.2079 11.2757 11.1707 11.3261 11.1331C11.6091 10.9224 11.897 10.709 12.1753 10.5025C12.764 10.066 13.3727 9.61458 13.9678 9.1657C14.4732 8.78527 14.9991 8.62755 15.5757 8.68339C16.0195 8.72608 16.4715 8.76706 16.9087 8.80669C17.7434 8.88233 18.6065 8.9606 19.453 9.05453C19.7506 9.0875 20.0576 9.19982 20.3175 9.3708C20.7572 9.6603 21.2195 9.96883 21.7724 10.3417C22.2159 10.6409 22.6658 10.9465 23.1009 11.2421C23.4239 11.4615 23.7576 11.6882 24.0867 11.9109L24.1817 11.7701C24.3936 11.456 24.6058 11.1421 24.818 10.8282C25.3134 10.0953 25.8256 9.33736 26.3252 8.58949C26.4477 8.40517 26.6276 8.18788 26.9316 8.14579L26.9806 8.13901ZM27.0407 8.54421L26.8927 8.44438C26.7664 8.47546 26.6668 8.56204 26.5495 8.73846C26.0492 9.48744 25.5367 10.2457 25.041 10.979C24.8289 11.2929 24.6168 11.6067 24.405 11.9207L24.1683 12.2715L24.0653 12.232C24.0498 12.226 24.0371 12.2218 24.0259 12.2181C24.0021 12.2101 23.9774 12.2019 23.9521 12.1849C23.6114 11.9544 23.2656 11.7195 22.9312 11.4923C22.4963 11.1968 22.0465 10.8913 21.6033 10.5924C21.0512 10.22 20.5896 9.91192 20.1507 9.62292C19.9256 9.47482 19.6499 9.37364 19.3943 9.34533C18.5504 9.2517 17.6886 9.17355 16.8551 9.098C16.4176 9.05836 15.9652 9.01732 15.5206 8.97454C15.0168 8.92577 14.5571 9.06381 14.115 9.39653C13.5191 9.8461 12.9098 10.2979 12.3206 10.7349C12.0423 10.9412 11.7546 11.1546 11.472 11.3649C11.4211 11.4029 11.3697 11.4406 11.3183 11.4783C11.1765 11.5824 11.0299 11.6899 10.8948 11.8037C10.7863 11.8954 10.7632 12.0095 10.8317 12.1165C10.8476 12.1413 10.8659 12.1608 10.8865 12.1747C10.9705 12.2314 11.0754 12.182 11.1304 12.1476L11.1324 12.1464C11.1598 12.1298 11.1882 12.1074 11.2183 12.0838C11.2327 12.0726 11.247 12.0613 11.2615 12.0504C11.5243 11.8552 11.7924 11.6609 12.0517 11.4729C12.6581 11.0335 13.2852 10.579 13.8715 10.0943C14.5746 9.51434 15.2537 9.3182 16.0089 9.47695C16.2766 9.53311 16.5648 9.55212 16.8434 9.5705C16.9734 9.57907 17.1079 9.58792 17.2401 9.60048L17.2517 9.88141C16.3151 10.2668 15.5379 10.5568 14.8057 10.7942C14.2309 10.9808 13.7883 11.3285 13.413 11.8887C11.6065 14.5792 9.76341 17.3102 7.981 19.9513C7.38844 20.8294 6.79583 21.7074 6.20351 22.5857L5.72131 23.3006L5.61241 23.1408C5.60405 23.1285 5.59577 23.1168 5.58775 23.1054C5.56757 23.077 5.54678 23.0475 5.52822 23.0145C5.3802 22.7537 5.2318 22.4926 5.08338 22.2314C4.6275 21.4292 4.15601 20.5995 3.69602 19.7801C3.44594 19.3343 3.379 18.8425 3.50237 18.3577C3.62567 17.8735 3.92688 17.4436 4.37347 17.1145C5.20772 16.4993 6.05745 15.8761 6.87926 15.2735C7.38967 14.8991 7.91749 14.512 8.43613 14.1309C8.54652 14.0498 8.65706 13.9689 8.76754 13.888C9.07394 13.6637 9.39072 13.4318 9.69896 13.2C9.83457 13.0983 9.87189 12.9751 9.80156 12.8618C9.78413 12.8335 9.76433 12.8119 9.74235 12.7971C9.65828 12.7403 9.54692 12.7914 9.46829 12.8442C9.45801 12.8513 9.44584 12.8605 9.43295 12.8702C9.41943 12.8804 9.40547 12.8909 9.39015 12.9016C8.77331 13.3548 8.15624 13.8076 7.53907 14.2604C6.4465 15.062 5.31678 15.891 4.20718 16.7087C3.01724 17.5851 2.68133 18.9179 3.35146 20.104C3.62455 20.5872 3.90307 21.0777 4.17249 21.5522C4.60308 22.3106 5.04826 23.0947 5.4823 23.8682C5.54832 23.9849 5.58685 24.1364 5.59047 24.2942C5.60541 24.9888 5.81884 25.5176 6.24296 25.9111C6.40806 26.0644 6.60322 26.1964 6.79195 26.3241L6.795 26.3261C8.22202 27.2905 9.48308 28.1419 10.6503 28.9292C11.6434 29.5991 12.5648 30.22 13.467 30.8273C14.5319 31.544 15.9261 31.2374 16.7822 30.0983C17.1002 29.6756 17.399 29.2237 17.6879 28.7867C17.817 28.5915 17.9505 28.3896 18.0843 28.1924C18.0988 28.1709 18.113 28.1438 18.1273 28.11C18.1903 27.9506 18.1313 27.8848 18.0728 27.8454C18.0689 27.8427 18.0648 27.8401 18.0606 27.8376C17.9597 27.7768 17.8752 27.7958 17.7867 27.8995C17.7494 27.9435 17.7149 27.9946 17.6784 28.0487C17.6631 28.0714 17.6477 28.0941 17.6321 28.1165C17.5032 28.3045 17.3733 28.4993 17.2478 28.6876C16.9694 29.1053 16.6816 29.5372 16.3708 29.9437C16.0622 30.3467 15.6278 30.6252 15.1477 30.7281C14.6697 30.8306 14.1991 30.748 13.8226 30.4957C12.8492 29.8436 11.8155 29.1486 10.6626 28.3709C9.30669 27.4563 7.92192 26.5192 6.73045 25.7126C6.3694 25.4683 6.144 25.0989 6.06053 24.6148C5.96098 24.0388 6.11102 23.4651 6.51921 22.8611C8.21048 20.3625 9.92542 17.8191 11.5839 15.3595C12.0994 14.5949 12.6149 13.8303 13.1306 13.0658L13.3802 12.6959C13.5466 12.4493 13.713 12.2027 13.8792 11.956C14.0945 11.6368 14.3465 11.4291 14.6498 11.3211C15.2258 11.1155 15.8018 10.9094 16.3777 10.7032C17.1343 10.4324 17.9166 10.1523 18.6866 9.87817C19.1315 9.71989 19.5451 9.76649 19.9161 10.0167L19.9239 10.022C20.3796 10.3332 20.8796 10.6723 21.4976 11.0891C21.8209 11.3072 22.1445 11.525 22.468 11.7427C22.7916 11.9606 23.1153 12.1784 23.4388 12.3966L23.7939 12.6361L23.6744 12.7674C23.1208 13.3756 21.9362 13.7529 21.2828 13.5291L21.202 13.5014L21.199 13.4102C21.1986 13.3975 21.1982 13.3844 21.1978 13.371C21.1971 13.346 21.1964 13.3201 21.1952 13.2946C21.1757 12.962 21.0378 12.6931 20.8068 12.5374C20.6894 12.4582 20.5529 12.4113 20.4009 12.398C19.9548 12.3593 19.5096 12.6501 19.3185 13.1051C19.1423 13.5247 19.2592 14.0262 19.5905 14.2717C19.9475 14.5361 20.4291 14.4859 20.837 14.1456C20.9398 14.0607 21.097 14.0118 21.22 14.026C21.8884 14.1035 22.5317 13.9871 23.132 13.68C23.2829 13.6031 23.4328 13.5099 23.5916 13.4113C23.6719 13.3614 23.755 13.3099 23.8437 13.2568L24.0461 13.1358L24.0431 13.3681C24.0427 13.3983 24.0417 13.4264 24.0408 13.4531C24.0393 13.4968 24.038 13.5346 24.0399 13.57L24.0399 13.5717C24.0495 13.8148 24.0591 14.0579 24.0686 14.3011C24.1125 15.4177 24.1579 16.5722 24.2083 17.7065C24.2271 18.1292 24.1065 18.5257 23.8395 18.9188C22.6016 20.7464 21.3469 22.6076 20.1334 24.4075C19.7221 25.0178 19.3107 25.628 18.8991 26.2381C18.6447 26.6153 18.7517 26.6875 18.8155 26.7306C18.8821 26.7752 18.9921 26.8489 19.2468 26.4713C19.714 25.7787 20.1809 25.0859 20.6478 24.3931C21.8063 22.6739 23.0042 20.8962 24.1884 19.1517C24.5231 18.6571 24.6715 18.1443 24.6416 17.5841C24.62 17.1779 24.6049 16.7645 24.5902 16.3647C24.5747 15.9411 24.5587 15.5031 24.5349 15.0742C24.5104 14.6319 24.4762 14.1829 24.4431 13.7488C24.4208 13.4553 24.3977 13.1517 24.3778 12.8525C24.3699 12.7487 24.4154 12.6397 24.4605 12.5728C25.1806 11.506 26.0341 10.244 26.9043 8.97178C27.027 8.79169 27.0667 8.67057 27.0407 8.54421ZM20.5449 12.9315C20.7779 13.0888 20.8273 13.4333 20.6548 13.6995C20.5701 13.8311 20.4432 13.9257 20.2977 13.9651C20.152 14.0047 20.0075 13.9838 19.8907 13.9062L19.8877 13.9042C19.7723 13.8264 19.6983 13.7033 19.6792 13.5578C19.6599 13.4101 19.6991 13.256 19.7897 13.1238C19.9682 12.8642 20.293 12.7755 20.5293 12.9215C20.5346 12.9247 20.5398 12.9281 20.5449 12.9315ZM20.0567 13.6536L20.0582 13.6546C20.1144 13.6919 20.1843 13.7018 20.2551 13.6826C20.3258 13.6634 20.3871 13.618 20.4278 13.5546C20.5118 13.4249 20.4884 13.2581 20.3758 13.1821C20.3734 13.1805 20.3709 13.1789 20.3684 13.1773C20.2528 13.1059 20.0994 13.1487 20.0114 13.2767C19.9669 13.3416 19.9474 13.4168 19.9568 13.4882C19.9658 13.5575 20.0013 13.6162 20.0567 13.6536Z" stroke="white" stroke-opacity="0.8"/>
<path d="M19.8341 19.8649C19.6554 19.9394 19.5254 20.0118 19.3898 20.0464C16.8483 20.6986 14.3053 21.3456 11.7637 21.9943C11.5273 22.0546 11.2919 22.1187 11.0551 22.1735C10.7916 22.2344 10.621 22.1338 10.5984 21.9148C10.5751 21.6949 10.7132 21.5127 10.9641 21.4488C13.7651 20.7321 16.5673 20.0181 19.369 19.3027C19.5456 19.2577 19.7236 19.2453 19.7978 19.4274C19.845 19.544 19.8234 19.6973 19.8341 19.8649Z" stroke="white" stroke-opacity="0.8"/>
<path d="M19.7974 19.19C19.8551 19.2289 19.8994 19.2857 19.9291 19.3585C19.9715 19.463 19.9718 19.5804 19.972 19.694C19.9721 19.7418 19.9722 19.7911 19.9754 19.8399L19.9827 19.9552L19.8751 20.0001C19.818 20.0239 19.766 20.0475 19.7157 20.0703C19.6118 20.1175 19.5137 20.162 19.4104 20.1883C17.5475 20.6664 15.6524 21.1497 13.8198 21.617C13.1412 21.79 12.4627 21.9631 11.7844 22.1362C11.7145 22.154 11.6448 22.1722 11.5751 22.1903C11.4109 22.233 11.2412 22.2772 11.0726 22.3162C10.8979 22.3566 10.7472 22.3387 10.6369 22.2643C10.5361 22.1963 10.4752 22.0862 10.4607 21.9458C10.429 21.646 10.6242 21.3892 10.9465 21.307C12.7533 20.8447 14.591 20.3758 16.3682 19.9223C17.3626 19.6686 18.357 19.4148 19.3514 19.1609C19.4876 19.1262 19.6613 19.0982 19.7974 19.19ZM19.6922 19.775C19.6921 19.7585 19.6921 19.7422 19.692 19.726C19.6918 19.6321 19.6916 19.551 19.6694 19.4963C19.6589 19.4704 19.6454 19.4522 19.6283 19.4406C19.5735 19.4037 19.4659 19.4252 19.3897 19.4446C18.3954 19.6985 17.401 19.9523 16.4066 20.206C14.6294 20.6595 12.7917 21.1284 10.9849 21.5907C10.8842 21.6164 10.7185 21.6885 10.7391 21.8837C10.7455 21.9452 10.7673 21.9876 10.806 22.0137C10.857 22.048 10.9402 22.0542 11.0406 22.031C11.2053 21.9929 11.3731 21.9492 11.5355 21.907C11.6056 21.8887 11.6758 21.8705 11.7461 21.8526C12.4244 21.6794 13.1029 21.5064 13.7815 21.3333C15.614 20.866 17.5089 20.3828 19.3719 19.9047C19.4502 19.8848 19.5326 19.8473 19.628 19.804C19.6483 19.7948 19.6698 19.785 19.6922 19.775Z" stroke="white" stroke-opacity="0.8"/>
<path d="M13.2817 16.9417C13.8027 16.1676 14.7651 15.9251 15.4632 16.392C16.17 16.8648 16.3125 17.8676 15.7828 18.6385C15.255 19.4063 14.2903 19.6402 13.5954 19.1692C12.8992 18.6971 12.7613 17.7162 13.2817 16.9417ZM15.0511 17.0458C14.6688 16.7794 14.1549 16.8932 13.8643 17.31C13.5717 17.7288 13.6386 18.2578 14.0172 18.5217C14.3991 18.7879 14.9148 18.674 15.2077 18.2596C15.4981 17.8483 15.4287 17.3088 15.0511 17.0458Z" stroke="white" stroke-opacity="0.8"/>
<path d="M13.5151 19.2968L13.5123 19.2948C13.1462 19.0466 12.9093 18.6597 12.8454 18.2055C12.7814 17.7507 12.8973 17.2754 13.1717 16.8671C13.4463 16.4589 13.8431 16.1723 14.289 16.06C14.7343 15.9478 15.1818 16.0212 15.549 16.2668L15.554 16.2701C15.9289 16.523 16.1689 16.92 16.2298 17.388C16.2891 17.8438 16.1703 18.3153 15.8952 18.7154C15.6174 19.1195 15.2188 19.402 14.7726 19.5107C14.3271 19.6192 13.8806 19.5432 13.5151 19.2968ZM15.385 16.5208L15.3808 16.518C14.7428 16.0914 13.8706 16.3107 13.3952 17.0173C12.9207 17.7233 13.0466 18.6138 13.6818 19.0445L13.6842 19.0461C14.319 19.4743 15.1929 19.2618 15.6737 18.5624C15.9026 18.2292 16.0016 17.8368 15.9522 17.4574C15.9013 17.0658 15.6998 16.7331 15.385 16.5208ZM13.9448 18.6547C13.9403 18.6523 13.9368 18.6493 13.9328 18.6465C13.7183 18.4969 13.5827 18.2678 13.551 18.0014C13.5199 17.7395 13.5927 17.4665 13.756 17.2328C13.9183 17 14.1483 16.8394 14.4034 16.7808C14.6565 16.7226 14.9134 16.7698 15.1268 16.9137C15.1308 16.9164 15.1348 16.9192 15.1388 16.9219C15.3543 17.072 15.4904 17.3041 15.5219 17.5754C15.5525 17.8386 15.4804 18.1096 15.3189 18.3383C15.1552 18.5699 14.9244 18.7295 14.6689 18.7877C14.4149 18.8456 14.1578 18.7983 13.9448 18.6547ZM14.9577 17.1643C14.6376 16.9484 14.2156 17.0445 13.9761 17.3878C13.8592 17.5553 13.8069 17.7496 13.829 17.9352C13.8516 18.1253 13.9496 18.2896 14.1049 18.3979C14.1079 18.4 14.1109 18.402 14.1138 18.404C14.4339 18.6199 14.8577 18.5243 15.0998 18.1817C15.2144 18.0195 15.2656 17.8274 15.2439 17.6409C15.2212 17.4463 15.1228 17.2792 14.9668 17.1706C14.9638 17.1684 14.9607 17.1664 14.9577 17.1643Z" stroke="white" stroke-opacity="0.8"/>
<path d="M16.9136 22.2792C17.6124 22.7473 17.7585 23.7266 17.2451 24.5051C16.7362 25.2765 15.7576 25.5287 15.0616 25.0672C14.3498 24.5948 14.2048 23.6083 14.7321 22.8265C15.2531 22.0523 16.2149 21.8113 16.9136 22.2792ZM15.4821 24.4188C15.8651 24.6758 16.389 24.548 16.669 24.1287C16.9503 23.7083 16.8697 23.1799 16.4849 22.9217C16.1001 22.6633 15.5847 22.7902 15.3009 23.2134C15.0172 23.6358 15.096 24.1599 15.4821 24.4188Z" stroke="white" stroke-opacity="0.8"/>
<path d="M17.0056 22.1565C17.7637 22.6678 17.9199 23.7319 17.3613 24.5789C17.0952 24.9822 16.7036 25.2693 16.2584 25.3872C15.8049 25.5073 15.3515 25.4383 14.9815 25.193L14.9715 25.1863C14.2046 24.669 14.052 23.5994 14.6242 22.7512C14.8987 22.3432 15.2955 22.0569 15.7413 21.9451C16.1864 21.8334 16.6339 21.9075 17.0014 22.1537L17.0056 22.1565ZM15.1406 24.9357L15.149 24.9414C15.4588 25.1468 15.8383 25.2046 16.2175 25.1042C16.5884 25.0059 16.9147 24.7669 17.1362 24.4312C17.6025 23.7241 17.4709 22.835 16.8366 22.4072L16.833 22.4048C16.1947 21.9773 15.3226 22.1955 14.8475 22.9016C14.37 23.6094 14.4988 24.5028 15.1406 24.9357ZM16.5748 22.7975C17.0193 23.0974 17.1115 23.715 16.7846 24.2034C16.6294 24.4359 16.4036 24.6003 16.1489 24.6662C15.8856 24.7344 15.6202 24.6911 15.4015 24.5443L15.3993 24.5428C15.1841 24.3976 15.0442 24.1742 15.0054 23.9136C14.9664 23.6517 15.0329 23.3764 15.1927 23.1384C15.3505 22.9032 15.577 22.7377 15.8306 22.6724C16.0906 22.6054 16.3542 22.6494 16.5729 22.7963L16.5748 22.7975ZM15.5683 24.2922L15.57 24.2933C15.7289 24.4 15.9205 24.4317 16.1095 24.3828C16.29 24.3361 16.4502 24.2193 16.5606 24.054C16.7937 23.7057 16.7256 23.2639 16.4057 23.0481L16.4043 23.0472C16.2453 22.9404 16.0554 22.908 15.8695 22.9559C15.6901 23.0021 15.5292 23.1202 15.4164 23.2883C15.1789 23.642 15.2442 24.0735 15.5683 24.2922Z" stroke="white" stroke-opacity="0.8"/>
</svg>
