<svg width="27" height="28" viewBox="0 0 27 28" fill="none" xmlns="http://www.w3.org/2000/svg">
<path fill-rule="evenodd" clip-rule="evenodd" d="M4.16634 5.66663H22.4997C22.7206 5.66663 22.9326 5.75452 23.0889 5.91077C23.2451 6.06702 23.333 6.27901 23.333 6.49996V21.5C23.333 21.7209 23.2451 21.9329 23.0889 22.0892C22.9326 22.2454 22.7206 22.3333 22.4997 22.3333H4.16634C3.94539 22.3333 3.7334 22.2454 3.57715 22.0892C3.4209 21.9329 3.33301 21.7209 3.33301 21.5V6.49996C3.33301 6.27901 3.4209 6.06702 3.57715 5.91077C3.7334 5.75452 3.94539 5.66663 4.16634 5.66663ZM8.20443 15.2453C8.6156 15.5199 9.099 15.6666 9.59338 15.6666C9.92216 15.6681 10.2479 15.6044 10.5518 15.479C10.8558 15.3539 11.1319 15.1698 11.3642 14.9375C11.5968 14.7051 11.7807 14.4288 11.906 14.1249C12.0311 13.8211 12.0948 13.4954 12.0934 13.1666C12.0934 12.6722 11.9469 12.1888 11.672 11.7777C11.3974 11.3665 11.007 11.0461 10.5502 10.8569C10.0933 10.6676 9.59074 10.6182 9.10571 10.7146C8.62069 10.8111 8.17533 11.0493 7.8256 11.3988C7.47607 11.7486 7.23783 12.1939 7.1414 12.679C7.04496 13.1638 7.0946 13.6665 7.28381 14.1233C7.47302 14.5802 7.79346 14.9706 8.20443 15.2453Z" fill="white" fill-opacity="0.1"/>
<path d="M15.8333 13.1666H20C20.4602 13.1666 20.8333 12.7935 20.8333 12.3333C20.8333 11.8731 20.4602 11.5 20 11.5H15.8333C15.3731 11.5 15 11.8731 15 12.3333C15 12.7935 15.3731 13.1666 15.8333 13.1666Z" fill="white"/>
<path d="M15.8333 16.5H20C20.4602 16.5 20.8333 16.1269 20.8333 15.6666C20.8333 15.2064 20.4602 14.8333 20 14.8333H15.8333C15.3731 14.8333 15 15.2064 15 15.6666C15 16.1269 15.3731 16.5 15.8333 16.5Z" fill="white"/>
<path fill-rule="evenodd" clip-rule="evenodd" d="M9.59408 9.83346C9.59408 9.83346 10.9748 9.83346 11.9511 10.8098C11.9511 10.8098 12.9274 11.7861 12.9274 13.1668C12.9274 13.1668 12.9274 14.5475 11.9511 15.5238C11.9511 15.5238 10.9748 16.5001 9.59408 16.5001C9.59408 16.5001 8.21336 16.5001 7.23705 15.5238C7.23705 15.5238 6.26074 14.5475 6.26074 13.1668C6.26074 13.1668 6.26074 11.7861 7.23705 10.8098C7.23705 10.8098 8.21336 9.83346 9.59408 9.83346ZM9.59408 11.5001C9.59408 11.5001 8.90372 11.5001 8.41556 11.9883C8.41556 11.9883 7.92741 12.4764 7.92741 13.1668C7.92741 13.1668 7.92741 13.8571 8.41556 14.3453C8.41556 14.3453 8.90372 14.8335 9.59408 14.8335C9.59408 14.8335 10.2844 14.8335 10.7726 14.3453C10.7726 14.3453 11.2607 13.8571 11.2607 13.1668C11.2607 13.1668 11.2607 12.4764 10.7726 11.9883C10.7726 11.9883 10.2844 11.5001 9.59408 11.5001Z" fill="white"/>
<path d="M11.1267 17.0186C11.8025 17.5432 12.0152 18.3717 12.0152 18.3717L12.0154 18.3726L12.0156 18.3734C12.11 18.7421 12.4423 19 12.8229 19L12.8397 18.9998C12.9038 18.9985 12.9675 18.9898 13.0296 18.9739C13.3983 18.8795 13.6562 18.5473 13.6562 18.1667L13.6561 18.1499C13.6548 18.0858 13.6461 18.0221 13.6302 17.96C13.2762 16.5772 12.1486 15.702 12.1486 15.702C11.0211 14.8268 9.59375 14.8268 9.59375 14.8268C8.1664 14.8268 7.03887 15.702 7.03887 15.702C5.91133 16.5772 5.55729 17.96 5.55729 17.96C5.54 18.0275 5.53125 18.0969 5.53125 18.1667C5.53125 18.1785 5.5315 18.1904 5.53201 18.2022C5.53787 18.3395 5.57757 18.4731 5.64758 18.5913C5.76022 18.7815 5.94378 18.9191 6.15788 18.9739C6.22542 18.9912 6.29487 19 6.36458 19C6.37644 19 6.38829 18.9997 6.40013 18.9992C6.53739 18.9934 6.67106 18.9537 6.78927 18.8837C6.97943 18.771 7.11705 18.5875 7.17188 18.3734C7.3843 17.5437 8.06082 17.0186 8.06082 17.0186C8.73734 16.4934 9.59375 16.4934 9.59375 16.4934C10.4502 16.4934 11.1267 17.0186 11.1267 17.0186Z" fill="white"/>
<path fill-rule="evenodd" clip-rule="evenodd" d="M2.5 6.49996C2.5 6.49996 2.5 5.8096 2.98816 5.32145C2.98816 5.32145 3.47631 4.83329 4.16667 4.83329H22.5C22.5 4.83329 23.1904 4.83329 23.6785 5.32145C23.6785 5.32145 24.1667 5.8096 24.1667 6.49996V21.5C24.1667 21.5 24.1667 22.1903 23.6785 22.6785C23.6785 22.6785 23.1904 23.1666 22.5 23.1666H4.16667C4.16667 23.1666 3.47631 23.1666 2.98816 22.6785C2.98816 22.6785 2.5 22.1903 2.5 21.5V6.49996ZM4.16667 6.49996V21.5H22.5V6.49996H4.16667Z" fill="white"/>
</svg>
