<svg width="28" height="28" viewBox="0 0 28 28" fill="none" xmlns="http://www.w3.org/2000/svg">
<path d="M11.0113 19.5826C11.0405 19.6235 11.0693 19.664 11.098 19.7042C11.2902 19.9739 11.4718 20.2287 11.6536 20.4831C11.931 20.8709 12.2095 21.2583 12.4882 21.6459C13.1152 22.5181 13.7428 23.3911 14.3593 24.2706C14.8115 24.9158 14.8982 25.6488 14.6745 26.2858C14.4509 26.9222 13.9216 27.4512 13.165 27.6999C12.1367 28.0378 11.0217 27.6482 10.3548 26.7213L10.3548 26.7212C9.47226 25.4938 8.59219 24.2645 7.71228 23.0355C7.35394 22.5349 6.99563 22.0345 6.6372 21.5342C6.6003 21.4828 6.56313 21.4333 6.52358 21.3807C5.97684 21.6827 5.39934 21.8636 4.76399 21.8814C2.60384 21.9419 0.795874 20.2635 0.851233 18.1921L11.0113 19.5826ZM11.0113 19.5826C11.5666 19.5404 12.1218 19.4981 12.677 19.4557C14.7087 19.3008 16.74 19.1459 18.7722 18.9984C19.3458 18.9569 19.833 18.7533 20.2364 18.3659L20.1325 18.2577L20.2364 18.3658C20.6429 17.9754 20.8635 17.4949 20.9755 16.9782L11.0113 19.5826ZM2.5517 15.5085L2.46912 15.3833C2.80606 15.1611 3.14655 14.9439 3.48591 14.7274C3.51242 14.7105 3.53894 14.6936 3.56544 14.6767C3.93147 14.4432 4.29592 14.21 4.65521 13.9704C4.80278 13.872 4.93851 13.733 5.01317 13.5918C6.13763 11.449 7.25446 9.30271 8.37146 7.15608C8.65541 6.6104 8.93936 6.06471 9.22345 5.51905C9.58891 4.81705 10.2096 4.45596 10.9915 4.36872L10.9916 4.36872C11.9698 4.25976 12.8451 4.56753 13.6589 4.98373L13.5906 5.11728L13.6589 4.98373C15.1454 5.74394 16.3462 6.82085 17.3993 8.03809C18.9404 9.8191 20.1479 11.7841 20.7823 14.0373C21.0501 14.9889 21.1947 15.9723 20.9755 16.9781L2.5517 15.5085ZM2.5517 15.5085L2.46912 15.3833M2.5517 15.5085L2.46912 15.3833M6.32427 14.3336L6.3243 14.3337L6.43641 14.4897C7.34029 15.7479 8.24444 17.0065 9.14075 18.2704M6.32427 14.3336L15.4966 18.0639C15.4345 18.0201 15.3727 17.976 15.3113 17.9317M6.32427 14.3336C6.28349 14.2769 6.26753 14.2476 6.26196 14.2242C6.25862 14.2101 6.25602 14.1871 6.28123 14.1387C6.96771 12.8244 7.64915 11.5078 8.33047 10.1913C8.53315 9.79965 8.73583 9.40804 8.93862 9.01652C9.99579 12.6678 12.121 15.6276 15.3113 17.9317M6.32427 14.3336L15.5374 17.909C15.5242 17.9104 15.511 17.9117 15.4979 17.913C15.4353 17.9194 15.3732 17.9257 15.3113 17.9317M9.14075 18.2704L9.01839 18.3572L9.14072 18.2704C9.14073 18.2704 9.14074 18.2704 9.14075 18.2704ZM9.14075 18.2704C9.18192 18.3284 9.21414 18.3531 9.24258 18.3658C9.27199 18.3789 9.31424 18.3866 9.38894 18.3808C10.6641 18.2822 11.9397 18.187 13.2149 18.0919C13.828 18.0461 14.441 18.0004 15.0538 17.9543M15.0538 17.9543L15.0651 18.1038L15.0538 17.9543C15.0538 17.9543 15.0538 17.9543 15.0538 17.9543ZM15.0538 17.9543C15.1398 17.9478 15.2254 17.94 15.3113 17.9317M7.93984 21.0105L7.93986 21.0106C8.31643 21.5363 8.6933 22.062 9.0702 22.5877C9.88585 23.7255 10.7016 24.8634 11.5149 26.0028L11.5149 26.0028C11.7204 26.2908 11.9728 26.4662 12.3223 26.4883L12.3128 26.638L12.3223 26.4883C12.7442 26.515 13.0609 26.3561 13.2661 26.0172C13.3761 25.8351 13.4158 25.662 13.4022 25.4957C13.3884 25.3279 13.3194 25.1553 13.1927 24.9782C12.6422 24.2094 12.092 23.4407 11.5417 22.6719C10.8698 21.7333 10.1979 20.7946 9.52567 19.856L9.52562 19.8559C9.46471 19.7708 9.39231 19.7249 9.32111 19.7095L7.93984 21.0105ZM7.93984 21.0105C7.86665 20.9084 7.79523 20.8061 7.72076 20.6994C7.70986 20.6838 7.6989 20.6681 7.68786 20.6523C7.79224 20.5848 7.89573 20.5177 7.99862 20.451C8.36037 20.2163 8.71474 19.9864 9.07443 19.7631L7.93984 21.0105ZM2.46912 15.3833C1.44693 16.0574 0.88288 16.9965 0.851234 18.1921L2.46912 15.3833ZM10.369 8.93366L10.369 8.93365C10.2702 8.60165 10.2187 8.2648 10.1702 7.94788C10.1496 7.81297 10.1295 7.68167 10.1066 7.5559C10.1172 7.43909 10.1246 7.33734 10.1314 7.24529C10.1443 7.06732 10.1546 6.92562 10.1805 6.7815L10.1805 6.78141C10.2595 6.33898 10.4578 6.03508 10.7337 5.86303C11.0111 5.69008 11.3904 5.63574 11.8587 5.74077C12.6982 5.92913 13.4209 6.34796 14.1109 6.84803C15.6401 7.9563 16.8239 9.35625 17.8319 10.9078C18.5817 12.0621 19.1997 13.2615 19.5019 14.5814C19.648 15.221 19.7114 15.8551 19.5823 16.4883L19.5823 16.4883C19.5137 16.8256 19.3817 17.1218 19.1293 17.3475L19.1293 17.3475C18.8121 17.6313 18.4631 17.7599 18.0267 17.6667C17.1254 17.4736 16.3455 17.0438 15.6387 16.4914C13.0672 14.4816 11.2749 11.9788 10.369 8.93366ZM5.21685 15.2189L5.21701 15.2188C5.23026 15.2102 5.24308 15.2027 5.25759 15.1948C6.14057 16.4264 7.02233 17.6562 7.9214 18.9098C7.70713 19.0455 7.49706 19.1825 7.28869 19.3184C6.73266 19.6809 6.18874 20.0355 5.60922 20.3379C4.54308 20.8943 3.28635 20.49 2.58421 19.4094C1.95832 18.4462 2.19207 17.2229 3.15228 16.5615C3.62384 16.2369 4.10614 15.9293 4.59102 15.62C4.79937 15.4871 5.0082 15.3539 5.21685 15.2189Z" fill="white" stroke="white" stroke-width="0.3"/>
<path d="M21.9447 8.39788L21.9137 8.39794C21.7248 8.3983 21.5644 8.36635 21.4343 8.2905C21.3011 8.21287 21.2141 8.09777 21.1588 7.95989M21.9447 8.39788L21.5387 7.29486L21.4586 7.16809C21.4585 7.1681 21.4585 7.16811 21.4585 7.16811C21.171 7.34999 21.0358 7.65428 21.1588 7.95989M21.9447 8.39788L21.9732 8.38548M21.9447 8.39788L21.9732 8.38548M21.1588 7.95989C21.1587 7.95986 21.1587 7.95984 21.1587 7.95981L21.2979 7.90395L21.1588 7.95997C21.1588 7.95994 21.1588 7.95991 21.1588 7.95989ZM21.9732 8.38548C21.9802 8.38243 21.9932 8.3776 22.0106 8.37116C22.0771 8.34645 22.2075 8.29798 22.3105 8.2345L22.3105 8.23447M21.9732 8.38548L22.3105 8.23447M22.3105 8.23447C23.5027 7.49904 24.6916 6.75953 25.8798 6.01903M22.3105 8.23447L26.1669 5.01098C26.2895 5.1786 26.3284 5.37082 26.2708 5.55833C26.2149 5.74067 26.0744 5.89774 25.8798 6.01903M25.8798 6.01903L25.8005 5.89173L25.8798 6.01903Z" fill="white" stroke="white" stroke-width="0.3"/>
<path d="M22.1677 11.0806C22.1255 11.3566 22.3254 11.603 22.6699 11.6629L22.1677 11.0806ZM22.1677 11.0806C22.2098 10.8061 22.4464 10.6264 22.8005 10.6377L22.1677 11.0806ZM22.8255 10.4898L22.8154 10.4881L27.6654 11.9412L27.8142 11.96C27.8142 11.96 27.8142 11.96 27.8142 11.96C27.863 11.5733 27.5595 11.2901 27.172 11.2258L27.1719 11.2258C26.7029 11.1481 26.2345 11.0682 25.7656 10.9883C25.5476 10.9512 25.3296 10.914 25.1114 10.877C25.1114 10.877 25.1114 10.877 25.1114 10.877L22.8255 10.4898Z" fill="white" stroke="white" stroke-width="0.3"/>
<path d="M20.1893 1.5635L20.1888 1.56345C20.0763 2.60096 19.9638 3.63836 19.8515 4.6758C19.8455 4.731 19.8397 4.78645 19.8338 4.8421C19.8133 5.03722 19.7924 5.23465 19.7667 5.43098L19.7666 5.43117C19.741 5.62437 19.6527 5.78787 19.5127 5.8977C19.373 6.00731 19.1932 6.05458 19.0003 6.03678C19.0003 6.03678 19.0003 6.03678 19.0003 6.03678L19.0141 5.88741C18.7174 5.86004 18.5141 5.62727 18.5463 5.31601L20.1893 1.5635ZM20.1893 1.5635L20.1896 1.55136M20.1893 1.5635L20.1896 1.55136M20.1896 1.55136C20.1997 1.1833 19.9436 0.891169 19.5777 0.85423L20.1896 1.55136ZM18.8125 1.43439C18.6679 2.72262 18.5301 4.01147 18.3971 5.30057L19.5777 0.854223C19.2032 0.816312 18.8569 1.04088 18.8125 1.43432L18.8125 1.43439ZM19.7024 4.65965C19.6963 4.71559 19.6904 4.77156 19.6845 4.82752C19.664 5.02233 19.6434 5.21721 19.6179 5.41145L19.7024 4.65965Z" fill="white" stroke="white" stroke-width="0.3"/>
<path d="M13.6717 9.38803L13.6731 9.38802C15.2511 9.39021 16.4378 10.1695 16.8729 11.3762L16.8729 11.3763C17.2993 12.5602 16.8895 13.8745 15.8483 14.6426C15.709 14.7454 15.529 14.8335 15.3473 14.864L15.3472 14.8641C15.1944 14.8896 15.051 14.8649 14.929 14.7948C14.808 14.7253 14.7168 14.6163 14.657 14.4868L14.6569 14.4868C14.5976 14.3584 14.5756 14.2237 14.6017 14.0906C14.6279 13.9575 14.6996 13.8391 14.806 13.7388L14.8061 13.7387C14.8455 13.7016 14.8873 13.6699 14.9247 13.6425C14.9356 13.6345 14.946 13.627 14.9559 13.6198C14.9821 13.6008 15.0053 13.5839 15.0286 13.5654L15.0287 13.5653C15.6988 13.0338 15.8345 12.1158 15.3518 11.4353C14.8606 10.7428 13.8875 10.5139 13.1049 10.9164C13.0835 10.9275 13.0621 10.9395 13.0383 10.9529L13.0343 10.9551C13.0122 10.9675 12.9879 10.9813 12.9629 10.9944L13.6717 9.38803ZM13.6717 9.38803C13.3104 9.39085 12.7631 9.54526 12.268 9.8416L12.268 9.84161M13.6717 9.38803L12.268 9.84161M12.268 9.84161C12.0918 9.94712 11.9637 10.0926 11.9078 10.2624C11.851 10.4348 11.8737 10.6183 11.9749 10.7821L12.1025 10.7032L12.268 9.84161Z" fill="white" stroke="white" stroke-width="0.3"/>
</svg>
