<svg width="26" height="20" viewBox="0 0 26 20" fill="none" xmlns="http://www.w3.org/2000/svg">
<path d="M9.70552 15.9594C10.815 15.9594 11.7177 16.8657 11.7177 17.9797C11.7177 19.0937 10.815 20 9.70552 20C8.59601 20 7.69336 19.0937 7.69336 17.9797C7.69336 16.8657 8.59601 15.9594 9.70552 15.9594ZM9.70552 18.1911C9.8216 18.1911 9.91604 18.0962 9.91604 17.9797C9.91604 17.8632 9.8216 17.7683 9.70552 17.7683C9.58944 17.7683 9.495 17.8632 9.495 17.9797C9.495 18.0962 9.58944 18.1911 9.70552 18.1911Z" fill="white"/>
<path d="M21.7641 15.9594C22.8736 15.9594 23.7763 16.8657 23.7763 17.9797C23.7763 19.0937 22.8736 20 21.7641 20C20.6546 20 19.752 19.0937 19.752 17.9797C19.752 16.8657 20.6546 15.9594 21.7641 15.9594ZM21.7641 18.1911C21.8802 18.1911 21.9746 18.0962 21.9746 17.9797C21.9746 17.8632 21.8802 17.7683 21.7641 17.7683C21.648 17.7683 21.5536 17.8632 21.5536 17.9797C21.5536 18.0962 21.648 18.1911 21.7641 18.1911Z" fill="white"/>
<path d="M10.4032 18.3054C8.92841 18.3055 7.65823 17.266 7.36983 15.8131L5.53008 6.61625C5.52337 6.58935 5.51786 6.56193 5.51365 6.53412L4.56371 1.78539H0.892209C0.399449 1.78539 0 1.38571 0 0.892696C0 0.399667 0.399449 0 0.892209 0H5.29504C5.72028 0 6.08643 0.30029 6.1699 0.717495L7.1279 5.50654H25.1078C25.3737 5.50654 25.6257 5.62521 25.7952 5.83019C25.9647 6.03518 26.034 6.30513 25.9842 6.56647L24.2231 15.8065C23.9301 17.2826 22.634 18.3291 21.1375 18.305H10.4541C10.4372 18.3053 10.4201 18.3054 10.4032 18.3054ZM10.4464 16.5196H21.1452C21.1594 16.5196 21.1737 16.5201 21.1878 16.52C21.812 16.52 22.3495 16.0802 22.4715 15.4653L24.0293 7.29193H7.48505L9.11979 15.464C9.24377 16.0885 9.7943 16.532 10.4293 16.5198C10.4349 16.5197 10.4407 16.5196 10.4464 16.5196Z" fill="white"/>
</svg>
