<svg width="27" height="27" viewBox="0 0 27 27" fill="none" xmlns="http://www.w3.org/2000/svg">
<g clip-path="url(#clip0_97_4437)">
<path fill-rule="evenodd" clip-rule="evenodd" d="M11.6683 4.445C11.3895 4.44496 11.1153 4.51618 10.8717 4.65191C10.6282 4.78764 10.4233 4.98337 10.2767 5.22052C10.1301 5.45766 10.0465 5.72836 10.0339 6.00689C10.0213 6.28543 10.0801 6.56256 10.2048 6.81197L10.3859 7.17312C10.4766 7.35407 10.5194 7.55521 10.5103 7.7574C10.5013 7.95959 10.4406 8.15609 10.3341 8.3282C10.2276 8.50031 10.0788 8.64229 9.90195 8.74063C9.72506 8.83897 9.52594 8.8904 9.32354 8.89H5.55641C5.26168 8.89 4.97903 9.00708 4.77063 9.21548C4.56223 9.42388 4.44516 9.70653 4.44516 10.0013V11.3281C6.46763 11.207 8.33453 12.8072 8.33453 15.0019C8.33453 17.1966 6.46763 18.7968 4.44516 18.6757V21.1138C4.44516 21.4085 4.56223 21.6911 4.77063 21.8995C4.97903 22.1079 5.26168 22.225 5.55641 22.225H7.99449C7.87336 20.2025 9.47356 18.3356 11.6683 18.3356C13.863 18.3356 15.4632 20.2025 15.3421 22.225H16.6689C16.9636 22.225 17.2463 22.1079 17.4547 21.8995C17.6631 21.6911 17.7802 21.4085 17.7802 21.1138V17.3466C17.7802 16.4643 18.7081 15.8909 19.497 16.2843L19.8571 16.4654C20.1065 16.5899 20.3835 16.6486 20.662 16.636C20.9405 16.6233 21.2111 16.5397 21.4481 16.3931C21.6852 16.2465 21.8809 16.0417 22.0166 15.7982C22.1523 15.5547 22.2235 15.2806 22.2235 15.0019C22.2235 14.7231 22.1523 14.449 22.0166 14.2055C21.8809 13.9621 21.6852 13.7573 21.4481 13.6107C21.2111 13.4641 20.9405 13.3805 20.662 13.3678C20.3835 13.3552 20.1065 13.4139 19.8571 13.5384L19.497 13.7195C19.3161 13.8102 19.115 13.853 18.9128 13.8439C18.7106 13.8349 18.5141 13.7742 18.342 13.6677C18.1699 13.5612 18.0279 13.4124 17.9295 13.2356C17.8312 13.0587 17.7798 12.8595 17.7802 12.6571V10.0013C17.7802 9.70653 17.6631 9.42388 17.4547 9.21548C17.2463 9.00708 16.9636 8.89 16.6689 8.89H14.013C13.1307 8.89 12.5573 7.96211 12.9507 7.17312L13.1318 6.81197C13.2564 6.56256 13.3152 6.28543 13.3027 6.00689C13.2901 5.72836 13.2065 5.45766 13.0599 5.22052C12.9132 4.98337 12.7084 4.78764 12.4649 4.65191C12.2213 4.51618 11.9471 4.44496 11.6683 4.445ZM7.85003 6.6675C7.49887 4.42611 9.21686 2.2225 11.6683 2.2225C14.1186 2.2225 15.8377 4.42611 15.4865 6.6675H16.6689C17.5531 6.6675 18.401 7.01874 19.0262 7.64394C19.6514 8.26914 20.0027 9.11709 20.0027 10.0013V11.1836C22.2441 10.8325 24.4477 12.5505 24.4477 15.0019C24.4477 17.4522 22.2441 19.1713 20.0027 18.8201V21.1138C20.0027 21.9979 19.6514 22.8459 19.0262 23.4711C18.401 24.0963 17.5531 24.4475 16.6689 24.4475H13.9941C13.7988 24.4477 13.6065 24.3994 13.4344 24.3069C13.2624 24.2144 13.116 24.0806 13.0085 23.9176C12.9009 23.7545 12.8356 23.5673 12.8183 23.3727C12.8011 23.1781 12.8324 22.9823 12.9095 22.8029L13.004 22.5839C13.0989 22.3628 13.1374 22.1217 13.1161 21.882C13.0948 21.6424 13.0143 21.4118 12.8819 21.2109C12.7495 21.01 12.5693 20.8451 12.3575 20.731C12.1457 20.617 11.9089 20.5572 11.6683 20.5572C11.4277 20.5572 11.1909 20.617 10.979 20.731C10.7672 20.8451 10.587 21.01 10.4546 21.2109C10.3222 21.4118 10.2418 21.6424 10.2205 21.882C10.1992 22.1217 10.2377 22.3628 10.3326 22.5839L10.427 22.804C10.7604 23.5818 10.1892 24.4475 9.34244 24.4475H5.55641C4.67224 24.4475 3.82429 24.0963 3.19909 23.4711C2.57389 22.8459 2.22266 21.9979 2.22266 21.1138V17.3277C2.22266 16.481 3.08832 15.9098 3.86731 16.2431L4.08622 16.3376C4.30731 16.4325 4.5485 16.471 4.78814 16.4497C5.02779 16.4284 5.25839 16.3479 5.45928 16.2155C5.66016 16.0831 5.82504 15.9029 5.93913 15.6911C6.05321 15.4793 6.11293 15.2425 6.11293 15.0019C6.11293 14.7613 6.05321 14.5245 5.93913 14.3126C5.82504 14.1008 5.66016 13.9206 5.45928 13.7882C5.25839 13.6558 5.02779 13.5754 4.78814 13.5541C4.5485 13.5328 4.30731 13.5713 4.08622 13.6662L3.8662 13.7606C3.08832 14.094 2.22266 13.5228 2.22266 12.676V10.0013C2.22266 9.11709 2.57389 8.26914 3.19909 7.64394C3.82429 7.01874 4.67224 6.6675 5.55641 6.6675H7.85003Z" fill="white"/>
</g>
<defs>
<clipPath id="clip0_97_4437">
<rect width="26.67" height="26.67" fill="white"/>
</clipPath>
</defs>
</svg>
