<svg width="26" height="27" viewBox="0 0 26 27" fill="none" xmlns="http://www.w3.org/2000/svg">
<mask id="path-1-outside-1_97_4323" maskUnits="userSpaceOnUse" x="0" y="0" width="26" height="27" fill="black">
<rect fill="white" width="26" height="27"/>
<path d="M3.98498 26C2.79488 25.6535 1.91188 24.971 1.422 23.8981C0.757615 22.4437 0.886919 21.0258 1.74495 19.6688C1.91658 19.3974 2.15083 19.1609 2.34276 18.8997C2.40672 18.8126 2.46009 18.6996 2.46346 18.5968C2.47662 18.1663 2.46543 17.735 2.46988 17.3039C2.47834 16.5333 3.04703 16.0002 3.87709 15.998C5.5297 15.9931 7.18235 15.9964 8.83504 15.9964C8.93917 15.9964 9.04351 15.9964 9.18892 15.9964V15.7277C9.18892 14.4835 9.18067 13.239 9.19089 11.9948C9.20843 9.85417 10.1909 8.21819 12.1681 7.10438C12.2492 7.05858 12.3165 6.93436 12.3232 6.84251C12.3437 6.56727 12.3283 6.28988 12.3313 6.0134C12.3391 5.30619 12.762 4.7206 13.4672 4.46176C13.6186 4.40611 13.6899 4.34222 13.6784 4.18311C13.6627 3.96615 13.6745 3.74708 13.6745 3.49639C13.5556 3.49639 13.4631 3.49639 13.3706 3.49639C12.3301 3.49639 11.289 3.47564 10.2491 3.5028C9.3561 3.52608 8.86596 2.98396 8.7689 2.48177C8.64136 1.82228 9.0118 1.29527 9.77633 1.0329C9.79071 1.02796 9.8005 1.01128 9.81234 1C11.9299 1 14.0473 1 16.1649 1C16.2368 1.02676 16.3084 1.05448 16.3806 1.07984C17.3482 1.41901 17.5912 2.6267 16.7558 3.18824C16.3913 3.43333 16.3271 3.67992 16.3645 4.028C16.3704 4.08432 16.3726 4.14274 16.3641 4.19849C16.3418 4.34422 16.4135 4.40454 16.5578 4.45996C17.2835 4.73855 17.6673 5.25098 17.6973 5.98244C17.7085 6.25875 17.7116 6.5362 17.6963 6.81215C17.687 6.97567 17.7548 7.05694 17.9031 7.13364C18.6648 7.5272 19.2981 8.05691 19.7777 8.73536C19.8786 8.87799 19.9879 8.91792 20.1609 8.91709C21.5343 8.91152 22.9078 8.91152 24.2811 8.91526C24.9661 8.91699 25.5173 9.29727 25.6405 9.8862C25.6913 10.1279 25.666 10.3885 25.6424 10.6377C25.4983 12.1688 25.3446 13.6991 25.195 15.2297C25.0478 16.7359 24.8962 18.2419 24.7566 19.7487C24.6053 21.3843 24.3642 23.0141 24.4159 24.6629C24.4368 25.3372 24.1087 25.7315 23.4172 25.9584C23.3949 25.9657 23.3771 25.9858 23.3573 26H3.98498ZM18.7996 8.91609C18.7179 8.8211 18.6793 8.76852 18.6325 8.72288C17.4042 7.5264 15.8974 7.04186 14.1573 7.33132C11.7398 7.73345 10.106 9.58903 10.0865 11.8775C10.0757 13.1708 10.0844 14.4644 10.085 15.758C10.0851 15.829 10.0938 15.9001 10.0991 15.9806C10.1639 15.9868 10.2143 15.9956 10.2649 15.9956C10.7983 15.9967 11.3322 15.9892 11.8653 15.9984C12.6496 16.012 13.2155 16.5462 13.224 17.2734C13.2289 17.7044 13.2152 18.1359 13.2312 18.5666C13.2356 18.6842 13.2954 18.8126 13.3672 18.913C13.5558 19.1763 13.7861 19.4149 13.9621 19.6845C15.1923 21.568 14.763 23.8518 13.4083 25.0755C13.3879 25.0939 13.381 25.125 13.3651 25.1549H18.1559C18.1559 24.8584 18.1628 24.5754 18.1545 24.2927C18.1352 23.6592 18.1356 23.0237 18.0795 22.3928C17.9271 20.6831 17.7498 18.9752 17.5821 17.2667C17.4319 15.7364 17.2802 14.2061 17.1311 12.6755C17.0509 11.8496 16.9522 11.0244 16.9044 10.1967C16.8641 9.50058 17.4437 8.95142 18.1935 8.91726C18.3756 8.90892 18.5587 8.91609 18.7996 8.91609ZM3.37199 18.4968C3.4891 18.4968 3.58318 18.4965 3.6773 18.4968C3.86963 18.4974 4.06274 18.4897 4.25445 18.5012C4.52924 18.5177 4.71209 18.6902 4.71288 18.9155C4.71364 19.1432 4.53196 19.3102 4.25603 19.3284C4.14305 19.3358 4.02884 19.3318 3.91511 19.3318C3.02164 19.332 3.02164 19.332 2.54822 20.038C2.5343 20.0586 2.52027 20.0793 2.50668 20.1001C1.6536 21.4178 1.71192 23.1269 2.67228 24.2283C3.20037 24.8341 3.84958 25.1929 4.74692 25.179C6.88085 25.1456 9.01575 25.1633 11.1503 25.1727C11.5335 25.1745 11.8728 25.0863 12.1941 24.9053C12.7565 24.5883 13.1861 24.1583 13.4397 23.5925C14.1038 22.1112 13.8165 20.766 12.7565 19.5319C12.6309 19.3857 12.4968 19.3266 12.2915 19.3275C10.4458 19.3351 8.60004 19.332 6.75431 19.3315C6.64954 19.3315 6.54347 19.3338 6.44032 19.3198C6.21037 19.2884 6.08544 19.1539 6.06496 18.9427C6.04491 18.7348 6.18501 18.5617 6.41037 18.5175C6.51195 18.4976 6.61887 18.4976 6.72339 18.4976C8.48174 18.4965 10.2399 18.4968 11.998 18.4968H12.3305C12.3305 18.1198 12.3308 17.772 12.3303 17.4242C12.3299 16.9575 12.1933 16.8296 11.6923 16.8294C9.12912 16.8291 6.56625 16.8291 4.00327 16.8296C3.92454 16.8296 3.84463 16.8261 3.76762 16.8379C3.54326 16.8724 3.38638 16.9975 3.37734 17.207C3.35905 17.6268 3.37199 18.0479 3.37199 18.4968ZM23.5681 22.6579C23.9209 19.0494 24.272 15.4522 24.6234 11.8566H17.9534C18.3069 15.4699 18.6582 19.0621 19.0094 22.6579H23.5681ZM24.703 10.9968C24.7277 10.7671 24.7565 10.5588 24.7719 10.3497C24.8051 9.89024 24.6578 9.74667 24.1606 9.74667C22.2462 9.74614 20.3317 9.74631 18.4175 9.74677C18.339 9.74677 18.2589 9.74227 18.1825 9.75525C17.9725 9.79141 17.8087 9.90752 17.8044 10.1053C17.798 10.4011 17.8421 10.6979 17.865 10.9968H24.703ZM19.052 23.5169C19.052 23.9488 19.0446 24.3545 19.0549 24.76C19.0608 24.9939 19.2352 25.162 19.4897 25.1636C20.6866 25.1706 21.884 25.1703 23.0808 25.1639C23.3156 25.1627 23.4993 25.0385 23.5107 24.814C23.5325 24.3866 23.5172 23.9578 23.5172 23.5169H19.052ZM13.0009 2.66407C13.8836 2.66407 14.766 2.66407 15.6486 2.66407C15.7098 2.66407 15.771 2.6647 15.8321 2.66367C16.1567 2.65877 16.3661 2.49215 16.3618 2.24359C16.357 1.99557 16.1479 1.83285 15.8193 1.83255C13.9493 1.83108 12.0793 1.83155 10.2092 1.83235C9.84853 1.83245 9.65176 1.97932 9.64799 2.24359C9.64404 2.51807 9.84067 2.66334 10.222 2.66367C11.1483 2.6646 12.0744 2.66407 13.0009 2.66407ZM13.2293 6.67897C14.4322 6.33446 15.6031 6.34033 16.804 6.6749C16.804 6.44129 16.8078 6.23256 16.8035 6.02391C16.7928 5.53156 16.4539 5.18382 15.9277 5.1686C15.3166 5.15092 14.7036 5.15139 14.0924 5.1696C13.6247 5.18355 13.2672 5.50274 13.233 5.91388C13.2127 6.15556 13.2293 6.39991 13.2293 6.67897ZM15.4541 3.51401H14.5868V4.31116H15.4541V3.51401Z"/>
</mask>
<path d="M3.98498 26C2.79488 25.6535 1.91188 24.971 1.422 23.8981C0.757615 22.4437 0.886919 21.0258 1.74495 19.6688C1.91658 19.3974 2.15083 19.1609 2.34276 18.8997C2.40672 18.8126 2.46009 18.6996 2.46346 18.5968C2.47662 18.1663 2.46543 17.735 2.46988 17.3039C2.47834 16.5333 3.04703 16.0002 3.87709 15.998C5.5297 15.9931 7.18235 15.9964 8.83504 15.9964C8.93917 15.9964 9.04351 15.9964 9.18892 15.9964V15.7277C9.18892 14.4835 9.18067 13.239 9.19089 11.9948C9.20843 9.85417 10.1909 8.21819 12.1681 7.10438C12.2492 7.05858 12.3165 6.93436 12.3232 6.84251C12.3437 6.56727 12.3283 6.28988 12.3313 6.0134C12.3391 5.30619 12.762 4.7206 13.4672 4.46176C13.6186 4.40611 13.6899 4.34222 13.6784 4.18311C13.6627 3.96615 13.6745 3.74708 13.6745 3.49639C13.5556 3.49639 13.4631 3.49639 13.3706 3.49639C12.3301 3.49639 11.289 3.47564 10.2491 3.5028C9.3561 3.52608 8.86596 2.98396 8.7689 2.48177C8.64136 1.82228 9.0118 1.29527 9.77633 1.0329C9.79071 1.02796 9.8005 1.01128 9.81234 1C11.9299 1 14.0473 1 16.1649 1C16.2368 1.02676 16.3084 1.05448 16.3806 1.07984C17.3482 1.41901 17.5912 2.6267 16.7558 3.18824C16.3913 3.43333 16.3271 3.67992 16.3645 4.028C16.3704 4.08432 16.3726 4.14274 16.3641 4.19849C16.3418 4.34422 16.4135 4.40454 16.5578 4.45996C17.2835 4.73855 17.6673 5.25098 17.6973 5.98244C17.7085 6.25875 17.7116 6.5362 17.6963 6.81215C17.687 6.97567 17.7548 7.05694 17.9031 7.13364C18.6648 7.5272 19.2981 8.05691 19.7777 8.73536C19.8786 8.87799 19.9879 8.91792 20.1609 8.91709C21.5343 8.91152 22.9078 8.91152 24.2811 8.91526C24.9661 8.91699 25.5173 9.29727 25.6405 9.8862C25.6913 10.1279 25.666 10.3885 25.6424 10.6377C25.4983 12.1688 25.3446 13.6991 25.195 15.2297C25.0478 16.7359 24.8962 18.2419 24.7566 19.7487C24.6053 21.3843 24.3642 23.0141 24.4159 24.6629C24.4368 25.3372 24.1087 25.7315 23.4172 25.9584C23.3949 25.9657 23.3771 25.9858 23.3573 26H3.98498ZM18.7996 8.91609C18.7179 8.8211 18.6793 8.76852 18.6325 8.72288C17.4042 7.5264 15.8974 7.04186 14.1573 7.33132C11.7398 7.73345 10.106 9.58903 10.0865 11.8775C10.0757 13.1708 10.0844 14.4644 10.085 15.758C10.0851 15.829 10.0938 15.9001 10.0991 15.9806C10.1639 15.9868 10.2143 15.9956 10.2649 15.9956C10.7983 15.9967 11.3322 15.9892 11.8653 15.9984C12.6496 16.012 13.2155 16.5462 13.224 17.2734C13.2289 17.7044 13.2152 18.1359 13.2312 18.5666C13.2356 18.6842 13.2954 18.8126 13.3672 18.913C13.5558 19.1763 13.7861 19.4149 13.9621 19.6845C15.1923 21.568 14.763 23.8518 13.4083 25.0755C13.3879 25.0939 13.381 25.125 13.3651 25.1549H18.1559C18.1559 24.8584 18.1628 24.5754 18.1545 24.2927C18.1352 23.6592 18.1356 23.0237 18.0795 22.3928C17.9271 20.6831 17.7498 18.9752 17.5821 17.2667C17.4319 15.7364 17.2802 14.2061 17.1311 12.6755C17.0509 11.8496 16.9522 11.0244 16.9044 10.1967C16.8641 9.50058 17.4437 8.95142 18.1935 8.91726C18.3756 8.90892 18.5587 8.91609 18.7996 8.91609ZM3.37199 18.4968C3.4891 18.4968 3.58318 18.4965 3.6773 18.4968C3.86963 18.4974 4.06274 18.4897 4.25445 18.5012C4.52924 18.5177 4.71209 18.6902 4.71288 18.9155C4.71364 19.1432 4.53196 19.3102 4.25603 19.3284C4.14305 19.3358 4.02884 19.3318 3.91511 19.3318C3.02164 19.332 3.02164 19.332 2.54822 20.038C2.5343 20.0586 2.52027 20.0793 2.50668 20.1001C1.6536 21.4178 1.71192 23.1269 2.67228 24.2283C3.20037 24.8341 3.84958 25.1929 4.74692 25.179C6.88085 25.1456 9.01575 25.1633 11.1503 25.1727C11.5335 25.1745 11.8728 25.0863 12.1941 24.9053C12.7565 24.5883 13.1861 24.1583 13.4397 23.5925C14.1038 22.1112 13.8165 20.766 12.7565 19.5319C12.6309 19.3857 12.4968 19.3266 12.2915 19.3275C10.4458 19.3351 8.60004 19.332 6.75431 19.3315C6.64954 19.3315 6.54347 19.3338 6.44032 19.3198C6.21037 19.2884 6.08544 19.1539 6.06496 18.9427C6.04491 18.7348 6.18501 18.5617 6.41037 18.5175C6.51195 18.4976 6.61887 18.4976 6.72339 18.4976C8.48174 18.4965 10.2399 18.4968 11.998 18.4968H12.3305C12.3305 18.1198 12.3308 17.772 12.3303 17.4242C12.3299 16.9575 12.1933 16.8296 11.6923 16.8294C9.12912 16.8291 6.56625 16.8291 4.00327 16.8296C3.92454 16.8296 3.84463 16.8261 3.76762 16.8379C3.54326 16.8724 3.38638 16.9975 3.37734 17.207C3.35905 17.6268 3.37199 18.0479 3.37199 18.4968ZM23.5681 22.6579C23.9209 19.0494 24.272 15.4522 24.6234 11.8566H17.9534C18.3069 15.4699 18.6582 19.0621 19.0094 22.6579H23.5681ZM24.703 10.9968C24.7277 10.7671 24.7565 10.5588 24.7719 10.3497C24.8051 9.89024 24.6578 9.74667 24.1606 9.74667C22.2462 9.74614 20.3317 9.74631 18.4175 9.74677C18.339 9.74677 18.2589 9.74227 18.1825 9.75525C17.9725 9.79141 17.8087 9.90752 17.8044 10.1053C17.798 10.4011 17.8421 10.6979 17.865 10.9968H24.703ZM19.052 23.5169C19.052 23.9488 19.0446 24.3545 19.0549 24.76C19.0608 24.9939 19.2352 25.162 19.4897 25.1636C20.6866 25.1706 21.884 25.1703 23.0808 25.1639C23.3156 25.1627 23.4993 25.0385 23.5107 24.814C23.5325 24.3866 23.5172 23.9578 23.5172 23.5169H19.052ZM13.0009 2.66407C13.8836 2.66407 14.766 2.66407 15.6486 2.66407C15.7098 2.66407 15.771 2.6647 15.8321 2.66367C16.1567 2.65877 16.3661 2.49215 16.3618 2.24359C16.357 1.99557 16.1479 1.83285 15.8193 1.83255C13.9493 1.83108 12.0793 1.83155 10.2092 1.83235C9.84853 1.83245 9.65176 1.97932 9.64799 2.24359C9.64404 2.51807 9.84067 2.66334 10.222 2.66367C11.1483 2.6646 12.0744 2.66407 13.0009 2.66407ZM13.2293 6.67897C14.4322 6.33446 15.6031 6.34033 16.804 6.6749C16.804 6.44129 16.8078 6.23256 16.8035 6.02391C16.7928 5.53156 16.4539 5.18382 15.9277 5.1686C15.3166 5.15092 14.7036 5.15139 14.0924 5.1696C13.6247 5.18355 13.2672 5.50274 13.233 5.91388C13.2127 6.15556 13.2293 6.39991 13.2293 6.67897ZM15.4541 3.51401H14.5868V4.31116H15.4541V3.51401Z" fill="white"/>
<path d="M3.98498 26C2.79488 25.6535 1.91188 24.971 1.422 23.8981C0.757615 22.4437 0.886919 21.0258 1.74495 19.6688C1.91658 19.3974 2.15083 19.1609 2.34276 18.8997C2.40672 18.8126 2.46009 18.6996 2.46346 18.5968C2.47662 18.1663 2.46543 17.735 2.46988 17.3039C2.47834 16.5333 3.04703 16.0002 3.87709 15.998C5.5297 15.9931 7.18235 15.9964 8.83504 15.9964C8.93917 15.9964 9.04351 15.9964 9.18892 15.9964V15.7277C9.18892 14.4835 9.18067 13.239 9.19089 11.9948C9.20843 9.85417 10.1909 8.21819 12.1681 7.10438C12.2492 7.05858 12.3165 6.93436 12.3232 6.84251C12.3437 6.56727 12.3283 6.28988 12.3313 6.0134C12.3391 5.30619 12.762 4.7206 13.4672 4.46176C13.6186 4.40611 13.6899 4.34222 13.6784 4.18311C13.6627 3.96615 13.6745 3.74708 13.6745 3.49639C13.5556 3.49639 13.4631 3.49639 13.3706 3.49639C12.3301 3.49639 11.289 3.47564 10.2491 3.5028C9.3561 3.52608 8.86596 2.98396 8.7689 2.48177C8.64136 1.82228 9.0118 1.29527 9.77633 1.0329C9.79071 1.02796 9.8005 1.01128 9.81234 1C11.9299 1 14.0473 1 16.1649 1C16.2368 1.02676 16.3084 1.05448 16.3806 1.07984C17.3482 1.41901 17.5912 2.6267 16.7558 3.18824C16.3913 3.43333 16.3271 3.67992 16.3645 4.028C16.3704 4.08432 16.3726 4.14274 16.3641 4.19849C16.3418 4.34422 16.4135 4.40454 16.5578 4.45996C17.2835 4.73855 17.6673 5.25098 17.6973 5.98244C17.7085 6.25875 17.7116 6.5362 17.6963 6.81215C17.687 6.97567 17.7548 7.05694 17.9031 7.13364C18.6648 7.5272 19.2981 8.05691 19.7777 8.73536C19.8786 8.87799 19.9879 8.91792 20.1609 8.91709C21.5343 8.91152 22.9078 8.91152 24.2811 8.91526C24.9661 8.91699 25.5173 9.29727 25.6405 9.8862C25.6913 10.1279 25.666 10.3885 25.6424 10.6377C25.4983 12.1688 25.3446 13.6991 25.195 15.2297C25.0478 16.7359 24.8962 18.2419 24.7566 19.7487C24.6053 21.3843 24.3642 23.0141 24.4159 24.6629C24.4368 25.3372 24.1087 25.7315 23.4172 25.9584C23.3949 25.9657 23.3771 25.9858 23.3573 26H3.98498ZM18.7996 8.91609C18.7179 8.8211 18.6793 8.76852 18.6325 8.72288C17.4042 7.5264 15.8974 7.04186 14.1573 7.33132C11.7398 7.73345 10.106 9.58903 10.0865 11.8775C10.0757 13.1708 10.0844 14.4644 10.085 15.758C10.0851 15.829 10.0938 15.9001 10.0991 15.9806C10.1639 15.9868 10.2143 15.9956 10.2649 15.9956C10.7983 15.9967 11.3322 15.9892 11.8653 15.9984C12.6496 16.012 13.2155 16.5462 13.224 17.2734C13.2289 17.7044 13.2152 18.1359 13.2312 18.5666C13.2356 18.6842 13.2954 18.8126 13.3672 18.913C13.5558 19.1763 13.7861 19.4149 13.9621 19.6845C15.1923 21.568 14.763 23.8518 13.4083 25.0755C13.3879 25.0939 13.381 25.125 13.3651 25.1549H18.1559C18.1559 24.8584 18.1628 24.5754 18.1545 24.2927C18.1352 23.6592 18.1356 23.0237 18.0795 22.3928C17.9271 20.6831 17.7498 18.9752 17.5821 17.2667C17.4319 15.7364 17.2802 14.2061 17.1311 12.6755C17.0509 11.8496 16.9522 11.0244 16.9044 10.1967C16.8641 9.50058 17.4437 8.95142 18.1935 8.91726C18.3756 8.90892 18.5587 8.91609 18.7996 8.91609ZM3.37199 18.4968C3.4891 18.4968 3.58318 18.4965 3.6773 18.4968C3.86963 18.4974 4.06274 18.4897 4.25445 18.5012C4.52924 18.5177 4.71209 18.6902 4.71288 18.9155C4.71364 19.1432 4.53196 19.3102 4.25603 19.3284C4.14305 19.3358 4.02884 19.3318 3.91511 19.3318C3.02164 19.332 3.02164 19.332 2.54822 20.038C2.5343 20.0586 2.52027 20.0793 2.50668 20.1001C1.6536 21.4178 1.71192 23.1269 2.67228 24.2283C3.20037 24.8341 3.84958 25.1929 4.74692 25.179C6.88085 25.1456 9.01575 25.1633 11.1503 25.1727C11.5335 25.1745 11.8728 25.0863 12.1941 24.9053C12.7565 24.5883 13.1861 24.1583 13.4397 23.5925C14.1038 22.1112 13.8165 20.766 12.7565 19.5319C12.6309 19.3857 12.4968 19.3266 12.2915 19.3275C10.4458 19.3351 8.60004 19.332 6.75431 19.3315C6.64954 19.3315 6.54347 19.3338 6.44032 19.3198C6.21037 19.2884 6.08544 19.1539 6.06496 18.9427C6.04491 18.7348 6.18501 18.5617 6.41037 18.5175C6.51195 18.4976 6.61887 18.4976 6.72339 18.4976C8.48174 18.4965 10.2399 18.4968 11.998 18.4968H12.3305C12.3305 18.1198 12.3308 17.772 12.3303 17.4242C12.3299 16.9575 12.1933 16.8296 11.6923 16.8294C9.12912 16.8291 6.56625 16.8291 4.00327 16.8296C3.92454 16.8296 3.84463 16.8261 3.76762 16.8379C3.54326 16.8724 3.38638 16.9975 3.37734 17.207C3.35905 17.6268 3.37199 18.0479 3.37199 18.4968ZM23.5681 22.6579C23.9209 19.0494 24.272 15.4522 24.6234 11.8566H17.9534C18.3069 15.4699 18.6582 19.0621 19.0094 22.6579H23.5681ZM24.703 10.9968C24.7277 10.7671 24.7565 10.5588 24.7719 10.3497C24.8051 9.89024 24.6578 9.74667 24.1606 9.74667C22.2462 9.74614 20.3317 9.74631 18.4175 9.74677C18.339 9.74677 18.2589 9.74227 18.1825 9.75525C17.9725 9.79141 17.8087 9.90752 17.8044 10.1053C17.798 10.4011 17.8421 10.6979 17.865 10.9968H24.703ZM19.052 23.5169C19.052 23.9488 19.0446 24.3545 19.0549 24.76C19.0608 24.9939 19.2352 25.162 19.4897 25.1636C20.6866 25.1706 21.884 25.1703 23.0808 25.1639C23.3156 25.1627 23.4993 25.0385 23.5107 24.814C23.5325 24.3866 23.5172 23.9578 23.5172 23.5169H19.052ZM13.0009 2.66407C13.8836 2.66407 14.766 2.66407 15.6486 2.66407C15.7098 2.66407 15.771 2.6647 15.8321 2.66367C16.1567 2.65877 16.3661 2.49215 16.3618 2.24359C16.357 1.99557 16.1479 1.83285 15.8193 1.83255C13.9493 1.83108 12.0793 1.83155 10.2092 1.83235C9.84853 1.83245 9.65176 1.97932 9.64799 2.24359C9.64404 2.51807 9.84067 2.66334 10.222 2.66367C11.1483 2.6646 12.0744 2.66407 13.0009 2.66407ZM13.2293 6.67897C14.4322 6.33446 15.6031 6.34033 16.804 6.6749C16.804 6.44129 16.8078 6.23256 16.8035 6.02391C16.7928 5.53156 16.4539 5.18382 15.9277 5.1686C15.3166 5.15092 14.7036 5.15139 14.0924 5.1696C13.6247 5.18355 13.2672 5.50274 13.233 5.91388C13.2127 6.15556 13.2293 6.39991 13.2293 6.67897ZM15.4541 3.51401H14.5868V4.31116H15.4541V3.51401Z" stroke="white" stroke-width="0.6" mask="url(#path-1-outside-1_97_4323)"/>
<path d="M12.6395 12.4307L12.6398 12.4307C12.7696 10.8098 13.5901 9.58819 15.1679 8.82711L15.1679 8.82708C15.2855 8.77044 15.4118 8.73025 15.5433 8.7299C15.6782 8.72953 15.8088 8.77112 15.9312 8.86222C16.1126 8.99714 16.1947 9.19741 16.1622 9.39734C16.1301 9.59456 15.9909 9.76757 15.7792 9.86788L15.7791 9.86791C15.3311 10.0799 14.9436 10.3439 14.6346 10.6964L12.6395 12.4307ZM12.6395 12.4307L12.6393 12.4392M12.6395 12.4307L12.6393 12.4392M12.6393 12.4392C12.6339 12.6715 12.7152 12.8771 12.8694 13.0092C13.0255 13.1428 13.2384 13.1854 13.4596 13.1232L13.4598 13.1232C13.6181 13.0785 13.7349 12.9945 13.8103 12.8759C13.8833 12.7614 13.9087 12.6286 13.9137 12.5001L13.9137 12.4999M12.6393 12.4392L13.9137 12.4999M13.9137 12.4999C13.939 11.8266 14.1721 11.2244 14.6346 10.6965L13.9137 12.4999Z" stroke="white" stroke-width="0.3"/>
<path d="M13.1673 22.3071C13.0918 22.2426 12.9927 22.2163 12.9131 22.2034C12.8295 22.1897 12.742 22.1872 12.6722 22.1867L12.6719 22.1867C11.8072 22.182 10.9423 22.1827 10.0779 22.1834C9.8637 22.1836 9.64955 22.1837 9.43544 22.1838L6.17095 23.3743C6.18076 23.3742 6.18993 23.3741 6.19815 23.3741C6.62761 23.3741 7.05709 23.3741 7.48657 23.3742C9.20451 23.3743 10.9225 23.3744 12.6404 23.3725L12.6402 23.2225V23.3725C12.6521 23.3725 12.666 23.3727 12.6811 23.3729C12.7252 23.3736 12.7803 23.3743 12.8292 23.371C12.8931 23.3666 12.9849 23.354 13.0586 23.2993L13.0589 23.2991C13.1268 23.2485 13.2057 23.184 13.2717 23.1109C13.3352 23.0405 13.4014 22.9465 13.4189 22.8363C13.4366 22.7263 13.3958 22.616 13.3508 22.5341C13.3035 22.4479 13.2369 22.3664 13.1673 22.3071ZM13.1673 22.3071C13.1673 22.3072 13.1674 22.3072 13.1674 22.3073L13.0699 22.4212M13.1673 22.3071C13.1672 22.3071 13.1671 22.307 13.167 22.307L13.0699 22.4212M13.0699 22.4212C13.1807 22.5155 13.2906 22.6901 13.2708 22.8127C13.2495 22.9476 13.0982 23.0829 12.9693 23.1788L13.0699 22.4212ZM6.08457 23.2235C5.74947 23.2089 5.53473 23.0331 5.53516 22.7742M6.08457 23.2235L8.44354 22.3334C7.6581 22.3329 6.87248 22.3324 6.0869 22.3353C5.74796 22.3363 5.53535 22.5145 5.53516 22.7742M6.08457 23.2235L6.07779 23.3734C6.07782 23.3734 6.07786 23.3734 6.0779 23.3734C5.88713 23.365 5.71583 23.3103 5.58906 23.2065C5.45915 23.1002 5.38487 22.9491 5.38516 22.7739L5.53516 22.7742M6.08457 23.2235L6.07801 23.3734L6.08635 22.1853C5.89202 22.1859 5.71825 22.2373 5.58978 22.341C5.45843 22.447 5.38529 22.5996 5.38516 22.774L5.53516 22.7742M8.44399 22.1834C7.65842 22.1829 6.8723 22.1824 6.0864 22.1853L9.4354 22.1838C9.10506 22.1839 8.77458 22.1836 8.44399 22.1834Z" stroke="white" stroke-width="0.3"/>
<path d="M9.93444 23.9641C10.3707 23.9637 10.8074 23.9633 11.2437 23.9652C11.4484 23.966 11.629 24.008 11.7621 24.1087C11.9018 24.2142 11.9693 24.3691 11.971 24.548C11.9729 24.7283 11.904 24.8864 11.7683 24.9962C11.6367 25.1027 11.4572 25.1518 11.255 25.1523M9.93444 23.9641L11.255 25.1523M9.93444 23.9641C9.75575 23.9642 9.57711 23.9644 9.39857 23.9644M9.93444 23.9641L9.39857 23.9644M11.255 25.1523C10.025 25.1557 8.79511 25.1553 7.56527 25.1525C7.36348 25.1521 7.1836 25.1037 7.05001 25.0011C6.91244 24.8953 6.83675 24.7412 6.83445 24.5623M11.255 25.1523L6.83445 24.5623M9.39857 23.9644C9.22276 23.9644 9.04683 23.9642 8.87082 23.9641C8.43203 23.9637 7.99278 23.9633 7.55367 23.9653L9.39857 23.9644ZM6.83445 24.5623C6.83445 24.5622 6.83444 24.5622 6.83444 24.5621L6.98443 24.5602L6.83445 24.5624C6.83445 24.5624 6.83445 24.5623 6.83445 24.5623Z" stroke="white" stroke-width="0.3"/>
</svg>
