<svg width="26" height="26" viewBox="0 0 26 26" fill="none" xmlns="http://www.w3.org/2000/svg">
<path d="M12.9993 2.16666C7.02585 2.16666 2.16602 7.02649 2.16602 13V17.4882C2.16602 18.5976 3.13777 19.5 4.33268 19.5H5.41602C5.70333 19.5 5.97888 19.3859 6.18205 19.1827C6.38521 18.9795 6.49935 18.704 6.49935 18.4167V12.8451C6.49935 12.5578 6.38521 12.2822 6.18205 12.079C5.97888 11.8759 5.70333 11.7617 5.41602 11.7617H4.43235C5.03468 7.56924 8.64218 4.33332 12.9993 4.33332C17.3565 4.33332 20.964 7.56924 21.5664 11.7617H20.5827C20.2954 11.7617 20.0198 11.8759 19.8167 12.079C19.6135 12.2822 19.4993 12.5578 19.4993 12.8451V19.5C19.4993 20.6949 18.5276 21.6667 17.3327 21.6667H15.166V20.5833H10.8327V23.8333H17.3327C19.7225 23.8333 21.666 21.8898 21.666 19.5C22.8609 19.5 23.8327 18.5976 23.8327 17.4882V13C23.8327 7.02649 18.9728 2.16666 12.9993 2.16666Z" fill="white"/>
</svg>
