<svg width="20" height="17" viewBox="0 0 20 17" fill="none" xmlns="http://www.w3.org/2000/svg">
<g clip-path="url(#clip0_1264_4248)">
<path d="M1.41161 14.802C1.41161 14.2034 1.41161 13.6619 1.41161 13.1204C1.41161 11.2195 1.40849 9.31856 1.41552 7.41691C1.41552 7.19615 1.37647 7.07837 1.11877 6.99021C0.408139 6.74797 0.0676603 6.21829 0.0176818 5.51675C-0.029954 4.84558 -0.00808838 4.18997 0.427662 3.60621C0.576036 3.40768 0.649442 3.16025 0.786883 2.95208C1.22888 2.28461 1.4202 1.57344 1.3507 0.778557C1.30307 0.234065 1.5678 0.0140463 2.14021 0.00441579C2.45257 -0.000769847 2.76494 -0.00151065 3.0773 0.00441579C3.30455 0.00960143 3.60208 -0.0363285 3.59583 0.294071C3.59037 0.595578 3.31314 0.56002 3.09449 0.561501C2.72121 0.564465 2.34715 0.562242 1.95279 0.562242V1.65567H18.0388V0.562983C17.8889 0.562983 17.739 0.562983 17.5883 0.562983C13.4635 0.562983 9.3379 0.562983 5.21311 0.562983C5.12174 0.562983 5.03115 0.564465 4.93979 0.562983C4.71879 0.558538 4.44937 0.58817 4.45015 0.283699C4.45093 -0.0207716 4.72503 0.0051566 4.94291 0.0051566C9.23716 0.00367499 13.5314 0.00293418 17.8257 0.0051566C18.4293 0.0051566 18.687 0.223694 18.6433 0.789669C18.5831 1.569 18.7542 2.27128 19.1954 2.92837C19.3758 3.19729 19.4749 3.51509 19.66 3.77956C20.0833 4.38554 20.02 5.05152 19.9458 5.7101C19.8732 6.35312 19.4718 6.77982 18.8346 7.02207C18.7268 7.06281 18.5933 7.21467 18.5925 7.31616C18.58 9.76008 18.5831 12.2047 18.5855 14.6487C18.5855 14.6835 18.6011 14.7183 18.6206 14.8027C18.7651 14.8027 18.9158 14.7976 19.0665 14.8035C19.5929 14.8242 19.963 15.1731 19.9825 15.6754C19.9927 15.934 19.981 16.194 19.9857 16.4533C19.9919 16.8081 19.7858 16.9674 19.4382 16.9955C19.3352 17.0037 19.2305 16.9985 19.1259 16.9985C13.0355 16.9985 6.94596 16.9985 0.855603 16.9985C0.111392 16.9985 0.00752991 16.8977 0.00752991 16.1836C0.00752991 16.048 0.00596808 15.9117 0.00752991 15.7762C0.0145581 15.1568 0.369093 14.8139 1.01491 14.802C1.1297 14.7998 1.2445 14.802 1.41083 14.802H1.41161ZM2.5088 14.7894C2.5088 14.6146 2.5088 14.4805 2.5088 14.3464C2.5088 12.4951 2.50724 10.6439 2.50958 8.79185C2.50958 8.29255 2.68529 8.1229 3.20616 8.12068C4.20807 8.11623 5.20998 8.11772 6.2119 8.11994C6.83897 8.12142 6.96704 8.24069 6.96782 8.83482C6.97016 10.6742 6.9686 12.5129 6.9686 14.3523C6.9686 14.4946 6.9686 14.6368 6.9686 14.7746H18.024C18.024 14.4168 18.024 14.0864 18.024 13.7552C18.024 11.6447 18.0264 9.53414 18.0178 7.42358C18.0178 7.29616 17.9662 7.11467 17.871 7.05244C17.5578 6.84723 17.2126 6.685 16.8558 6.49387C16.5434 6.84131 16.1108 7.09837 15.5298 7.09689C14.9566 7.09541 14.5232 6.84131 14.1639 6.45016C13.1402 7.3295 12.4983 7.32654 11.3612 6.45535C10.4694 7.33172 9.53078 7.33024 8.61633 6.43905C8.24774 6.82353 7.82214 7.09318 7.24036 7.09837C6.64843 7.10355 6.21658 6.81983 5.83315 6.44276C4.97805 7.32505 4.06672 7.31987 3.10229 6.47239C2.84225 6.64351 2.61032 6.86946 2.32919 6.96132C2.00979 7.06577 1.9645 7.22801 1.96606 7.50285C1.97543 9.78601 1.97153 12.0699 1.97153 14.3531C1.97153 14.4953 1.97153 14.6368 1.97153 14.7909H2.51036L2.5088 14.7894ZM0.632262 16.4103H19.3766C19.5288 15.4198 19.45 15.3324 18.4418 15.3324C12.8106 15.3324 7.18023 15.3324 1.54906 15.3324C0.552608 15.3324 0.483107 15.4065 0.593997 16.354C0.595559 16.3651 0.607272 16.3747 0.631481 16.411L0.632262 16.4103ZM3.11713 14.7731H6.37511V8.6748H3.11713V14.7731ZM11.0715 4.15959C11.0184 3.48324 10.97 2.86392 10.9208 2.23276H9.07004C9.02241 2.8817 8.97633 3.51065 8.9287 4.15959H11.0715ZM6.20877 4.15367H8.3477C8.39533 3.50398 8.44063 2.88393 8.48826 2.23572H6.64374C6.50162 2.86096 6.35949 3.48916 6.20877 4.15367ZM13.7852 4.15885C13.6345 3.49509 13.4908 2.85874 13.351 2.24239H11.5034C11.5534 2.89652 11.6002 3.51657 11.6494 4.15885H13.7852ZM6.05962 2.21128C5.45831 2.21128 4.94057 2.20535 4.42282 2.2172C4.34082 2.21942 4.21432 2.28461 4.18777 2.34981C3.94959 2.94023 3.72859 3.53732 3.48416 4.18182C4.17293 4.18182 4.79375 4.187 5.41458 4.17515C5.49033 4.17367 5.61371 4.09292 5.63011 4.02921C5.77849 3.44694 5.9089 2.86096 6.05962 2.21053V2.21128ZM16.5043 4.167C16.2638 3.53213 16.046 2.94467 15.8148 2.36166C15.7898 2.29869 15.6914 2.22091 15.625 2.21942C15.0831 2.20757 14.5403 2.21276 13.939 2.21276C14.0929 2.89504 14.235 3.52546 14.3795 4.167H16.5043ZM0.774388 4.18034C1.48658 4.18034 2.10507 4.18478 2.72277 4.17441C2.79071 4.17293 2.89379 4.09885 2.91878 4.03662C3.15462 3.44323 3.3764 2.8454 3.61692 2.21128C3.03435 2.21128 2.51505 2.20535 1.99652 2.2172C1.91218 2.21942 1.79036 2.28017 1.75287 2.34758C1.43426 2.92319 1.13127 3.50694 0.774388 4.18034ZM16.3763 2.21128C16.6199 2.85133 16.8433 3.44916 17.0775 4.04403C17.0994 4.09959 17.1837 4.17145 17.24 4.17219C17.8702 4.18108 18.5011 4.17811 19.2204 4.17811C18.8619 3.50546 18.5464 2.90541 18.2169 2.31128C18.1864 2.25572 18.0685 2.2172 17.9904 2.21572C17.4735 2.20757 16.9557 2.21128 16.3763 2.21128ZM8.90917 4.73668C8.90917 5.05893 8.87872 5.36711 8.9162 5.66713C8.97868 6.16569 9.43161 6.53536 9.95404 6.56277C10.4445 6.58869 10.9349 6.26792 11.0403 5.77973C11.1137 5.44193 11.0864 5.08412 11.1043 4.73594H8.90917V4.73668ZM3.36312 4.73668C3.36312 5.05226 3.34282 5.32488 3.36781 5.59305C3.417 6.1205 3.83089 6.5035 4.37675 6.55906C4.87419 6.60944 5.40677 6.27978 5.50517 5.78418C5.57233 5.44637 5.51766 5.08708 5.51766 4.73742H3.36234L3.36312 4.73668ZM14.442 4.73742C14.442 5.0293 14.4318 5.29821 14.4443 5.56564C14.4685 6.08272 14.8707 6.4835 15.4212 6.55462C15.9187 6.61907 16.445 6.30571 16.5653 5.80714C16.6465 5.46934 16.6293 5.11005 16.6574 4.73668H14.442V4.73742ZM0.6143 4.7352C0.6143 5.05226 0.598682 5.33377 0.617424 5.61379C0.651003 6.1205 1.08988 6.52054 1.63183 6.56128C2.11288 6.59758 2.63453 6.26422 2.73214 5.80048C2.80398 5.46045 2.79149 5.10412 2.81804 4.73446H0.6143V4.7352ZM19.3805 4.73816H17.1728C17.2009 5.11153 17.1892 5.46786 17.2634 5.80863C17.3641 6.27163 17.8913 6.60203 18.37 6.56128C18.9135 6.51535 19.3445 6.11606 19.3773 5.60639C19.3953 5.3271 19.3805 5.04634 19.3805 4.73816ZM8.32271 4.71742H6.14708C6.1463 5.37007 5.99246 6.00716 6.66404 6.40201C7.04982 6.6287 7.45511 6.62129 7.83307 6.37682C8.46093 5.97086 8.32505 5.35673 8.32349 4.71742H8.32271ZM11.6744 4.73668C11.665 5.36859 11.5377 5.99235 12.189 6.39831C12.5607 6.63018 13.0324 6.61018 13.3916 6.36349C14.0085 5.93901 13.8406 5.33155 13.8438 4.73668H11.6744Z" fill="#FFFFFF"/>
<path d="M8.20091 8.64601V13.0042H16.6098V8.64601C16.1592 8.64601 15.7211 8.64601 15.2838 8.64601C14.5943 8.64601 13.9047 8.65934 13.2159 8.63415C13.0793 8.62897 12.8606 8.49859 12.8325 8.38969C12.7724 8.16226 12.9871 8.12003 13.1847 8.12003C14.3295 8.12003 15.4736 8.11485 16.6184 8.123C17.0151 8.12596 17.1861 8.2919 17.1877 8.67268C17.1939 10.1165 17.1947 11.5596 17.1877 13.0034C17.1861 13.4131 16.9885 13.5827 16.5137 13.585C15.3955 13.5916 14.2764 13.5872 13.1582 13.5872C11.5713 13.5872 9.98452 13.5887 8.3977 13.5872C7.7636 13.5864 7.5918 13.4198 7.59102 12.8145C7.58945 11.4944 7.58945 10.1743 7.59102 8.85417C7.59102 8.28301 7.75657 8.12152 8.34382 8.12003C9.38399 8.11781 10.425 8.12003 11.4651 8.12003C11.4909 8.12003 11.5175 8.12003 11.5432 8.12003C11.7463 8.11781 11.9649 8.12003 11.968 8.37932C11.9712 8.63638 11.7619 8.64823 11.5526 8.64823C10.5905 8.64601 9.62764 8.64749 8.66555 8.64749C8.52499 8.64749 8.38364 8.64749 8.19935 8.64749L8.20091 8.64601Z" fill="#8E8E8E"/>
<path d="M5.97415 12.2389C6.06127 12.2389 6.1319 12.1112 6.1319 11.9537C6.1319 11.7962 6.06127 11.6685 5.97415 11.6685C5.88703 11.6685 5.81641 11.7962 5.81641 11.9537C5.81641 12.1112 5.88703 12.2389 5.97415 12.2389Z" fill="#8E8E8E"/>
</g>
<defs>
<clipPath id="clip0_1264_4248">
<rect width="20" height="17" fill="white"/>
</clipPath>
</defs>
</svg>
