<svg width="18" height="12" viewBox="0 0 18 12" fill="none" xmlns="http://www.w3.org/2000/svg">
<path d="M8.96414 1C6.10314 1 3.84614 2.8 1.14814 5.744C1.05377 5.84767 1.00146 5.98281 1.00146 6.123C1.00146 6.26319 1.05377 6.39833 1.14814 6.502C3.45814 9.054 5.49414 11.25 8.96714 11.25C12.3981 11.25 14.9671 8.485 16.8001 6.481C16.8922 6.38135 16.9449 6.25155 16.9482 6.1159C16.9515 5.98024 16.9053 5.84803 16.8181 5.744C14.9481 3.484 12.3701 1 8.96414 1ZM9.12114 9.325C8.47642 9.35458 7.83782 9.18851 7.28918 8.8486C6.74055 8.5087 6.30751 8.01084 6.04693 7.42038C5.78634 6.82993 5.71039 6.17448 5.82904 5.54008C5.94769 4.90568 6.25539 4.32199 6.71176 3.86562C7.16812 3.40925 7.75182 3.10155 8.38622 2.9829C9.02062 2.86425 9.67607 2.94021 10.2665 3.20079C10.857 3.46137 11.3548 3.89441 11.6947 4.44305C12.0346 4.99168 12.2007 5.63028 12.1711 6.275C12.1346 7.07214 11.8015 7.82685 11.2372 8.3911C10.673 8.95536 9.91827 9.28843 9.12114 9.325Z" stroke="white" stroke-width="0.5"/>
</svg>
