<svg width="14" height="13" viewBox="0 0 14 13" fill="none" xmlns="http://www.w3.org/2000/svg">
<path d="M9.50016 0.500193C8.96909 0.504972 8.4452 0.623471 7.96377 0.847713C7.48234 1.07196 7.05454 1.39674 6.70916 1.80019C6.36346 1.39636 5.93517 1.07135 5.45319 0.847094C4.97121 0.622837 4.44674 0.504544 3.91516 0.500193C3.46547 0.495784 3.01942 0.581104 2.6031 0.751162C2.18678 0.92122 1.80856 1.1726 1.49056 1.4906C1.17257 1.80859 0.92119 2.18681 0.751132 2.60313C0.581073 3.01945 0.495753 3.4655 0.500163 3.91519C0.500163 6.26219 2.61116 8.17519 5.80916 11.0802L6.70916 11.8932L7.60916 11.0732C10.8092 8.17319 12.9182 6.26119 12.9182 3.91419C12.9224 3.46433 12.8369 3.01814 12.6666 2.60173C12.4963 2.18533 12.2447 1.80709 11.9264 1.48916C11.608 1.17124 11.2295 0.920009 10.8129 0.750192C10.3963 0.580376 9.95002 0.495384 9.50016 0.500193Z" stroke="white" stroke-width="0.7"/>
</svg>
