<svg width="40" height="40" viewBox="0 0 40 40" fill="none" xmlns="http://www.w3.org/2000/svg">
<path opacity="0.5" d="M32 0H8C3.58172 0 0 3.58172 0 8V32C0 36.4183 3.58172 40 8 40H32C36.4183 40 40 36.4183 40 32V8C40 3.58172 36.4183 0 32 0Z" fill="black"/>
<path d="M12.8615 27.179C11.9411 27.179 11.1229 27.0213 10.407 26.706C9.69531 26.3906 9.13281 25.9517 8.71946 25.3892C8.30611 24.8267 8.08665 24.1768 8.06108 23.4396H10.4645C10.4858 23.7933 10.603 24.1023 10.8161 24.3665C11.0291 24.6264 11.3125 24.8288 11.6662 24.9737C12.0199 25.1186 12.4162 25.1911 12.8551 25.1911C13.3239 25.1911 13.7393 25.1101 14.1016 24.9482C14.4638 24.782 14.7472 24.5518 14.9517 24.2578C15.1563 23.9638 15.2564 23.625 15.2521 23.2415C15.2564 22.8452 15.1541 22.4957 14.9453 22.1932C14.7365 21.8906 14.4339 21.6541 14.0376 21.4837C13.6456 21.3132 13.1726 21.228 12.6186 21.228H11.4616V19.3999H12.6186C13.0746 19.3999 13.473 19.321 13.8139 19.1634C14.1591 19.0057 14.4297 18.7841 14.6257 18.4986C14.8217 18.2088 14.9176 17.8743 14.9134 17.495C14.9176 17.1243 14.8345 16.8026 14.6641 16.5298C14.4979 16.2528 14.2614 16.0376 13.9545 15.8842C13.652 15.7308 13.2962 15.6541 12.8871 15.6541C12.4865 15.6541 12.1158 15.7266 11.7749 15.8714C11.4339 16.0163 11.1591 16.223 10.9503 16.4915C10.7415 16.7557 10.6307 17.071 10.6179 17.4375H8.33594C8.35298 16.7045 8.56392 16.0611 8.96875 15.5071C9.37784 14.9489 9.9233 14.5142 10.6051 14.2031C11.2869 13.8878 12.0518 13.7301 12.8999 13.7301C13.7734 13.7301 14.532 13.8942 15.1754 14.2223C15.8232 14.5462 16.3239 14.983 16.6776 15.5327C17.0313 16.0824 17.2081 16.6896 17.2081 17.3544C17.2124 18.0916 16.995 18.7095 16.5561 19.2081C16.1214 19.7067 15.5504 20.0327 14.843 20.1861V20.2884C15.7635 20.4162 16.4688 20.7571 16.9588 21.3111C17.4531 21.8608 17.6982 22.5447 17.6939 23.3629C17.6939 24.0959 17.4851 24.7521 17.0675 25.3317C16.6541 25.907 16.0831 26.3587 15.3544 26.6868C14.63 27.0149 13.799 27.179 12.8615 27.179ZM24.4519 27H20.0158V13.9091H24.5414C25.8411 13.9091 26.9576 14.1712 27.8908 14.6953C28.8283 15.2152 29.5485 15.9631 30.0513 16.9389C30.5542 17.9148 30.8056 19.0824 30.8056 20.4418C30.8056 21.8054 30.552 22.9773 30.0449 23.9574C29.5421 24.9375 28.8155 25.6896 27.8652 26.2138C26.9192 26.7379 25.7814 27 24.4519 27ZM22.3873 24.9482H24.3368C25.2488 24.9482 26.0094 24.782 26.6188 24.4496C27.2282 24.1129 27.6863 23.6122 27.9931 22.9474C28.2999 22.2784 28.4533 21.4432 28.4533 20.4418C28.4533 19.4403 28.2999 18.6094 27.9931 17.9489C27.6863 17.2841 27.2324 16.7876 26.6316 16.4595C26.035 16.1271 25.2935 15.9609 24.4071 15.9609H22.3873V24.9482Z" fill="white"/>
</svg>
